G04 EAGLE Gerber RS-274X export*
G75*
%MOMM*%
%FSLAX34Y34*%
%LPD*%
%INTraces*%
%IPPOS*%
%AMOC8*
5,1,8,0,0,1.08239X$1,22.5*%
G01*
%ADD10C,0.152400*%
%ADD11P,1.429621X8X202.500000*%
%ADD12P,1.429621X8X22.500000*%
%ADD13C,2.000000*%
%ADD14C,1.270000*%

G36*
X357198Y10164D02*
X357198Y10164D01*
X357217Y10162D01*
X357319Y10184D01*
X357421Y10200D01*
X357438Y10210D01*
X357458Y10214D01*
X357547Y10267D01*
X357638Y10316D01*
X357652Y10330D01*
X357669Y10340D01*
X357736Y10419D01*
X357808Y10494D01*
X357816Y10512D01*
X357829Y10527D01*
X357868Y10623D01*
X357911Y10717D01*
X357913Y10737D01*
X357921Y10755D01*
X357939Y10922D01*
X357939Y227078D01*
X357936Y227098D01*
X357938Y227117D01*
X357916Y227219D01*
X357900Y227321D01*
X357890Y227338D01*
X357886Y227358D01*
X357833Y227447D01*
X357784Y227538D01*
X357770Y227552D01*
X357760Y227569D01*
X357681Y227636D01*
X357606Y227708D01*
X357588Y227716D01*
X357573Y227729D01*
X357477Y227768D01*
X357383Y227811D01*
X357363Y227813D01*
X357345Y227821D01*
X357178Y227839D01*
X296764Y227839D01*
X296668Y227824D01*
X296571Y227814D01*
X296547Y227804D01*
X296521Y227800D01*
X296435Y227754D01*
X296346Y227714D01*
X296327Y227697D01*
X296304Y227684D01*
X296237Y227614D01*
X296165Y227548D01*
X296153Y227525D01*
X296134Y227506D01*
X296093Y227418D01*
X296047Y227332D01*
X296042Y227307D01*
X296031Y227283D01*
X296020Y227186D01*
X296003Y227090D01*
X296007Y227064D01*
X296004Y227039D01*
X296024Y226943D01*
X296039Y226847D01*
X296050Y226824D01*
X296056Y226798D01*
X296106Y226715D01*
X296150Y226628D01*
X296169Y226609D01*
X296182Y226587D01*
X296256Y226524D01*
X296326Y226456D01*
X296354Y226440D01*
X296369Y226427D01*
X296400Y226415D01*
X296473Y226375D01*
X298530Y225523D01*
X339823Y184230D01*
X341551Y180058D01*
X341551Y157776D01*
X341565Y157686D01*
X341573Y157595D01*
X341585Y157565D01*
X341590Y157533D01*
X341633Y157453D01*
X341669Y157369D01*
X341695Y157337D01*
X341706Y157316D01*
X341729Y157294D01*
X341774Y157238D01*
X341805Y157207D01*
X341805Y147593D01*
X341774Y147562D01*
X341721Y147488D01*
X341661Y147419D01*
X341649Y147389D01*
X341630Y147362D01*
X341603Y147275D01*
X341569Y147191D01*
X341565Y147150D01*
X341558Y147127D01*
X341559Y147095D01*
X341551Y147024D01*
X341551Y132376D01*
X341565Y132286D01*
X341573Y132195D01*
X341585Y132165D01*
X341590Y132133D01*
X341633Y132053D01*
X341669Y131969D01*
X341695Y131937D01*
X341706Y131916D01*
X341729Y131894D01*
X341774Y131838D01*
X341805Y131807D01*
X341805Y122193D01*
X341774Y122162D01*
X341721Y122088D01*
X341661Y122019D01*
X341649Y121989D01*
X341630Y121962D01*
X341603Y121875D01*
X341569Y121791D01*
X341565Y121750D01*
X341558Y121727D01*
X341559Y121695D01*
X341551Y121624D01*
X341551Y106976D01*
X341565Y106886D01*
X341573Y106795D01*
X341585Y106765D01*
X341590Y106733D01*
X341633Y106653D01*
X341669Y106569D01*
X341695Y106537D01*
X341706Y106516D01*
X341729Y106494D01*
X341774Y106438D01*
X341805Y106407D01*
X341805Y96793D01*
X335007Y89995D01*
X325393Y89995D01*
X318595Y96793D01*
X318595Y106407D01*
X318626Y106438D01*
X318679Y106512D01*
X318739Y106581D01*
X318751Y106611D01*
X318770Y106638D01*
X318797Y106725D01*
X318831Y106809D01*
X318835Y106850D01*
X318842Y106873D01*
X318841Y106905D01*
X318849Y106976D01*
X318849Y121624D01*
X318835Y121714D01*
X318827Y121805D01*
X318815Y121835D01*
X318810Y121867D01*
X318767Y121947D01*
X318731Y122031D01*
X318705Y122063D01*
X318694Y122084D01*
X318671Y122106D01*
X318626Y122162D01*
X318595Y122193D01*
X318595Y131807D01*
X318626Y131838D01*
X318679Y131912D01*
X318739Y131981D01*
X318751Y132011D01*
X318770Y132038D01*
X318797Y132125D01*
X318831Y132209D01*
X318835Y132250D01*
X318842Y132273D01*
X318841Y132305D01*
X318849Y132376D01*
X318849Y147024D01*
X318835Y147114D01*
X318827Y147205D01*
X318815Y147235D01*
X318810Y147267D01*
X318767Y147347D01*
X318731Y147431D01*
X318705Y147463D01*
X318694Y147484D01*
X318671Y147506D01*
X318626Y147562D01*
X318595Y147593D01*
X318595Y157207D01*
X318626Y157238D01*
X318679Y157312D01*
X318739Y157381D01*
X318751Y157411D01*
X318770Y157438D01*
X318797Y157525D01*
X318831Y157609D01*
X318835Y157650D01*
X318842Y157673D01*
X318841Y157705D01*
X318849Y157776D01*
X318849Y172783D01*
X318835Y172873D01*
X318827Y172964D01*
X318815Y172994D01*
X318810Y173026D01*
X318767Y173106D01*
X318731Y173190D01*
X318705Y173222D01*
X318694Y173243D01*
X318671Y173265D01*
X318626Y173321D01*
X287621Y204326D01*
X287547Y204379D01*
X287478Y204439D01*
X287448Y204451D01*
X287422Y204470D01*
X287335Y204497D01*
X287250Y204531D01*
X287209Y204535D01*
X287187Y204542D01*
X287154Y204541D01*
X287083Y204549D01*
X131978Y204549D01*
X131888Y204535D01*
X131797Y204527D01*
X131767Y204515D01*
X131735Y204510D01*
X131654Y204467D01*
X131571Y204431D01*
X131538Y204405D01*
X131518Y204394D01*
X131496Y204371D01*
X131440Y204326D01*
X78474Y151360D01*
X78421Y151286D01*
X78361Y151217D01*
X78349Y151187D01*
X78330Y151161D01*
X78303Y151074D01*
X78269Y150989D01*
X78265Y150948D01*
X78258Y150926D01*
X78259Y150893D01*
X78251Y150822D01*
X78251Y149205D01*
X75967Y143692D01*
X71747Y139472D01*
X66234Y137188D01*
X60266Y137188D01*
X54753Y139472D01*
X50533Y143692D01*
X48249Y149205D01*
X48249Y155173D01*
X50533Y160686D01*
X54753Y164906D01*
X60266Y167190D01*
X61883Y167190D01*
X61973Y167204D01*
X62064Y167212D01*
X62094Y167224D01*
X62126Y167229D01*
X62207Y167272D01*
X62290Y167308D01*
X62323Y167334D01*
X62343Y167345D01*
X62365Y167368D01*
X62421Y167413D01*
X117231Y222223D01*
X120531Y225523D01*
X122588Y226375D01*
X122671Y226426D01*
X122757Y226472D01*
X122775Y226490D01*
X122797Y226504D01*
X122860Y226580D01*
X122927Y226650D01*
X122938Y226674D01*
X122954Y226694D01*
X122989Y226785D01*
X123030Y226873D01*
X123033Y226899D01*
X123042Y226923D01*
X123047Y227021D01*
X123057Y227117D01*
X123052Y227143D01*
X123053Y227169D01*
X123026Y227263D01*
X123005Y227358D01*
X122992Y227380D01*
X122984Y227405D01*
X122929Y227485D01*
X122879Y227569D01*
X122859Y227586D01*
X122844Y227607D01*
X122766Y227666D01*
X122692Y227729D01*
X122668Y227739D01*
X122647Y227754D01*
X122554Y227784D01*
X122464Y227821D01*
X122431Y227824D01*
X122413Y227830D01*
X122380Y227830D01*
X122297Y227839D01*
X10922Y227839D01*
X10902Y227836D01*
X10883Y227838D01*
X10781Y227816D01*
X10679Y227800D01*
X10662Y227790D01*
X10642Y227786D01*
X10553Y227733D01*
X10462Y227684D01*
X10448Y227670D01*
X10431Y227660D01*
X10364Y227581D01*
X10292Y227506D01*
X10284Y227488D01*
X10271Y227473D01*
X10232Y227377D01*
X10189Y227283D01*
X10187Y227263D01*
X10179Y227245D01*
X10161Y227078D01*
X10161Y10922D01*
X10164Y10902D01*
X10162Y10883D01*
X10184Y10781D01*
X10200Y10679D01*
X10210Y10662D01*
X10214Y10642D01*
X10267Y10553D01*
X10316Y10462D01*
X10330Y10448D01*
X10340Y10431D01*
X10419Y10364D01*
X10494Y10292D01*
X10512Y10284D01*
X10527Y10271D01*
X10623Y10232D01*
X10717Y10189D01*
X10737Y10187D01*
X10755Y10179D01*
X10922Y10161D01*
X357178Y10161D01*
X357198Y10164D01*
G37*
%LPC*%
G36*
X185693Y26495D02*
X185693Y26495D01*
X178895Y33293D01*
X178895Y42907D01*
X185693Y49705D01*
X185737Y49705D01*
X185827Y49719D01*
X185918Y49727D01*
X185948Y49739D01*
X185980Y49744D01*
X186060Y49787D01*
X186144Y49823D01*
X186176Y49849D01*
X186197Y49860D01*
X186219Y49883D01*
X186275Y49928D01*
X209470Y73123D01*
X213642Y74851D01*
X223583Y74851D01*
X223673Y74865D01*
X223764Y74873D01*
X223794Y74885D01*
X223826Y74890D01*
X223906Y74933D01*
X223990Y74969D01*
X224022Y74995D01*
X224043Y75006D01*
X224058Y75021D01*
X224059Y75022D01*
X224069Y75032D01*
X224121Y75074D01*
X242426Y93379D01*
X242471Y93441D01*
X242499Y93470D01*
X242504Y93481D01*
X242539Y93522D01*
X242551Y93552D01*
X242570Y93578D01*
X242597Y93665D01*
X242631Y93750D01*
X242635Y93791D01*
X242642Y93813D01*
X242641Y93846D01*
X242649Y93917D01*
X242649Y96224D01*
X242635Y96314D01*
X242627Y96405D01*
X242615Y96435D01*
X242610Y96467D01*
X242567Y96547D01*
X242531Y96631D01*
X242505Y96663D01*
X242494Y96684D01*
X242471Y96706D01*
X242426Y96762D01*
X242395Y96793D01*
X242395Y106407D01*
X249193Y113205D01*
X258807Y113205D01*
X265605Y106407D01*
X265605Y96793D01*
X265574Y96762D01*
X265521Y96688D01*
X265461Y96619D01*
X265449Y96589D01*
X265430Y96562D01*
X265403Y96475D01*
X265369Y96391D01*
X265365Y96350D01*
X265358Y96327D01*
X265359Y96295D01*
X265351Y96224D01*
X265351Y86642D01*
X263623Y82470D01*
X235030Y53877D01*
X230858Y52149D01*
X220917Y52149D01*
X220827Y52135D01*
X220736Y52127D01*
X220706Y52115D01*
X220674Y52110D01*
X220594Y52067D01*
X220510Y52031D01*
X220478Y52005D01*
X220457Y51994D01*
X220435Y51971D01*
X220379Y51926D01*
X202328Y33875D01*
X202275Y33801D01*
X202215Y33732D01*
X202203Y33702D01*
X202184Y33676D01*
X202157Y33589D01*
X202123Y33504D01*
X202119Y33463D01*
X202112Y33441D01*
X202113Y33408D01*
X202105Y33337D01*
X202105Y33293D01*
X195307Y26495D01*
X185693Y26495D01*
G37*
%LPD*%
%LPC*%
G36*
X249193Y140795D02*
X249193Y140795D01*
X242395Y147593D01*
X242395Y147637D01*
X242381Y147727D01*
X242373Y147818D01*
X242361Y147848D01*
X242356Y147880D01*
X242313Y147961D01*
X242277Y148044D01*
X242251Y148077D01*
X242240Y148097D01*
X242217Y148119D01*
X242172Y148175D01*
X211421Y178926D01*
X211347Y178979D01*
X211278Y179039D01*
X211248Y179051D01*
X211222Y179070D01*
X211135Y179097D01*
X211050Y179131D01*
X211009Y179135D01*
X210987Y179142D01*
X210954Y179141D01*
X210883Y179149D01*
X195876Y179149D01*
X195786Y179135D01*
X195695Y179127D01*
X195665Y179115D01*
X195633Y179110D01*
X195553Y179067D01*
X195469Y179031D01*
X195437Y179005D01*
X195416Y178994D01*
X195394Y178971D01*
X195338Y178926D01*
X195307Y178895D01*
X185693Y178895D01*
X178895Y185693D01*
X178895Y195307D01*
X185693Y202105D01*
X195307Y202105D01*
X195338Y202074D01*
X195412Y202021D01*
X195481Y201961D01*
X195511Y201949D01*
X195538Y201930D01*
X195625Y201903D01*
X195709Y201869D01*
X195750Y201865D01*
X195773Y201858D01*
X195805Y201859D01*
X195876Y201851D01*
X218158Y201851D01*
X222330Y200123D01*
X258225Y164228D01*
X258299Y164175D01*
X258368Y164115D01*
X258398Y164103D01*
X258424Y164084D01*
X258511Y164057D01*
X258596Y164023D01*
X258637Y164019D01*
X258659Y164012D01*
X258692Y164013D01*
X258763Y164005D01*
X258807Y164005D01*
X265605Y157207D01*
X265605Y147593D01*
X258807Y140795D01*
X249193Y140795D01*
G37*
%LPD*%
%LPC*%
G36*
X185693Y102695D02*
X185693Y102695D01*
X178895Y109493D01*
X178895Y119107D01*
X185693Y125905D01*
X195307Y125905D01*
X195338Y125874D01*
X195412Y125821D01*
X195481Y125761D01*
X195511Y125749D01*
X195538Y125730D01*
X195625Y125703D01*
X195709Y125669D01*
X195750Y125665D01*
X195773Y125658D01*
X195805Y125659D01*
X195876Y125651D01*
X210883Y125651D01*
X210973Y125665D01*
X211064Y125673D01*
X211094Y125685D01*
X211126Y125690D01*
X211206Y125733D01*
X211290Y125769D01*
X211322Y125795D01*
X211343Y125806D01*
X211365Y125829D01*
X211421Y125874D01*
X222170Y136623D01*
X226342Y138351D01*
X248624Y138351D01*
X248714Y138365D01*
X248805Y138373D01*
X248835Y138385D01*
X248867Y138390D01*
X248947Y138433D01*
X249031Y138469D01*
X249063Y138495D01*
X249084Y138506D01*
X249106Y138529D01*
X249162Y138574D01*
X249193Y138605D01*
X258807Y138605D01*
X265605Y131807D01*
X265605Y122193D01*
X258807Y115395D01*
X249193Y115395D01*
X249162Y115426D01*
X249088Y115479D01*
X249019Y115539D01*
X248989Y115551D01*
X248962Y115570D01*
X248875Y115597D01*
X248791Y115631D01*
X248750Y115635D01*
X248727Y115642D01*
X248695Y115641D01*
X248624Y115649D01*
X233617Y115649D01*
X233527Y115635D01*
X233436Y115627D01*
X233406Y115615D01*
X233374Y115610D01*
X233294Y115567D01*
X233210Y115531D01*
X233178Y115505D01*
X233157Y115494D01*
X233135Y115471D01*
X233079Y115426D01*
X222330Y104677D01*
X218158Y102949D01*
X195876Y102949D01*
X195786Y102935D01*
X195695Y102927D01*
X195665Y102915D01*
X195633Y102910D01*
X195553Y102867D01*
X195469Y102831D01*
X195437Y102805D01*
X195416Y102794D01*
X195394Y102771D01*
X195338Y102726D01*
X195307Y102695D01*
X185693Y102695D01*
G37*
%LPD*%
%LPC*%
G36*
X326296Y16829D02*
X326296Y16829D01*
X324209Y17778D01*
X322644Y19453D01*
X322446Y19980D01*
X322430Y20009D01*
X322420Y20041D01*
X322369Y20115D01*
X322324Y20194D01*
X322299Y20215D01*
X322280Y20243D01*
X322207Y20297D01*
X322139Y20357D01*
X322109Y20370D01*
X322083Y20389D01*
X321996Y20417D01*
X321913Y20453D01*
X321880Y20455D01*
X321849Y20465D01*
X321758Y20465D01*
X321668Y20472D01*
X321636Y20463D01*
X321603Y20463D01*
X321442Y20416D01*
X321401Y20399D01*
X312324Y20399D01*
X309042Y22294D01*
X309001Y22309D01*
X308964Y22333D01*
X308887Y22352D01*
X308812Y22381D01*
X308768Y22382D01*
X308726Y22393D01*
X308646Y22387D01*
X308566Y22390D01*
X308524Y22377D01*
X308481Y22374D01*
X308407Y22343D01*
X308331Y22320D01*
X308295Y22295D01*
X308254Y22277D01*
X308141Y22186D01*
X308129Y22178D01*
X308127Y22176D01*
X308123Y22173D01*
X307227Y21277D01*
X305109Y20399D01*
X302817Y20399D01*
X301545Y20926D01*
X301456Y20947D01*
X301369Y20975D01*
X301337Y20975D01*
X301306Y20982D01*
X301215Y20974D01*
X301123Y20973D01*
X301084Y20961D01*
X301061Y20959D01*
X301031Y20946D01*
X300962Y20926D01*
X299691Y20399D01*
X297398Y20399D01*
X296126Y20926D01*
X296038Y20947D01*
X295951Y20975D01*
X295918Y20975D01*
X295887Y20982D01*
X295796Y20974D01*
X295705Y20973D01*
X295665Y20961D01*
X295642Y20959D01*
X295613Y20946D01*
X295544Y20926D01*
X294272Y20399D01*
X291979Y20399D01*
X289861Y21277D01*
X289704Y21434D01*
X289688Y21446D01*
X289675Y21461D01*
X289588Y21517D01*
X289504Y21578D01*
X289485Y21583D01*
X289468Y21594D01*
X289368Y21620D01*
X289269Y21650D01*
X289249Y21649D01*
X289230Y21654D01*
X289127Y21646D01*
X289023Y21644D01*
X289005Y21637D01*
X288985Y21635D01*
X288890Y21595D01*
X288792Y21559D01*
X288777Y21547D01*
X288758Y21539D01*
X288627Y21434D01*
X288470Y21277D01*
X286352Y20399D01*
X284059Y20399D01*
X282788Y20926D01*
X282699Y20947D01*
X282612Y20975D01*
X282579Y20975D01*
X282548Y20982D01*
X282457Y20974D01*
X282366Y20973D01*
X282326Y20961D01*
X282303Y20959D01*
X282274Y20946D01*
X282205Y20926D01*
X280933Y20399D01*
X278641Y20399D01*
X277369Y20926D01*
X277280Y20947D01*
X277193Y20975D01*
X277161Y20975D01*
X277129Y20982D01*
X277039Y20974D01*
X276947Y20973D01*
X276908Y20961D01*
X276885Y20959D01*
X276855Y20946D01*
X276786Y20926D01*
X275514Y20399D01*
X273222Y20399D01*
X271104Y21277D01*
X269483Y22898D01*
X268605Y25016D01*
X268605Y36560D01*
X270876Y40492D01*
X274807Y42762D01*
X286352Y42762D01*
X288470Y41885D01*
X289366Y40989D01*
X289401Y40963D01*
X289431Y40931D01*
X289500Y40892D01*
X289565Y40845D01*
X289607Y40833D01*
X289645Y40811D01*
X289724Y40797D01*
X289800Y40773D01*
X289844Y40774D01*
X289887Y40766D01*
X289966Y40777D01*
X290046Y40779D01*
X290087Y40795D01*
X290131Y40801D01*
X290264Y40859D01*
X290277Y40864D01*
X290280Y40866D01*
X290284Y40868D01*
X293565Y42762D01*
X304699Y42762D01*
X304719Y42765D01*
X304739Y42763D01*
X304840Y42785D01*
X304942Y42802D01*
X304960Y42811D01*
X304979Y42815D01*
X305068Y42869D01*
X305159Y42917D01*
X305173Y42931D01*
X305190Y42942D01*
X305257Y43020D01*
X305329Y43095D01*
X305337Y43113D01*
X305350Y43128D01*
X305389Y43225D01*
X305432Y43318D01*
X305435Y43338D01*
X305442Y43357D01*
X305460Y43523D01*
X305460Y43564D01*
X306338Y45682D01*
X307959Y47303D01*
X310077Y48181D01*
X321401Y48181D01*
X323519Y47303D01*
X325140Y45682D01*
X326017Y43564D01*
X326017Y37405D01*
X326023Y37368D01*
X326021Y37331D01*
X326043Y37247D01*
X326057Y37162D01*
X326074Y37129D01*
X326084Y37093D01*
X326132Y37021D01*
X326172Y36945D01*
X326199Y36919D01*
X326220Y36888D01*
X326288Y36835D01*
X326350Y36776D01*
X326384Y36760D01*
X326414Y36737D01*
X326495Y36708D01*
X326573Y36672D01*
X326610Y36668D01*
X326646Y36655D01*
X326732Y36654D01*
X326818Y36645D01*
X326854Y36653D01*
X326892Y36652D01*
X326974Y36679D01*
X327058Y36697D01*
X327090Y36716D01*
X327126Y36728D01*
X327195Y36779D01*
X327269Y36823D01*
X327294Y36852D01*
X327324Y36874D01*
X327373Y36945D01*
X327429Y37010D01*
X327443Y37045D01*
X327465Y37076D01*
X327520Y37234D01*
X328325Y40724D01*
X329105Y42323D01*
X329114Y42353D01*
X329141Y42410D01*
X329630Y43836D01*
X332216Y46646D01*
X335713Y48181D01*
X339532Y48181D01*
X343029Y46646D01*
X345615Y43836D01*
X346104Y42410D01*
X346118Y42383D01*
X346140Y42323D01*
X346919Y40724D01*
X347901Y36472D01*
X347901Y32108D01*
X346919Y27856D01*
X346140Y26257D01*
X346131Y26227D01*
X346104Y26170D01*
X345615Y24744D01*
X343029Y21934D01*
X339532Y20399D01*
X335713Y20399D01*
X334131Y21094D01*
X334116Y21097D01*
X334103Y21105D01*
X333998Y21128D01*
X333892Y21155D01*
X333877Y21154D01*
X333863Y21157D01*
X333755Y21145D01*
X333647Y21137D01*
X333633Y21131D01*
X333619Y21129D01*
X333520Y21083D01*
X333420Y21041D01*
X333409Y21032D01*
X333396Y21025D01*
X333317Y20950D01*
X333236Y20879D01*
X333228Y20866D01*
X333218Y20856D01*
X333132Y20711D01*
X332409Y19121D01*
X330734Y17556D01*
X328587Y16751D01*
X326296Y16829D01*
G37*
%LPD*%
D10*
X342138Y34290D02*
X342134Y34610D01*
X342123Y34929D01*
X342104Y35249D01*
X342077Y35567D01*
X342043Y35885D01*
X342001Y36202D01*
X341951Y36518D01*
X341894Y36833D01*
X341830Y37146D01*
X341758Y37458D01*
X341679Y37768D01*
X341592Y38075D01*
X341498Y38381D01*
X341397Y38684D01*
X341288Y38985D01*
X341173Y39283D01*
X341050Y39579D01*
X340920Y39871D01*
X340783Y40160D01*
X340783Y40161D02*
X340744Y40269D01*
X340701Y40376D01*
X340655Y40481D01*
X340604Y40585D01*
X340551Y40687D01*
X340494Y40787D01*
X340433Y40885D01*
X340369Y40980D01*
X340302Y41074D01*
X340231Y41165D01*
X340158Y41254D01*
X340081Y41340D01*
X340002Y41423D01*
X339920Y41504D01*
X339835Y41582D01*
X339747Y41656D01*
X339657Y41728D01*
X339565Y41796D01*
X339470Y41862D01*
X339373Y41924D01*
X339274Y41982D01*
X339172Y42038D01*
X339070Y42089D01*
X338965Y42137D01*
X338859Y42182D01*
X338751Y42223D01*
X338642Y42260D01*
X338532Y42293D01*
X338420Y42322D01*
X338308Y42348D01*
X338195Y42370D01*
X338081Y42387D01*
X337967Y42401D01*
X337852Y42411D01*
X337737Y42417D01*
X337622Y42419D01*
X337622Y42418D02*
X337507Y42416D01*
X337392Y42410D01*
X337277Y42400D01*
X337163Y42386D01*
X337049Y42369D01*
X336936Y42347D01*
X336824Y42321D01*
X336712Y42292D01*
X336602Y42259D01*
X336493Y42222D01*
X336385Y42181D01*
X336279Y42136D01*
X336175Y42088D01*
X336072Y42037D01*
X335971Y41981D01*
X335871Y41923D01*
X335774Y41861D01*
X335680Y41796D01*
X335587Y41727D01*
X335497Y41655D01*
X335409Y41581D01*
X335324Y41503D01*
X335242Y41422D01*
X335163Y41339D01*
X335086Y41253D01*
X335013Y41164D01*
X334942Y41073D01*
X334875Y40979D01*
X334811Y40884D01*
X334750Y40786D01*
X334693Y40686D01*
X334640Y40584D01*
X334589Y40480D01*
X334543Y40375D01*
X334500Y40268D01*
X334461Y40160D01*
X334462Y40160D02*
X334325Y39871D01*
X334195Y39579D01*
X334072Y39283D01*
X333957Y38985D01*
X333848Y38684D01*
X333747Y38381D01*
X333653Y38075D01*
X333566Y37768D01*
X333487Y37458D01*
X333415Y37146D01*
X333351Y36833D01*
X333294Y36518D01*
X333244Y36202D01*
X333202Y35885D01*
X333168Y35567D01*
X333141Y35249D01*
X333122Y34929D01*
X333111Y34610D01*
X333107Y34290D01*
X342138Y34290D02*
X342134Y33970D01*
X342123Y33651D01*
X342104Y33331D01*
X342077Y33013D01*
X342043Y32695D01*
X342001Y32378D01*
X341951Y32062D01*
X341894Y31747D01*
X341830Y31434D01*
X341758Y31122D01*
X341679Y30812D01*
X341592Y30505D01*
X341498Y30199D01*
X341397Y29896D01*
X341288Y29595D01*
X341173Y29297D01*
X341050Y29001D01*
X340920Y28709D01*
X340783Y28420D01*
X340744Y28312D01*
X340701Y28205D01*
X340655Y28100D01*
X340604Y27996D01*
X340551Y27894D01*
X340494Y27794D01*
X340433Y27696D01*
X340369Y27601D01*
X340302Y27507D01*
X340231Y27416D01*
X340158Y27327D01*
X340081Y27241D01*
X340002Y27158D01*
X339920Y27077D01*
X339835Y26999D01*
X339747Y26925D01*
X339657Y26853D01*
X339564Y26784D01*
X339470Y26719D01*
X339373Y26657D01*
X339273Y26599D01*
X339172Y26543D01*
X339070Y26492D01*
X338965Y26444D01*
X338859Y26399D01*
X338751Y26358D01*
X338642Y26321D01*
X338532Y26288D01*
X338420Y26259D01*
X338308Y26233D01*
X338195Y26211D01*
X338081Y26194D01*
X337967Y26180D01*
X337852Y26170D01*
X337737Y26164D01*
X337622Y26162D01*
X334462Y28420D02*
X334325Y28709D01*
X334195Y29001D01*
X334072Y29297D01*
X333957Y29595D01*
X333848Y29896D01*
X333747Y30199D01*
X333653Y30505D01*
X333566Y30812D01*
X333487Y31122D01*
X333415Y31434D01*
X333351Y31747D01*
X333294Y32062D01*
X333244Y32378D01*
X333202Y32695D01*
X333168Y33013D01*
X333141Y33331D01*
X333122Y33651D01*
X333111Y33970D01*
X333107Y34290D01*
X334461Y28420D02*
X334500Y28312D01*
X334543Y28205D01*
X334589Y28100D01*
X334640Y27996D01*
X334693Y27894D01*
X334751Y27794D01*
X334811Y27696D01*
X334875Y27601D01*
X334942Y27507D01*
X335013Y27416D01*
X335086Y27327D01*
X335163Y27241D01*
X335242Y27158D01*
X335324Y27077D01*
X335409Y26999D01*
X335497Y26925D01*
X335587Y26853D01*
X335680Y26784D01*
X335774Y26719D01*
X335871Y26657D01*
X335971Y26599D01*
X336072Y26543D01*
X336175Y26492D01*
X336279Y26444D01*
X336385Y26399D01*
X336493Y26358D01*
X336602Y26321D01*
X336712Y26288D01*
X336824Y26259D01*
X336936Y26233D01*
X337049Y26211D01*
X337163Y26194D01*
X337277Y26180D01*
X337392Y26170D01*
X337507Y26164D01*
X337622Y26162D01*
X341235Y29774D02*
X334010Y38806D01*
X327186Y26162D02*
X326282Y26162D01*
X327186Y26162D02*
X327186Y27065D01*
X326282Y27065D01*
X326282Y26162D01*
X327637Y22550D01*
X320254Y26162D02*
X314836Y26162D01*
X314718Y26164D01*
X314600Y26170D01*
X314482Y26179D01*
X314365Y26193D01*
X314248Y26210D01*
X314131Y26231D01*
X314016Y26256D01*
X313901Y26285D01*
X313787Y26318D01*
X313675Y26354D01*
X313564Y26394D01*
X313454Y26437D01*
X313345Y26484D01*
X313238Y26534D01*
X313133Y26589D01*
X313030Y26646D01*
X312929Y26707D01*
X312829Y26771D01*
X312732Y26838D01*
X312637Y26908D01*
X312545Y26982D01*
X312454Y27058D01*
X312367Y27138D01*
X312282Y27220D01*
X312200Y27305D01*
X312120Y27392D01*
X312044Y27483D01*
X311970Y27575D01*
X311900Y27670D01*
X311833Y27767D01*
X311769Y27867D01*
X311708Y27968D01*
X311651Y28071D01*
X311596Y28176D01*
X311546Y28283D01*
X311499Y28392D01*
X311456Y28502D01*
X311416Y28613D01*
X311380Y28725D01*
X311347Y28839D01*
X311318Y28954D01*
X311293Y29069D01*
X311272Y29186D01*
X311255Y29303D01*
X311241Y29420D01*
X311232Y29538D01*
X311226Y29656D01*
X311224Y29774D01*
X311223Y29774D02*
X311223Y31581D01*
X311224Y31581D02*
X311226Y31699D01*
X311232Y31817D01*
X311241Y31935D01*
X311255Y32052D01*
X311272Y32169D01*
X311293Y32286D01*
X311318Y32401D01*
X311347Y32516D01*
X311380Y32630D01*
X311416Y32742D01*
X311456Y32853D01*
X311499Y32963D01*
X311546Y33072D01*
X311596Y33179D01*
X311651Y33284D01*
X311708Y33387D01*
X311769Y33488D01*
X311833Y33588D01*
X311900Y33685D01*
X311970Y33780D01*
X312044Y33872D01*
X312120Y33963D01*
X312200Y34050D01*
X312282Y34135D01*
X312367Y34217D01*
X312454Y34297D01*
X312545Y34373D01*
X312637Y34447D01*
X312732Y34517D01*
X312829Y34584D01*
X312929Y34648D01*
X313030Y34709D01*
X313133Y34766D01*
X313238Y34821D01*
X313345Y34871D01*
X313454Y34918D01*
X313564Y34961D01*
X313675Y35001D01*
X313787Y35037D01*
X313901Y35070D01*
X314016Y35099D01*
X314131Y35124D01*
X314248Y35145D01*
X314365Y35162D01*
X314482Y35176D01*
X314600Y35185D01*
X314718Y35191D01*
X314836Y35193D01*
X320254Y35193D01*
X320254Y42418D01*
X311223Y42418D01*
X303963Y36999D02*
X303963Y26162D01*
X303963Y36999D02*
X295835Y36999D01*
X295734Y36997D01*
X295633Y36991D01*
X295532Y36982D01*
X295431Y36969D01*
X295331Y36952D01*
X295232Y36931D01*
X295134Y36907D01*
X295037Y36879D01*
X294940Y36847D01*
X294845Y36812D01*
X294752Y36773D01*
X294660Y36731D01*
X294569Y36685D01*
X294481Y36636D01*
X294394Y36584D01*
X294309Y36528D01*
X294226Y36470D01*
X294146Y36408D01*
X294068Y36343D01*
X293992Y36276D01*
X293919Y36206D01*
X293849Y36133D01*
X293782Y36057D01*
X293717Y35979D01*
X293655Y35899D01*
X293597Y35816D01*
X293541Y35731D01*
X293489Y35645D01*
X293440Y35556D01*
X293394Y35465D01*
X293352Y35373D01*
X293313Y35280D01*
X293278Y35185D01*
X293246Y35088D01*
X293218Y34991D01*
X293194Y34893D01*
X293173Y34794D01*
X293156Y34694D01*
X293143Y34593D01*
X293134Y34492D01*
X293128Y34391D01*
X293126Y34290D01*
X293126Y26162D01*
X298544Y26162D02*
X298544Y36999D01*
X285206Y36999D02*
X285206Y26162D01*
X285206Y36999D02*
X277078Y36999D01*
X276977Y36997D01*
X276876Y36991D01*
X276775Y36982D01*
X276674Y36969D01*
X276574Y36952D01*
X276475Y36931D01*
X276377Y36907D01*
X276280Y36879D01*
X276183Y36847D01*
X276088Y36812D01*
X275995Y36773D01*
X275903Y36731D01*
X275812Y36685D01*
X275724Y36636D01*
X275637Y36584D01*
X275552Y36528D01*
X275469Y36470D01*
X275389Y36408D01*
X275311Y36343D01*
X275235Y36276D01*
X275162Y36206D01*
X275092Y36133D01*
X275025Y36057D01*
X274960Y35979D01*
X274898Y35899D01*
X274840Y35816D01*
X274784Y35731D01*
X274732Y35645D01*
X274683Y35556D01*
X274637Y35465D01*
X274595Y35373D01*
X274556Y35280D01*
X274521Y35185D01*
X274489Y35088D01*
X274461Y34991D01*
X274437Y34893D01*
X274416Y34794D01*
X274399Y34694D01*
X274386Y34593D01*
X274377Y34492D01*
X274371Y34391D01*
X274369Y34290D01*
X274368Y34290D02*
X274368Y26162D01*
X279787Y26162D02*
X279787Y36999D01*
D11*
X190500Y38100D03*
X165100Y38100D03*
X190500Y114300D03*
X165100Y114300D03*
X190500Y190500D03*
X165100Y190500D03*
D12*
X254000Y101600D03*
X330200Y101600D03*
X254000Y127000D03*
X330200Y127000D03*
X254000Y152400D03*
X330200Y152400D03*
D13*
X63250Y101389D03*
X63250Y152189D03*
D14*
X190500Y38100D02*
X215900Y63500D01*
X228600Y63500D01*
X254000Y88900D01*
X254000Y101600D01*
X330200Y127000D02*
X330200Y152400D01*
X330200Y127000D02*
X330200Y101600D01*
X330200Y177800D02*
X292100Y215900D01*
X330200Y177800D02*
X330200Y152400D01*
X126961Y215900D02*
X63250Y152189D01*
X126961Y215900D02*
X292100Y215900D01*
X215900Y114300D02*
X190500Y114300D01*
X215900Y114300D02*
X228600Y127000D01*
X254000Y127000D01*
X215900Y190500D02*
X190500Y190500D01*
X215900Y190500D02*
X254000Y152400D01*
M02*
