0
SECTION
2
HEADER
9
$INSUNITS
70
4
9
$ACADVER
1
AC1014
9
$HANDSEED
5
FFFF
0
ENDSEC
0
SECTION
2
TABLES
0
TABLE
2
VPORT
5
8
100
AcDbSymbolTable
0
ENDTAB
0
TABLE
2
LTYPE
5
5
100
AcDbSymbolTable
0
LTYPE
5
14
100
AcDbSymbolTableRecord
100
AcDbLinetypeTableRecord
2
BYBLOCK
70
0
0
LTYPE
5
15
100
AcDbSymbolTableRecord
100
AcDbLinetypeTableRecord
2
BYLAYER
70
0
0
ENDTAB
0
TABLE
2
LAYER
5
2
100
AcDbSymbolTable
70
2
0
LAYER
5
50
100
AcDbSymbolTableRecord
100
AcDbLayerTableRecord
2
0
70
0
6
CONTINUOUS
0
ENDTAB
0
TABLE
2
STYLE
5
3
100
AcDbSymbolTable
70
1
0
STYLE
5
11
100
AcDbSymbolTableRecord
100
AcDbTextStyleTableRecord
2
STANDARD
70
0
0
ENDTAB
0
TABLE
2
VIEW
5
6
100
AcDbSymbolTable
70
0
0
ENDTAB
0
TABLE
2
UCS
5
7
100
AcDbSymbolTable
70
0
0
ENDTAB
0
TABLE
2
APPID
5
9
100
AcDbSymbolTable
70
2
0
APPID
5
12
100
AcDbSymbolTableRecord
100
AcDbRegAppTableRecord
2
ACAD
70
0
0
ENDTAB
0
TABLE
2
DIMSTYLE
5
A
100
AcDbSymbolTable
70
1
0
ENDTAB
0
TABLE
2
BLOCK_RECORD
5
1
100
AcDbSymbolTable
70
1
0
BLOCK_RECORD
5
1F
100
AcDbSymbolTableRecord
100
AcDbBlockTableRecord
2
*MODEL_SPACE
0
BLOCK_RECORD
5
1B
100
AcDbSymbolTableRecord
100
AcDbBlockTableRecord
2
*PAPER_SPACE
0
ENDTAB
0
ENDSEC
0
SECTION
2
BLOCKS
0
BLOCK
5
20
100
AcDbEntity
100
AcDbBlockBegin
2
*MODEL_SPACE
0
ENDBLK
5
21
100
AcDbEntity
100
AcDbBlockEnd
0
BLOCK
5
1C
100
AcDbEntity
100
AcDbBlockBegin
2
*PAPER_SPACE
0
ENDBLK
5
1D
100
AcDbEntity
100
AcDbBlockEnd
0
ENDSEC
0
SECTION
2
ENTITIES
0
LWPOLYLINE
5
100
100
AcDbEntity
8
0
100
AcDbPolyline
90
14
70
1
43
0.0
10
-45.666948184011162
20
133.22254560863831
10
-46.607893781515145
20
135.91273544999908
10
-51.327522310838638
20
134.26194577676193
10
-52.250043468288538
20
136.89945962750454
10
-40.922928346785419
20
140.86133582751583
10
-29.885667486171492
20
145.57078087919228
10
-28.791519461358597
20
143.0064878388294
10
-33.423245338816258
20
141.03019509828607
10
-32.304752139043103
20
138.40884564389023
10
-27.673026261585434
20
140.38513838443359
10
-26.35358369741413
20
137.29283523373181
10
-37.667549543012761
20
132.46532402970405
10
-49.278636318280107
20
128.40412328637723
10
-50.386576713334641
20
131.57175593540109
0
LWPOLYLINE
5
101
100
AcDbEntity
8
0
100
AcDbPolyline
90
4
70
1
43
0.0
10
-38.597810199273134
20
136.71574132893792
10
-40.802174876038571
20
135.91341820112748
10
-41.891106618991657
20
138.90523357621851
10
-39.686741942226249
20
139.70755670402897
0
LINE
5
102
100
AcDbEntity
8
0
100
AcDbLine
10
-39.776347498535507
20
134.29162634124378
30
0
11
-41.144428092224175
21
138.05039688039744
31
0
0
LINE
5
103
100
AcDbEntity
8
0
100
AcDbLine
10
-41.144428092224182
20
138.05039688039744
30
0
11
-39.734248210096965
21
138.56366038245278
31
0
0
SPLINE
5
104
100
AcDbEntity
8
0
100
AcDbSpline
70
0
71
2
72
6
73
3
74
0
42
0.000000001
43
0.0000000001
44
0.0000000001
40
0
40
0
40
0
40
1
40
1
40
1
10
-39.734248210096958
20
138.56366038245278
30
0
10
-39.303502400000681
20
138.72043903586268
30
0
10
-39.001732161099532
20
138.70106319639191
30
0
0
SPLINE
5
105
100
AcDbEntity
8
0
100
AcDbSpline
70
0
71
2
72
6
73
3
74
0
42
0.000000001
43
0.0000000001
44
0.0000000001
40
0
40
0
40
0
40
1
40
1
40
1
10
-39.001732161099532
20
138.70106319639191
30
0
10
-38.699962202248614
20
138.6816872549912
30
0
10
-38.466212625456691
20
138.49817995049602
30
0
0
SPLINE
5
106
100
AcDbEntity
8
0
100
AcDbSpline
70
0
71
2
72
6
73
3
74
0
42
0.000000001
43
0.0000000001
44
0.0000000001
40
0
40
0
40
0
40
1
40
1
40
1
10
-38.466212625456691
20
138.49817995049602
30
0
10
-38.232463608765229
20
138.31467244214093
30
0
10
-38.1382098033746
20
138.05571224013252
30
0
0
SPLINE
5
107
100
AcDbEntity
8
0
100
AcDbSpline
70
0
71
2
72
6
73
3
74
0
42
0.000000001
43
0.0000000001
44
0.0000000001
40
0
40
0
40
0
40
1
40
1
40
1
10
-38.1382098033746
20
138.05571224013252
30
0
10
-38.050488382416923
20
137.81469961684883
30
0
10
-38.103793835195859
20
137.55429723747713
30
0
0
SPLINE
5
108
100
AcDbEntity
8
0
100
AcDbSpline
70
0
71
2
72
6
73
3
74
0
42
0.000000001
43
0.0000000001
44
0.0000000001
40
0
40
0
40
0
40
1
40
1
40
1
10
-38.103793835195859
20
137.55429723747713
30
0
10
-38.157099848075241
20
137.29389465424549
30
0
10
-38.373594791804102
20
137.06701213675734
30
0
0
SPLINE
5
109
100
AcDbEntity
8
0
100
AcDbSpline
70
0
71
2
72
6
73
3
74
0
42
0.000000001
43
0.0000000001
44
0.0000000001
40
0
40
0
40
0
40
1
40
1
40
1
10
-38.373594791804102
20
137.06701213675734
30
0
10
-37.99619281291433
20
137.09113438922461
30
0
10
-37.725147612697683
20
136.91684584767467
30
0
0
SPLINE
5
110
100
AcDbEntity
8
0
100
AcDbSpline
70
0
71
2
72
6
73
3
74
0
42
0.000000001
43
0.0000000001
44
0.0000000001
40
0
40
0
40
0
40
1
40
1
40
1
10
-37.725147612697683
20
136.91684584767467
30
0
10
-37.454103176441372
20
136.7425576623653
30
0
10
-37.334652696182417
20
136.4143701651108
30
0
0
SPLINE
5
111
100
AcDbEntity
8
0
100
AcDbSpline
70
0
71
2
72
6
73
3
74
0
42
0.000000001
43
0.0000000001
44
0.0000000001
40
0
40
0
40
0
40
1
40
1
40
1
10
-37.334652696182417
20
136.4143701651108
30
0
10
-37.238532451555258
20
136.15028196344522
30
0
10
-37.267475955244826
20
135.88277685287375
30
0
0
SPLINE
5
112
100
AcDbEntity
8
0
100
AcDbSpline
70
0
71
2
72
6
73
3
74
0
42
0.000000001
43
0.0000000001
44
0.0000000001
40
0
40
0
40
0
40
1
40
1
40
1
10
-37.267475955244826
20
135.88277685287375
30
0
10
-37.296419458934395
20
135.61527174230224
30
0
10
-37.415719277464525
20
135.43247619070235
30
0
0
SPLINE
5
113
100
AcDbEntity
8
0
100
AcDbSpline
70
0
71
2
72
6
73
3
74
0
42
0.000000001
43
0.0000000001
44
0.0000000001
40
0
40
0
40
0
40
1
40
1
40
1
10
-37.415719277464525
20
135.43247619070235
30
0
10
-37.535019095994656
20
135.24968063910245
30
0
10
-37.759578290452133
20
135.09680919800476
30
0
0
SPLINE
5
114
100
AcDbEntity
8
0
100
AcDbSpline
70
0
71
2
72
6
73
3
74
0
42
0.000000001
43
0.0000000001
44
0.0000000001
40
0
40
0
40
0
40
1
40
1
40
1
10
-37.759578290452133
20
135.09680919800476
30
0
10
-37.984137102929438
20
134.9439375787868
30
0
10
-38.343091898001305
20
134.81328871793355
30
0
0
LINE
5
115
100
AcDbEntity
8
0
100
AcDbLine
10
-38.343091898001305
20
134.81328871793355
30
0
11
-39.776347498535507
21
134.29162634124376
31
0
0
LINE
5
116
100
AcDbEntity
8
0
100
AcDbLine
10
-40.072163964361771
20
136.65203714217324
30
0
11
-39.259387570774088
21
136.94786355655336
31
0
0
SPLINE
5
117
100
AcDbEntity
8
0
100
AcDbSpline
70
0
71
2
72
6
73
3
74
0
42
0.000000001
43
0.0000000001
44
0.0000000001
40
0
40
0
40
0
40
1
40
1
40
1
10
-39.259387570774095
20
136.94786355655339
30
0
10
-38.928636213716146
20
137.06824720546561
30
0
10
-38.800918904308034
20
137.16409431662444
30
0
0
SPLINE
5
118
100
AcDbEntity
8
0
100
AcDbSpline
70
0
71
2
72
6
73
3
74
0
42
0.000000001
43
0.0000000001
44
0.0000000001
40
0
40
0
40
0
40
1
40
1
40
1
10
-38.800918904308034
20
137.16409431662444
30
0
10
-38.631716243307473
20
137.28955870515475
30
0
10
-38.58316097793616
20
137.45531617856852
30
0
0
SPLINE
5
119
100
AcDbEntity
8
0
100
AcDbSpline
70
0
71
2
72
6
73
3
74
0
42
0.000000001
43
0.0000000001
44
0.0000000001
40
0
40
0
40
0
40
1
40
1
40
1
10
-38.58316097793616
20
137.45531617856852
30
0
10
-38.53460599261507
20
137.62107355005236
30
0
10
-38.606462832957142
20
137.81849859632553
30
0
0
SPLINE
5
120
100
AcDbEntity
8
0
100
AcDbSpline
70
0
71
2
72
6
73
3
74
0
42
0.000000001
43
0.0000000001
44
0.0000000001
40
0
40
0
40
0
40
1
40
1
40
1
10
-38.606462832957142
20
137.81849859632553
30
0
10
-38.674586896756097
20
138.00566792333464
30
0
10
-38.816118300301795
20
138.11530575743203
30
0
0
SPLINE
5
121
100
AcDbEntity
8
0
100
AcDbSpline
70
0
71
2
72
6
73
3
74
0
42
0.000000001
43
0.0000000001
44
0.0000000001
40
0
40
0
40
0
40
1
40
1
40
1
10
-38.816118300301795
20
138.11530575743203
30
0
10
-38.95764998389771
20
138.22494348959944
30
0
10
-39.143438454220629
20
138.21684625619946
30
0
0
SPLINE
5
122
100
AcDbEntity
8
0
100
AcDbSpline
70
0
71
2
72
6
73
3
74
0
42
0.000000001
43
0.0000000001
44
0.0000000001
40
0
40
0
40
0
40
1
40
1
40
1
10
-39.143438454220629
20
138.21684625619946
30
0
10
-39.329227026473504
20
138.20874930284967
30
0
10
-39.734333258359335
20
138.06130269272751
30
0
0
LINE
5
123
100
AcDbEntity
8
0
100
AcDbLine
10
-39.734333258359335
20
138.06130269272751
30
0
11
-40.485574496211797
21
137.78787324339592
31
0
0
LINE
5
124
100
AcDbEntity
8
0
100
AcDbLine
10
-40.485574496211797
20
137.78787324339592
30
0
11
-40.072163964361778
21
136.65203714217324
31
0
0
LINE
5
125
100
AcDbEntity
8
0
100
AcDbLine
10
-39.440383303595695
20
134.91623404267034
30
0
11
-38.504536598537591
21
135.2568543871476
31
0
0
SPLINE
5
126
100
AcDbEntity
8
0
100
AcDbSpline
70
0
71
2
72
6
73
3
74
0
42
0.000000001
43
0.0000000001
44
0.0000000001
40
0
40
0
40
0
40
1
40
1
40
1
10
-38.504536598537591
20
135.2568543871476
30
0
10
-38.263524115278997
20
135.34457575714032
30
0
10
-38.172625868381914
20
135.39798550272459
30
0
0
SPLINE
5
127
100
AcDbEntity
8
0
100
AcDbSpline
70
0
71
2
72
6
73
3
74
0
42
0.000000001
43
0.0000000001
44
0.0000000001
40
0
40
0
40
0
40
1
40
1
40
1
10
-38.172625868381914
20
135.39798550272459
30
0
10
-38.012038831878463
20
135.49127773762143
30
0
10
-37.922790121460331
20
135.605062934828
30
0
0
SPLINE
5
128
100
AcDbEntity
8
0
100
AcDbSpline
70
0
71
2
72
6
73
3
74
0
42
0.000000001
43
0.0000000001
44
0.0000000001
40
0
40
0
40
0
40
1
40
1
40
1
10
-37.922790121460331
20
135.605062934828
30
0
10
-37.833541512972147
20
135.71884841208481
30
0
10
-37.80911328875451
20
135.88308328279462
30
0
0
SPLINE
5
129
100
AcDbEntity
8
0
100
AcDbSpline
70
0
71
2
72
6
73
3
74
0
42
0.000000001
43
0.0000000001
44
0.0000000001
40
0
40
0
40
0
40
1
40
1
40
1
10
-37.80911328875451
20
135.88308328279462
30
0
10
-37.784684784486657
20
136.04731825543436
30
0
10
-37.850009240395785
20
136.22679572298284
30
0
0
SPLINE
5
130
100
AcDbEntity
8
0
100
AcDbSpline
70
0
71
2
72
6
73
3
74
0
42
0.000000001
43
0.0000000001
44
0.0000000001
40
0
40
0
40
0
40
1
40
1
40
1
10
-37.850009240395785
20
136.22679572298284
30
0
10
-37.926532127864213
20
136.43704062837384
30
0
10
-38.090677437311207
20
136.5529658352261
30
0
0
SPLINE
5
131
100
AcDbEntity
8
0
100
AcDbSpline
70
0
71
2
72
6
73
3
74
0
42
0.000000001
43
0.0000000001
44
0.0000000001
40
0
40
0
40
0
40
1
40
1
40
1
10
-38.090677437311207
20
136.5529658352261
30
0
10
-38.25482302680841
20
136.6688909401484
30
0
10
-38.468702023913124
20
136.66218424710164
30
0
0
SPLINE
5
132
100
AcDbEntity
8
0
100
AcDbSpline
70
0
71
2
72
6
73
3
74
0
42
0.000000001
43
0.0000000001
44
0.0000000001
40
0
40
0
40
0
40
1
40
1
40
1
10
-38.468702023913124
20
136.66218424710164
30
0
10
-38.682580880992717
20
136.65547760501983
30
0
10
-39.041535676064576
20
136.52482874416654
30
0
0
LINE
5
133
100
AcDbEntity
8
0
100
AcDbLine
10
-39.041535676064576
20
136.52482874416654
30
0
11
-39.910719365755426
21
136.20847175300941
31
0
0
LINE
5
134
100
AcDbEntity
8
0
100
AcDbLine
10
-39.910719365755433
20
136.20847175300941
30
0
11
-39.440383303595695
21
134.91623404267034
31
0
0
ENDSEC
0
SECTION
2
OBJECTS
0
DICTIONARY
5
C
100
AcDbDictionary
3
ACAD_GROUP
350
D
3
ACAD_MLINESTYLE
350
17
0
DICTIONARY
5
D
100
AcDbDictionary
0
DICTIONARY
5
1A
330
C
100
AcDbDictionary
0
DICTIONARY
5
17
100
AcDbDictionary
0
ENDSEC
0
EOF
