0
SECTION
2
HEADER
9
$INSUNITS
70
4
9
$ACADVER
1
AC1014
9
$HANDSEED
5
FFFF
0
ENDSEC
0
SECTION
2
TABLES
0
TABLE
2
VPORT
5
8
100
AcDbSymbolTable
0
ENDTAB
0
TABLE
2
LTYPE
5
5
100
AcDbSymbolTable
0
LTYPE
5
14
100
AcDbSymbolTableRecord
100
AcDbLinetypeTableRecord
2
BYBLOCK
70
0
0
LTYPE
5
15
100
AcDbSymbolTableRecord
100
AcDbLinetypeTableRecord
2
BYLAYER
70
0
0
ENDTAB
0
TABLE
2
LAYER
5
2
100
AcDbSymbolTable
70
2
0
LAYER
5
50
100
AcDbSymbolTableRecord
100
AcDbLayerTableRecord
2
0
70
0
6
CONTINUOUS
0
ENDTAB
0
TABLE
2
STYLE
5
3
100
AcDbSymbolTable
70
1
0
STYLE
5
11
100
AcDbSymbolTableRecord
100
AcDbTextStyleTableRecord
2
STANDARD
70
0
0
ENDTAB
0
TABLE
2
VIEW
5
6
100
AcDbSymbolTable
70
0
0
ENDTAB
0
TABLE
2
UCS
5
7
100
AcDbSymbolTable
70
0
0
ENDTAB
0
TABLE
2
APPID
5
9
100
AcDbSymbolTable
70
2
0
APPID
5
12
100
AcDbSymbolTableRecord
100
AcDbRegAppTableRecord
2
ACAD
70
0
0
ENDTAB
0
TABLE
2
DIMSTYLE
5
A
100
AcDbSymbolTable
70
1
0
ENDTAB
0
TABLE
2
BLOCK_RECORD
5
1
100
AcDbSymbolTable
70
1
0
BLOCK_RECORD
5
1F
100
AcDbSymbolTableRecord
100
AcDbBlockTableRecord
2
*MODEL_SPACE
0
BLOCK_RECORD
5
1B
100
AcDbSymbolTableRecord
100
AcDbBlockTableRecord
2
*PAPER_SPACE
0
ENDTAB
0
ENDSEC
0
SECTION
2
BLOCKS
0
BLOCK
5
20
100
AcDbEntity
100
AcDbBlockBegin
2
*MODEL_SPACE
0
ENDBLK
5
21
100
AcDbEntity
100
AcDbBlockEnd
0
BLOCK
5
1C
100
AcDbEntity
100
AcDbBlockBegin
2
*PAPER_SPACE
0
ENDBLK
5
1D
100
AcDbEntity
100
AcDbBlockEnd
0
ENDSEC
0
SECTION
2
ENTITIES
0
LWPOLYLINE
5
100
100
AcDbEntity
8
0
100
AcDbPolyline
90
14
70
1
43
0.0
10
92.956634421695554
20
106.95123160996681
10
94.576359564790309
20
109.29622424552598
10
89.059426340304441
20
113.10686114091396
10
91.066548365948506
20
116.01271611814232
10
102.06793994130719
20
108.41387325892333
10
110.30862497872597
20
97.88466913384633
10
107.73202063297265
20
95.868088903548795
10
104.65035399425206
20
99.805515820800792
10
102.40601008894518
20
98.048979332422192
10
105.48767672766579
20
94.111552415170152
10
103.22122317262183
20
92.337711802224632
10
95.825280063792889
20
101.78758087703014
10
85.951626861438641
20
108.60747621637664
10
87.439701197209644
20
110.76186850535484
0
LINE
5
101
100
AcDbEntity
8
0
100
AcDbLine
10
102.76252689606027
20
104.84737517806101
30
-2.849999999999973
11
101.16464576437515
21
106.18815664632311
31
-2.8499999999999615
0
LINE
5
102
100
AcDbEntity
8
0
100
AcDbLine
10
101.16464576437515
20
106.18815664632311
30
-2.8499999999999615
11
102.62602354902945
21
107.92975887132226
31
-2.8499999999999459
0
LINE
5
103
100
AcDbEntity
8
0
100
AcDbLine
10
102.62602354902945
20
107.92975887132226
30
-2.8499999999999459
11
104.22390468071457
21
106.58897740306016
31
-2.8499999999999575
0
LINE
5
104
100
AcDbEntity
8
0
100
AcDbLine
10
104.22390468071457
20
106.58897740306016
30
-2.8499999999999575
11
102.76252689606027
21
104.84737517806101
31
-2.849999999999973
0
LINE
5
105
100
AcDbEntity
8
0
100
AcDbLine
10
99.357184589181003
20
105.89980074605771
30
-2.8499999999999641
11
98.865754250787973
21
106.13763060259735
31
-2.8499999999999619
0
SPLINE
5
106
100
AcDbEntity
8
0
100
AcDbSpline
70
0
71
2
72
6
73
3
74
0
42
0.000000001
43
0.0000000001
44
0.0000000001
40
0
40
0
40
0
40
1
40
1
40
1
10
98.865754250787973
20
106.13763060259735
30
-2.8499999999999619
10
98.574083149860968
20
105.53109675808531
30
-2.8499999999999677
10
98.685265090840716
20
104.99079552098101
30
-2.8499999999999726
0
SPLINE
5
107
100
AcDbEntity
8
0
100
AcDbSpline
70
0
71
2
72
6
73
3
74
0
42
0.000000001
43
0.0000000001
44
0.0000000001
40
0
40
0
40
0
40
1
40
1
40
1
10
98.685265090840716
20
104.99079552098101
30
-2.8499999999999726
10
98.796447031820449
20
104.45049428387669
30
-2.849999999999977
10
99.275094221722043
20
104.04886160336623
30
-2.8499999999999801
0
SPLINE
5
108
100
AcDbEntity
8
0
100
AcDbSpline
70
0
71
2
72
6
73
3
74
0
42
0.000000001
43
0.0000000001
44
0.0000000001
40
0
40
0
40
0
40
1
40
1
40
1
10
99.275094221722043
20
104.04886160336623
30
-2.8499999999999801
10
99.770462717812734
20
103.6331980809997
30
-2.8499999999999841
10
100.25009870518012
20
103.57445130969806
30
-2.8499999999999845
0
SPLINE
5
109
100
AcDbEntity
8
0
100
AcDbSpline
70
0
71
2
72
6
73
3
74
0
42
0.000000001
43
0.0000000001
44
0.0000000001
40
0
40
0
40
0
40
1
40
1
40
1
10
100.25009870518012
20
103.57445130969806
30
-2.8499999999999845
10
100.7297346925475
20
103.51570453839642
30
-2.8499999999999854
10
101.21267760556566
20
103.76228060206024
30
-2.8499999999999832
0
SPLINE
5
110
100
AcDbEntity
8
0
100
AcDbSpline
70
0
71
2
72
6
73
3
74
0
42
0.000000001
43
0.0000000001
44
0.0000000001
40
0
40
0
40
0
40
1
40
1
40
1
10
101.21267760556566
20
103.76228060206024
30
-2.8499999999999832
10
101.69562057565861
20
104.00885661783266
30
-2.849999999999981
10
102.06392983914094
20
104.44779050577347
30
-2.8499999999999766
0
SPLINE
5
111
100
AcDbEntity
8
0
100
AcDbSpline
70
0
71
2
72
6
73
3
74
0
42
0.000000001
43
0.0000000001
44
0.0000000001
40
0
40
0
40
0
40
1
40
1
40
1
10
102.06392983914094
20
104.44779050577347
30
-2.8499999999999766
10
102.4655625196514
20
104.92643769567506
30
-2.8499999999999726
10
102.58170556633667
20
105.43627268294057
30
-2.8499999999999681
0
SPLINE
5
112
100
AcDbEntity
8
0
100
AcDbSpline
70
0
71
2
72
6
73
3
74
0
42
0.000000001
43
0.0000000001
44
0.0000000001
40
0
40
0
40
0
40
1
40
1
40
1
10
102.58170556633667
20
105.43627268294057
30
-2.8499999999999681
10
102.69784861302193
20
105.94610767020606
30
-2.8499999999999637
10
102.5155034861538
20
106.4143344272901
30
-2.8499999999999592
0
SPLINE
5
113
100
AcDbEntity
8
0
100
AcDbSpline
70
0
71
2
72
6
73
3
74
0
42
0.000000001
43
0.0000000001
44
0.0000000001
40
0
40
0
40
0
40
1
40
1
40
1
10
102.5155034861538
20
106.4143344272901
30
-2.8499999999999592
10
102.33315835928568
20
106.88256118437414
30
-2.8499999999999552
10
101.92766685542408
20
107.22280895570995
30
-2.8499999999999521
0
SPLINE
5
114
100
AcDbEntity
8
0
100
AcDbSpline
70
0
71
2
72
6
73
3
74
0
42
0.000000001
43
0.0000000001
44
0.0000000001
40
0
40
0
40
0
40
1
40
1
40
1
10
101.92766685542408
20
107.22280895570995
30
-2.8499999999999521
10
101.46783127767213
20
107.60865681940379
30
-2.8499999999999486
10
100.95787524928156
20
107.63763699796544
30
-2.8499999999999486
0
SPLINE
5
115
100
AcDbEntity
8
0
100
AcDbSpline
70
0
71
2
72
6
73
3
74
0
42
0.000000001
43
0.0000000001
44
0.0000000001
40
0
40
0
40
0
40
1
40
1
40
1
10
100.95787524928156
20
107.63763699796544
30
-2.8499999999999486
10
100.44791902932536
20
107.66661694822808
30
-2.8499999999999486
10
99.968567256430305
20
107.34579130369313
30
-2.8499999999999517
0
LINE
5
116
100
AcDbEntity
8
0
100
AcDbLine
10
99.968567256430305
20
107.34579130369313
30
-2.8499999999999517
11
100.28886456132318
21
106.91674788982219
31
-2.8499999999999552
0
SPLINE
5
117
100
AcDbEntity
8
0
100
AcDbSpline
70
0
71
2
72
6
73
3
74
0
42
0.000000001
43
0.0000000001
44
0.0000000001
40
0
40
0
40
0
40
1
40
1
40
1
10
100.28886456132318
20
106.91674788982219
30
-2.8499999999999552
10
100.67607969686304
20
107.16172742071754
30
-2.849999999999953
10
101.0068568088935
20
107.1441853684131
30
-2.849999999999953
0
SPLINE
5
118
100
AcDbEntity
8
0
100
AcDbSpline
70
0
71
2
72
6
73
3
74
0
42
0.000000001
43
0.0000000001
44
0.0000000001
40
0
40
0
40
0
40
1
40
1
40
1
10
101.0068568088935
20
107.1441853684131
30
-2.849999999999953
10
101.33763392092396
20
107.1266433161087
30
-2.849999999999953
10
101.64488789361145
20
106.86882662094887
30
-2.8499999999999552
0
SPLINE
5
119
100
AcDbEntity
8
0
100
AcDbSpline
70
0
71
2
72
6
73
3
74
0
42
0.000000001
43
0.0000000001
44
0.0000000001
40
0
40
0
40
0
40
1
40
1
40
1
10
101.64488789361145
20
106.86882662094887
30
-2.8499999999999552
10
101.99812517294521
20
106.57242535014184
30
-2.8499999999999579
10
102.09329648827877
20
106.20405965372893
30
-2.8499999999999615
0
SPLINE
5
120
100
AcDbEntity
8
0
100
AcDbSpline
70
0
71
2
72
6
73
3
74
0
42
0.000000001
43
0.0000000001
44
0.0000000001
40
0
40
0
40
0
40
1
40
1
40
1
10
102.09329648827877
20
106.20405965372893
30
-2.8499999999999615
10
102.18846763238804
20
105.83569410099024
30
-2.8499999999999641
10
102.04521397843263
20
105.46970967831308
30
-2.8499999999999677
0
SPLINE
5
121
100
AcDbEntity
8
0
100
AcDbSpline
70
0
71
2
72
6
73
3
74
0
42
0.000000001
43
0.0000000001
44
0.0000000001
40
0
40
0
40
0
40
1
40
1
40
1
10
102.04521397843263
20
105.46970967831308
30
-2.8499999999999677
10
101.90196013291155
20
105.10372502733688
30
-2.8499999999999708
10
101.64765138767278
20
104.80065166657045
30
-2.8499999999999739
0
SPLINE
5
122
100
AcDbEntity
8
0
100
AcDbSpline
70
0
71
2
72
6
73
3
74
0
42
0.000000001
43
0.0000000001
44
0.0000000001
40
0
40
0
40
0
40
1
40
1
40
1
10
101.64765138767278
20
104.80065166657045
30
-2.8499999999999739
10
101.31968067479818
20
104.40979139123644
30
-2.849999999999977
10
100.96110397840691
20
104.2137986459838
30
-2.8499999999999788
0
SPLINE
5
123
100
AcDbEntity
8
0
100
AcDbSpline
70
0
71
2
72
6
73
3
74
0
42
0.000000001
43
0.0000000001
44
0.0000000001
40
0
40
0
40
0
40
1
40
1
40
1
10
100.96110397840691
20
104.2137986459838
30
-2.8499999999999788
10
100.60252753065606
20
104.0178060811388
30
-2.849999999999981
10
100.24114293933621
20
104.07527834275487
30
-2.8499999999999801
0
SPLINE
5
124
100
AcDbEntity
8
0
100
AcDbSpline
70
0
71
2
72
6
73
3
74
0
42
0.000000001
43
0.0000000001
44
0.0000000001
40
0
40
0
40
0
40
1
40
1
40
1
10
100.24114293933621
20
104.07527834275487
30
-2.8499999999999801
10
99.879758384749749
20
104.13275018450631
30
-2.8499999999999797
10
99.599676563156947
20
104.36776673770427
30
-2.8499999999999774
0
SPLINE
5
125
100
AcDbEntity
8
0
100
AcDbSpline
70
0
71
2
72
6
73
3
74
0
42
0.000000001
43
0.0000000001
44
0.0000000001
40
0
40
0
40
0
40
1
40
1
40
1
10
99.599676563156947
20
104.36776673770427
30
-2.8499999999999774
10
99.258980206390262
20
104.65364492501065
30
-2.8499999999999752
10
99.187654185998809
20
105.04830578503798
30
-2.8499999999999721
0
SPLINE
5
126
100
AcDbEntity
8
0
100
AcDbSpline
70
0
71
2
72
6
73
3
74
0
42
0.000000001
43
0.0000000001
44
0.0000000001
40
0
40
0
40
0
40
1
40
1
40
1
10
99.187654185998809
20
105.04830578503798
30
-2.8499999999999721
10
99.116328165607371
20
105.44296664506533
30
-2.8499999999999681
10
99.357184589181003
20
105.89980074605771
30
-2.8499999999999641
0
ENDSEC
0
SECTION
2
OBJECTS
0
DICTIONARY
5
C
100
AcDbDictionary
3
ACAD_GROUP
350
D
3
ACAD_MLINESTYLE
350
17
0
DICTIONARY
5
D
100
AcDbDictionary
0
DICTIONARY
5
1A
330
C
100
AcDbDictionary
0
DICTIONARY
5
17
100
AcDbDictionary
0
ENDSEC
0
EOF
