0
SECTION
2
HEADER
9
$INSUNITS
70
4
9
$ACADVER
1
AC1014
9
$HANDSEED
5
FFFF
0
ENDSEC
0
SECTION
2
TABLES
0
TABLE
2
VPORT
5
8
100
AcDbSymbolTable
0
ENDTAB
0
TABLE
2
LTYPE
5
5
100
AcDbSymbolTable
0
LTYPE
5
14
100
AcDbSymbolTableRecord
100
AcDbLinetypeTableRecord
2
BYBLOCK
70
0
0
LTYPE
5
15
100
AcDbSymbolTableRecord
100
AcDbLinetypeTableRecord
2
BYLAYER
70
0
0
ENDTAB
0
TABLE
2
LAYER
5
2
100
AcDbSymbolTable
70
2
0
LAYER
5
50
100
AcDbSymbolTableRecord
100
AcDbLayerTableRecord
2
0
70
0
6
CONTINUOUS
0
ENDTAB
0
TABLE
2
STYLE
5
3
100
AcDbSymbolTable
70
1
0
STYLE
5
11
100
AcDbSymbolTableRecord
100
AcDbTextStyleTableRecord
2
STANDARD
70
0
0
ENDTAB
0
TABLE
2
VIEW
5
6
100
AcDbSymbolTable
70
0
0
ENDTAB
0
TABLE
2
UCS
5
7
100
AcDbSymbolTable
70
0
0
ENDTAB
0
TABLE
2
APPID
5
9
100
AcDbSymbolTable
70
2
0
APPID
5
12
100
AcDbSymbolTableRecord
100
AcDbRegAppTableRecord
2
ACAD
70
0
0
ENDTAB
0
TABLE
2
DIMSTYLE
5
A
100
AcDbSymbolTable
70
1
0
ENDTAB
0
TABLE
2
BLOCK_RECORD
5
1
100
AcDbSymbolTable
70
1
0
BLOCK_RECORD
5
1F
100
AcDbSymbolTableRecord
100
AcDbBlockTableRecord
2
*MODEL_SPACE
0
BLOCK_RECORD
5
1B
100
AcDbSymbolTableRecord
100
AcDbBlockTableRecord
2
*PAPER_SPACE
0
ENDTAB
0
ENDSEC
0
SECTION
2
BLOCKS
0
BLOCK
5
20
100
AcDbEntity
100
AcDbBlockBegin
2
*MODEL_SPACE
0
ENDBLK
5
21
100
AcDbEntity
100
AcDbBlockEnd
0
BLOCK
5
1C
100
AcDbEntity
100
AcDbBlockBegin
2
*PAPER_SPACE
0
ENDBLK
5
1D
100
AcDbEntity
100
AcDbBlockEnd
0
ENDSEC
0
SECTION
2
ENTITIES
0
LWPOLYLINE
5
100
100
AcDbEntity
8
0
100
AcDbPolyline
90
14
70
1
43
0.0
10
113.74928300254081
20
68.373651199812414
10
116.12193896557001
20
69.952576049544618
10
113.25221702286498
20
74.264917375193718
10
115.65009731671103
20
75.860628191102791
10
122.37161156120315
20
65.760184933474889
10
128.7928609710269
20
55.466241871832196
10
126.35123238187261
20
53.943180587810076
10
123.70495538111258
20
58.185493404653357
10
121.28684512934819
20
56.677102602989805
10
123.93312213010817
20
52.434789786146453
10
121.15672333398501
20
50.702902498225477
10
114.80560416917595
20
60.88441934761488
10
108.1574995387242
20
70.874549718263964
10
110.87956105983582
20
72.685992525461359
0
LWPOLYLINE
5
101
100
AcDbEntity
8
0
100
AcDbPolyline
90
4
70
1
43
0.0
10
119.73990746555111
20
64.176035131225063
10
118.81899209871523
20
65.771107336055735
10
120.46740744706054
20
66.72282038115921
10
121.38832281389641
20
65.127748176328538
0
LINE
5
102
100
AcDbEntity
8
0
100
AcDbLine
10
118.59661225399874
20
62.983596887997891
30
0
11
119.003041461897
21
63.218248900584484
31
0
0
LINE
5
103
100
AcDbEntity
8
0
100
AcDbLine
10
119.003041461897
20
63.218248900584484
30
0
11
119.8526077959649
21
61.752214246854493
31
0
0
LINE
5
104
100
AcDbEntity
8
0
100
AcDbLine
10
119.8526077959649
20
61.752214246854493
30
0
11
118.56715682779418
21
61.01005878435106
31
0
0
SPLINE
5
105
100
AcDbEntity
8
0
100
AcDbSpline
70
0
71
2
72
6
73
3
74
0
42
0.000000001
43
0.0000000001
44
0.0000000001
40
0
40
0
40
0
40
1
40
1
40
1
10
118.56715682779418
20
61.01005878435106
30
0
10
118.10269032385811
20
61.19243694145765
30
0
10
117.75945329591781
20
61.47316239325874
30
0
0
SPLINE
5
106
100
AcDbEntity
8
0
100
AcDbSpline
70
0
71
2
72
6
73
3
74
0
42
0.000000001
43
0.0000000001
44
0.0000000001
40
0
40
0
40
0
40
1
40
1
40
1
10
117.75945329591781
20
61.47316239325874
30
0
10
117.41621600988184
20
61.753887696048217
30
0
10
117.19793493452345
20
62.131961608899715
30
0
0
SPLINE
5
107
100
AcDbEntity
8
0
100
AcDbSpline
70
0
71
2
72
6
73
3
74
0
42
0.000000001
43
0.0000000001
44
0.0000000001
40
0
40
0
40
0
40
1
40
1
40
1
10
117.19793493452345
20
62.131961608899715
30
0
10
116.9032556057242
20
62.642361178320307
30
0
10
116.88103832180586
20
63.185617690175306
30
0
0
SPLINE
5
108
100
AcDbEntity
8
0
100
AcDbSpline
70
0
71
2
72
6
73
3
74
0
42
0.000000001
43
0.0000000001
44
0.0000000001
40
0
40
0
40
0
40
1
40
1
40
1
10
116.88103832180586
20
63.185617690175306
30
0
10
116.85882077979184
20
63.728874053018686
30
0
10
117.14955601089018
20
64.180285519332898
30
0
0
SPLINE
5
109
100
AcDbEntity
8
0
100
AcDbSpline
70
0
71
2
72
6
73
3
74
0
42
0.000000001
43
0.0000000001
44
0.0000000001
40
0
40
0
40
0
40
1
40
1
40
1
10
117.14955601089018
20
64.180285519332898
30
0
10
117.44029125130177
20
64.631696969516128
30
0
10
117.95069094977021
20
64.926376372821181
30
0
0
SPLINE
5
110
100
AcDbEntity
8
0
100
AcDbSpline
70
0
71
2
72
6
73
3
74
0
42
0.000000001
43
0.0000000001
44
0.0000000001
40
0
40
0
40
0
40
1
40
1
40
1
10
117.95069094977021
20
64.926376372821181
30
0
10
118.45636465819098
20
65.21832722450003
30
0
10
119.01679493861729
20
65.25991170389743
30
0
0
SPLINE
5
111
100
AcDbEntity
8
0
100
AcDbSpline
70
0
71
2
72
6
73
3
74
0
42
0.000000001
43
0.0000000001
44
0.0000000001
40
0
40
0
40
0
40
1
40
1
40
1
10
119.01679493861729
20
65.25991170389743
30
0
10
119.57722519110393
20
65.301496231687779
30
0
10
120.01908699979494
20
65.02730186531673
30
0
0
SPLINE
5
112
100
AcDbEntity
8
0
100
AcDbSpline
70
0
71
2
72
6
73
3
74
0
42
0.000000001
43
0.0000000001
44
0.0000000001
40
0
40
0
40
0
40
1
40
1
40
1
10
120.01908699979494
20
65.02730186531673
30
0
10
120.46094855039024
20
64.753107349934083
30
0
10
120.7597207066288
20
64.235618795442008
30
0
0
SPLINE
5
113
100
AcDbEntity
8
0
100
AcDbSpline
70
0
71
2
72
6
73
3
74
0
42
0.000000001
43
0.0000000001
44
0.0000000001
40
0
40
0
40
0
40
1
40
1
40
1
10
120.7597207066288
20
64.235618795442008
30
0
10
120.97663750617409
20
63.859907877614333
30
0
10
121.03025207967968
20
63.486008216114094
30
0
0
SPLINE
5
114
100
AcDbEntity
8
0
100
AcDbSpline
70
0
71
2
72
6
73
3
74
0
42
0.000000001
43
0.0000000001
44
0.0000000001
40
0
40
0
40
0
40
1
40
1
40
1
10
121.03025207967968
20
63.486008216114094
30
0
10
121.08386639508959
20
63.11210840560225
30
0
10
120.9660646687915
20
62.814100634105444
30
0
0
SPLINE
5
115
100
AcDbEntity
8
0
100
AcDbSpline
70
0
71
2
72
6
73
3
74
0
42
0.000000001
43
0.0000000001
44
0.0000000001
40
0
40
0
40
0
40
1
40
1
40
1
10
120.9660646687915
20
62.814100634105444
30
0
10
120.84826294249339
20
62.516092862608652
30
0
10
120.55038631862419
20
62.224390353062901
30
0
0
LINE
5
116
100
AcDbEntity
8
0
100
AcDbLine
10
120.55038631862419
20
62.224390353062901
30
0
11
120.1982191915227
21
62.572424330121244
31
0
0
SPLINE
5
117
100
AcDbEntity
8
0
100
AcDbSpline
70
0
71
2
72
6
73
3
74
0
42
0.000000001
43
0.0000000001
44
0.0000000001
40
0
40
0
40
0
40
1
40
1
40
1
10
120.19821919152267
20
62.572424330121244
30
0
10
120.41785058957208
20
62.803198809382039
30
0
10
120.5022314019696
20
63.006296198861904
30
0
0
SPLINE
5
118
100
AcDbEntity
8
0
100
AcDbSpline
70
0
71
2
72
6
73
3
74
0
42
0.000000001
43
0.0000000001
44
0.0000000001
40
0
40
0
40
0
40
1
40
1
40
1
10
120.5022314019696
20
63.006296198861904
30
0
10
120.58661232345115
20
63.209393995449055
30
0
10
120.55343916956696
20
63.476947227420965
30
0
0
SPLINE
5
119
100
AcDbEntity
8
0
100
AcDbSpline
70
0
71
2
72
6
73
3
74
0
42
0.000000001
43
0.0000000001
44
0.0000000001
40
0
40
0
40
0
40
1
40
1
40
1
10
120.55343916956696
20
63.476947227420965
30
0
10
120.52026586667117
20
63.744500717488549
30
0
10
120.36883348659094
20
64.006789293698588
30
0
0
SPLINE
5
120
100
AcDbEntity
8
0
100
AcDbSpline
70
0
71
2
72
6
73
3
74
0
42
0.000000001
43
0.0000000001
44
0.0000000001
40
0
40
0
40
0
40
1
40
1
40
1
10
120.36883348659094
20
64.006789293698588
30
0
10
120.18738741115149
20
64.321063115193695
30
0
10
119.959354447415
20
64.495017943683791
30
0
0
SPLINE
5
121
100
AcDbEntity
8
0
100
AcDbSpline
70
0
71
2
72
6
73
3
74
0
42
0.000000001
43
0.0000000001
44
0.0000000001
40
0
40
0
40
0
40
1
40
1
40
1
10
119.959354447415
20
64.495017943683791
30
0
10
119.7313217417742
20
64.668972921185485
30
0
10
119.49419284167428
20
64.719528177813942
30
0
0
SPLINE
5
122
100
AcDbEntity
8
0
100
AcDbSpline
70
0
71
2
72
6
73
3
74
0
42
0.000000001
43
0.0000000001
44
0.0000000001
40
0
40
0
40
0
40
1
40
1
40
1
10
119.49419284167428
20
64.719528177813942
30
0
10
119.25706423692293
20
64.770083518930079
30
0
10
119.02536987151191
20
64.740285033196685
30
0
0
SPLINE
5
123
100
AcDbEntity
8
0
100
AcDbSpline
70
0
71
2
72
6
73
3
74
0
42
0.000000001
43
0.0000000001
44
0.0000000001
40
0
40
0
40
0
40
1
40
1
40
1
10
119.02536987151191
20
64.740285033196685
30
0
10
118.62760857069789
20
64.687071905952962
30
0
10
118.25189765287021
20
64.470155106407674
30
0
0
SPLINE
5
124
100
AcDbEntity
8
0
100
AcDbSpline
70
0
71
2
72
6
73
3
74
0
42
0.000000001
43
0.0000000001
44
0.0000000001
40
0
40
0
40
0
40
1
40
1
40
1
10
118.25189765287021
20
64.470155106407674
30
0
10
117.78875733868703
20
64.202760921341451
30
0
10
117.56893369670075
20
63.863179141437897
30
0
0
SPLINE
5
125
100
AcDbEntity
8
0
100
AcDbSpline
70
0
71
2
72
6
73
3
74
0
42
0.000000001
43
0.0000000001
44
0.0000000001
40
0
40
0
40
0
40
1
40
1
40
1
10
117.56893369670075
20
63.863179141437897
30
0
10
117.34911005471446
20
63.523597361534357
30
0
10
117.37386952190049
20
63.131462866617134
30
0
0
SPLINE
5
126
100
AcDbEntity
8
0
100
AcDbSpline
70
0
71
2
72
6
73
3
74
0
42
0.000000001
43
0.0000000001
44
0.0000000001
40
0
40
0
40
0
40
1
40
1
40
1
10
117.37386952190049
20
63.131462866617134
30
0
10
117.39862928443507
20
62.7393284561876
30
0
10
117.59644644611434
20
62.396699081550047
30
0
0
SPLINE
5
127
100
AcDbEntity
8
0
100
AcDbSpline
70
0
71
2
72
6
73
3
74
0
42
0.000000001
43
0.0000000001
44
0.0000000001
40
0
40
0
40
0
40
1
40
1
40
1
10
117.59644644611434
20
62.396699081550047
30
0
10
117.76834273987369
20
62.09896596712607
30
0
10
118.04665696977018
20
61.881577064904349
30
0
0
SPLINE
5
128
100
AcDbEntity
8
0
100
AcDbSpline
70
0
71
2
72
6
73
3
74
0
42
0.000000001
43
0.0000000001
44
0.0000000001
40
0
40
0
40
0
40
1
40
1
40
1
10
118.04665696977018
20
61.881577064904349
30
0
10
118.32497134867829
20
61.664187904586939
30
0
10
118.53951830568654
20
61.592718479020043
30
0
0
LINE
5
129
100
AcDbEntity
8
0
100
AcDbLine
10
118.53951830568654
20
61.592718479020043
30
0
11
119.18460678479575
21
61.965160486084862
31
0
0
LINE
5
130
100
AcDbEntity
8
0
100
AcDbLine
10
119.18460678479575
20
61.965160486084862
30
0
11
118.59661225399874
21
62.983596887997891
31
0
0
ENDSEC
0
SECTION
2
OBJECTS
0
DICTIONARY
5
C
100
AcDbDictionary
3
ACAD_GROUP
350
D
3
ACAD_MLINESTYLE
350
17
0
DICTIONARY
5
D
100
AcDbDictionary
0
DICTIONARY
5
1A
330
C
100
AcDbDictionary
0
DICTIONARY
5
17
100
AcDbDictionary
0
ENDSEC
0
EOF
