0
SECTION
2
HEADER
9
$INSUNITS
70
4
9
$ACADVER
1
AC1014
9
$HANDSEED
5
FFFF
0
ENDSEC
0
SECTION
2
TABLES
0
TABLE
2
VPORT
5
8
100
AcDbSymbolTable
0
ENDTAB
0
TABLE
2
LTYPE
5
5
100
AcDbSymbolTable
0
LTYPE
5
14
100
AcDbSymbolTableRecord
100
AcDbLinetypeTableRecord
2
BYBLOCK
70
0
0
LTYPE
5
15
100
AcDbSymbolTableRecord
100
AcDbLinetypeTableRecord
2
BYLAYER
70
0
0
ENDTAB
0
TABLE
2
LAYER
5
2
100
AcDbSymbolTable
70
2
0
LAYER
5
50
100
AcDbSymbolTableRecord
100
AcDbLayerTableRecord
2
0
70
0
6
CONTINUOUS
0
ENDTAB
0
TABLE
2
STYLE
5
3
100
AcDbSymbolTable
70
1
0
STYLE
5
11
100
AcDbSymbolTableRecord
100
AcDbTextStyleTableRecord
2
STANDARD
70
0
0
ENDTAB
0
TABLE
2
VIEW
5
6
100
AcDbSymbolTable
70
0
0
ENDTAB
0
TABLE
2
UCS
5
7
100
AcDbSymbolTable
70
0
0
ENDTAB
0
TABLE
2
APPID
5
9
100
AcDbSymbolTable
70
2
0
APPID
5
12
100
AcDbSymbolTableRecord
100
AcDbRegAppTableRecord
2
ACAD
70
0
0
ENDTAB
0
TABLE
2
DIMSTYLE
5
A
100
AcDbSymbolTable
70
1
0
ENDTAB
0
TABLE
2
BLOCK_RECORD
5
1
100
AcDbSymbolTable
70
1
0
BLOCK_RECORD
5
1F
100
AcDbSymbolTableRecord
100
AcDbBlockTableRecord
2
*MODEL_SPACE
0
BLOCK_RECORD
5
1B
100
AcDbSymbolTableRecord
100
AcDbBlockTableRecord
2
*PAPER_SPACE
0
ENDTAB
0
ENDSEC
0
SECTION
2
BLOCKS
0
BLOCK
5
20
100
AcDbEntity
100
AcDbBlockBegin
2
*MODEL_SPACE
0
ENDBLK
5
21
100
AcDbEntity
100
AcDbBlockEnd
0
BLOCK
5
1C
100
AcDbEntity
100
AcDbBlockBegin
2
*PAPER_SPACE
0
ENDBLK
5
1D
100
AcDbEntity
100
AcDbBlockEnd
0
ENDSEC
0
SECTION
2
ENTITIES
0
LINE
5
100
100
AcDbEntity
8
0
100
AcDbLine
10
-41.172937480151752
20
-28.368807152496114
30
0
11
-26.624972055214833
21
-17.799091575327864
31
0
0
LINE
5
101
100
AcDbEntity
8
0
100
AcDbLine
10
-26.624972055214833
20
-17.799091575327864
30
0
11
-25.152222512244705
21
-19.819242258739699
31
0
0
LINE
5
102
100
AcDbEntity
8
0
100
AcDbLine
10
-25.152222512244705
20
-19.819242258739699
30
0
11
-39.703476291611111
21
-30.39134696523789
31
0
0
LINE
5
103
100
AcDbEntity
8
0
100
AcDbLine
10
-11.029811639552518
20
-30.062988128194981
30
0
11
-8.7472760004441454
21
-30.804628914694842
31
0
0
LINE
5
104
100
AcDbEntity
8
0
100
AcDbLine
10
-8.7472760004441454
20
-30.804628914694842
30
0
11
-14.305131413511965
21
-47.909949021493993
31
0
0
ARC
5
105
100
AcDbEntity
8
0
100
AcDbCircle
10
0
20
0
30
0
40
50
210
0
220
0
230
1
100
AcDbArc
50
253.37523075201852
51
268.65342522105698
0
LINE
5
106
100
AcDbEntity
8
0
100
AcDbLine
10
-1.175000000000006
20
-49.986191843348102
30
0
11
-1.1750000000000016
21
-32
31
0
0
LINE
5
107
100
AcDbEntity
8
0
100
AcDbLine
10
-1.1750000000000016
20
-32
30
0
11
1.1749999999999972
21
-32
31
0
0
LINE
5
108
100
AcDbEntity
8
0
100
AcDbLine
10
1.1749999999999972
20
-32
30
0
11
1.175000000000006
21
-49.986191843348102
31
0
0
ARC
5
109
100
AcDbEntity
8
0
100
AcDbCircle
10
0
20
0
30
0
40
50
210
-0
220
0
230
1
100
AcDbArc
50
271.34657477894302
51
286.10889593471586
0
LINE
5
110
100
AcDbEntity
8
0
100
AcDbLine
10
13.873191187504634
20
-48.036804288742445
30
0
11
8.3193005681113164
21
-30.943686562163574
31
0
0
LINE
5
111
100
AcDbEntity
8
0
100
AcDbLine
10
8.3193005681113164
20
-30.943686562163574
30
0
11
11.457787071885326
21
-29.923930480726245
31
0
0
LINE
5
112
100
AcDbEntity
8
0
100
AcDbLine
10
11.457787071885326
20
-29.923930480726245
30
0
11
17.011677691278642
21
-47.017048207305109
31
0
0
ARC
5
113
100
AcDbEntity
8
0
100
AcDbCircle
10
0
20
0
30
0
40
50
210
-0
220
0
230
1
100
AcDbArc
50
289.8911040652842
51
304.13755920046793
0
LINE
5
114
100
AcDbEntity
8
0
100
AcDbLine
10
28.059084693711974
20
-41.384632004538815
30
0
11
17.494475457499856
21
-26.843694854973599
31
0
0
LINE
5
115
100
AcDbEntity
8
0
100
AcDbLine
10
17.494475457499856
20
-26.843694854973599
30
0
11
20.123780689218425
21
-24.933392785023052
31
0
0
LINE
5
116
100
AcDbEntity
8
0
100
AcDbLine
10
20.123780689218425
20
-24.933392785023052
30
0
11
30.688389925430588
21
-39.474329934588255
31
0
0
ARC
5
117
100
AcDbEntity
8
0
100
AcDbCircle
10
0
20
0
30
0
40
50
210
-0
220
0
230
1
100
AcDbArc
50
307.86244079953195
51
322.16622199995334
0
LINE
5
118
100
AcDbEntity
8
0
100
AcDbLine
10
39.48967717533327
20
-30.668638649081945
30
0
11
24.948087416330367
21
-20.10355526435907
31
0
0
LINE
5
119
100
AcDbEntity
8
0
100
AcDbLine
10
24.948087416330367
20
-20.10355526435907
30
0
11
26.829000223666259
21
-17.514700882359225
31
0
0
LINE
5
120
100
AcDbEntity
8
0
100
AcDbLine
10
26.829000223666259
20
-17.514700882359225
30
0
11
41.370589982669195
21
-28.079784267082097
31
0
0
ARC
5
121
100
AcDbEntity
8
0
100
AcDbCircle
10
0
20
0
30
0
40
50
210
-0
220
0
230
1
100
AcDbArc
50
325.83377800004666
51
340.19488434036737
0
LINE
5
122
100
AcDbEntity
8
0
100
AcDbLine
10
47.042526047677867
20
-16.941096276615376
30
0
11
29.947106755304382
21
-11.386457833163197
31
0
0
LINE
5
123
100
AcDbEntity
8
0
100
AcDbLine
10
29.947106755304382
20
-11.386457833163197
30
0
11
30.920510287585437
21
-8.3906298068334539
31
0
0
LINE
5
124
100
AcDbEntity
8
0
100
AcDbLine
10
30.920510287585437
20
-8.3906298068334539
30
0
11
48.015929579958936
21
-13.945268250285618
31
0
0
ARC
5
125
100
AcDbEntity
8
0
100
AcDbCircle
10
0
20
0
30
0
40
49.999999999999993
210
-0
220
0
230
1
100
AcDbArc
50
343.80511565963258
51
358.22354622890481
0
LINE
5
126
100
AcDbEntity
8
0
100
AcDbLine
10
49.975969225218641
20
-1.5499999999999958
30
0
11
31.999999999999993
21
-1.5500000000000158
31
0
0
LINE
5
127
100
AcDbEntity
8
0
100
AcDbLine
10
31.999999999999993
20
-1.5500000000000158
30
0
11
31.999999999999986
21
1.5499999999999847
31
0
0
LINE
5
128
100
AcDbEntity
8
0
100
AcDbLine
10
31.999999999999986
20
1.5499999999999847
30
0
11
49.975969225218648
21
1.5499999999999758
31
0
0
ARC
5
129
100
AcDbEntity
8
0
100
AcDbCircle
10
0
20
0
30
0
40
50.000000000000007
210
0
220
-0
230
1
100
AcDbArc
50
1.7764537710951915
51
16.252207672758757
0
LINE
5
130
100
AcDbEntity
8
0
100
AcDbLine
10
48.001953576859222
20
13.993300282815763
30
0
11
30.905059437866711
21
8.4381826326481999
31
0
0
LINE
5
131
100
AcDbEntity
8
0
100
AcDbLine
10
30.905059437866711
20
8.4381826326481999
30
0
11
29.962557605023132
21
11.338905007348421
31
0
0
LINE
5
132
100
AcDbEntity
8
0
100
AcDbLine
10
29.962557605023132
20
11.338905007348421
30
0
11
47.059451744015632
21
16.894022657516018
31
0
0
ARC
5
133
100
AcDbEntity
8
0
100
AcDbCircle
10
0
20
0
30
0
40
50.000000000000007
210
0
220
-0
230
1
100
AcDbArc
50
19.747792327241157
51
34.280868679122158
0
LINE
5
134
100
AcDbEntity
8
0
100
AcDbLine
10
41.314320617320057
20
28.162508977881995
30
0
11
26.770221698437027
21
17.595602581796715
31
0
0
LINE
5
135
100
AcDbEntity
8
0
100
AcDbLine
10
26.770221698437027
20
17.595602581796715
30
0
11
25.00686594155961
21
20.022653564921548
31
0
0
LINE
5
136
100
AcDbEntity
8
0
100
AcDbLine
10
25.00686594155961
20
20.022653564921548
30
0
11
39.550964860442605
21
30.589559961006859
31
0
0
ARC
5
137
100
AcDbEntity
8
0
100
AcDbCircle
10
0
20
0
30
0
40
49.999999999999993
210
0
220
-0
230
1
100
AcDbArc
50
37.719131320877814
51
52.309529255186334
0
LINE
5
138
100
AcDbEntity
8
0
100
AcDbLine
10
30.569771895030392
20
39.566261464609084
30
0
11
20.0024281400622
21
25.021560572866925
31
0
0
LINE
5
139
100
AcDbEntity
8
0
100
AcDbLine
10
20.0024281400622
20
25.021560572866925
30
0
11
17.615828006656102
21
26.755527067129709
31
0
0
LINE
5
140
100
AcDbEntity
8
0
100
AcDbLine
10
17.615828006656102
20
26.755527067129709
30
0
11
28.18317176162429
21
41.300227958871872
31
0
0
ARC
5
141
100
AcDbEntity
8
0
100
AcDbCircle
10
0
20
0
30
0
40
49.999999999999993
210
0
220
-0
230
1
100
AcDbArc
50
55.690470744813616
51
70.338189408141844
0
LINE
5
142
100
AcDbEntity
8
0
100
AcDbLine
10
16.823383218482366
20
47.084751003738845
30
0
11
11.267575768626301
21
29.985733879601245
31
0
0
LINE
5
143
100
AcDbEntity
8
0
100
AcDbLine
10
11.267575768626301
20
29.985733879601245
30
0
11
8.5095118713703588
21
30.881883163288585
31
0
0
LINE
5
144
100
AcDbEntity
8
0
100
AcDbLine
10
8.5095118713703588
20
30.881883163288585
30
0
11
14.065319321226415
21
47.980900287426195
31
0
0
ARC
5
145
100
AcDbEntity
8
0
100
AcDbCircle
10
0
20
0
30
0
40
50
210
0
220
-0
230
1
100
AcDbArc
50
73.661810591858114
51
88.366849145178307
0
LINE
5
146
100
AcDbEntity
8
0
100
AcDbLine
10
1.4250000000000296
20
49.979689624886632
30
0
11
1.4250000000000185
21
32.000000000000014
31
0
0
LINE
5
147
100
AcDbEntity
8
0
100
AcDbLine
10
1.4250000000000185
20
32.000000000000014
30
0
11
-1.4249999999999829
21
31.999999999999996
31
0
0
LINE
5
148
100
AcDbEntity
8
0
100
AcDbLine
10
-1.4249999999999829
20
31.999999999999996
30
0
11
-1.4249999999999785
21
49.979689624886632
31
0
0
ARC
5
149
100
AcDbEntity
8
0
100
AcDbCircle
10
0
20
0
30
0
40
50
210
0
220
0
230
1
100
AcDbArc
50
91.633150854821636
51
106.3955084734844
0
LINE
5
150
100
AcDbEntity
8
0
100
AcDbLine
10
-14.113312675259115
20
47.966805244151601
30
0
11
-8.5570646971850941
21
30.866432313569842
31
0
0
LINE
5
151
100
AcDbEntity
8
0
100
AcDbLine
10
-8.5570646971850941
20
30.866432313569842
30
0
11
-11.220022942811525
21
30.001184729320002
31
0
0
LINE
5
152
100
AcDbEntity
8
0
100
AcDbLine
10
-11.220022942811525
20
30.001184729320002
30
0
11
-16.776270920885548
21
47.101557659901744
31
0
0
ARC
5
153
100
AcDbEntity
8
0
100
AcDbCircle
10
0
20
0
30
0
40
49.999999999999993
210
0
220
0
230
1
100
AcDbArc
50
109.60449152651557
51
124.42416740024782
0
LINE
5
154
100
AcDbEntity
8
0
100
AcDbLine
10
-28.265749330620551
20
41.243756070204412
30
0
11
-17.696729706093585
21
26.696748541900487
31
0
0
LINE
5
155
100
AcDbEntity
8
0
100
AcDbLine
10
-17.696729706093585
20
26.696748541900487
30
0
11
-19.921526440624682
21
25.080339098096175
31
0
0
LINE
5
156
100
AcDbEntity
8
0
100
AcDbLine
10
-19.921526440624682
20
25.080339098096175
30
0
11
-30.490546065151641
21
39.627346626400126
31
0
0
ARC
5
157
100
AcDbEntity
8
0
100
AcDbCircle
10
0
20
0
30
0
40
50
210
0
220
0
230
1
100
AcDbArc
50
127.57583259975213
51
142.45282593265543
0
LINE
5
158
100
AcDbEntity
8
0
100
AcDbLine
10
-39.642592605295135
20
30.470721217762463
30
0
11
-25.095033729403475
21
19.901301015765331
31
0
0
LINE
5
159
100
AcDbEntity
8
0
100
AcDbLine
10
-25.095033729403475
20
19.901301015765331
30
0
11
-26.682053910593151
21
17.716955130952968
31
0
0
LINE
5
160
100
AcDbEntity
8
0
100
AcDbLine
10
-26.682053910593151
20
17.716955130952968
30
0
11
-41.229612786484793
21
28.286375332950126
31
0
0
ARC
5
161
100
AcDbEntity
8
0
100
AcDbCircle
10
0
20
0
30
0
40
50
210
0
220
0
230
1
100
AcDbArc
50
145.54717406734454
51
160.48148407789313
0
LINE
5
162
100
AcDbEntity
8
0
100
AcDbLine
10
-47.126678378852333
20
16.705573470438306
30
0
11
-30.024361003898115
21
11.148693704089411
31
0
0
LINE
5
163
100
AcDbEntity
8
0
100
AcDbLine
10
-30.024361003898115
20
11.148693704089411
30
0
11
-30.843256038991704
21
8.6283939359072512
31
0
0
LINE
5
164
100
AcDbEntity
8
0
100
AcDbLine
10
-30.843256038991704
20
8.6283939359072512
30
0
11
-47.945573413945944
21
14.185273702256143
31
0
0
ARC
5
165
100
AcDbEntity
8
0
100
AcDbCircle
10
0
20
0
30
0
40
50
210
0
220
0
230
1
100
AcDbArc
50
163.51851592210684
51
178.51014184314607
0
LINE
5
166
100
AcDbEntity
8
0
100
AcDbLine
10
-49.983097142934213
20
1.3000000000000433
30
0
11
-32.000000000000014
21
1.3000000000000078
31
0
0
LINE
5
167
100
AcDbEntity
8
0
100
AcDbLine
10
-32.000000000000014
20
1.3000000000000078
30
0
11
-32.000000000000007
21
-1.2999999999999901
31
0
0
LINE
5
168
100
AcDbEntity
8
0
100
AcDbLine
10
-32.000000000000007
20
-1.2999999999999901
30
0
11
-49.983097142934234
21
-1.2999999999999856
31
0
0
ARC
5
169
100
AcDbEntity
8
0
100
AcDbCircle
10
0
20
0
30
0
40
50
210
0
220
0
230
1
100
AcDbArc
50
181.48985815685393
51
196.53899692776255
0
LINE
5
170
100
AcDbEntity
8
0
100
AcDbLine
10
-47.931310245639352
20
-14.233393767344033
30
0
11
-30.814241123808035
21
-8.6717208678810245
31
0
0
LINE
5
171
100
AcDbEntity
8
0
100
AcDbLine
10
-30.814241123808035
20
-8.6717208678810245
30
0
11
-30.066242124787628
21
-11.109547255765214
31
0
0
LINE
5
172
100
AcDbEntity
8
0
100
AcDbLine
10
-30.066242124787628
20
-11.109547255765214
30
0
11
-47.143423497893394
21
-16.658259840039488
31
0
0
LINE
5
173
100
AcDbEntity
8
0
100
AcDbLine
10
-30.371486656274236
20
-39.718670651064798
30
0
11
-19.800173891468464
21
-25.168506885940044
31
0
0
LINE
5
174
100
AcDbEntity
8
0
100
AcDbLine
10
-19.800173891468464
20
-25.168506885940044
30
0
11
-17.818082255249838
21
-26.608580754056593
31
0
0
LINE
5
175
100
AcDbEntity
8
0
100
AcDbLine
10
-17.818082255249838
20
-26.608580754056593
30
0
11
-28.389395020055609
21
-41.158744519181354
31
0
0
ARC
5
176
100
AcDbEntity
8
0
100
AcDbCircle
10
0
20
0
30
0
40
49.999999999999993
210
0
220
0
230
1
100
AcDbArc
50
235.40388706916605
51
250.62476924798136
0
LINE
5
177
100
AcDbEntity
8
0
100
AcDbLine
10
-16.58766705262034
20
-47.168308234994115
30
0
11
-11.029811639552518
21
-30.062988128194981
31
0
0
LINE
5
178
100
AcDbEntity
8
0
100
AcDbLine
10
0.88359376788141741
20
-28.876930040121067
30
0
11
1.4015625268221112
21
-28.267555099725712
31
0
0
LINE
5
179
100
AcDbEntity
8
0
100
AcDbLine
10
1.4015625268221112
20
-28.267555099725712
30
0
11
0.79218751192094983
21
-28.267555099725708
31
0
0
ARC
5
180
100
AcDbEntity
8
0
100
AcDbCircle
10
1.0334870070219289
20
-29.123130601644505
30
0
40
0.24353463202714942
210
0
220
0
230
1
100
AcDbArc
50
172.23138017669615
51
277.76861868531597
0
ARC
5
181
100
AcDbEntity
8
0
100
AcDbCircle
10
1.1031942665577181
20
-29.062718686461437
30
0
40
0.30394591502551976
210
0
220
0
230
1
100
AcDbArc
50
263.04818361936725
51
349.00656965301079
0
ARC
5
182
100
AcDbEntity
8
0
100
AcDbCircle
10
1.0360706448555239
20
-29.06850495636462
30
0
40
0.24484719019319218
210
0
220
0
230
1
100
AcDbArc
50
128.51672168564747
51
185.08610073439891
0
LWPOLYLINE
5
183
100
AcDbEntity
8
0
100
AcDbPolyline
90
4
70
1
43
0.0
10
0.48749989271166083
20
-28.328492653369892
10
0.48749989271166055
20
-28.267555099725712
10
0.42656248807909219
20
-28.267555099725712
10
0.42656248807909247
20
-28.328492653369892
0
LINE
5
184
100
AcDbEntity
8
0
100
AcDbLine
10
0.12187501788141458
20
-28.267555099725712
30
0
11
-0.182812452316263
21
-28.267555099725712
31
0
0
LINE
5
185
100
AcDbEntity
8
0
100
AcDbLine
10
0.12187501788141958
20
-29.364430022239674
30
0
11
-0.24374985694882634
21
-29.364430022239674
31
0
0
LINE
5
186
100
AcDbEntity
8
0
100
AcDbLine
10
-0.24374985694882861
20
-28.876930040121067
30
0
11
5.9604668666002336e-08
21
-28.876930040121067
31
0
0
ARC
5
187
100
AcDbEntity
8
0
100
AcDbCircle
10
-0.18281245231626164
20
-28.57224256992339
30
0
40
0.30468747019767761
210
0
220
0
230
1
100
AcDbArc
50
90.000000000000256
51
270.0000025044784
0
ARC
5
188
100
AcDbEntity
8
0
100
AcDbCircle
10
-0.2437498569488275
20
-29.12068003118037
30
0
40
0.24374999105930328
210
0
220
0
230
1
100
AcDbArc
50
90.00000000000027
51
270.00000000000023
0
LINE
5
189
100
AcDbEntity
8
0
100
AcDbLine
10
-0.79218739271161764
20
-28.267555099725712
30
0
11
-1.1578124165534756
21
-28.267555099725712
31
0
0
LINE
5
190
100
AcDbEntity
8
0
100
AcDbLine
10
-1.4015623331069718
20
-28.511305165290825
30
0
11
-1.4015623331069713
21
-28.633180123567573
31
0
0
LINE
5
191
100
AcDbEntity
8
0
100
AcDbLine
10
-1.1578124165534729
20
-28.876930040121067
30
0
11
-0.79218739271161498
21
-28.876930040121067
31
0
0
LINE
5
192
100
AcDbEntity
8
0
100
AcDbLine
10
-0.79218739271161498
20
-28.876930040121067
30
0
11
-0.79218739271161276
21
-29.364430022239674
31
0
0
LINE
5
193
100
AcDbEntity
8
0
100
AcDbLine
10
-0.79218739271161276
20
-29.364430022239674
30
0
11
-1.401562333106968
21
-29.364430022239674
31
0
0
ARC
5
194
100
AcDbEntity
8
0
100
AcDbCircle
10
-1.1870738267898338
20
-28.482043457031239
30
0
40
0.21647513840772512
210
0
220
-0
230
1
100
AcDbArc
50
82.231425301558659
51
187.76864752287224
0
ARC
5
195
100
AcDbEntity
8
0
100
AcDbCircle
10
-1.1870738267898326
20
-28.662441682815544
30
0
40
0.21647530619398536
210
0
220
0
230
1
100
AcDbArc
50
172.23139155491955
51
277.76857469844185
0
LINE
5
196
100
AcDbEntity
8
0
100
AcDbLine
10
-8.6004561721517554
20
-27.849867581304089
30
0
11
-7.919531444031179
21
-27.4303786285593
31
0
0
LINE
5
197
100
AcDbEntity
8
0
100
AcDbLine
10
-7.919531444031179
20
-27.4303786285593
30
0
11
-8.4990814519611533
21
-27.242071416030914
31
0
0
ARC
5
198
100
AcDbEntity
8
0
100
AcDbCircle
10
-8.5339794356896537
20
-28.130337694010016
30
0
40
0.24353463202714987
210
0
220
0
230
1
100
AcDbArc
50
154.23138017669615
51
259.76861868531563
0
ARC
5
199
100
AcDbEntity
8
0
100
AcDbCircle
10
-8.449015512961525
20
-28.094423299264712
30
0
40
0.30394592404331416
210
0
220
0
230
1
100
AcDbArc
50
245.04816967779271
51
331.00656965301084
0
ARC
5
200
100
AcDbEntity
8
0
100
AcDbCircle
10
-8.5146419265128515
20
-28.079184029131206
30
0
40
0.24484713189788421
210
0
220
0
230
1
100
AcDbArc
50
110.5167325430662
51
167.08609918875564
0
LWPOLYLINE
5
201
100
AcDbEntity
8
0
100
AcDbPolyline
90
4
70
1
43
0.0
10
-8.8076871725742656
20
-27.205872796387879
10
-8.7888564559261404
20
-27.147917809766724
10
-8.8468113716880588
20
-27.129087116142156
10
-8.8656420883361857
20
-27.187042102763307
0
LINE
5
202
100
AcDbEntity
8
0
100
AcDbLine
10
-9.7073594556166292
20
-28.002800639855984
30
0
11
-9.2119094069875747
21
-27.266753481174678
31
0
0
LINE
5
203
100
AcDbEntity
8
0
100
AcDbLine
10
-9.2119094069875747
20
-27.266753481174678
30
0
11
-9.7914594149175489
21
-27.078446268646292
31
0
0
LINE
5
204
100
AcDbEntity
8
0
100
AcDbLine
10
-9.6929172738109308
20
-27.366758458958071
30
0
11
-9.5422714945787988
21
-26.903118424270399
31
0
0
LINE
5
205
100
AcDbEntity
8
0
100
AcDbLine
10
-16.258591234724825
20
-23.88129053361261
30
0
11
-15.481364103105506
21
-23.692750248540122
31
0
0
LINE
5
206
100
AcDbEntity
8
0
100
AcDbLine
10
-15.481364103105506
20
-23.692750248540122
30
0
11
-15.974358846108032
21
-23.334568601665715
31
0
0
ARC
5
207
100
AcDbEntity
8
0
100
AcDbCircle
10
-16.28203811608785
20
-24.168576007294863
30
0
40
0.24353463202714851
210
0
220
0
230
1
100
AcDbArc
50
136.23138017669598
51
241.76861868531557
0
ARC
5
208
100
AcDbEntity
8
0
100
AcDbCircle
10
-16.190134525684737
20
-24.160674640381888
30
0
40
0.30394591502551971
210
0
220
0
230
1
100
AcDbArc
50
227.04818361936583
51
313.00656965301039
0
ARC
5
209
100
AcDbEntity
8
0
100
AcDbCircle
10
-16.247839760480684
20
-24.125901556150595
30
0
40
0.24484719019319065
210
0
220
0
230
1
100
AcDbArc
50
92.516721685646942
51
149.08610073439849
0
LWPOLYLINE
5
210
100
AcDbEntity
8
0
100
AcDbPolyline
90
4
70
1
43
0.0
10
-16.256674503366821
20
-23.204777229032167
10
-16.22085630802399
20
-23.155477712538392
10
-16.270155703964839
20
-23.119659604782392
10
-16.30597389930767
20
-23.168959121276167
0
LINE
5
211
100
AcDbEntity
8
0
100
AcDbLine
10
-17.358577773260286
20
-23.684686650061721
30
0
11
-16.659925739112367
21
-23.13776674866407
31
0
0
LINE
5
212
100
AcDbEntity
8
0
100
AcDbLine
10
-16.659925739112367
20
-23.13776674866407
30
0
11
-17.152920542391357
21
-22.779585057996247
31
0
0
LINE
5
213
100
AcDbEntity
8
0
100
AcDbLine
10
-17.148294478554767
20
-23.084237556480822
30
0
11
-16.861749178572605
21
-22.68984178618939
31
0
0
LINE
5
214
100
AcDbEntity
8
0
100
AcDbLine
10
-17.256145069416966
20
-22.403296398620398
30
0
11
-17.551941927273777
21
-22.188387401737071
31
0
0
LINE
5
215
100
AcDbEntity
8
0
100
AcDbLine
10
-17.892412445927526
20
-22.242312740961587
30
0
11
-17.964048749026361
21
-22.340911653396212
31
0
0
LINE
5
216
100
AcDbEntity
8
0
100
AcDbLine
10
-17.91012353035477
20
-22.681382084463134
30
0
11
-17.614326672497963
21
-22.896291081346462
31
0
0
LINE
5
217
100
AcDbEntity
8
0
100
AcDbLine
10
-17.614326672497963
20
-22.896291081346462
30
0
11
-17.900871972480129
21
-23.290686851637897
31
0
0
LINE
5
218
100
AcDbEntity
8
0
100
AcDbLine
10
-17.900871972480129
20
-23.290686851637897
30
0
11
-18.393866655206189
21
-22.9325052485569
31
0
0
ARC
5
219
100
AcDbEntity
8
0
100
AcDbCircle
10
-17.701687998646996
20
-22.344712702494597
30
0
40
0.2164751384077262
210
0
220
-0
230
1
100
AcDbArc
50
46.231425301558595
51
151.76864752287153
0
ARC
5
220
100
AcDbEntity
8
0
100
AcDbCircle
10
-17.807723415302736
20
-22.490657932909187
30
0
40
0.21647530619398492
210
0
220
0
230
1
100
AcDbArc
50
136.23139155491941
51
241.76857469844157
0
LINE
5
221
100
AcDbEntity
8
0
100
AcDbLine
10
-22.842563762056155
20
-17.688275983404509
30
0
11
-22.04511468167652
21
-17.749139908861839
31
0
0
LINE
5
222
100
AcDbEntity
8
0
100
AcDbLine
10
-22.04511468167652
20
-17.749139908861839
30
0
11
-22.40329632855093
21
-17.256145165859312
31
0
0
ARC
5
223
100
AcDbEntity
8
0
100
AcDbCircle
10
-22.953639164968131
20
-17.954255220380691
30
0
40
0.24353463202715003
210
0
220
0
230
1
100
AcDbArc
50
118.23138017669743
51
223.76861868531597
0
ARC
5
224
100
AcDbEntity
8
0
100
AcDbCircle
10
-22.863791999789434
20
-17.975140345169102
30
0
40
0.3039459150255201
210
0
220
0
230
1
100
AcDbArc
50
209.04818361936742
51
295.00656965301067
0
ARC
5
225
100
AcDbEntity
8
0
100
AcDbCircle
10
-22.907927465392156
20
-17.924237278602906
30
0
40
0.2448471901931927
210
0
220
-0
230
1
100
AcDbArc
50
74.516721685646914
51
131.08610073439974
0
LWPOLYLINE
5
226
100
AcDbEntity
8
0
100
AcDbPolyline
90
4
70
1
43
0.0
10
-22.631686734172028
20
-17.045465899286185
10
-22.582387217678249
20
-17.009647703943354
10
-22.618205325434253
20
-16.960348308002501
10
-22.667504841928032
20
-16.996166503345336
0
LINE
5
227
100
AcDbEntity
8
0
100
AcDbLine
10
-22.79729612697475
20
-16.713850966639473
30
0
11
-23.012205036271251
21
-16.418054229335588
31
0
0
LINE
5
228
100
AcDbEntity
8
0
100
AcDbLine
10
-23.352675763064752
20
-16.364128857144976
30
0
11
-23.451274675499381
21
-16.435765160243811
31
0
0
LINE
5
229
100
AcDbEntity
8
0
100
AcDbLine
10
-23.505199718997318
20
-16.776235832416585
30
0
11
-23.290290809700814
21
-17.072032569720466
31
0
0
LINE
5
230
100
AcDbEntity
8
0
100
AcDbLine
10
-23.290290809700814
20
-17.072032569720466
30
0
11
-23.684686579992249
21
-17.358577869702629
31
0
0
LINE
5
231
100
AcDbEntity
8
0
100
AcDbLine
10
-23.684686579992249
20
-17.358577869702629
30
0
11
-24.042868270660072
21
-16.865583066423639
31
0
0
ARC
5
232
100
AcDbEntity
8
0
100
AcDbCircle
10
-23.202929362998859
20
-16.520454103281775
30
0
40
0.21647517869236968
210
0
220
-0
230
1
100
AcDbArc
50
28.231347145917603
51
133.76864752286977
0
ARC
5
233
100
AcDbEntity
8
0
100
AcDbCircle
10
-23.348874593413449
20
-16.626489519937515
30
0
40
0.21647530619398228
210
0
220
0
230
1
100
AcDbArc
50
118.23139155491826
51
223.76865285408269
0
LINE
5
234
100
AcDbEntity
8
0
100
AcDbLine
10
-23.56758458477443
20
-16.068332240394021
30
0
11
-24.347124594793016
21
-16.03211790883724
31
0
0
ARC
5
235
100
AcDbEntity
8
0
100
AcDbCircle
10
-24.23994844281852
20
-15.729413943731069
30
0
40
0.73143124580383312
210
0
220
0
230
1
100
AcDbArc
50
276.87151582165632
51
309.13924191376401
0
ARC
5
236
100
AcDbEntity
8
0
100
AcDbCircle
10
-24.232206377009014
20
-16.280690982659507
30
0
40
0.19223228096961725
210
0
220
0
230
1
100
AcDbArc
50
208.55847725280361
51
294.51684598356059
0
ARC
5
237
100
AcDbEntity
8
0
100
AcDbCircle
10
-24.261474391426017
20
-16.240407016767861
30
0
40
0.19223228096961908
210
0
220
0
230
1
100
AcDbArc
50
137.48312491471606
51
223.44154830613098
0
ARC
5
238
100
AcDbEntity
8
0
100
AcDbCircle
10
-23.739571376349588
20
-16.418123891437308
30
0
40
0.7314312458038319
210
0
220
0
230
1
100
AcDbArc
50
122.86074579234813
51
155.12848331540329
0
ARC
5
239
100
AcDbEntity
8
0
100
AcDbCircle
10
-24.175137803217854
20
-15.682326257793957
30
0
40
0.7314312490059699
210
0
220
0
230
1
100
AcDbArc
50
302.86075351270364
51
335.12848053587794
0
ARC
5
240
100
AcDbEntity
8
0
100
AcDbCircle
10
-23.653234612967768
20
-15.860043373569257
30
0
40
0.19223208709729006
210
0
220
0
230
1
100
AcDbArc
50
-42.516859190853204
51
43.441519104730396
0
ARC
5
241
100
AcDbEntity
8
0
100
AcDbCircle
10
-23.674760736748922
20
-16.371036205500193
30
0
40
0.73143124580383423
210
0
220
0
230
1
100
AcDbArc
50
96.871520830613051
51
129.13923426714621
0
ARC
5
242
100
AcDbEntity
8
0
100
AcDbCircle
10
-23.682502627384771
20
-15.819759407677607
30
0
40
0.1922322953090112
210
0
220
-0
230
1
100
AcDbArc
50
28.558448173600098
51
114.5168818293226
0
LINE
5
243
100
AcDbEntity
8
0
100
AcDbLine
10
-27.190546994857272
20
-9.7638097384752438
30
0
11
-26.450935837859323
21
-10.068120089374721
31
0
0
LINE
5
244
100
AcDbEntity
8
0
100
AcDbLine
10
-26.450935837859323
20
-10.068120089374721
30
0
11
-26.639243073411265
21
-9.4885700105855157
31
0
0
ARC
5
245
100
AcDbEntity
8
0
100
AcDbCircle
10
-27.378378084973335
20
-9.9824468378438098
30
0
40
0.2435346320271492
210
0
220
0
230
1
100
AcDbArc
50
100.23138017669703
51
205.76861868531543
0
ARC
5
246
100
AcDbEntity
8
0
100
AcDbCircle
10
-27.299382211548743
20
-10.030074072804094
30
0
40
0.30394591502552382
210
0
220
0
230
1
100
AcDbArc
50
191.04818361936682
51
277.00656965301067
0
ARC
5
247
100
AcDbEntity
8
0
100
AcDbCircle
10
-27.325627621075181
20
-9.9680237707210146
30
0
40
0.24484719019319034
210
0
220
-0
230
1
100
AcDbArc
50
56.516721685647632
51
113.08610073440009
0
LWPOLYLINE
5
248
100
AcDbEntity
8
0
100
AcDbPolyline
90
4
70
1
43
0.0
10
-26.791351783202959
20
-9.217625604573751
10
-26.733396725722578
20
-9.1987948649020641
10
-26.752227419347147
20
-9.140839949140144
10
-26.810182476827524
20
-9.1596706888118327
0
LINE
5
249
100
AcDbEntity
8
0
100
AcDbLine
10
-26.84638102561134
20
-8.8510649451751586
30
0
11
-26.959365325500102
21
-8.5033350254482531
31
0
0
LINE
5
250
100
AcDbEntity
8
0
100
AcDbLine
10
-27.266508372389914
20
-8.3468377081663476
30
0
11
-27.382418345632217
21
-8.3844991414626016
31
0
0
LINE
5
251
100
AcDbEntity
8
0
100
AcDbLine
10
-27.538915333430069
20
-8.6916422379766392
30
0
11
-27.42593103354131
21
-9.0393721577035446
31
0
0
LINE
5
252
100
AcDbEntity
8
0
100
AcDbLine
10
-27.42593103354131
20
-9.0393721577035446
30
0
11
-27.889571068228982
21
-9.1900179369356767
31
0
0
LINE
5
253
100
AcDbEntity
8
0
100
AcDbLine
10
-27.889571068228982
20
-9.1900179369356767
30
0
11
-28.077878326804488
21
-8.6104677872872379
31
0
0
ARC
5
254
100
AcDbEntity
8
0
100
AcDbCircle
10
-27.172398240521613
20
-8.5417860346330237
30
0
40
0.21647517869236368
210
0
220
-0
230
1
100
AcDbArc
50
10.231347145917628
51
115.76864752287226
0
ARC
5
255
100
AcDbEntity
8
0
100
AcDbCircle
10
-27.343967148681859
20
-8.5975321521554608
30
0
40
0.21647530619398478
210
0
220
0
230
1
100
AcDbArc
50
100.23139155492058
51
205.76865285408323
0
LINE
5
256
100
AcDbEntity
8
0
100
AcDbLine
10
-27.128841844403915
20
-7.981739933280199
30
0
11
-27.241826190339793
21
-7.634009871834829
31
0
0
LINE
5
257
100
AcDbEntity
8
0
100
AcDbLine
10
-27.54896914513537
20
-7.4775128379898526
30
0
11
-27.664879118377673
21
-7.5151742712861056
31
0
0
LINE
5
258
100
AcDbEntity
8
0
100
AcDbLine
10
-27.821376198269768
20
-7.8223170843632142
30
0
11
-27.708391852333889
21
-8.1700471458085833
31
0
0
LINE
5
259
100
AcDbEntity
8
0
100
AcDbLine
10
-27.708391852333889
20
-8.1700471458085833
30
0
11
-28.172031887021561
21
-8.3206929250407153
31
0
0
LINE
5
260
100
AcDbEntity
8
0
100
AcDbLine
10
-28.172031887021561
20
-8.3206929250407153
30
0
11
-28.36033909954995
21
-7.7411429171107429
31
0
0
ARC
5
261
100
AcDbEntity
8
0
100
AcDbCircle
10
-27.454859013267068
20
-7.6724611644565277
30
0
40
0.2164751384077237
210
0
220
-0
230
1
100
AcDbArc
50
10.231425301558485
51
115.76864752287237
0
ARC
5
262
100
AcDbEntity
8
0
100
AcDbCircle
10
-27.626427921427315
20
-7.7282072819789658
30
0
40
0.21647530619398478
210
0
220
0
230
1
100
AcDbArc
50
100.23139155492053
51
205.76857469844143
0
LINE
5
263
100
AcDbEntity
8
0
100
AcDbLine
10
-28.850479882955536
20
-0.42656248807908692
30
0
11
-28.241104942560181
21
-0.94453117251397656
31
0
0
LINE
5
264
100
AcDbEntity
8
0
100
AcDbLine
10
-28.241104942560181
20
-0.94453117251397656
30
0
11
-28.241104942560181
21
-0.33515623211862106
31
0
0
ARC
5
265
100
AcDbEntity
8
0
100
AcDbCircle
10
-29.096680444478974
20
-0.57645565271379207
30
0
40
0.24353463202714942
210
0
220
-0
230
1
100
AcDbArc
50
82.231380176696135
51
187.76861868531583
0
ARC
5
266
100
AcDbEntity
8
0
100
AcDbCircle
10
-29.036268529295906
20
-0.6461629867553873
30
0
40
0.30394592404330972
210
0
220
0
230
1
100
AcDbArc
50
173.04816967779271
51
259.00656965301073
0
ARC
5
267
100
AcDbEntity
8
0
100
AcDbCircle
10
-29.042054799199089
20
-0.57903936505319309
30
0
40
0.24484719019319195
210
0
220
-0
230
1
100
AcDbArc
50
38.516721685647404
51
95.086099188755455
0
LWPOLYLINE
5
268
100
AcDbEntity
8
0
100
AcDbPolyline
90
4
70
1
43
0.0
10
-28.302042496204365
20
-0.030468761920943565
10
-28.241104942560185
20
-0.030468761920943443
10
-28.241104942560185
20
0.03046864271162476
10
-28.302042496204365
20
0.030468642711624638
0
LINE
5
269
100
AcDbEntity
8
0
100
AcDbLine
10
-28.85047988295554
20
0.33515626192091308
30
0
11
-28.85047988295554
21
0.70078128576277099
31
0
0
LINE
5
270
100
AcDbEntity
8
0
100
AcDbLine
10
-28.606729966402042
20
0.94453120231626886
30
0
11
-28.545792412757862
21
0.94453120231626897
31
0
0
LINE
5
271
100
AcDbEntity
8
0
100
AcDbLine
10
-28.545792412757862
20
0.33515626192091363
30
0
11
-28.85047988295554
21
0.33515626192091308
31
0
0
ARC
5
272
100
AcDbEntity
8
0
100
AcDbCircle
10
-28.635991525650013
20
0.73004269599913019
30
0
40
0.21647530619398536
210
0
220
-0
230
1
100
AcDbArc
50
82.231391554919568
51
187.76857469844157
0
ARC
5
273
100
AcDbEntity
8
0
100
AcDbCircle
10
-28.545792412757862
20
0.63984358310697931
30
0
40
0.30468732118606567
210
0
220
0
230
1
100
AcDbArc
50
-90
51
90
0
ARC
5
274
100
AcDbEntity
8
0
100
AcDbCircle
10
-28.909003075957287
20
0.76413297653196655
30
0
40
0.43295040726661649
210
0
220
0
230
1
100
AcDbArc
50
172.23138632364081
51
277.76862354572069
0
LINE
5
275
100
AcDbEntity
8
0
100
AcDbLine
10
-27.711482381326249
20
8.0749409690044001
30
0
11
-27.291993522464249
21
7.3940161930481505
31
0
0
LINE
5
276
100
AcDbEntity
8
0
100
AcDbLine
10
-27.291993522464249
20
7.3940161930481505
30
0
11
-27.103686286912311
21
7.9735662718373561
31
0
0
ARC
5
277
100
AcDbEntity
8
0
100
AcDbCircle
10
-27.991952587914966
20
8.0084641847066251
30
0
40
0.24353463202714792
210
0
220
-0
230
1
100
AcDbArc
50
64.231380176697655
51
169.76861868531577
0
ARC
5
278
100
AcDbEntity
8
0
100
AcDbCircle
10
-27.956038170146105
20
7.9235003328377296
30
0
40
0.30394591502552459
210
0
220
0
230
1
100
AcDbArc
50
155.04818361936736
51
241.00656965301107
0
ARC
5
279
100
AcDbEntity
8
0
100
AcDbCircle
10
-27.940798900012599
20
7.9891267463890561
30
0
40
0.2448471901931944
210
0
220
-0
230
1
100
AcDbArc
50
20.51672168564733
51
77.086100734399821
0
LWPOLYLINE
5
280
100
AcDbEntity
8
0
100
AcDbPolyline
90
4
70
1
43
0.0
10
-27.067487692081379
20
8.2821721571924947
10
-27.009532634600998
20
8.2633414175208078
10
-26.990701940976432
20
8.3212963332827261
10
-27.048656998456813
20
8.340127072954413
0
LINE
5
281
100
AcDbEntity
8
0
100
AcDbLine
10
-27.47609834264221
20
8.7993785497760975
30
0
11
-27.363114042753452
21
9.1471084695030029
31
0
0
LINE
5
282
100
AcDbEntity
8
0
100
AcDbLine
10
-27.055971137582105
20
9.3036058328320319
30
0
11
-26.998016080101724
21
9.284775093160345
31
0
0
LINE
5
283
100
AcDbEntity
8
0
100
AcDbLine
10
-27.186323338677223
20
8.7052249435119062
30
0
11
-27.47609834264221
21
8.7993785497760975
31
0
0
ARC
5
284
100
AcDbEntity
8
0
100
AcDbCircle
10
-27.150081127731937
20
9.1086574603182342
30
0
40
0.21647530619398458
210
0
220
-0
230
1
100
AcDbArc
50
64.231391554920023
51
169.76865285408303
0
ARC
5
285
100
AcDbEntity
8
0
100
AcDbCircle
10
-27.092169732413034
20
8.9949999474768934
30
0
40
0.30468747019767756
210
0
220
0
230
1
100
AcDbArc
50
-107.99999999999937
51
72.000000000000711
0
ARC
5
286
100
AcDbEntity
8
0
100
AcDbCircle
10
-27.399196065647857
20
9.2254444524669168
30
0
40
0.43295040726661854
210
0
220
0
230
1
100
AcDbArc
50
154.23138632364069
51
259.76862088012439
0
LINE
5
287
100
AcDbEntity
8
0
100
AcDbLine
10
-26.614087515919664
20
9.4803963491426746
30
0
11
-26.501103169983786
21
9.8281264105880446
31
0
0
LINE
5
288
100
AcDbEntity
8
0
100
AcDbLine
10
-26.657600320735114
20
10.135269246688715
30
0
11
-26.773510364836646
21
10.172930703008527
31
0
0
LINE
5
289
100
AcDbEntity
8
0
100
AcDbLine
10
-27.08065317791376
20
10.016433623116431
30
0
11
-27.193637523849638
21
9.6687035616710588
31
0
0
LINE
5
290
100
AcDbEntity
8
0
100
AcDbLine
10
-27.193637523849638
20
9.6687035616710588
30
0
11
-27.657277558537309
21
9.8193493409031909
31
0
0
LINE
5
291
100
AcDbEntity
8
0
100
AcDbLine
10
-27.657277558537309
20
9.8193493409031909
30
0
11
-27.468970346008923
21
10.398899348833165
31
0
0
ARC
5
292
100
AcDbEntity
8
0
100
AcDbCircle
10
-26.696051588544702
20
9.9222362590194138
30
0
40
0.21647528605172972
210
-0
220
0
230
1
100
AcDbArc
50
-25.76856936728251
51
79.76858890618206
0
ARC
5
293
100
AcDbEntity
8
0
100
AcDbCircle
10
-26.867620354986478
20
9.977982330494731
30
0
40
0.21647530619398359
210
0
220
-0
230
1
100
AcDbArc
50
64.23139155491981
51
169.76857469844163
0
LINE
5
294
100
AcDbEntity
8
0
100
AcDbLine
10
-23.612654287508455
20
16.628337307045822
30
0
11
-23.424113958642554
21
15.851110235702969
31
0
0
LINE
5
295
100
AcDbEntity
8
0
100
AcDbLine
10
-23.424113958642554
20
15.851110235702969
30
0
11
-23.065932355561557
21
16.344104918429032
31
0
0
ARC
5
296
100
AcDbEntity
8
0
100
AcDbCircle
10
-23.899939717397295
20
16.651784248685306
30
0
40
0.24353463202714851
210
0
220
-0
230
1
100
AcDbArc
50
46.231380176697158
51
151.76861868531594
0
ARC
5
297
100
AcDbEntity
8
0
100
AcDbCircle
10
-23.892038394277733
20
16.559880598005734
30
0
40
0.30394592404330739
210
0
220
0
230
1
100
AcDbArc
50
137.04816967779243
51
223.00656965301084
0
ARC
5
298
100
AcDbEntity
8
0
100
AcDbCircle
10
-23.857265310046436
20
16.617585832801677
30
0
40
0.24484719019319076
210
0
220
-0
230
1
100
AcDbArc
50
2.5167216856477372
51
59.086099188756961
0
LWPOLYLINE
5
299
100
AcDbEntity
8
0
100
AcDbPolyline
90
4
70
1
43
0.0
10
-22.936141070514839
20
16.626420455134895
10
-22.886841554021061
20
16.590602259792064
10
-22.851023446265057
20
16.639901655732917
10
-22.900322962758839
20
16.675719851075744
0
LINE
5
300
100
AcDbEntity
8
0
100
AcDbLine
10
-23.460724097720608
20
17.459489717613192
30
0
11
-23.559323010155232
21
17.531126020712023
31
0
0
LINE
5
301
100
AcDbEntity
8
0
100
AcDbLine
10
-23.559323010155232
20
17.531126020712023
30
0
11
-23.201141407074243
21
18.02412070343809
31
0
0
LINE
5
302
100
AcDbEntity
8
0
100
AcDbLine
10
-23.201141407074243
20
18.02412070343809
30
0
11
-22.492841843184067
21
17.132896338458977
31
0
0
LINE
5
303
100
AcDbEntity
8
0
100
AcDbLine
10
-17.68827598340452
20
22.842563762056152
30
0
11
-17.749139908861849
21
22.045114681676509
31
0
0
LINE
5
304
100
AcDbEntity
8
0
100
AcDbLine
10
-17.749139908861849
20
22.045114681676509
30
0
11
-17.256145165859323
21
22.403296328550919
31
0
0
ARC
5
305
100
AcDbEntity
8
0
100
AcDbCircle
10
-17.954255220380702
20
22.953639164968124
30
0
40
0.24353463202715003
210
0
220
-0
230
1
100
AcDbArc
50
28.231380176697428
51
133.76861868531657
0
ARC
5
306
100
AcDbEntity
8
0
100
AcDbCircle
10
-17.975140345169113
20
22.863791999789424
30
0
40
0.3039459150255201
210
0
220
0
230
1
100
AcDbArc
50
119.04818361936744
51
205.00656965301067
0
ARC
5
307
100
AcDbEntity
8
0
100
AcDbCircle
10
-17.924237278602916
20
22.907927465392149
30
0
40
0.24484719019319059
210
-0
220
0
230
1
100
AcDbArc
50
-15.483278314352273
51
41.086100734399714
0
LWPOLYLINE
5
308
100
AcDbEntity
8
0
100
AcDbPolyline
90
4
70
1
43
0.0
10
-17.045465899286199
20
22.631686734172018
10
-17.009647703943365
20
22.582387217678242
10
-16.960348308002512
20
22.618205325434246
10
-16.996166503345346
20
22.667504841928018
0
LINE
5
309
100
AcDbEntity
8
0
100
AcDbLine
10
-17.286941566603804
20
23.586087667557614
30
0
11
-17.358577869702636
21
23.684686579992238
31
0
0
LINE
5
310
100
AcDbEntity
8
0
100
AcDbLine
10
-17.358577869702636
20
23.684686579992238
30
0
11
-16.86558306642365
21
24.042868270660062
31
0
0
LINE
5
311
100
AcDbEntity
8
0
100
AcDbLine
10
-16.86558306642365
20
24.042868270660062
30
0
11
-16.467353625276452
21
22.97638692851524
31
0
0
LINE
5
312
100
AcDbEntity
8
0
100
AcDbLine
10
-15.974358942550388
20
23.334568531596233
30
0
11
-15.67856208469358
21
23.54947752847956
31
0
0
LINE
5
313
100
AcDbEntity
8
0
100
AcDbLine
10
-15.624636953608819
20
23.889948080099408
30
0
11
-15.696273256707652
21
23.988546992534037
31
0
0
LINE
5
314
100
AcDbEntity
8
0
100
AcDbLine
10
-16.036743687774575
20
24.042472211205627
30
0
11
-16.332540545631382
21
23.827563214322296
31
0
0
LINE
5
315
100
AcDbEntity
8
0
100
AcDbLine
10
-16.332540545631382
20
23.827563214322296
30
0
11
-16.619085845613544
21
24.221958984613735
31
0
0
LINE
5
316
100
AcDbEntity
8
0
100
AcDbLine
10
-16.619085845613544
20
24.221958984613735
30
0
11
-16.12609116288748
21
24.580140587694729
31
0
0
ARC
5
317
100
AcDbEntity
8
0
100
AcDbCircle
10
-15.780962199745616
20
23.740201680033511
30
0
40
0.21647513840772625
210
-0
220
0
230
1
100
AcDbArc
50
-61.768574698441597
51
43.768647522870772
0
ARC
5
318
100
AcDbEntity
8
0
100
AcDbCircle
10
-15.886997616401356
20
23.886146910448097
30
0
40
0.21647530619398631
210
0
220
-0
230
1
100
AcDbArc
50
28.231391554919895
51
133.76857469844074
0
LINE
5
319
100
AcDbEntity
8
0
100
AcDbLine
10
-9.3291471616685389
20
27.331777427277117
30
0
11
-9.633457441708785
21
26.592166293302725
31
0
0
LINE
5
320
100
AcDbEntity
8
0
100
AcDbLine
10
-9.633457441708785
20
26.592166293302725
30
0
11
-9.0539074337788126
21
26.780473505831118
31
0
0
ARC
5
321
100
AcDbEntity
8
0
100
AcDbCircle
10
-9.5477841901778717
20
27.519608540416748
30
0
40
0.2435346320271492
210
0
220
-0
230
1
100
AcDbArc
50
10.231380176696984
51
115.7686186853158
0
ARC
5
322
100
AcDbEntity
8
0
100
AcDbCircle
10
-9.5954114959973875
20
27.440612643968592
30
0
40
0.30394592404331461
210
0
220
0
230
1
100
AcDbArc
50
101.04816967779273
51
187.00656965300999
0
ARC
5
323
100
AcDbEntity
8
0
100
AcDbCircle
10
-9.5333611939143097
20
27.466858053495034
30
0
40
0.24484719019319187
210
-0
220
0
230
1
100
AcDbArc
50
-33.483278314353747
51
23.086099188756464
0
LWPOLYLINE
5
324
100
AcDbEntity
8
0
100
AcDbPolyline
90
4
70
1
43
0.0
10
-8.7641324298138255
20
26.874627112095308
10
-8.7061775140519071
20
26.893457805719873
10
-8.7250082537235922
20
26.951412863200254
10
-8.7829631694855124
20
26.932582169575689
0
LINE
5
325
100
AcDbEntity
8
0
100
AcDbLine
10
-8.7061775140519071
20
26.893457805719873
30
0
11
-8.7177871167736249
21
26.633391631032836
31
0
0
LWPOLYLINE
5
326
100
AcDbEntity
8
0
100
AcDbPolyline
90
2
70
1
43
0.0
10
-8.5105561256479287
20
27.277386384285258
42
-1.0000000447034845
10
-7.931006090519511
20
27.465693633658361
42
-0.99999995529651731
0
LWPOLYLINE
5
327
100
AcDbEntity
8
0
100
AcDbPolyline
90
2
70
1
43
0.0
10
-8.6220776189700175
20
27.817812133469573
42
-1.0000000440782302
10
-8.1584375908672833
20
27.968457932968054
42
-0.9999999559217716
0
LINE
5
328
100
AcDbEntity
8
0
100
AcDbLine
10
-0.88359376788141319
20
28.876930040121071
30
0
11
-1.4015625268221099
21
28.267555099725715
31
0
0
LINE
5
329
100
AcDbEntity
8
0
100
AcDbLine
10
-1.4015625268221099
20
28.267555099725715
30
0
11
-0.79218751192094872
21
28.267555099725715
31
0
0
ARC
5
330
100
AcDbEntity
8
0
100
AcDbCircle
10
-1.0334870070219238
20
29.123130601644508
30
0
40
0.24353463202714931
210
0
220
0
230
1
100
AcDbArc
50
-7.7686198233030517
51
97.768618685315687
0
ARC
5
331
100
AcDbEntity
8
0
100
AcDbCircle
10
-1.1031942665577132
20
29.062718686461441
30
0
40
0.30394591502551993
210
0
220
-0
230
1
100
AcDbArc
50
83.048183619367038
51
169.00656965301008
0
ARC
5
332
100
AcDbEntity
8
0
100
AcDbCircle
10
-1.036070644855519
20
29.068504956364624
30
0
40
0.24484719019319176
210
0
220
0
230
1
100
AcDbArc
50
-51.483278314352681
51
5.0861007343997064
0
LWPOLYLINE
5
333
100
AcDbEntity
8
0
100
AcDbPolyline
90
4
70
1
43
0.0
10
-0.48749989271165917
20
28.328492653369896
10
-0.48749989271165917
20
28.267555099725715
10
-0.42656248807909081
20
28.267555099725715
10
-0.42656248807909081
20
28.328492653369896
0
LWPOLYLINE
5
334
100
AcDbEntity
8
0
100
AcDbPolyline
90
2
70
1
43
0.0
10
-0.12187503650786355
20
28.572242543449722
42
-1.000000043443978
10
0.48749994114039347
20
28.572242570086349
42
-0.99999995655602381
0
LWPOLYLINE
5
335
100
AcDbEntity
8
0
100
AcDbPolyline
90
2
70
1
43
0.0
10
-0.060937538743037929
20
29.12068000969224
42
-1.0000000440782302
10
0.4265624433755677
20
29.120680031001541
42
-0.9999999559217716
0
LINE
5
336
100
AcDbEntity
8
0
100
AcDbLine
10
0.79218739271161964
20
28.267555099725715
30
0
11
1.1578124165534776
21
28.267555099725715
31
0
0
LINE
5
337
100
AcDbEntity
8
0
100
AcDbLine
10
1.4015623331069749
20
28.511305165290825
30
0
11
1.4015623331069749
21
28.633180123567573
31
0
0
LINE
5
338
100
AcDbEntity
8
0
100
AcDbLine
10
1.1578124165534776
20
28.876930040121071
30
0
11
0.79218739271161964
21
28.876930040121071
31
0
0
LINE
5
339
100
AcDbEntity
8
0
100
AcDbLine
10
0.79218739271161964
20
28.876930040121071
30
0
11
0.79218739271161964
21
29.364430022239677
31
0
0
LINE
5
340
100
AcDbEntity
8
0
100
AcDbLine
10
0.79218739271161964
20
29.364430022239677
30
0
11
1.4015623331069749
21
29.364430022239677
31
0
0
ARC
5
341
100
AcDbEntity
8
0
100
AcDbCircle
10
1.1870738267898362
20
28.482043457031242
30
0
40
0.21647513840772517
210
0
220
0
230
1
100
AcDbArc
50
-97.768574698441441
51
7.7686475228712979
0
ARC
5
342
100
AcDbEntity
8
0
100
AcDbCircle
10
1.1870738267898362
20
28.662441682815544
30
0
40
0.21647530619398536
210
0
220
0
230
1
100
AcDbArc
50
-7.768608445080428
51
97.768574698441469
0
LINE
5
343
100
AcDbEntity
8
0
100
AcDbLine
10
8.5177770938791468
20
27.595407543235719
30
0
11
7.8368523887821304
21
27.175918661350163
31
0
0
LINE
5
344
100
AcDbEntity
8
0
100
AcDbLine
10
7.8368523887821304
20
27.175918661350163
30
0
11
8.4164023967121047
21
26.98761144882177
31
0
0
ARC
5
345
100
AcDbEntity
8
0
100
AcDbCircle
10
8.4513003804406068
20
27.875877726800873
30
0
40
0.24353463202714987
210
-0
220
0
230
1
100
AcDbArc
50
-25.768619823303865
51
79.768618685316184
0
ARC
5
346
100
AcDbEntity
8
0
100
AcDbCircle
10
8.3663364577124781
20
27.839963332055571
30
0
40
0.30394592404331416
210
-0
220
0
230
1
100
AcDbArc
50
65.048169677793041
51
151.00656965301093
0
ARC
5
347
100
AcDbEntity
8
0
100
AcDbCircle
10
8.4319628712638046
20
27.824724061922062
30
0
40
0.24484719019318985
210
-0
220
0
230
1
100
AcDbArc
50
290.51672168564755
51
347.08609918875567
0
LWPOLYLINE
5
348
100
AcDbEntity
8
0
100
AcDbPolyline
90
4
70
1
43
0.0
10
8.7250081403487769
20
26.951412900037962
10
8.7061774006770918
20
26.893457842557581
10
8.7641323164390084
20
26.874627148933019
10
8.7829630561106971
20
26.9325822064134
0
LINE
5
349
100
AcDbEntity
8
0
100
AcDbLine
10
9.7841032492845663
20
27.055806318780988
30
0
11
9.4363731878391963
21
27.168790664716866
31
0
0
LINE
5
350
100
AcDbEntity
8
0
100
AcDbLine
10
9.2798761309706599
20
27.475933548653209
30
0
11
9.2987068476187851
21
27.533888535274361
31
0
0
LINE
5
351
100
AcDbEntity
8
0
100
AcDbLine
10
9.8782568555487593
20
27.345581322745971
30
0
11
9.7841032492845663
21
27.055806318780988
31
0
0
ARC
5
352
100
AcDbEntity
8
0
100
AcDbCircle
10
9.4748242200475268
20
27.381823650597617
30
0
40
0.21647501090600765
210
0
220
0
230
1
100
AcDbArc
50
154.23138089254161
51
259.76865018847616
0
ARC
5
353
100
AcDbEntity
8
0
100
AcDbCircle
10
9.5884817098653095
20
27.439734975057284
30
0
40
0.304687619209289
210
-0
220
0
230
1
100
AcDbArc
50
-18.000000000000053
51
161.99999999999935
0
ARC
5
354
100
AcDbEntity
8
0
100
AcDbCircle
10
9.3580372278988442
20
27.132708712681698
30
0
40
0.43295040726661738
210
0
220
0
230
1
100
AcDbArc
50
244.23137084202946
51
349.76860844508047
0
LINE
5
355
100
AcDbEntity
8
0
100
AcDbLine
10
9.6439662925139089
20
-26.624509210420282
30
0
11
9.3541912885489218
21
-26.718662816684471
31
0
0
LINE
5
356
100
AcDbEntity
8
0
100
AcDbLine
10
9.9829192842744252
20
-27.667699253037924
30
0
11
9.6351893645475197
21
-27.780683552926682
31
0
0
LINE
5
357
100
AcDbEntity
8
0
100
AcDbLine
10
9.4845435853153877
20
-27.317043518239011
30
0
11
9.7163635317999919
21
-27.24172065164651
31
0
0
ARC
5
358
100
AcDbEntity
8
0
100
AcDbCircle
10
9.4483448948131148
20
-27.008437820649462
30
0
40
0.30468747019767822
210
0
220
0
230
1
100
AcDbArc
50
107.99999999999982
51
288.00000250447812
0
ARC
5
359
100
AcDbEntity
8
0
100
AcDbCircle
10
9.5598664749314537
20
-27.548863535582846
30
0
40
0.24374999105930314
210
0
220
0
230
1
100
AcDbArc
50
107.99999999999997
51
288
0
LWPOLYLINE
5
360
100
AcDbEntity
8
0
100
AcDbPolyline
90
4
70
1
43
0.0
10
8.7934720202906327
20
-26.964925086693242
10
8.7746412806189475
20
-26.906970029212861
10
8.7166863648570292
20
-26.925800722837426
10
8.7355171045287143
20
-26.983755780317807
0
LINE
5
361
100
AcDbEntity
8
0
100
AcDbLine
10
8.4269112191735775
20
-27.019954375148739
30
0
11
8.1371363569270549
21
-27.114107935365812
31
0
0
LINE
5
362
100
AcDbEntity
8
0
100
AcDbLine
10
8.7658642109340956
20
-28.063144417766384
30
0
11
8.4181341494887256
21
-28.176128763702263
31
0
0
LINE
5
363
100
AcDbEntity
8
0
100
AcDbLine
10
8.2674883702565936
20
-27.712488729014591
30
0
11
8.4993086001781251
21
-27.637165770327844
31
0
0
ARC
5
364
100
AcDbEntity
8
0
100
AcDbCircle
10
8.2312899631912479
20
-27.403882939330796
30
0
40
0.304687470197674
210
0
220
0
230
1
100
AcDbArc
50
108.00000000000026
51
288.00000250447812
0
ARC
5
365
100
AcDbEntity
8
0
100
AcDbCircle
10
8.3428112598726596
20
-27.944308746358427
30
0
40
0.24374999105930345
210
0
220
0
230
1
100
AcDbArc
50
107.99999999999997
51
288
0
LINE
5
366
100
AcDbEntity
8
0
100
AcDbLine
10
17.749139908861849
20
-22.045114681676495
30
0
11
17.502642507222358
21
-22.224205527010412
31
0
0
LINE
5
367
100
AcDbEntity
8
0
100
AcDbLine
10
18.393866811925008
20
-22.932505134693994
30
0
11
18.098069954068198
21
-23.147414131577321
31
0
0
LINE
5
368
100
AcDbEntity
8
0
100
AcDbLine
10
17.811524654086035
20
-22.753018361285889
30
0
11
18.008722539231755
21
-22.609745711294806
31
0
0
ARC
5
369
100
AcDbEntity
8
0
100
AcDbCircle
10
17.681733308762855
20
-22.47070286837344
30
0
40
0.30468747019767678
210
0
220
0
230
1
100
AcDbArc
50
126.00000000000026
51
306.00000250447818
0
ARC
5
370
100
AcDbEntity
8
0
100
AcDbCircle
10
17.954797304077118
20
-22.950216246431605
30
0
40
0.24374999105930317
210
0
220
0
230
1
100
AcDbArc
50
126.0000000000007
51
306
0
LWPOLYLINE
5
371
100
AcDbEntity
8
0
100
AcDbPolyline
90
4
70
1
43
0.0
10
17.045465899286199
20
-22.63168673417201
10
17.009647703943365
20
-22.582387217678232
10
16.960348308002516
20
-22.618205325434232
10
16.99616650334535
20
-22.667504841928015
0
LINE
5
372
100
AcDbEntity
8
0
100
AcDbLine
10
16.652987101458621
20
-23.594745163560958
30
0
11
16.713850966639484
21
-22.797296126974732
31
0
0
LINE
5
373
100
AcDbEntity
8
0
100
AcDbLine
10
16.713850966639484
20
-22.797296126974732
30
0
11
16.220856163360494
21
-23.155477817642556
31
0
0
ARC
5
374
100
AcDbEntity
8
0
100
AcDbCircle
10
16.91896627815834
20
-23.705820610266347
30
0
40
0.24353463202715003
210
0
220
0
230
1
100
AcDbArc
50
208.23138017669629
51
313.7686186853154
0
ARC
5
375
100
AcDbEntity
8
0
100
AcDbCircle
10
16.939851463223214
20
-23.61597340129423
30
0
40
0.303945924043313
210
0
220
0
230
1
100
AcDbArc
50
-60.951830322208195
51
25.006569653010697
0
ARC
5
376
100
AcDbEntity
8
0
100
AcDbCircle
10
16.888948396657018
20
-23.660108866896955
30
0
40
0.2448471901931927
210
0
220
0
230
1
100
AcDbArc
50
164.51672168564772
51
221.08609918875564
0
LINE
5
377
100
AcDbEntity
8
0
100
AcDbLine
10
15.97435894255039
20
-23.334568531596226
30
0
11
15.678562084693581
21
-23.549477528479553
31
0
0
LINE
5
378
100
AcDbEntity
8
0
100
AcDbLine
10
15.624636953608825
20
-23.889948080099401
30
0
11
15.696273256707657
21
-23.988546992534026
31
0
0
LINE
5
379
100
AcDbEntity
8
0
100
AcDbLine
10
16.036743687774578
20
-24.042472211205613
30
0
11
16.332540545631385
21
-23.827563214322286
31
0
0
LINE
5
380
100
AcDbEntity
8
0
100
AcDbLine
10
16.332540545631385
20
-23.827563214322286
30
0
11
16.619085845613547
21
-24.221958984613718
31
0
0
LINE
5
381
100
AcDbEntity
8
0
100
AcDbLine
10
16.619085845613547
20
-24.221958984613718
30
0
11
16.126091162887487
21
-24.580140587694718
31
0
0
ARC
5
382
100
AcDbEntity
8
0
100
AcDbCircle
10
15.780962199745618
20
-23.740201680033501
30
0
40
0.21647513840772625
210
0
220
0
230
1
100
AcDbArc
50
118.23142530155883
51
223.7686475228721
0
ARC
5
383
100
AcDbEntity
8
0
100
AcDbCircle
10
15.886997616401359
20
-23.88614691044809
30
0
40
0.21647530619398436
210
0
220
0
230
1
100
AcDbArc
50
208.23139155491924
51
313.76857469844202
0
LINE
5
384
100
AcDbEntity
8
0
100
AcDbLine
10
23.424113958642554
20
-15.851110235702945
30
0
11
23.245023157102057
21
-16.097607577065979
31
0
0
LINE
5
385
100
AcDbEntity
8
0
100
AcDbLine
10
24.311504411660056
20
-16.495837138766095
30
0
11
24.096595502363556
21
-16.791633876069977
31
0
0
LINE
5
386
100
AcDbEntity
8
0
100
AcDbLine
10
23.702199732072117
20
-16.505088576087818
30
0
11
23.845472338269786
21
-16.307890751218565
31
0
0
ARC
5
387
100
AcDbEntity
8
0
100
AcDbCircle
10
23.491520498465089
20
-16.276698378606472
30
0
40
0.30468747019767417
210
0
220
0
230
1
100
AcDbArc
50
144.00000000000068
51
324.00000250447846
0
ARC
5
388
100
AcDbEntity
8
0
100
AcDbCircle
10
23.89939761721784
20
-16.648361226078897
30
0
40
0.24374999105930548
210
0
220
0
230
1
100
AcDbArc
50
144.00000000000099
51
324
0
LWPOLYLINE
5
389
100
AcDbEntity
8
0
100
AcDbPolyline
90
4
70
1
43
0.0
10
22.936141070514839
20
-16.626420455134866
10
22.886841554021061
20
-16.590602259792039
10
22.851023446265057
20
-16.639901655732888
10
22.900322962758835
20
-16.675719851075719
0
LINE
5
390
100
AcDbEntity
8
0
100
AcDbLine
10
22.860472798416808
20
-17.663626309544625
30
0
11
22.671932557137737
21
-16.886399117648846
31
0
0
LINE
5
391
100
AcDbEntity
8
0
100
AcDbLine
10
22.671932557137737
20
-16.886399117648846
30
0
11
22.31375095405674
21
-17.37939380037491
31
0
0
ARC
5
392
100
AcDbEntity
8
0
100
AcDbCircle
10
23.147758403479308
20
-17.687073010078254
30
0
40
0.24353463202714851
210
0
220
0
230
1
100
AcDbArc
50
226.23138017669655
51
331.76861868531478
0
ARC
5
393
100
AcDbEntity
8
0
100
AcDbCircle
10
23.139857080359739
20
-17.595169359398682
30
0
40
0.30394592404331222
210
0
220
0
230
1
100
AcDbArc
50
-42.951830322207627
51
43.006569653009926
0
ARC
5
394
100
AcDbEntity
8
0
100
AcDbCircle
10
23.105083908541619
20
-17.652874714747554
30
0
40
0.24484728298915742
210
0
220
0
230
1
100
AcDbArc
50
182.51674896857554
51
239.0861022800442
0
LINE
5
395
100
AcDbEntity
8
0
100
AcDbLine
10
27.349492033911122
20
-7.4126985919213073
30
0
11
27.25533840462337
21
-7.7024736667455258
31
0
0
LINE
5
396
100
AcDbEntity
8
0
100
AcDbLine
10
28.392682076528768
20
-7.7516515836818254
30
0
11
28.27969773059289
21
-8.0993816451271954
31
0
0
LINE
5
397
100
AcDbEntity
8
0
100
AcDbLine
10
27.816057695905219
20
-7.9487358658950624
30
0
11
27.891380585521283
21
-7.7169158485512268
31
0
0
ARC
5
398
100
AcDbEntity
8
0
100
AcDbCircle
10
27.545113408588357
20
-7.7966272730097197
30
0
40
0.30468747019767822
210
0
220
0
230
1
100
AcDbArc
50
161.99999999999986
51
342.00000250447818
0
ARC
5
399
100
AcDbEntity
8
0
100
AcDbCircle
10
28.047877713249054
20
-8.0240587555111293
30
0
40
0.24374999105930345
210
0
220
0
230
1
100
AcDbArc
50
161.99999999999986
51
342.00000000000006
0
LWPOLYLINE
5
400
100
AcDbEntity
8
0
100
AcDbPolyline
90
4
70
1
43
0.0
10
27.124986203528248
20
-8.3008545560656515
10
27.067031146047867
20
-8.2820238163939646
10
27.048200452423302
20
-8.3399787321558829
10
27.106155509903683
20
-8.3588094718275698
0
LINE
5
401
100
AcDbEntity
8
0
100
AcDbLine
10
27.765416871432915
20
-8.8933838382653221
30
0
11
27.903083282512561
21
-9.2584817318463752
31
0
0
LINE
5
402
100
AcDbEntity
8
0
100
AcDbLine
10
27.903083282512561
20
-9.2584817318463752
30
0
11
26.859893239894916
21
-8.9195287400858572
31
0
0
LINE
5
403
100
AcDbEntity
8
0
100
AcDbLine
10
26.954046846159105
20
-8.62975373612087
30
0
11
26.765739587583603
21
-9.209303885769307
31
0
0
LINE
5
404
100
AcDbEntity
8
0
100
AcDbLine
10
26.671586027366526
20
-9.4990787480158296
30
0
11
26.558601681430648
21
-9.8468088094612014
31
0
0
LINE
5
405
100
AcDbEntity
8
0
100
AcDbLine
10
26.715098761322746
20
-10.153951622538312
30
0
11
26.831008876283512
21
-10.191613101881686
31
0
0
LINE
5
406
100
AcDbEntity
8
0
100
AcDbLine
10
27.138151689360622
20
-10.035116021989586
30
0
11
27.251136035296501
21
-9.6873859605442156
31
0
0
LINE
5
407
100
AcDbEntity
8
0
100
AcDbLine
10
27.251136035296501
20
-9.6873859605442156
30
0
11
27.714776069984172
21
-9.8380317397763477
31
0
0
LINE
5
408
100
AcDbEntity
8
0
100
AcDbLine
10
27.714776069984172
20
-9.8380317397763477
30
0
11
27.526468857455786
21
-10.417581747706324
31
0
0
ARC
5
409
100
AcDbEntity
8
0
100
AcDbCircle
10
26.753550099991568
20
-9.9409186578925688
30
0
40
0.21647528605172972
210
0
220
0
230
1
100
AcDbArc
50
154.23143063271831
51
259.76856936728194
0
ARC
5
410
100
AcDbEntity
8
0
100
AcDbCircle
10
26.925118866433348
20
-9.9966647293678861
30
0
40
0.21647530619398753
210
0
220
0
230
1
100
AcDbArc
50
244.23139155491938
51
349.76857469844128
0
LINE
5
411
100
AcDbEntity
8
0
100
AcDbLine
10
16.258591234724793
20
23.881290533612606
30
0
11
15.481364103105475
21
23.692750248540118
31
0
0
LINE
5
412
100
AcDbEntity
8
0
100
AcDbLine
10
15.481364103105475
20
23.692750248540118
30
0
11
15.974358846107998
21
23.334568601665708
31
0
0
ARC
5
413
100
AcDbEntity
8
0
100
AcDbCircle
10
16.282038116087815
20
24.16857600729486
30
0
40
0.24353463202714851
210
-0
220
0
230
1
100
AcDbArc
50
-43.768619823304014
51
61.768618685316262
0
ARC
5
414
100
AcDbEntity
8
0
100
AcDbCircle
10
16.190134525684702
20
24.160674640381885
30
0
40
0.30394591502551815
210
-0
220
0
230
1
100
AcDbArc
50
47.048183619366341
51
133.00656965301039
0
ARC
5
415
100
AcDbEntity
8
0
100
AcDbCircle
10
16.247839760480648
20
24.125901556150588
30
0
40
0.24484719019319076
210
-0
220
0
230
1
100
AcDbArc
50
272.51672168564778
51
329.08610073439922
0
LWPOLYLINE
5
416
100
AcDbEntity
8
0
100
AcDbPolyline
90
4
70
1
43
0.0
10
16.256674503366789
20
23.20477722903216
10
16.220856308023958
20
23.155477712538381
10
16.270155703964807
20
23.119659604782381
10
16.305973899307638
20
23.16895912127616
0
LINE
5
417
100
AcDbEntity
8
0
100
AcDbLine
10
17.296193148588991
20
22.976782882865496
30
0
11
17.000396170179258
21
23.19169196733565
31
0
0
LINE
5
418
100
AcDbEntity
8
0
100
AcDbLine
10
16.94647099530108
20
23.532162458679036
30
0
11
16.982289146850498
21
23.581461914896348
31
0
0
LINE
5
419
100
AcDbEntity
8
0
100
AcDbLine
10
17.475283950129487
20
23.223280224228525
30
0
11
17.296193148588991
21
22.976782882865496
31
0
0
ARC
5
420
100
AcDbEntity
8
0
100
AcDbCircle
10
17.10279620847178
20
23.382416266752891
30
0
40
0.21647515854999685
210
0
220
0
230
1
100
AcDbArc
50
136.23138622373463
51
241.76861111067257
0
ARC
5
421
100
AcDbEntity
8
0
100
AcDbCircle
10
17.22878648821353
20
23.402371113355855
30
0
40
0.30468761920929033
210
-0
220
0
230
1
100
AcDbArc
50
-36.000000000000817
51
144.00000000000068
0
ARC
5
422
100
AcDbEntity
8
0
100
AcDbCircle
10
16.914744429201583
20
23.181583047037371
30
0
40
0.43295040726661893
210
0
220
0
230
1
100
AcDbArc
50
226.23137084202961
51
331.76860844508053
0
LINE
5
423
100
AcDbEntity
8
0
100
AcDbLine
10
17.256145069416934
20
22.403296398620391
30
0
11
17.551941927273745
21
22.18838740173706
31
0
0
LINE
5
424
100
AcDbEntity
8
0
100
AcDbLine
10
17.892412445927491
20
22.24231274096158
30
0
11
17.964048749026325
21
22.340911653396205
31
0
0
LINE
5
425
100
AcDbEntity
8
0
100
AcDbLine
10
17.910123530354738
20
22.681382084463127
30
0
11
17.614326672497928
21
22.896291081346455
31
0
0
LINE
5
426
100
AcDbEntity
8
0
100
AcDbLine
10
17.614326672497928
20
22.896291081346455
30
0
11
17.90087197248009
21
23.290686851637894
31
0
0
LINE
5
427
100
AcDbEntity
8
0
100
AcDbLine
10
17.90087197248009
20
23.290686851637894
30
0
11
18.393866655206153
21
22.932505248556897
31
0
0
ARC
5
428
100
AcDbEntity
8
0
100
AcDbCircle
10
17.70168799864696
20
22.34471270249459
30
0
40
0.2164751384077262
210
0
220
0
230
1
100
AcDbArc
50
226.23142530155991
51
331.7686475228715
0
ARC
5
429
100
AcDbEntity
8
0
100
AcDbCircle
10
17.807723415302704
20
22.490657932909176
30
0
40
0.21647530619398492
210
-0
220
0
230
1
100
AcDbArc
50
-43.768608445080524
51
61.768574698442031
0
LINE
5
430
100
AcDbEntity
8
0
100
AcDbLine
10
22.717354157123587
20
16.881738417641859
30
0
11
22.896444958664084
21
16.635241076278827
31
0
0
LINE
5
431
100
AcDbEntity
8
0
100
AcDbLine
10
23.604744610141086
20
17.526465320705015
30
0
11
23.819653519437587
21
17.230668583401133
31
0
0
LINE
5
432
100
AcDbEntity
8
0
100
AcDbLine
10
23.425257749146155
20
16.944123283418971
30
0
11
23.281985142948486
21
17.141321108288228
31
0
0
ARC
5
433
100
AcDbEntity
8
0
100
AcDbCircle
10
23.142942300027119
20
16.814331877819324
30
0
40
0.30468747019768033
210
0
220
0
230
1
100
AcDbArc
50
-144.00000000000057
51
36.000002504478552
0
ARC
5
434
100
AcDbEntity
8
0
100
AcDbCircle
10
23.622455634291871
20
17.08739593341005
30
0
40
0.24374999105930187
210
0
220
0
230
1
100
AcDbArc
50
-144
51
36.000000000000675
0
LINE
5
435
100
AcDbEntity
8
0
100
AcDbLine
10
28.301562455296491
20
0.94453117251398599
30
0
11
28.301562455296491
21
0.63984370231630838
31
0
0
LINE
5
436
100
AcDbEntity
8
0
100
AcDbLine
10
29.398437377810453
20
0.94453117251398688
30
0
11
29.398437377810453
21
0.57890629768374091
31
0
0
LINE
5
437
100
AcDbEntity
8
0
100
AcDbLine
10
28.910937395691846
20
0.57890629768374058
30
0
11
28.910937395691846
21
0.82265621423723789
31
0
0
ARC
5
438
100
AcDbEntity
8
0
100
AcDbCircle
10
28.606249925494168
20
0.6398437023163086
30
0
40
0.30468747019767761
210
0
220
0
230
1
100
AcDbArc
50
-180
51
2.4148365394514667e-06
0
ARC
5
439
100
AcDbEntity
8
0
100
AcDbCircle
10
29.154687386751149
20
0.57890629768374058
30
0
40
0.24374999105930328
210
0
220
0
230
1
100
AcDbArc
50
-180
51
0
0
LWPOLYLINE
5
440
100
AcDbEntity
8
0
100
AcDbPolyline
90
4
70
1
43
0.0
10
28.362500008940678
20
0.030468761920953196
10
28.301562455296498
20
0.030468761920953154
10
28.301562455296498
20
-0.03046864271161524
10
28.362500008940678
20
-0.030468642711615198
0
LINE
5
441
100
AcDbEntity
8
0
100
AcDbLine
10
29.154687386751156
20
-0.3351562619209042
30
0
11
29.39843737781046
21
-0.63984358310696976
31
0
0
LINE
5
442
100
AcDbEntity
8
0
100
AcDbLine
10
29.39843737781046
20
-0.63984358310696976
30
0
11
28.301562455296498
21
-0.63984358310697054
31
0
0
LINE
5
443
100
AcDbEntity
8
0
100
AcDbLine
10
28.301562455296498
20
-0.33515626192090475
30
0
11
28.301562455296498
21
-0.94453120231625998
31
0
0
LINE
5
444
100
AcDbEntity
8
0
100
AcDbLine
10
26.463314095425883
20
10.072142029063155
30
0
11
26.557467724713636
21
9.7823669542389364
31
0
0
LINE
5
445
100
AcDbEntity
8
0
100
AcDbLine
10
27.506504138043528
20
10.411095020823673
30
0
11
27.619488483979406
21
10.063364959378303
31
0
0
LINE
5
446
100
AcDbEntity
8
0
100
AcDbLine
10
27.155848449291735
20
9.9127191801461709
30
0
11
27.080525559675671
21
10.144539197490008
31
0
0
ARC
5
447
100
AcDbEntity
8
0
100
AcDbCircle
10
26.847242728678626
20
9.8765205605031294
30
0
40
0.30468747019768211
210
0
220
0
230
1
100
AcDbArc
50
-162.00000000000017
51
18.000002504478115
0
ARC
5
448
100
AcDbEntity
8
0
100
AcDbCircle
10
27.387668466635574
20
9.988042069762237
30
0
40
0.24374999105930734
210
0
220
0
230
1
100
AcDbArc
50
-162.00000000000028
51
18.000000000000234
0
LWPOLYLINE
5
449
100
AcDbEntity
8
0
100
AcDbPolyline
90
4
70
1
43
0.0
10
26.803730040769523
20
9.2216475442621846
10
26.745774983289145
20
9.2028168045904977
10
26.764605676913714
20
9.1448618888285793
10
26.822560734394095
20
9.1636926285002662
0
LINE
5
450
100
AcDbEntity
8
0
100
AcDbLine
10
27.109409923287071
20
8.8724548356941799
30
0
11
27.839605781308411
21
8.5971220365584564
31
0
0
ARC
5
451
100
AcDbEntity
8
0
100
AcDbCircle
10
27.644134534099138
20
8.3423527103876811
30
0
40
0.73143124580383256
210
-0
220
0
230
1
100
AcDbArc
50
78.871515821656516
51
111.13924191376414
0
ARC
5
452
100
AcDbEntity
8
0
100
AcDbCircle
10
27.807125457693257
20
8.8690404770142468
30
0
40
0.19223228096961892
210
-0
220
0
230
1
100
AcDbArc
50
10.558477252803648
51
96.516863667276453
0
ARC
5
453
100
AcDbEntity
8
0
100
AcDbCircle
10
27.822512517415102
20
8.8216839766227828
30
0
40
0.19223228096962014
210
-0
220
0
230
1
100
AcDbArc
50
-60.516875085283182
51
25.441504266556898
0
ARC
5
454
100
AcDbEntity
8
0
100
AcDbCircle
10
27.381070788512641
20
9.1519796694069093
30
0
40
0.73143124580383245
210
-0
220
0
230
1
100
AcDbArc
50
284.8607457923477
51
317.12848331540334
0
ARC
5
455
100
AcDbEntity
8
0
100
AcDbCircle
10
27.567945057801314
20
8.3175972488928469
30
0
40
0.73143124900597067
210
0
220
0
230
1
100
AcDbArc
50
104.86075351270405
51
137.12848053587791
0
ARC
5
456
100
AcDbEntity
8
0
100
AcDbCircle
10
27.126503328898846
20
8.6478929416769734
30
0
40
0.19223237915508687
210
0
220
0
230
1
100
AcDbArc
50
119.48312312545406
51
205.4415191047311
0
ARC
5
457
100
AcDbEntity
8
0
100
AcDbCircle
10
27.30488131221481
20
9.1272242079120751
30
0
40
0.73143124580383412
210
0
220
0
230
1
100
AcDbArc
50
258.87152083061272
51
291.13923426714598
0
ARC
5
458
100
AcDbEntity
8
0
100
AcDbCircle
10
27.141890388620698
20
8.6005364412855094
30
0
40
0.19223227600987136
210
0
220
0
230
1
100
AcDbArc
50
190.55849221317413
51
276.51688182932105
0
LINE
5
459
100
AcDbEntity
8
0
100
AcDbLine
10
27.141220101970482
20
7.9857618729686326
30
0
11
27.254204447906361
21
7.6380318115232635
31
0
0
LINE
5
460
100
AcDbEntity
8
0
100
AcDbLine
10
27.561347260983471
20
7.4815347316311653
30
0
11
27.677257375944237
21
7.5191962109745392
31
0
0
LINE
5
461
100
AcDbEntity
8
0
100
AcDbLine
10
27.833754455836335
20
7.8263390240516495
30
0
11
27.720770109900457
21
8.1740690854970186
31
0
0
LINE
5
462
100
AcDbEntity
8
0
100
AcDbLine
10
27.720770109900457
20
8.1740690854970186
30
0
11
28.184410144588128
21
8.3247148647291507
31
0
0
LINE
5
463
100
AcDbEntity
8
0
100
AcDbLine
10
28.184410144588128
20
8.3247148647291507
30
0
11
28.372717357116514
21
7.7451648567991791
31
0
0
ARC
5
464
100
AcDbEntity
8
0
100
AcDbCircle
10
27.467237412552102
20
7.6764831501920838
30
0
40
0.21647528605173078
210
0
220
0
230
1
100
AcDbArc
50
190.23143063271792
51
295.76856936728223
0
ARC
5
465
100
AcDbEntity
8
0
100
AcDbCircle
10
27.638806178993885
20
7.7322292216674011
30
0
40
0.21647530619398617
210
-0
220
0
230
1
100
AcDbArc
50
-79.768608445081398
51
25.768574698441828
0
ARC
5
466
100
AcDbEntity
8
0
100
AcDbCircle
10
0
20
0
30
0
40
50
210
0
220
0
230
1
100
AcDbArc
50
217.43254184377312
51
232.59611293083395
0
ARC
5
467
100
AcDbEntity
8
0
100
AcDbCircle
10
0
20
0
30
0
40
50
210
0
220
0
230
1
100
AcDbArc
50
199.46100307224876
51
214.56745815621741
0
ENDSEC
0
SECTION
2
OBJECTS
0
DICTIONARY
5
C
100
AcDbDictionary
3
ACAD_GROUP
350
D
3
ACAD_MLINESTYLE
350
17
0
DICTIONARY
5
D
100
AcDbDictionary
0
DICTIONARY
5
1A
330
C
100
AcDbDictionary
0
DICTIONARY
5
17
100
AcDbDictionary
0
ENDSEC
0
EOF
