0
SECTION
2
HEADER
9
$INSUNITS
70
4
9
$ACADVER
1
AC1014
9
$HANDSEED
5
FFFF
0
ENDSEC
0
SECTION
2
TABLES
0
TABLE
2
VPORT
5
8
100
AcDbSymbolTable
0
ENDTAB
0
TABLE
2
LTYPE
5
5
100
AcDbSymbolTable
0
LTYPE
5
14
100
AcDbSymbolTableRecord
100
AcDbLinetypeTableRecord
2
BYBLOCK
70
0
0
LTYPE
5
15
100
AcDbSymbolTableRecord
100
AcDbLinetypeTableRecord
2
BYLAYER
70
0
0
ENDTAB
0
TABLE
2
LAYER
5
2
100
AcDbSymbolTable
70
2
0
LAYER
5
50
100
AcDbSymbolTableRecord
100
AcDbLayerTableRecord
2
0
70
0
6
CONTINUOUS
0
ENDTAB
0
TABLE
2
STYLE
5
3
100
AcDbSymbolTable
70
1
0
STYLE
5
11
100
AcDbSymbolTableRecord
100
AcDbTextStyleTableRecord
2
STANDARD
70
0
0
ENDTAB
0
TABLE
2
VIEW
5
6
100
AcDbSymbolTable
70
0
0
ENDTAB
0
TABLE
2
UCS
5
7
100
AcDbSymbolTable
70
0
0
ENDTAB
0
TABLE
2
APPID
5
9
100
AcDbSymbolTable
70
2
0
APPID
5
12
100
AcDbSymbolTableRecord
100
AcDbRegAppTableRecord
2
ACAD
70
0
0
ENDTAB
0
TABLE
2
DIMSTYLE
5
A
100
AcDbSymbolTable
70
1
0
ENDTAB
0
TABLE
2
BLOCK_RECORD
5
1
100
AcDbSymbolTable
70
1
0
BLOCK_RECORD
5
1F
100
AcDbSymbolTableRecord
100
AcDbBlockTableRecord
2
*MODEL_SPACE
0
BLOCK_RECORD
5
1B
100
AcDbSymbolTableRecord
100
AcDbBlockTableRecord
2
*PAPER_SPACE
0
ENDTAB
0
ENDSEC
0
SECTION
2
BLOCKS
0
BLOCK
5
20
100
AcDbEntity
100
AcDbBlockBegin
2
*MODEL_SPACE
0
ENDBLK
5
21
100
AcDbEntity
100
AcDbBlockEnd
0
BLOCK
5
1C
100
AcDbEntity
100
AcDbBlockBegin
2
*PAPER_SPACE
0
ENDBLK
5
1D
100
AcDbEntity
100
AcDbBlockEnd
0
ENDSEC
0
SECTION
2
ENTITIES
0
LWPOLYLINE
5
100
100
AcDbEntity
8
0
100
AcDbPolyline
90
4
70
1
43
0.0
10
275
20
1.7256332301709633e-30
10
0
20
0
10
0
20
175
10
275
20
175
0
CIRCLE
5
101
100
AcDbEntity
8
0
100
AcDbCircle
10
105.56290666705912
20
123.58053266066328
30
0
40
7.4999999999999947
210
0
220
0
230
1
0
CIRCLE
5
102
100
AcDbEntity
8
0
100
AcDbCircle
10
130.56290666705911
20
123.58053266066328
30
0
40
7.4999999999999947
210
0
220
0
230
1
0
CIRCLE
5
103
100
AcDbEntity
8
0
100
AcDbCircle
10
155.56290666705911
20
123.58053266066328
30
0
40
7.4999999999999947
210
0
220
0
230
1
0
CIRCLE
5
104
100
AcDbEntity
8
0
100
AcDbCircle
10
180.56290666705911
20
123.58053266066328
30
0
40
7.4999999999999947
210
0
220
0
230
1
0
CIRCLE
5
105
100
AcDbEntity
8
0
100
AcDbCircle
10
205.56290666705911
20
123.58053266066328
30
0
40
7.4999999999999947
210
0
220
0
230
1
0
CIRCLE
5
106
100
AcDbEntity
8
0
100
AcDbCircle
10
230.56290666705911
20
123.58053266066328
30
0
40
7.4999999999999947
210
0
220
0
230
1
0
CIRCLE
5
107
100
AcDbEntity
8
0
100
AcDbCircle
10
180.56290666705911
20
43.766425435138274
30
0
40
7.4999999999999947
210
0
220
0
230
1
0
CIRCLE
5
108
100
AcDbEntity
8
0
100
AcDbCircle
10
155.56290666705911
20
43.766425435138274
30
0
40
7.4999999999999947
210
0
220
0
230
1
0
CIRCLE
5
109
100
AcDbEntity
8
0
100
AcDbCircle
10
105.56290666705912
20
43.766425435138274
30
0
40
7.4999999999999947
210
0
220
0
230
1
0
CIRCLE
5
110
100
AcDbEntity
8
0
100
AcDbCircle
10
130.56290666705911
20
43.766425435138274
30
0
40
7.4999999999999947
210
0
220
0
230
1
0
CIRCLE
5
111
100
AcDbEntity
8
0
100
AcDbCircle
10
230.56290666705911
20
43.766425435138274
30
0
40
7.4999999999999947
210
0
220
0
230
1
0
CIRCLE
5
112
100
AcDbEntity
8
0
100
AcDbCircle
10
205.56290666705911
20
43.766425435138274
30
0
40
7.4999999999999947
210
0
220
0
230
1
0
LINE
5
113
100
AcDbEntity
8
0
100
AcDbLine
10
16.94854829165034
20
156.13573466486756
30
0
11
16.94854829165034
21
161.4007351273996
31
0
0
LINE
5
114
100
AcDbEntity
8
0
100
AcDbLine
10
19.873547886338756
20
161.4007351273996
30
0
11
16.94854829165034
21
158.18323467917267
31
0
0
LINE
5
115
100
AcDbEntity
8
0
100
AcDbLine
10
19.873547886338756
20
156.13573466486756
30
0
11
18.118548129525706
21
159.35323511309448
31
0
0
LINE
5
116
100
AcDbEntity
8
0
100
AcDbLine
10
23.529798124757335
20
156.13573466486756
30
0
11
22.067298029389903
21
156.13573466486756
31
0
0
LINE
5
117
100
AcDbEntity
8
0
100
AcDbLine
10
21.189798449006602
20
157.0132348412973
30
0
11
21.189798449006602
21
158.47573493666474
31
0
0
LINE
5
118
100
AcDbEntity
8
0
100
AcDbLine
10
23.529798124757335
20
158.47573493666474
30
0
11
23.529798124757335
21
157.89073501772705
31
0
0
LINE
5
119
100
AcDbEntity
8
0
100
AcDbLine
10
23.529798124757335
20
157.89073501772705
30
0
11
21.189798449006602
21
157.89073501772705
31
0
0
ARC
5
120
100
AcDbEntity
8
0
100
AcDbCircle
10
21.961956356492564
20
156.90789316839997
30
0
40
0.77931040166413101
210
0
220
0
230
1
100
AcDbArc
50
172.23138010468983
51
277.76861397176543
0
ARC
5
121
100
AcDbEntity
8
0
100
AcDbCircle
10
22.359798286881968
20
158.47573493666474
30
0
40
1.1699998378753662
210
0
220
0
230
1
100
AcDbArc
50
0
51
180
0
LINE
5
122
100
AcDbEntity
8
0
100
AcDbLine
10
25.138547752824351
20
156.13573466486756
30
0
11
25.138547752824351
21
159.64573537058655
31
0
0
LINE
5
123
100
AcDbEntity
8
0
100
AcDbLine
10
25.138547752824351
20
159.64573537058655
30
0
11
26.893548105683848
21
159.64573537058655
31
0
0
LINE
5
124
100
AcDbEntity
8
0
100
AcDbLine
10
26.893548105683848
20
159.64573537058655
30
0
11
26.893548105683848
21
159.06073485560242
31
0
0
LINE
5
125
100
AcDbEntity
8
0
100
AcDbLine
10
28.35604820105128
20
156.13573466486756
30
0
11
28.35604820105128
21
160.52323495096985
31
0
0
LINE
5
126
100
AcDbEntity
8
0
100
AcDbLine
10
29.233547781434581
20
161.4007351273996
30
0
11
29.526048038926646
21
161.4007351273996
31
0
0
LINE
5
127
100
AcDbEntity
8
0
100
AcDbLine
10
27.771047686067149
20
159.64573537058655
30
0
11
29.526048038926646
21
159.64573537058655
31
0
0
ARC
5
128
100
AcDbEntity
8
0
100
AcDbCircle
10
29.128206108537242
20
160.62857662386719
30
0
40
0.77931099224008149
210
0
220
-0
230
1
100
AcDbArc
50
82.231386028234567
51
187.76861989531014
0
LINE
5
129
100
AcDbEntity
8
0
100
AcDbLine
10
34.059796665635631
20
156.13573466486756
30
0
11
34.059796665635631
21
161.4007351273996
31
0
0
LINE
5
130
100
AcDbEntity
8
0
100
AcDbLine
10
32.597296570268199
20
161.4007351273996
30
0
11
35.522296761003062
21
161.4007351273996
31
0
0
LINE
5
131
100
AcDbEntity
8
0
100
AcDbLine
10
39.032297466722056
20
156.13573466486756
30
0
11
37.569797371354625
21
156.13573466486756
31
0
0
LINE
5
132
100
AcDbEntity
8
0
100
AcDbLine
10
36.692295406785533
20
157.0132348412973
30
0
11
36.692295406785533
21
158.47573493666474
31
0
0
LINE
5
133
100
AcDbEntity
8
0
100
AcDbLine
10
39.032297466722056
20
158.47573493666474
30
0
11
39.032297466722056
21
157.89073501772705
31
0
0
LINE
5
134
100
AcDbEntity
8
0
100
AcDbLine
10
39.032297466722056
20
157.89073501772705
30
0
11
36.692295406785533
21
157.89073501772705
31
0
0
ARC
5
135
100
AcDbEntity
8
0
100
AcDbCircle
10
37.46445450636439
20
156.90789316839997
30
0
40
0.77931158281604018
210
0
220
0
230
1
100
AcDbArc
50
172.23139195177038
51
277.76870081130193
0
ARC
5
136
100
AcDbEntity
8
0
100
AcDbCircle
10
37.862296436753795
20
158.47573493666474
30
0
40
1.1700010299682617
210
0
220
0
230
1
100
AcDbArc
50
0
51
180
0
LINE
5
137
100
AcDbEntity
8
0
100
AcDbLine
10
42.396049831834361
20
157.59823476023499
30
0
11
40.933549736466929
21
158.18323467917267
31
0
0
ARC
5
138
100
AcDbEntity
8
0
100
AcDbCircle
10
41.171951626267955
20
158.89605437464539
30
0
40
0.75162976980208884
210
0
220
-0
230
1
100
AcDbArc
50
85.872587490931096
51
251.50753574319828
0
ARC
5
139
100
AcDbEntity
8
0
100
AcDbCircle
10
41.312957142320201
20
156.92900811381165
30
0
40
2.7181166410446247
210
0
220
-0
230
1
100
AcDbArc
50
63.110121478028127
51
91.832249030489592
0
ARC
5
140
100
AcDbEntity
8
0
100
AcDbCircle
10
42.151034210649058
20
156.88673769182984
30
0
40
0.75250290334224312
210
0
220
0
230
1
100
AcDbArc
50
-93.617868557840595
51
70.998017788563374
0
ARC
5
141
100
AcDbEntity
8
0
100
AcDbCircle
10
41.83567318769984
20
159.23272584624115
30
0
40
3.1085547804832481
210
0
220
0
230
1
100
AcDbArc
50
244.44676035661024
51
274.94354061117951
0
LINE
5
142
100
AcDbEntity
8
0
100
AcDbLine
10
44.004798267808482
20
159.64573537058655
30
0
11
45.759797428575084
21
159.64573537058655
31
0
0
LINE
5
143
100
AcDbEntity
8
0
100
AcDbLine
10
44.589798782792613
20
161.4007351273996
30
0
11
44.589798782792613
21
157.0132348412973
31
0
0
LINE
5
144
100
AcDbEntity
8
0
100
AcDbLine
10
45.467298363175914
20
156.13573466486756
30
0
11
45.759797428575084
21
156.13573466486756
31
0
0
ARC
5
145
100
AcDbEntity
8
0
100
AcDbCircle
10
45.36195788237147
20
156.90789316839997
30
0
40
0.77931158281604018
210
0
220
0
230
1
100
AcDbArc
50
172.23139195177038
51
277.76852713219301
0
LINE
5
146
100
AcDbEntity
8
0
100
AcDbLine
10
49.416046474900767
20
158.18323467917267
30
0
11
52.926049564805552
21
158.18323467917267
31
0
0
LINE
5
147
100
AcDbEntity
8
0
100
AcDbLine
10
59.214797352281138
20
156.13573466486756
30
0
11
59.214797352281138
21
161.4007351273996
31
0
0
LINE
5
148
100
AcDbEntity
8
0
100
AcDbLine
10
59.214797352281138
20
161.4007351273996
30
0
11
60.677299831834361
21
161.4007351273996
31
0
0
LINE
5
149
100
AcDbEntity
8
0
100
AcDbLine
10
62.139797543016002
20
159.93823473400894
30
0
11
62.139797543016002
21
157.59823476023499
31
0
0
LINE
5
150
100
AcDbEntity
8
0
100
AcDbLine
10
60.677299831834361
20
156.13573466486756
30
0
11
59.214797352281138
21
156.13573466486756
31
0
0
ARC
5
151
100
AcDbEntity
8
0
100
AcDbCircle
10
60.85286650511317
20
160.11380438751999
30
0
40
1.2988518774485602
210
0
220
0
230
1
100
AcDbArc
50
-7.7686214710115413
51
97.768492988699023
0
ARC
5
152
100
AcDbEntity
8
0
100
AcDbCircle
10
60.85286650511317
20
157.42266510672394
30
0
40
1.2988508840289774
210
0
220
0
230
1
100
AcDbArc
50
-97.768494765734644
51
7.7686214710115369
0
LINE
5
153
100
AcDbEntity
8
0
100
AcDbLine
10
63.894796703782603
20
156.13573466486756
30
0
11
63.894796703782603
21
159.64573537058655
31
0
0
LWPOLYLINE
5
154
100
AcDbEntity
8
0
100
AcDbPolyline
90
4
70
1
43
0.0
10
63.748545978990123
20
161.4007351273996
10
63.748545978990123
20
161.10823516793076
10
64.041047428575084
20
161.10823516793076
10
64.041047428575084
20
161.4007351273996
0
LINE
5
155
100
AcDbEntity
8
0
100
AcDbLine
10
67.843547199693248
20
158.18323467917267
30
0
11
66.527295444932506
21
158.18323467917267
31
0
0
LINE
5
156
100
AcDbEntity
8
0
100
AcDbLine
10
66.527295444932506
20
156.13573466486756
30
0
11
67.843547199693248
21
156.13573466486756
31
0
0
LINE
5
157
100
AcDbEntity
8
0
100
AcDbLine
10
67.843547199693248
20
156.13573466486756
30
0
11
67.843547199693248
21
158.76823459811035
31
0
0
LINE
5
158
100
AcDbEntity
8
0
100
AcDbLine
10
66.966047619309947
20
159.64573537058655
30
0
11
65.796046589341685
21
159.64573537058655
31
0
0
ARC
5
159
100
AcDbEntity
8
0
100
AcDbCircle
10
66.527295444932506
20
157.15948497004334
30
0
40
1.0237497091293335
210
0
220
-0
230
1
100
AcDbArc
50
90
51
270
0
ARC
5
160
100
AcDbEntity
8
0
100
AcDbCircle
10
67.071385715928599
20
158.87357627100769
30
0
40
0.77931394511995833
210
0
220
0
230
1
100
AcDbArc
50
-7.7685843541764159
51
97.768347529598415
0
LINE
5
161
100
AcDbEntity
8
0
100
AcDbLine
10
69.598546360459849
20
156.13573466486756
30
0
11
69.598546360459849
21
159.64573537058655
31
0
0
LINE
5
162
100
AcDbEntity
8
0
100
AcDbLine
10
69.598546360459849
20
159.64573537058655
30
0
11
72.231045101609752
21
159.64573537058655
31
0
0
LINE
5
163
100
AcDbEntity
8
0
100
AcDbLine
10
73.108544681993052
20
158.76823459811035
30
0
11
73.108544681993052
21
156.13573466486756
31
0
0
LINE
5
164
100
AcDbEntity
8
0
100
AcDbLine
10
71.353545521226451
20
156.13573466486756
30
0
11
71.353545521226451
21
159.64573537058655
31
0
0
ARC
5
165
100
AcDbEntity
8
0
100
AcDbCircle
10
72.336387966599986
20
158.87357627100769
30
0
40
0.77930922051225526
210
0
220
0
230
1
100
AcDbArc
50
-7.7686317424265301
51
97.768694887701599
0
LINE
5
166
100
AcDbEntity
8
0
100
AcDbLine
10
77.057299946275279
20
156.13573466486756
30
0
11
75.594797466722056
21
156.13573466486756
31
0
0
LINE
5
167
100
AcDbEntity
8
0
100
AcDbLine
10
74.717297886338756
20
157.0132348412973
30
0
11
74.717297886338756
21
158.47573493666474
31
0
0
LINE
5
168
100
AcDbEntity
8
0
100
AcDbLine
10
77.057299946275279
20
158.47573493666474
30
0
11
77.057299946275279
21
157.89073501772705
31
0
0
LINE
5
169
100
AcDbEntity
8
0
100
AcDbLine
10
77.057299946275279
20
157.89073501772705
30
0
11
74.717297886338756
21
157.89073501772705
31
0
0
ARC
5
170
100
AcDbEntity
8
0
100
AcDbCircle
10
75.489459370103404
20
156.90789316839997
30
0
40
0.77931394511995833
210
0
220
0
230
1
100
AcDbArc
50
172.2314156458236
51
277.76835345294046
0
ARC
5
171
100
AcDbEntity
8
0
100
AcDbCircle
10
75.887298916307017
20
158.47573493666474
30
0
40
1.1700010299682617
210
0
220
0
230
1
100
AcDbArc
50
0
51
180
0
LINE
5
172
100
AcDbEntity
8
0
100
AcDbLine
10
78.227300976243541
20
159.64573537058655
30
0
11
79.982300137010142
21
159.64573537058655
31
0
0
LINE
5
173
100
AcDbEntity
8
0
100
AcDbLine
10
78.812299107041881
20
161.4007351273996
30
0
11
78.812299107041881
21
157.0132348412973
31
0
0
LINE
5
174
100
AcDbEntity
8
0
100
AcDbLine
10
79.689798687425181
20
156.13573466486756
30
0
11
79.982300137010142
21
156.13573466486756
31
0
0
ARC
5
175
100
AcDbEntity
8
0
100
AcDbCircle
10
79.584455822434947
20
156.90789316839997
30
0
40
0.77930922051225526
210
0
220
0
230
1
100
AcDbArc
50
172.23136825757351
51
277.76870081130193
0
LINE
5
176
100
AcDbEntity
8
0
100
AcDbLine
10
83.63854918333584
20
156.13573466486756
30
0
11
82.176046703782617
21
156.13573466486756
31
0
0
LINE
5
177
100
AcDbEntity
8
0
100
AcDbLine
10
81.298547123399317
20
157.0132348412973
30
0
11
81.298547123399317
21
158.47573493666474
31
0
0
LINE
5
178
100
AcDbEntity
8
0
100
AcDbLine
10
83.63854918333584
20
158.47573493666474
30
0
11
83.63854918333584
21
157.89073501772705
31
0
0
LINE
5
179
100
AcDbEntity
8
0
100
AcDbLine
10
83.63854918333584
20
157.89073501772705
30
0
11
81.298547123399317
21
157.89073501772705
31
0
0
ARC
5
180
100
AcDbEntity
8
0
100
AcDbCircle
10
82.070708607163965
20
156.90789316839997
30
0
40
0.77931394511995833
210
0
220
0
230
1
100
AcDbArc
50
172.2314156458236
51
277.76835345294046
0
ARC
5
181
100
AcDbEntity
8
0
100
AcDbCircle
10
82.468548153367578
20
158.47573493666474
30
0
40
1.1700010299682617
210
0
220
0
230
1
100
AcDbArc
50
0
51
180
0
LINE
5
182
100
AcDbEntity
8
0
100
AcDbLine
10
85.247297619309961
20
156.13573466486756
30
0
11
85.247297619309961
21
159.64573537058655
31
0
0
LINE
5
183
100
AcDbEntity
8
0
100
AcDbLine
10
85.247297619309961
20
159.64573537058655
30
0
11
87.002296780076563
21
159.64573537058655
31
0
0
LINE
5
184
100
AcDbEntity
8
0
100
AcDbLine
10
87.002296780076563
20
159.64573537058655
30
0
11
87.002296780076563
21
159.06073485560242
31
0
0
LINE
5
185
100
AcDbEntity
8
0
100
AcDbLine
10
90.512299869981348
20
160.23073499150101
30
0
11
91.974797581162989
21
161.4007351273996
31
0
0
LINE
5
186
100
AcDbEntity
8
0
100
AcDbLine
10
91.974797581162989
20
161.4007351273996
30
0
11
91.974797581162989
21
156.13573466486756
31
0
0
LINE
5
187
100
AcDbEntity
8
0
100
AcDbLine
10
90.512299869981348
20
156.13573466486756
30
0
11
93.437304829087793
21
156.13573466486756
31
0
0
LINE
5
188
100
AcDbEntity
8
0
100
AcDbLine
10
94.899802540269434
20
156.13573466486756
30
0
11
96.654801701036035
21
156.13573466486756
31
0
0
LINE
5
189
100
AcDbEntity
8
0
100
AcDbLine
10
97.824807499375879
20
157.30573450274292
30
0
11
97.824807499375879
21
157.89073501772705
31
0
0
LINE
5
190
100
AcDbEntity
8
0
100
AcDbLine
10
96.654801701036035
20
159.06073485560242
30
0
11
94.899802540269434
21
159.06073485560242
31
0
0
LINE
5
191
100
AcDbEntity
8
0
100
AcDbLine
10
94.899802540269434
20
159.06073485560242
30
0
11
94.899802540269434
21
161.4007351273996
31
0
0
LINE
5
192
100
AcDbEntity
8
0
100
AcDbLine
10
94.899802540269434
20
161.4007351273996
30
0
11
97.824807499375879
21
161.4007351273996
31
0
0
ARC
5
193
100
AcDbEntity
8
0
100
AcDbCircle
10
96.795258854356348
20
157.16527913756195
30
0
40
1.0390813409807866
210
0
220
0
230
1
100
AcDbArc
50
-97.768702292203386
51
7.7685734992721684
0
ARC
5
194
100
AcDbEntity
8
0
100
AcDbCircle
10
96.795258854356348
20
158.03119038290802
30
0
40
1.0390852333036362
210
0
220
0
230
1
100
AcDbArc
50
-7.7685734992721827
51
97.768702292203415
0
LINE
5
195
100
AcDbEntity
8
0
100
AcDbLine
10
101.77356276365811
20
156.13573466486756
30
0
11
101.77356276365811
21
159.64573537058655
31
0
0
LINE
5
196
100
AcDbEntity
8
0
100
AcDbLine
10
101.77356276365811
20
159.64573537058655
30
0
11
104.40605673643643
21
159.64573537058655
31
0
0
LINE
5
197
100
AcDbEntity
8
0
100
AcDbLine
10
105.28356108519131
20
158.76823459811035
30
0
11
105.28356108519131
21
156.13573466486756
31
0
0
LINE
5
198
100
AcDbEntity
8
0
100
AcDbLine
10
103.52856192442471
20
156.13573466486756
30
0
11
103.52856192442471
21
159.64573537058655
31
0
0
ARC
5
199
100
AcDbEntity
8
0
100
AcDbCircle
10
104.51139960142666
20
158.87357627100769
30
0
40
0.77931394511995833
210
0
220
0
230
1
100
AcDbArc
50
-7.7685843541764159
51
97.768694887701599
0
LINE
5
200
100
AcDbEntity
8
0
100
AcDbLine
10
107.03856024595791
20
156.13573466486756
30
0
11
107.03856024595791
21
159.64573537058655
31
0
0
LINE
5
201
100
AcDbEntity
8
0
100
AcDbLine
10
107.03856024595791
20
159.64573537058655
30
0
11
109.67105421873623
21
159.64573537058655
31
0
0
LINE
5
202
100
AcDbEntity
8
0
100
AcDbLine
10
110.54855856749111
20
158.76823459811035
30
0
11
110.54855856749111
21
156.13573466486756
31
0
0
LINE
5
203
100
AcDbEntity
8
0
100
AcDbLine
10
108.79355940672451
20
156.13573466486756
30
0
11
108.79355940672451
21
159.64573537058655
31
0
0
ARC
5
204
100
AcDbEntity
8
0
100
AcDbCircle
10
109.77639708372647
20
158.87357627100769
30
0
40
0.77931394511995833
210
0
220
0
230
1
100
AcDbArc
50
-7.7685843541764159
51
97.768694887701599
0
LINE
5
205
100
AcDbEntity
8
0
100
AcDbLine
10
28.101136928635544
20
122.91741809945589
30
0
11
26.760512089568085
21
123.64866755109315
31
0
0
ARC
5
206
100
AcDbEntity
8
0
100
AcDbCircle
10
27.730683481532044
20
121.94724700551515
30
0
40
0.86590081453322687
210
0
220
0
230
1
100
AcDbArc
50
-97.768629157970395
51
7.768616180837502
0
ARC
5
207
100
AcDbEntity
8
0
100
AcDbCircle
10
27.469318753319687
20
122.80261657338625
30
0
40
1.7193908989429478
210
0
220
0
230
1
100
AcDbArc
50
219.94543746404878
51
274.81482575586438
0
ARC
5
208
100
AcDbEntity
8
0
100
AcDbCircle
10
27.130965834694809
20
124.61883924108034
30
0
40
0.8659008145332423
210
0
220
-0
230
1
100
AcDbArc
50
82.231386323640578
51
187.76862118979497
0
ARC
5
209
100
AcDbEntity
8
0
100
AcDbCircle
10
27.368678247767395
20
124.01066682439333
30
0
40
1.4710834622383073
210
0
220
-0
230
1
100
AcDbArc
50
48.425105479473586
51
94.704993902275575
0
ARC
5
210
100
AcDbEntity
8
0
100
AcDbCircle
10
27.108559256630844
20
124.413399911933
30
0
40
0.84020957419343845
210
0
220
0
230
1
100
AcDbArc
50
173.96111094899251
51
245.52863392131491
0
ARC
5
211
100
AcDbEntity
8
0
100
AcDbCircle
10
27.753089910584396
20
122.15268573861604
30
0
40
0.84020967773865052
210
0
220
0
230
1
100
AcDbArc
50
-6.0388525747490505
51
65.528643169932408
0
LINE
5
212
100
AcDbEntity
8
0
100
AcDbLine
10
29.807386940556473
20
119.62679288487917
30
0
11
29.807386940556473
21
124.01429317098146
31
0
0
LINE
5
213
100
AcDbEntity
8
0
100
AcDbLine
10
29.807386940556473
20
124.01429317098146
30
0
11
31.026137119370407
21
124.01429317098146
31
0
0
LINE
5
214
100
AcDbEntity
8
0
100
AcDbLine
10
31.757387167054123
20
123.28304312329774
30
0
11
31.757387167054123
21
121.82054302793031
31
0
0
LINE
5
215
100
AcDbEntity
8
0
100
AcDbLine
10
31.026137119370407
20
121.0892929802466
30
0
11
29.807386940556473
21
121.0892929802466
31
0
0
ARC
5
216
100
AcDbEntity
8
0
100
AcDbCircle
10
31.113921648102707
20
123.37082765203004
30
0
40
0.64942589843966569
210
0
220
0
230
1
100
AcDbArc
50
-7.7685954191484994
51
97.768595419148525
0
ARC
5
217
100
AcDbEntity
8
0
100
AcDbCircle
10
31.113921648102707
20
121.73275849919801
30
0
40
0.64942589843966569
210
0
220
0
230
1
100
AcDbArc
50
-97.768595419148511
51
7.7685954191485234
0
LINE
5
218
100
AcDbEntity
8
0
100
AcDbLine
10
34.926136976319256
20
121.0892929802466
30
0
11
33.707386499482098
21
121.0892929802466
31
0
0
LINE
5
219
100
AcDbEntity
8
0
100
AcDbLine
10
32.97613704784483
20
121.82054302793031
30
0
11
32.97613704784483
21
123.03929290872102
31
0
0
LINE
5
220
100
AcDbEntity
8
0
100
AcDbLine
10
34.926136976319256
20
123.03929290872102
30
0
11
34.926136976319256
21
122.55179307561403
31
0
0
LINE
5
221
100
AcDbEntity
8
0
100
AcDbLine
10
34.926136976319256
20
122.55179307561403
30
0
11
32.97613704784483
21
122.55179307561403
31
0
0
ARC
5
222
100
AcDbEntity
8
0
100
AcDbCircle
10
33.619601970749798
20
121.73275849919801
30
0
40
0.64942530786369013
210
0
220
0
230
1
100
AcDbArc
50
172.23139747261439
51
277.76859541914854
0
ARC
5
223
100
AcDbEntity
8
0
100
AcDbCircle
10
33.951136714058819
20
123.03929290872102
30
0
40
0.97500026226043701
210
0
220
0
230
1
100
AcDbArc
50
0
51
180
0
LINE
5
224
100
AcDbEntity
8
0
100
AcDbLine
10
38.094886785584393
20
121.0892929802466
30
0
11
36.87613750084013
21
121.0892929802466
31
0
0
LINE
5
225
100
AcDbEntity
8
0
100
AcDbLine
10
36.144887453156414
20
121.82054302793031
30
0
11
36.144887453156414
21
123.03929290872102
31
0
0
LINE
5
226
100
AcDbEntity
8
0
100
AcDbLine
10
38.094886785584393
20
123.03929290872102
30
0
11
38.094886785584393
21
122.55179307561403
31
0
0
LINE
5
227
100
AcDbEntity
8
0
100
AcDbLine
10
38.094886785584393
20
122.55179307561403
30
0
11
36.144887453156414
21
122.55179307561403
31
0
0
ARC
5
228
100
AcDbEntity
8
0
100
AcDbCircle
10
36.788351780014935
20
121.73275849919801
30
0
40
0.64942471728772444
210
0
220
0
230
1
100
AcDbArc
50
172.23139036436436
51
277.76869962658111
0
ARC
5
229
100
AcDbEntity
8
0
100
AcDbCircle
10
37.119887119370404
20
123.03929290872102
30
0
40
0.97499966621398926
210
0
220
0
230
1
100
AcDbArc
50
0
51
180
0
LINE
5
230
100
AcDbEntity
8
0
100
AcDbLine
10
41.263635402756634
20
125.47679267030244
30
0
11
41.263635402756634
21
121.0892929802466
31
0
0
LINE
5
231
100
AcDbEntity
8
0
100
AcDbLine
10
41.263635402756634
20
121.0892929802466
30
0
11
40.044886118012371
21
121.0892929802466
31
0
0
LINE
5
232
100
AcDbEntity
8
0
100
AcDbLine
10
39.313636070328656
20
121.82054302793031
30
0
11
39.313636070328656
21
123.28304312329774
31
0
0
LINE
5
233
100
AcDbEntity
8
0
100
AcDbLine
10
40.044886118012371
20
124.01429317098146
30
0
11
41.263635402756634
21
124.01429317098146
31
0
0
ARC
5
234
100
AcDbEntity
8
0
100
AcDbCircle
10
39.957101589280072
20
121.73275849919801
30
0
40
0.64942589843966569
210
0
220
0
230
1
100
AcDbArc
50
172.23140458085149
51
277.76859541914854
0
ARC
5
235
100
AcDbEntity
8
0
100
AcDbCircle
10
39.957101589280072
20
123.37082765203004
30
0
40
0.64942589843966569
210
0
220
-0
230
1
100
AcDbArc
50
82.231404580851475
51
187.76859541914854
0
ARC
5
236
100
AcDbEntity
8
0
100
AcDbCircle
10
48.056195026474896
20
123.57182762723451
30
0
40
3.3923745155334473
210
0
220
0
230
1
100
AcDbArc
50
135.15042842790308
51
184.88335803908382
0
ARC
5
237
100
AcDbEntity
8
0
100
AcDbCircle
10
48.056195026474896
20
122.99425802331453
30
0
40
3.3923745766152487
210
0
220
0
230
1
100
AcDbArc
50
175.11662988609248
51
224.84958159000971
0
LINE
5
238
100
AcDbEntity
8
0
100
AcDbLine
10
46.991758590775433
20
121.0892929802466
30
0
11
46.991758590775433
21
124.01429317098146
31
0
0
LINE
5
239
100
AcDbEntity
8
0
100
AcDbLine
10
46.991758590775433
20
124.01429317098146
30
0
11
49.185509925919476
21
124.01429317098146
31
0
0
LINE
5
240
100
AcDbEntity
8
0
100
AcDbLine
10
49.916758781510296
20
123.28304312329774
30
0
11
49.916758781510296
21
121.0892929802466
31
0
0
LINE
5
241
100
AcDbEntity
8
0
100
AcDbLine
10
48.454258686142865
20
121.0892929802466
30
0
11
48.454258686142865
21
124.01429317098146
31
0
0
ARC
5
242
100
AcDbEntity
8
0
100
AcDbCircle
10
49.273295646744671
20
123.37082765203004
30
0
40
0.64942353613582315
210
0
220
0
230
1
100
AcDbArc
50
-7.7686238521745148
51
97.768699626581153
0
LINE
5
243
100
AcDbEntity
8
0
100
AcDbLine
10
51.379256492691937
20
121.0892929802466
30
0
11
51.379256492691937
21
124.01429317098146
31
0
0
LINE
5
244
100
AcDbEntity
8
0
100
AcDbLine
10
51.379256492691937
20
124.01429317098146
30
0
11
53.57300782783598
21
124.01429317098146
31
0
0
LINE
5
245
100
AcDbEntity
8
0
100
AcDbLine
10
54.3042566834268
20
123.28304312329774
30
0
11
54.3042566834268
21
121.0892929802466
31
0
0
LINE
5
246
100
AcDbEntity
8
0
100
AcDbLine
10
52.841756588059368
20
121.0892929802466
30
0
11
52.841756588059368
21
124.01429317098146
31
0
0
ARC
5
247
100
AcDbEntity
8
0
100
AcDbCircle
10
53.660793548661175
20
123.37082765203004
30
0
40
0.64942353613582315
210
0
220
0
230
1
100
AcDbArc
50
-7.7686238521745148
51
97.768699626581153
0
LINE
5
248
100
AcDbEntity
8
0
100
AcDbLine
10
55.523009544449749
20
120.6017931471396
30
0
11
57.473011261063519
21
125.96429280143266
31
0
0
LINE
5
249
100
AcDbEntity
8
0
100
AcDbLine
10
60.154259449082318
20
122.30804286103731
30
0
11
58.935511356430951
21
122.7955426941443
31
0
0
ARC
5
250
100
AcDbEntity
8
0
100
AcDbCircle
10
59.134178405838909
20
123.38955900769716
30
0
40
0.62635809183120228
210
0
220
-0
230
1
100
AcDbArc
50
85.872587490930727
51
251.50763627651389
0
ARC
5
251
100
AcDbEntity
8
0
100
AcDbCircle
10
59.251683002549115
20
121.75035379033571
30
0
40
2.2650970518589015
210
0
220
-0
230
1
100
AcDbArc
50
63.110121478028056
51
91.832249160941331
0
ARC
5
252
100
AcDbEntity
8
0
100
AcDbCircle
10
59.950080162125531
20
121.71512863736635
30
0
40
0.62708564102650399
210
0
220
0
230
1
100
AcDbArc
50
-93.617868557840481
51
70.998052116640821
0
ARC
5
253
100
AcDbEntity
8
0
100
AcDbCircle
10
59.687280899125042
20
123.67011866670137
30
0
40
2.5904619693756077
210
0
220
0
230
1
100
AcDbArc
50
244.44676035661053
51
274.94350614370819
0
ARC
5
254
100
AcDbEntity
8
0
100
AcDbCircle
10
59.333575016098919
20
122.99425802331453
30
0
40
3.3923745155334468
210
0
220
0
230
1
100
AcDbArc
50
-44.849580223518878
51
4.8833637022976957
0
ARC
5
255
100
AcDbEntity
8
0
100
AcDbCircle
10
59.333575016098919
20
123.57182762723451
30
0
40
3.3923745197344983
210
0
220
0
230
1
100
AcDbArc
50
-4.8833645327730055
51
44.849576581053036
0
LWPOLYLINE
5
256
100
AcDbEntity
8
0
100
AcDbPolyline
90
4
70
1
43
0.0
10
64.176135307389202
20
121.69866821866518
10
64.176135307389202
20
121.45491800408846
10
64.419887310105267
20
121.45491800408846
10
64.419887310105267
20
121.69866821866518
0
LWPOLYLINE
5
257
100
AcDbEntity
8
0
100
AcDbPolyline
90
4
70
1
43
0.0
10
64.176135307389202
20
123.64866755109315
10
64.176135307389202
20
123.40491793256288
10
64.419887310105267
20
123.40491793256288
10
64.419887310105267
20
123.64866755109315
0
LINE
5
258
100
AcDbEntity
8
0
100
AcDbLine
10
28.101136928635544
20
42.917418099455872
30
0
11
26.760512089568085
21
43.648667551093141
31
0
0
ARC
5
259
100
AcDbEntity
8
0
100
AcDbCircle
10
27.730683481532044
20
41.947247005515138
30
0
40
0.86590081453323564
210
0
220
0
230
1
100
AcDbArc
50
-97.768629157970281
51
7.768616180837502
0
ARC
5
260
100
AcDbEntity
8
0
100
AcDbCircle
10
27.469318753319687
20
42.802616573386231
30
0
40
1.7193908989429478
210
0
220
0
230
1
100
AcDbArc
50
219.94543746404878
51
274.81482575586438
0
ARC
5
261
100
AcDbEntity
8
0
100
AcDbCircle
10
27.130965834694809
20
44.618839241080323
30
0
40
0.86590081453323353
210
0
220
-0
230
1
100
AcDbArc
50
82.23138632364045
51
187.76862118979406
0
ARC
5
262
100
AcDbEntity
8
0
100
AcDbCircle
10
27.368678247767395
20
44.010666824393311
30
0
40
1.471083462238314
210
0
220
-0
230
1
100
AcDbArc
50
48.42510547947397
51
94.704993902275604
0
ARC
5
263
100
AcDbEntity
8
0
100
AcDbCircle
10
27.108559256630844
20
44.413399911932984
30
0
40
0.84020957419343945
210
0
220
0
230
1
100
AcDbArc
50
173.96111094899152
51
245.52863392131491
0
ARC
5
264
100
AcDbEntity
8
0
100
AcDbCircle
10
27.753089910584396
20
42.152685738616029
30
0
40
0.84020967773865052
210
0
220
0
230
1
100
AcDbArc
50
-6.0388525747490505
51
65.528643169932408
0
LINE
5
265
100
AcDbEntity
8
0
100
AcDbLine
10
29.807386940556473
20
39.626792884879151
30
0
11
29.807386940556473
21
44.014293170981446
31
0
0
LINE
5
266
100
AcDbEntity
8
0
100
AcDbLine
10
29.807386940556473
20
44.014293170981446
30
0
11
31.026137119370407
21
44.014293170981446
31
0
0
LINE
5
267
100
AcDbEntity
8
0
100
AcDbLine
10
31.757387167054123
20
43.28304312329773
30
0
11
31.757387167054123
21
41.820543027930299
31
0
0
LINE
5
268
100
AcDbEntity
8
0
100
AcDbLine
10
31.026137119370407
20
41.089292980246583
30
0
11
29.807386940556473
21
41.089292980246583
31
0
0
ARC
5
269
100
AcDbEntity
8
0
100
AcDbCircle
10
31.113921648102707
20
43.37082765203003
30
0
40
0.64942589843966569
210
0
220
0
230
1
100
AcDbArc
50
-7.7685954191484994
51
97.768595419148525
0
ARC
5
270
100
AcDbEntity
8
0
100
AcDbCircle
10
31.113921648102707
20
41.732758499197999
30
0
40
0.64942589843966569
210
0
220
0
230
1
100
AcDbArc
50
-97.768595419148511
51
7.7685954191485234
0
LINE
5
271
100
AcDbEntity
8
0
100
AcDbLine
10
34.926136976319256
20
41.089292980246583
30
0
11
33.707386499482098
21
41.089292980246583
31
0
0
LINE
5
272
100
AcDbEntity
8
0
100
AcDbLine
10
32.97613704784483
20
41.820543027930299
30
0
11
32.97613704784483
21
43.039292908721009
31
0
0
LINE
5
273
100
AcDbEntity
8
0
100
AcDbLine
10
34.926136976319256
20
43.039292908721009
30
0
11
34.926136976319256
21
42.551793075614015
31
0
0
LINE
5
274
100
AcDbEntity
8
0
100
AcDbLine
10
34.926136976319256
20
42.551793075614015
30
0
11
32.97613704784483
21
42.551793075614015
31
0
0
ARC
5
275
100
AcDbEntity
8
0
100
AcDbCircle
10
33.619601970749798
20
41.732758499197999
30
0
40
0.64942530786369013
210
0
220
0
230
1
100
AcDbArc
50
172.23139747261439
51
277.76859541914854
0
ARC
5
276
100
AcDbEntity
8
0
100
AcDbCircle
10
33.951136714058819
20
43.039292908721009
30
0
40
0.97500026226043701
210
0
220
0
230
1
100
AcDbArc
50
0
51
180
0
LINE
5
277
100
AcDbEntity
8
0
100
AcDbLine
10
38.094886785584393
20
41.089292980246583
30
0
11
36.87613750084013
21
41.089292980246583
31
0
0
LINE
5
278
100
AcDbEntity
8
0
100
AcDbLine
10
36.144887453156414
20
41.820543027930299
30
0
11
36.144887453156414
21
43.039292908721009
31
0
0
LINE
5
279
100
AcDbEntity
8
0
100
AcDbLine
10
38.094886785584393
20
43.039292908721009
30
0
11
38.094886785584393
21
42.551793075614015
31
0
0
LINE
5
280
100
AcDbEntity
8
0
100
AcDbLine
10
38.094886785584393
20
42.551793075614015
30
0
11
36.144887453156414
21
42.551793075614015
31
0
0
ARC
5
281
100
AcDbEntity
8
0
100
AcDbCircle
10
36.788351780014935
20
41.732758499197999
30
0
40
0.64942471728772444
210
0
220
0
230
1
100
AcDbArc
50
172.23139036436436
51
277.76869962658111
0
ARC
5
282
100
AcDbEntity
8
0
100
AcDbCircle
10
37.119887119370404
20
43.039292908721009
30
0
40
0.97499966621398926
210
0
220
0
230
1
100
AcDbArc
50
0
51
180
0
LINE
5
283
100
AcDbEntity
8
0
100
AcDbLine
10
41.263635402756634
20
45.47679267030243
30
0
11
41.263635402756634
21
41.089292980246583
31
0
0
LINE
5
284
100
AcDbEntity
8
0
100
AcDbLine
10
41.263635402756634
20
41.089292980246583
30
0
11
40.044886118012371
21
41.089292980246583
31
0
0
LINE
5
285
100
AcDbEntity
8
0
100
AcDbLine
10
39.313636070328656
20
41.820543027930299
30
0
11
39.313636070328656
21
43.28304312329773
31
0
0
LINE
5
286
100
AcDbEntity
8
0
100
AcDbLine
10
40.044886118012371
20
44.014293170981446
30
0
11
41.263635402756634
21
44.014293170981446
31
0
0
ARC
5
287
100
AcDbEntity
8
0
100
AcDbCircle
10
39.957101589280072
20
41.732758499197999
30
0
40
0.64942589843966569
210
0
220
0
230
1
100
AcDbArc
50
172.23140458085149
51
277.76859541914854
0
ARC
5
288
100
AcDbEntity
8
0
100
AcDbCircle
10
39.957101589280072
20
43.37082765203003
30
0
40
0.64942589843966569
210
0
220
-0
230
1
100
AcDbArc
50
82.231404580851475
51
187.76859541914854
0
ARC
5
289
100
AcDbEntity
8
0
100
AcDbCircle
10
48.056195026474896
20
43.571827627234498
30
0
40
3.3923745155334473
210
0
220
0
230
1
100
AcDbArc
50
135.15042842790299
51
184.88335803908359
0
ARC
5
290
100
AcDbEntity
8
0
100
AcDbCircle
10
48.056195026474896
20
42.994258023314515
30
0
40
3.3923745766152487
210
0
220
0
230
1
100
AcDbArc
50
175.11662988609226
51
224.84958159000965
0
LINE
5
291
100
AcDbEntity
8
0
100
AcDbLine
10
46.991758590775433
20
41.089292980246583
30
0
11
46.991758590775433
21
44.014293170981446
31
0
0
LINE
5
292
100
AcDbEntity
8
0
100
AcDbLine
10
46.991758590775433
20
44.014293170981446
30
0
11
49.185509925919476
21
44.014293170981446
31
0
0
LINE
5
293
100
AcDbEntity
8
0
100
AcDbLine
10
49.916758781510296
20
43.28304312329773
30
0
11
49.916758781510296
21
41.089292980246583
31
0
0
LINE
5
294
100
AcDbEntity
8
0
100
AcDbLine
10
48.454258686142865
20
41.089292980246583
30
0
11
48.454258686142865
21
44.014293170981446
31
0
0
ARC
5
295
100
AcDbEntity
8
0
100
AcDbCircle
10
49.273295646744671
20
43.37082765203003
30
0
40
0.64942353613582315
210
0
220
0
230
1
100
AcDbArc
50
-7.7686238521745148
51
97.768699626581153
0
LINE
5
296
100
AcDbEntity
8
0
100
AcDbLine
10
51.379256492691937
20
41.089292980246583
30
0
11
51.379256492691937
21
44.014293170981446
31
0
0
LINE
5
297
100
AcDbEntity
8
0
100
AcDbLine
10
51.379256492691937
20
44.014293170981446
30
0
11
53.57300782783598
21
44.014293170981446
31
0
0
LINE
5
298
100
AcDbEntity
8
0
100
AcDbLine
10
54.3042566834268
20
43.28304312329773
30
0
11
54.3042566834268
21
41.089292980246583
31
0
0
LINE
5
299
100
AcDbEntity
8
0
100
AcDbLine
10
52.841756588059368
20
41.089292980246583
30
0
11
52.841756588059368
21
44.014293170981446
31
0
0
ARC
5
300
100
AcDbEntity
8
0
100
AcDbCircle
10
53.660793548661175
20
43.37082765203003
30
0
40
0.64942353613582315
210
0
220
0
230
1
100
AcDbArc
50
-7.7686238521745148
51
97.768699626581153
0
LINE
5
301
100
AcDbEntity
8
0
100
AcDbLine
10
55.523009544449749
20
40.601793147139588
30
0
11
57.473011261063519
21
45.964292801432649
31
0
0
LINE
5
302
100
AcDbEntity
8
0
100
AcDbLine
10
60.154259449082318
20
42.308042861037293
30
0
11
58.935511356430951
21
42.795542694144288
31
0
0
ARC
5
303
100
AcDbEntity
8
0
100
AcDbCircle
10
59.134178405838909
20
43.389559007697144
30
0
40
0.62635809183121116
210
0
220
-0
230
1
100
AcDbArc
50
85.87258749093084
51
251.50763627651389
0
ARC
5
304
100
AcDbEntity
8
0
100
AcDbCircle
10
59.251683002549115
20
41.750353790335694
30
0
40
2.2650970518589015
210
0
220
-0
230
1
100
AcDbArc
50
63.110121478028127
51
91.832249160941331
0
ARC
5
305
100
AcDbEntity
8
0
100
AcDbCircle
10
59.950080162125531
20
41.715128637366334
30
0
40
0.62708564102649511
210
0
220
0
230
1
100
AcDbArc
50
-93.617868557840538
51
70.998052116640821
0
ARC
5
306
100
AcDbEntity
8
0
100
AcDbCircle
10
59.687280899125042
20
43.670118666701356
30
0
40
2.5904619693756077
210
0
220
0
230
1
100
AcDbArc
50
244.44676035661038
51
274.94350614370819
0
ARC
5
307
100
AcDbEntity
8
0
100
AcDbCircle
10
59.333575016098919
20
42.994258023314515
30
0
40
3.3923745155334526
210
0
220
0
230
1
100
AcDbArc
50
-44.849580223519034
51
4.8833637022979941
0
ARC
5
308
100
AcDbEntity
8
0
100
AcDbCircle
10
59.333575016098919
20
43.571827627234498
30
0
40
3.3923745197344979
210
0
220
0
230
1
100
AcDbArc
50
-4.8833645327727
51
44.849576581053199
0
LWPOLYLINE
5
309
100
AcDbEntity
8
0
100
AcDbPolyline
90
4
70
1
43
0.0
10
64.176135307389202
20
41.698668218665162
10
64.176135307389202
20
41.454918004088441
10
64.419887310105267
20
41.454918004088441
10
64.419887310105267
20
41.698668218665162
0
LWPOLYLINE
5
310
100
AcDbEntity
8
0
100
AcDbPolyline
90
4
70
1
43
0.0
10
64.176135307389202
20
43.648667551093141
10
64.176135307389202
20
43.404917932562867
10
64.419887310105267
20
43.404917932562867
10
64.419887310105267
20
43.648667551093141
0
LINE
5
311
100
AcDbEntity
8
0
100
AcDbLine
10
191.31702636631175
20
16.517882454416544
30
0
11
191.31831593555427
21
20.027882029172851
31
0
0
LINE
5
312
100
AcDbEntity
8
0
100
AcDbLine
10
193.26831573242146
20
20.027165601803731
30
0
11
191.31752786549202
21
17.88288237182822
31
0
0
LINE
5
313
100
AcDbEntity
8
0
100
AcDbLine
10
193.26702616317897
20
16.517166027047423
30
0
11
192.09781447443964
21
18.662595838792932
31
0
0
LINE
5
314
100
AcDbEntity
8
0
100
AcDbLine
10
195.70452576025133
20
16.516270492890776
30
0
11
194.72952615984096
21
16.516628706465838
31
0
0
LINE
5
315
100
AcDbEntity
8
0
100
AcDbLine
10
194.14474180462068
20
17.101843513891207
30
0
11
194.14510001841475
21
18.076843710348008
31
0
0
LINE
5
316
100
AcDbEntity
8
0
100
AcDbLine
10
195.70509890223423
20
18.076270568803089
30
0
11
195.70495561662904
21
17.686270251801808
31
0
0
LINE
5
317
100
AcDbEntity
8
0
100
AcDbLine
10
195.70495561662904
20
17.686270251801808
30
0
11
194.14495673280953
21
17.686843393346724
31
0
0
ARC
5
318
100
AcDbEntity
8
0
100
AcDbCircle
10
194.65948790653596
20
17.031426411494685
30
0
40
0.51954029463255469
210
0
220
0
230
1
100
AcDbArc
50
172.21030800144911
51
277.74752608216028
0
ARC
5
319
100
AcDbEntity
8
0
100
AcDbCircle
10
194.92509946032447
20
18.076557139575549
30
0
40
0.77999949455260575
210
-0
220
0
230
1
100
AcDbArc
50
-0.021050393336681475
51
179.97894960666332
0
LINE
5
320
100
AcDbEntity
8
0
100
AcDbLine
10
196.77702663200489
20
16.515876457476431
30
0
11
196.77788634486973
21
18.855876273321705
31
0
0
LINE
5
321
100
AcDbEntity
8
0
100
AcDbLine
10
196.77788634486973
20
18.855876273321705
30
0
11
197.94788610378075
21
18.85544641694403
31
0
0
LINE
5
322
100
AcDbEntity
8
0
100
AcDbLine
10
197.94788610378075
20
18.85544641694403
30
0
11
197.94774281828501
21
18.465446397965948
31
0
0
LINE
5
323
100
AcDbEntity
8
0
100
AcDbLine
10
198.9220247992335
20
16.515088387961665
30
0
11
198.92309944028716
21
19.440088083262456
31
0
0
LINE
5
324
100
AcDbEntity
8
0
100
AcDbLine
10
199.50831484397793
20
20.024873034310147
30
0
11
199.70331500247855
21
20.024801391507545
31
0
0
LINE
5
325
100
AcDbEntity
8
0
100
AcDbLine
10
198.53288538718985
20
18.85523148897418
30
0
11
199.7028851461009
21
18.854801632596509
31
0
0
ARC
5
326
100
AcDbEntity
8
0
100
AcDbCircle
10
199.43789833751828
20
19.510126634152673
30
0
40
0.51954050935134855
210
-0
220
0
230
1
100
AcDbArc
50
82.210377573797274
51
187.74754087643765
0
ARC
5
327
100
AcDbEntity
8
0
100
AcDbCircle
10
204.7468025892066
20
18.498976164261794
30
0
40
2.7138996124267498
210
0
220
0
230
1
100
AcDbArc
50
135.12937803456575
51
184.8623076457466
0
ARC
5
328
100
AcDbEntity
8
0
100
AcDbCircle
10
204.74663283063148
20
18.03692069112428
30
0
40
2.7138996460701765
210
0
220
0
230
1
100
AcDbArc
50
175.095583254167
51
224.82853119667234
0
LINE
5
329
100
AcDbEntity
8
0
100
AcDbLine
10
203.89452526472141
20
16.513261497809086
30
0
11
203.89538497758625
21
18.853261313654357
31
0
0
LINE
5
330
100
AcDbEntity
8
0
100
AcDbLine
10
203.89538497758625
20
18.853261313654357
30
0
11
205.65038401990637
21
18.852616529306836
31
0
0
LINE
5
331
100
AcDbEntity
8
0
100
AcDbLine
10
206.23516956710998
20
18.267401423420292
30
0
11
206.23452478254347
21
16.51240178505374
31
0
0
LINE
5
332
100
AcDbEntity
8
0
100
AcDbLine
10
205.06452383153965
20
16.512831641869386
30
0
11
205.06538354440448
21
18.852831457714657
31
0
0
ARC
5
333
100
AcDbEntity
8
0
100
AcDbCircle
10
205.72042346519467
20
18.337818525816811
30
0
40
0.51954029463258988
210
-0
220
0
230
1
100
AcDbArc
50
-7.7896919985501532
51
97.7476518988653
0
LINE
5
334
100
AcDbEntity
8
0
100
AcDbLine
10
207.4045257335473
20
16.51197192823809
30
0
11
207.40538544641214
21
18.851971744083365
31
0
0
LINE
5
335
100
AcDbEntity
8
0
100
AcDbLine
10
207.40538544641214
20
18.851971744083365
30
0
11
209.16038448873229
21
18.851326959735843
31
0
0
LINE
5
336
100
AcDbEntity
8
0
100
AcDbLine
10
209.7451700359359
20
18.266111853849296
30
0
11
209.7445252513694
21
16.511112215482747
31
0
0
LINE
5
337
100
AcDbEntity
8
0
100
AcDbLine
10
208.57452430036551
20
16.51154207229839
30
0
11
208.57538401323038
21
18.851541888143664
31
0
0
ARC
5
338
100
AcDbEntity
8
0
100
AcDbCircle
10
209.23042393402059
20
18.336528956245818
30
0
40
0.51954029463259022
210
-0
220
0
230
1
100
AcDbArc
50
-7.7896919985505093
51
97.7476518988653
0
ARC
5
339
100
AcDbEntity
8
0
100
AcDbCircle
10
208.8935374961267
20
18.035397123786346
30
0
40
2.7138996124267623
210
-0
220
0
230
1
100
AcDbArc
50
-44.870630616856062
51
4.8623133089608084
0
ARC
5
340
100
AcDbEntity
8
0
100
AcDbCircle
10
208.89370725470178
20
18.497452596923857
30
0
40
2.7138996005656284
210
-0
220
0
230
1
100
AcDbArc
50
-4.9044111646980904
51
44.828526187716456
0
LINE
5
341
100
AcDbEntity
8
0
100
AcDbLine
10
191.31702636631175
20
96.517882454416537
30
0
11
191.31831593555427
21
100.02788202917286
31
0
0
LINE
5
342
100
AcDbEntity
8
0
100
AcDbLine
10
193.26831573242146
20
100.02716560180373
30
0
11
191.31752786549202
21
97.882882371828231
31
0
0
LINE
5
343
100
AcDbEntity
8
0
100
AcDbLine
10
193.26702616317897
20
96.517166027047438
30
0
11
192.09781447443964
21
98.662595838792953
31
0
0
LINE
5
344
100
AcDbEntity
8
0
100
AcDbLine
10
195.70452576025133
20
96.516270492890769
30
0
11
194.72952615984096
21
96.516628706465838
31
0
0
LINE
5
345
100
AcDbEntity
8
0
100
AcDbLine
10
194.14474180462068
20
97.101843513891197
30
0
11
194.14510001841475
21
98.076843710348015
31
0
0
LINE
5
346
100
AcDbEntity
8
0
100
AcDbLine
10
195.70509890223423
20
98.076270568803082
30
0
11
195.70495561662904
21
97.686270251801801
31
0
0
LINE
5
347
100
AcDbEntity
8
0
100
AcDbLine
10
195.70495561662904
20
97.686270251801801
30
0
11
194.14495673280953
21
97.686843393346706
31
0
0
ARC
5
348
100
AcDbEntity
8
0
100
AcDbCircle
10
194.65948790653596
20
97.031426411494692
30
0
40
0.51954029463255358
210
0
220
0
230
1
100
AcDbArc
50
172.21030800145101
51
277.74752608216016
0
ARC
5
349
100
AcDbEntity
8
0
100
AcDbCircle
10
194.92509946032447
20
98.076557139575556
30
0
40
0.77999949455260575
210
-0
220
0
230
1
100
AcDbArc
50
-0.021050393336681475
51
179.97894960666332
0
LINE
5
350
100
AcDbEntity
8
0
100
AcDbLine
10
196.77702663200489
20
96.515876457476423
30
0
11
196.77788634486973
21
98.855876273321698
31
0
0
LINE
5
351
100
AcDbEntity
8
0
100
AcDbLine
10
196.77788634486973
20
98.855876273321698
30
0
11
197.94788610378075
21
98.855446416944034
31
0
0
LINE
5
352
100
AcDbEntity
8
0
100
AcDbLine
10
197.94788610378075
20
98.855446416944034
30
0
11
197.94774281828501
21
98.465446397965962
31
0
0
LINE
5
353
100
AcDbEntity
8
0
100
AcDbLine
10
198.9220247992335
20
96.515088387961669
30
0
11
198.92309944028716
21
99.440088083262452
31
0
0
LINE
5
354
100
AcDbEntity
8
0
100
AcDbLine
10
199.50831484397793
20
100.02487303431013
30
0
11
199.70331500247855
21
100.02480139150754
31
0
0
LINE
5
355
100
AcDbEntity
8
0
100
AcDbLine
10
198.53288538718985
20
98.855231488974184
30
0
11
199.7028851461009
21
98.854801632596505
31
0
0
ARC
5
356
100
AcDbEntity
8
0
100
AcDbCircle
10
199.43789833751828
20
99.510126634152684
30
0
40
0.51954050935133322
210
-0
220
0
230
1
100
AcDbArc
50
82.21037757379689
51
187.74754087643919
0
ARC
5
357
100
AcDbEntity
8
0
100
AcDbCircle
10
204.7468025892066
20
98.498976164261791
30
0
40
2.7138996124267498
210
0
220
0
230
1
100
AcDbArc
50
135.12937803456555
51
184.86230764574631
0
ARC
5
358
100
AcDbEntity
8
0
100
AcDbCircle
10
204.74663283063148
20
98.03692069112428
30
0
40
2.7138996460701774
210
0
220
0
230
1
100
AcDbArc
50
175.09558325416674
51
224.8285311966722
0
LINE
5
359
100
AcDbEntity
8
0
100
AcDbLine
10
203.89452526472141
20
96.513261497809083
30
0
11
203.89538497758625
21
98.853261313654343
31
0
0
LINE
5
360
100
AcDbEntity
8
0
100
AcDbLine
10
203.89538497758625
20
98.853261313654343
30
0
11
205.65038401990637
21
98.852616529306815
31
0
0
LINE
5
361
100
AcDbEntity
8
0
100
AcDbLine
10
206.23516956710998
20
98.267401423420296
30
0
11
206.23452478254347
21
96.51240178505374
31
0
0
LINE
5
362
100
AcDbEntity
8
0
100
AcDbLine
10
205.06452383153965
20
96.512831641869383
30
0
11
205.06538354440448
21
98.852831457714657
31
0
0
ARC
5
363
100
AcDbEntity
8
0
100
AcDbCircle
10
205.72042346519467
20
98.337818525816814
30
0
40
0.5195402946325911
210
-0
220
0
230
1
100
AcDbArc
50
-7.7896919985501532
51
97.747651898865669
0
LINE
5
364
100
AcDbEntity
8
0
100
AcDbLine
10
207.4045257335473
20
96.511971928238083
30
0
11
207.40538544641214
21
98.851971744083343
31
0
0
LINE
5
365
100
AcDbEntity
8
0
100
AcDbLine
10
207.40538544641214
20
98.851971744083343
30
0
11
209.16038448873229
21
98.851326959735829
31
0
0
LINE
5
366
100
AcDbEntity
8
0
100
AcDbLine
10
209.7451700359359
20
98.26611185384931
30
0
11
209.7445252513694
21
96.511112215482754
31
0
0
LINE
5
367
100
AcDbEntity
8
0
100
AcDbLine
10
208.57452430036551
20
96.511542072298383
30
0
11
208.57538401323038
21
98.851541888143657
31
0
0
ARC
5
368
100
AcDbEntity
8
0
100
AcDbCircle
10
209.23042393402059
20
98.336528956245814
30
0
40
0.51954029463258877
210
-0
220
0
230
1
100
AcDbArc
50
-7.7896919985485757
51
97.747651898865442
0
ARC
5
369
100
AcDbEntity
8
0
100
AcDbCircle
10
208.8935374961267
20
98.035397123786353
30
0
40
2.713899612426764
210
-0
220
0
230
1
100
AcDbArc
50
-44.870630616856218
51
4.8623133089608084
0
ARC
5
370
100
AcDbEntity
8
0
100
AcDbCircle
10
208.89370725470178
20
98.49745259692385
30
0
40
2.713899600565628
210
-0
220
0
230
1
100
AcDbArc
50
-4.9044111646977848
51
44.828526187716619
0
LINE
5
371
100
AcDbEntity
8
0
100
AcDbLine
10
160.78077652648142
20
151.51807947190474
30
0
11
160.78206609572391
21
155.02807904666105
31
0
0
LINE
5
372
100
AcDbEntity
8
0
100
AcDbLine
10
160.78206609572391
20
155.02807904666105
30
0
11
161.7570662921807
21
155.02772083286698
31
0
0
LINE
5
373
100
AcDbEntity
8
0
100
AcDbLine
10
161.75634986492111
20
153.07772133402298
30
0
11
160.78134966846432
21
153.07807954781705
31
0
0
ARC
5
374
100
AcDbEntity
8
0
100
AcDbCircle
10
161.75670807849616
20
154.05272093443338
30
0
40
0.97499966621399237
210
0
220
0
230
1
100
AcDbArc
50
-90.021050393336424
51
89.978949606664358
0
LINE
5
375
100
AcDbEntity
8
0
100
AcDbLine
10
163.60856360759294
20
152.29704068988002
30
0
11
163.60885017858436
21
153.07704072783619
31
0
0
LINE
5
376
100
AcDbEntity
8
0
100
AcDbLine
10
165.16884906240389
20
153.07646758629127
30
0
11
165.16856249141244
21
152.29646754833513
31
0
0
ARC
5
377
100
AcDbEntity
8
0
100
AcDbCircle
10
164.38884962049411
20
153.07675415706373
30
0
40
0.77999949455264128
210
-0
220
0
230
1
100
AcDbArc
50
-0.021050393336681475
51
179.97894960666332
0
ARC
5
378
100
AcDbEntity
8
0
100
AcDbCircle
10
164.38856304950266
20
152.29675411910759
30
0
40
0.77999949455260575
210
0
220
0
230
1
100
AcDbArc
50
179.97894960666332
51
359.97894960666332
0
LINE
5
379
100
AcDbEntity
8
0
100
AcDbLine
10
166.04663634653872
20
153.85614493361248
30
0
11
166.63077591708299
21
151.51593018979736
31
0
0
LINE
5
380
100
AcDbEntity
8
0
100
AcDbLine
10
166.63077591708299
20
151.51593018979736
30
0
11
167.21634953456777
21
153.07571533730186
31
0
0
LINE
5
381
100
AcDbEntity
8
0
100
AcDbLine
10
167.21634953456777
20
153.07571533730186
30
0
11
167.80077567599398
21
151.51550033341971
31
0
0
LINE
5
382
100
AcDbEntity
8
0
100
AcDbLine
10
167.80077567599398
20
151.51550033341971
30
0
11
168.38663586436076
21
153.85528522085713
31
0
0
LINE
5
383
100
AcDbEntity
8
0
100
AcDbLine
10
170.82327574856834
20
151.51438987085524
30
0
11
169.84827614815796
21
151.51474808443029
31
0
0
LINE
5
384
100
AcDbEntity
8
0
100
AcDbLine
10
169.26349179293766
20
152.09996289185565
30
0
11
169.26385000673173
21
153.07496308831247
31
0
0
LINE
5
385
100
AcDbEntity
8
0
100
AcDbLine
10
170.8238488905512
20
153.07438994676755
30
0
11
170.82370560494599
21
152.68438962976626
31
0
0
LINE
5
386
100
AcDbEntity
8
0
100
AcDbLine
10
170.82370560494599
20
152.68438962976626
30
0
11
169.26370672112651
21
152.68496277131118
31
0
0
ARC
5
387
100
AcDbEntity
8
0
100
AcDbCircle
10
169.77823789485296
20
152.02954578945912
30
0
40
0.5195402946325911
210
0
220
0
230
1
100
AcDbArc
50
172.21030800144837
51
277.74752608216056
0
ARC
5
388
100
AcDbEntity
8
0
100
AcDbCircle
10
170.04384944864145
20
153.07467651754001
30
0
40
0.77999949455260575
210
-0
220
0
230
1
100
AcDbArc
50
-0.021050393336681475
51
179.97894960666332
0
LINE
5
389
100
AcDbEntity
8
0
100
AcDbLine
10
171.89577662032184
20
151.51399583544088
30
0
11
171.89663633318671
21
153.85399565128614
31
0
0
LINE
5
390
100
AcDbEntity
8
0
100
AcDbLine
10
171.89663633318671
20
153.85399565128614
30
0
11
173.06663490000491
21
153.85356579534647
31
0
0
LINE
5
391
100
AcDbEntity
8
0
100
AcDbLine
10
173.06663490000491
20
153.85356579534647
30
0
11
173.0664916145092
21
153.46356577636837
31
0
0
ARC
5
392
100
AcDbEntity
8
0
100
AcDbCircle
10
178.20805361445377
20
153.49770450517246
30
0
40
2.7138996124267498
210
0
220
0
230
1
100
AcDbArc
50
135.12937803456597
51
184.8623076457466
0
ARC
5
393
100
AcDbEntity
8
0
100
AcDbCircle
10
178.20788385587863
20
153.03564903203494
30
0
40
2.7138996460701774
210
0
220
0
230
1
100
AcDbArc
50
175.09558325416674
51
224.82853119667237
0
LINE
5
394
100
AcDbEntity
8
0
100
AcDbLine
10
177.25827501862543
20
151.51202566055903
30
0
11
180.37956473969257
21
155.02087895134957
31
0
0
LWPOLYLINE
5
395
100
AcDbEntity
8
0
100
AcDbPolyline
90
2
70
1
43
0.0
10
177.25935018120077
20
154.43702530409666
42
-1.0000000440782302
10
178.42935008914222
20
154.43659549880658
42
-0.9999999559217716
0
LWPOLYLINE
5
396
100
AcDbEntity
8
0
100
AcDbPolyline
90
2
70
1
43
0.0
10
179.20848966915671
20
152.09630906110127
42
-1.0000000440782302
10
180.37848957709815
20
152.09587925581118
42
-0.9999999559217716
0
ARC
5
397
100
AcDbEntity
8
0
100
AcDbCircle
10
179.42978614386422
20
153.03520010673614
30
0
40
2.713899612426764
210
-0
220
0
230
1
100
AcDbArc
50
-44.870630616856019
51
4.8623133089608084
0
ARC
5
398
100
AcDbEntity
8
0
100
AcDbCircle
10
179.42995590243936
20
153.49725557987364
30
0
40
2.7138996005655924
210
-0
220
0
230
1
100
AcDbArc
50
-4.9044111646978354
51
44.828526187716392
0
ARC
5
399
100
AcDbEntity
8
0
100
AcDbCircle
10
161.75670807849616
20
74.052720934433381
30
0
40
0.97499966621399237
210
0
220
0
230
1
100
AcDbArc
50
-90.021050393336424
51
89.978949606664358
0
ARC
5
400
100
AcDbEntity
8
0
100
AcDbCircle
10
179.42995590243936
20
73.497255579873638
30
0
40
2.7138996005655924
210
-0
220
0
230
1
100
AcDbArc
50
-4.9044111646978354
51
44.828526187716392
0
ARC
5
401
100
AcDbEntity
8
0
100
AcDbCircle
10
164.38884962049411
20
73.076754157063732
30
0
40
0.77999949455264128
210
-0
220
0
230
1
100
AcDbArc
50
-0.021050393336681475
51
179.97894960666332
0
LINE
5
402
100
AcDbEntity
8
0
100
AcDbLine
10
170.82327574856834
20
71.51438987085524
30
0
11
169.84827614815796
21
71.514748084430295
31
0
0
LINE
5
403
100
AcDbEntity
8
0
100
AcDbLine
10
163.60856360759294
20
72.297040689880021
30
0
11
163.60885017858436
21
73.077040727836192
31
0
0
LINE
5
404
100
AcDbEntity
8
0
100
AcDbLine
10
166.63077591708299
20
71.515930189797373
30
0
11
167.21634953456777
21
73.075715337301858
31
0
0
LINE
5
405
100
AcDbEntity
8
0
100
AcDbLine
10
161.75634986492111
20
73.077721334022982
30
0
11
160.78134966846432
21
73.078079547817055
31
0
0
ARC
5
406
100
AcDbEntity
8
0
100
AcDbCircle
10
178.20805361445377
20
73.497704505172464
30
0
40
2.7138996124267498
210
0
220
0
230
1
100
AcDbArc
50
135.12937803456575
51
184.8623076457466
0
LINE
5
407
100
AcDbEntity
8
0
100
AcDbLine
10
165.16884906240389
20
73.076467586291272
30
0
11
165.16856249141244
21
72.296467548335116
31
0
0
LINE
5
408
100
AcDbEntity
8
0
100
AcDbLine
10
166.04663634653872
20
73.856144933612484
30
0
11
166.63077591708299
21
71.515930189797373
31
0
0
ARC
5
409
100
AcDbEntity
8
0
100
AcDbCircle
10
179.42978614386422
20
73.035200106736141
30
0
40
2.713899612426764
210
-0
220
0
230
1
100
AcDbArc
50
-44.870630616856019
51
4.8623133089608084
0
LINE
5
410
100
AcDbEntity
8
0
100
AcDbLine
10
160.78206609572391
20
75.028079046661048
30
0
11
161.7570662921807
21
75.02772083286699
31
0
0
LINE
5
411
100
AcDbEntity
8
0
100
AcDbLine
10
171.89577662032184
20
71.51399583544088
30
0
11
171.89663633318671
21
73.853995651286141
31
0
0
LWPOLYLINE
5
412
100
AcDbEntity
8
0
100
AcDbPolyline
90
2
70
1
43
0.0
10
180.37848957709815
20
72.095879255811198
42
-0.9999999559217716
10
179.20848966915671
20
72.096309061101266
42
-1.0000000440782302
0
LWPOLYLINE
5
413
100
AcDbEntity
8
0
100
AcDbPolyline
90
2
70
1
43
0.0
10
178.42935008914222
20
74.436595498806597
42
-0.9999999559217716
10
177.25935018120077
20
74.437025304096679
42
-1.0000000440782302
0
LINE
5
414
100
AcDbEntity
8
0
100
AcDbLine
10
160.78077652648142
20
71.518079471904741
30
0
11
160.78206609572391
21
75.028079046661048
31
0
0
ARC
5
415
100
AcDbEntity
8
0
100
AcDbCircle
10
164.38856304950266
20
72.29675411910759
30
0
40
0.77999949455260575
210
0
220
0
230
1
100
AcDbArc
50
179.97894960666332
51
359.97894960666332
0
LINE
5
416
100
AcDbEntity
8
0
100
AcDbLine
10
170.82370560494599
20
72.684389629766258
30
0
11
169.26370672112651
21
72.684962771311177
31
0
0
ARC
5
417
100
AcDbEntity
8
0
100
AcDbCircle
10
169.77823789485296
20
72.029545789459135
30
0
40
0.5195402946325911
210
0
220
0
230
1
100
AcDbArc
50
172.21030800144837
51
277.74752608216033
0
LINE
5
418
100
AcDbEntity
8
0
100
AcDbLine
10
173.06663490000491
20
73.853565795346455
30
0
11
173.0664916145092
21
73.463565776368384
31
0
0
LINE
5
419
100
AcDbEntity
8
0
100
AcDbLine
10
169.26349179293766
20
72.099962891855668
30
0
11
169.26385000673173
21
73.074963088312472
31
0
0
ARC
5
420
100
AcDbEntity
8
0
100
AcDbCircle
10
178.20788385587863
20
73.035649032034939
30
0
40
2.7138996460701774
210
0
220
0
230
1
100
AcDbArc
50
175.09558325416674
51
224.8285311966722
0
LINE
5
421
100
AcDbEntity
8
0
100
AcDbLine
10
171.89663633318671
20
73.853995651286141
30
0
11
173.06663490000491
21
73.853565795346455
31
0
0
ARC
5
422
100
AcDbEntity
8
0
100
AcDbCircle
10
170.04384944864145
20
73.074676517540013
30
0
40
0.77999949455260575
210
-0
220
0
230
1
100
AcDbArc
50
-0.021050393336681475
51
179.97894960666332
0
LINE
5
423
100
AcDbEntity
8
0
100
AcDbLine
10
177.25827501862543
20
71.512025660559033
30
0
11
180.37956473969257
21
75.020878951349559
31
0
0
LINE
5
424
100
AcDbEntity
8
0
100
AcDbLine
10
170.8238488905512
20
73.074389946767553
30
0
11
170.82370560494599
21
72.684389629766258
31
0
0
LINE
5
425
100
AcDbEntity
8
0
100
AcDbLine
10
167.21634953456777
20
73.075715337301858
30
0
11
167.80077567599398
21
71.515500333419695
31
0
0
LINE
5
426
100
AcDbEntity
8
0
100
AcDbLine
10
167.80077567599398
20
71.515500333419695
30
0
11
168.38663586436076
21
73.855285220857141
31
0
0
LINE
5
427
100
AcDbEntity
8
0
100
AcDbLine
10
102.85920480937322
20
137.66226894970953
30
0
11
104.1751332137875
21
137.63318932556291
31
0
0
LINE
5
428
100
AcDbEntity
8
0
100
AcDbLine
10
105.03303279570518
20
136.73651719842655
30
0
11
105.02818619277811
21
136.51719584734929
31
0
0
LINE
5
429
100
AcDbEntity
8
0
100
AcDbLine
10
102.83497178815367
20
136.56566189637255
30
0
11
102.85920480937322
21
137.66226894970953
31
0
0
ARC
5
430
100
AcDbEntity
8
0
100
AcDbCircle
10
104.26339004826775
20
136.85889229370014
30
0
40
0.77931099224009659
210
-0
220
0
230
1
100
AcDbArc
50
-9.0345404452926523
51
96.502690460010285
0
ARC
5
431
100
AcDbEntity
8
0
100
AcDbCircle
10
103.93157884149063
20
136.54142887515297
30
0
40
1.0968747735023456
210
0
220
0
230
1
100
AcDbArc
50
178.73407352647453
51
358.73407352647689
0
ARC
5
432
100
AcDbEntity
8
0
100
AcDbCircle
10
104.40779917104926
20
137.83878261208591
30
0
40
1.5586215257644664
210
-0
220
0
230
1
100
AcDbArc
50
80.96545985011511
51
186.50268897912605
0
LINE
5
433
100
AcDbEntity
8
0
100
AcDbLine
10
106.10055992036087
20
135.39635548142641
30
0
11
107.41648862272562
21
135.36727585069559
31
0
0
LINE
5
434
100
AcDbEntity
8
0
100
AcDbLine
10
108.31316104122827
20
136.22517512807863
30
0
11
108.32285425366661
21
136.66381812818372
31
0
0
LINE
5
435
100
AcDbEntity
8
0
100
AcDbLine
10
107.46495467174893
20
137.56049025532005
30
0
11
106.14902596938416
21
137.58956988605087
31
0
0
LINE
5
436
100
AcDbEntity
8
0
100
AcDbLine
10
106.14902596938416
20
137.58956988605087
30
0
11
106.18779880596912
21
139.34414129057021
31
0
0
LINE
5
437
100
AcDbEntity
8
0
100
AcDbLine
10
106.18779880596912
20
139.34414129057021
30
0
11
108.38101350854404
21
139.29567523496274
31
0
0
ARC
5
438
100
AcDbEntity
8
0
100
AcDbCircle
10
107.53886371141502
20
136.13691830018254
30
0
40
0.77931069695212063
210
0
220
0
230
1
100
AcDbArc
50
-99.034543407062117
51
6.5026874982394363
0
ARC
5
439
100
AcDbEntity
8
0
100
AcDbCircle
10
107.55321150622918
20
136.78619322345727
30
0
40
0.77931099224009381
210
-0
220
0
230
1
100
AcDbArc
50
-9.0345404452905669
51
96.502690460010285
0
LINE
5
440
100
AcDbEntity
8
0
100
AcDbLine
10
127.89142328214589
20
139.12023839438331
30
0
11
127.90111648800006
21
139.5588810965379
31
0
0
LINE
5
441
100
AcDbEntity
8
0
100
AcDbLine
10
127.90111648800006
20
139.5588810965379
30
0
11
130.0943308926245
21
139.51041504751464
31
0
0
LINE
5
442
100
AcDbEntity
8
0
100
AcDbLine
10
130.0943308926245
20
139.51041504751464
30
0
11
128.91048465572877
21
135.58686226617456
31
0
0
LINE
5
443
100
AcDbEntity
8
0
100
AcDbLine
10
131.3424065317725
20
136.41083532306803
30
0
11
133.14544458121614
21
138.56527687793917
31
0
0
ARC
5
444
100
AcDbEntity
8
0
100
AcDbCircle
10
133.77906364819088
20
137.59836637987559
30
0
40
2.6331523060798609
210
0
220
0
230
1
100
AcDbArc
50
149.60558934813042
51
181.87331544023837
0
ARC
5
445
100
AcDbEntity
8
0
100
AcDbCircle
10
132.18277854038882
20
138.77788921233196
30
0
40
0.69203622639177853
210
-0
220
0
230
1
100
AcDbArc
50
81.292550779278855
51
167.25093729847541
0
ARC
5
446
100
AcDbEntity
8
0
100
AcDbCircle
10
132.36199158504863
20
138.77392893002221
30
0
40
0.69203622639179874
210
-0
220
0
230
1
100
AcDbArc
50
10.217198441192886
51
96.175572582871084
0
ARC
5
447
100
AcDbEntity
8
0
100
AcDbCircle
10
130.71515956911571
20
137.66607308697456
30
0
40
2.6331523060798667
210
-0
220
0
230
1
100
AcDbArc
50
-4.405180681177213
51
27.86255491448366
0
ARC
5
448
100
AcDbEntity
8
0
100
AcDbCircle
10
133.772692143066
20
137.31003924983958
30
0
40
2.6331523317365613
210
0
220
0
230
1
100
AcDbArc
50
175.5948214336106
51
207.86255406235273
0
ARC
5
449
100
AcDbEntity
8
0
100
AcDbCircle
10
132.12586012384099
20
136.20218325781667
30
0
40
0.69203625400219904
210
0
220
0
230
1
100
AcDbArc
50
190.21718445702365
51
276.17559263120518
0
ARC
5
450
100
AcDbEntity
8
0
100
AcDbCircle
10
130.7087880639908
20
137.37774595693853
30
0
40
2.6331523060798636
210
-0
220
0
230
1
100
AcDbArc
50
-30.394405642913078
51
1.873313399189205
0
ARC
5
451
100
AcDbEntity
8
0
100
AcDbCircle
10
132.30507316850077
20
136.19822297550689
30
0
40
0.69203620031713564
210
0
220
0
230
1
100
AcDbArc
50
261.29257094981153
51
347.25096755070649
0
ARC
5
452
100
AcDbEntity
8
0
100
AcDbCircle
10
178.93471768353251
20
136.68346961746204
30
0
40
1.0968749225139658
210
-0
220
0
230
1
100
AcDbArc
50
-1.2659264735257596
51
178.73407853543188
0
ARC
5
453
100
AcDbEntity
8
0
100
AcDbCircle
10
178.93471768353251
20
136.68346961746204
30
0
40
1.0968749225139702
210
0
220
0
230
1
100
AcDbArc
50
178.73407853543188
51
358.73407352647428
0
LWPOLYLINE
5
454
100
AcDbEntity
8
0
100
AcDbPolyline
90
2
70
1
43
0.0
10
178.10105134461278
20
138.67674871677164
42
-1.000000043443978
10
179.8556228998022
20
138.63797595358935
42
-0.99999995655602381
0
LINE
5
455
100
AcDbEntity
8
0
100
AcDbLine
10
181.3424065317725
20
136.41083532306803
30
0
11
183.14544458121611
21
138.56527687793917
31
0
0
ARC
5
456
100
AcDbEntity
8
0
100
AcDbCircle
10
183.77906364819091
20
137.59836637987559
30
0
40
2.6331523060798769
210
0
220
0
230
1
100
AcDbArc
50
149.60558934813076
51
181.87331544023837
0
ARC
5
457
100
AcDbEntity
8
0
100
AcDbCircle
10
182.18277854038882
20
138.77788921233196
30
0
40
0.69203622639177576
210
-0
220
0
230
1
100
AcDbArc
50
81.2925507792812
51
167.25093729847541
0
ARC
5
458
100
AcDbEntity
8
0
100
AcDbCircle
10
182.3619915850486
20
138.77392893002221
30
0
40
0.6920362263917812
210
-0
220
0
230
1
100
AcDbArc
50
10.217198441193318
51
96.175572582871084
0
ARC
5
459
100
AcDbEntity
8
0
100
AcDbCircle
10
180.71515956911568
20
137.66607308697456
30
0
40
2.6331523060798667
210
-0
220
0
230
1
100
AcDbArc
50
-4.405180681177213
51
27.862554914483947
0
ARC
5
460
100
AcDbEntity
8
0
100
AcDbCircle
10
183.77269214306597
20
137.31003924983958
30
0
40
2.6331523317364907
210
0
220
0
230
1
100
AcDbArc
50
175.59482143361043
51
207.86255406235273
0
ARC
5
461
100
AcDbEntity
8
0
100
AcDbCircle
10
182.12586012384097
20
136.20218325781667
30
0
40
0.69203625400221647
210
0
220
0
230
1
100
AcDbArc
50
190.21718445702365
51
276.17559263120518
0
ARC
5
462
100
AcDbEntity
8
0
100
AcDbCircle
10
180.7087880639908
20
137.37774595693853
30
0
40
2.6331523060798783
210
-0
220
0
230
1
100
AcDbArc
50
-30.394405642912776
51
1.873313399189205
0
ARC
5
463
100
AcDbEntity
8
0
100
AcDbCircle
10
182.3050731685008
20
136.19822297550689
30
0
40
0.69203620031714097
210
0
220
0
230
1
100
AcDbArc
50
261.29257094980687
51
347.25096755070649
0
LINE
5
464
100
AcDbEntity
8
0
100
AcDbLine
10
152.89309288121811
20
139.19579208214788
30
0
11
152.90278608707226
21
139.63443478430247
31
0
0
LINE
5
465
100
AcDbEntity
8
0
100
AcDbLine
10
152.90278608707226
20
139.63443478430247
30
0
11
155.09600049169671
21
139.58596873527918
31
0
0
LINE
5
466
100
AcDbEntity
8
0
100
AcDbLine
10
155.09600049169671
20
139.58596873527918
30
0
11
153.91215425480095
21
135.6624159539391
31
0
0
LINE
5
467
100
AcDbEntity
8
0
100
AcDbLine
10
156.10536836147492
20
135.61394991149999
30
0
11
157.42129706383966
21
135.58487028076917
31
0
0
LINE
5
468
100
AcDbEntity
8
0
100
AcDbLine
10
158.31796948234231
20
136.44276955815221
30
0
11
158.32766269478066
21
136.8814125582573
31
0
0
LINE
5
469
100
AcDbEntity
8
0
100
AcDbLine
10
157.46976311286298
20
137.77808468539362
30
0
11
156.15383441049823
21
137.80716431612444
31
0
0
LINE
5
470
100
AcDbEntity
8
0
100
AcDbLine
10
156.15383441049823
20
137.80716431612444
30
0
11
156.1926072470832
21
139.56173572064378
31
0
0
LINE
5
471
100
AcDbEntity
8
0
100
AcDbLine
10
156.1926072470832
20
139.56173572064378
30
0
11
158.38582194965812
21
139.51326966503632
31
0
0
ARC
5
472
100
AcDbEntity
8
0
100
AcDbCircle
10
157.54367215252904
20
136.35451273025612
30
0
40
0.77931069695210298
210
0
220
0
230
1
100
AcDbArc
50
-99.034543407061093
51
6.5026874982392684
0
ARC
5
473
100
AcDbEntity
8
0
100
AcDbCircle
10
157.55801994734324
20
137.00378765353085
30
0
40
0.77931099224007916
210
-0
220
0
230
1
100
AcDbArc
50
-9.0345404452907694
51
96.502690460011323
0
ARC
5
474
100
AcDbEntity
8
0
100
AcDbCircle
10
203.93638727602055
20
136.75902300727608
30
0
40
1.0968749225139658
210
-0
220
0
230
1
100
AcDbArc
50
-1.2659264735254543
51
178.73407853543188
0
ARC
5
475
100
AcDbEntity
8
0
100
AcDbCircle
10
203.93638727602055
20
136.75902300727608
30
0
40
1.0968749225139702
210
0
220
0
230
1
100
AcDbArc
50
178.73407853543188
51
358.73407352647456
0
LWPOLYLINE
5
476
100
AcDbEntity
8
0
100
AcDbPolyline
90
2
70
1
43
0.0
10
203.102720943685
20
138.75230240453618
42
-1.000000043443978
10
204.85729249887441
20
138.71352964135389
42
-0.99999995655602381
0
LINE
5
477
100
AcDbEntity
8
0
100
AcDbLine
10
206.10536836147497
20
135.61394991149999
30
0
11
207.42129706383969
21
135.58487028076917
31
0
0
LINE
5
478
100
AcDbEntity
8
0
100
AcDbLine
10
208.31796948234233
20
136.44276955815221
30
0
11
208.32766269478068
21
136.8814125582573
31
0
0
LINE
5
479
100
AcDbEntity
8
0
100
AcDbLine
10
207.46976311286301
20
137.77808468539362
30
0
11
206.15383441049826
21
137.80716431612444
31
0
0
LINE
5
480
100
AcDbEntity
8
0
100
AcDbLine
10
206.15383441049826
20
137.80716431612444
30
0
11
206.19260724708317
21
139.56173572064378
31
0
0
LINE
5
481
100
AcDbEntity
8
0
100
AcDbLine
10
206.19260724708317
20
139.56173572064378
30
0
11
208.38582194965809
21
139.51326966503632
31
0
0
ARC
5
482
100
AcDbEntity
8
0
100
AcDbCircle
10
207.5436721525291
20
136.35451273025612
30
0
40
0.77931069695210298
210
0
220
0
230
1
100
AcDbArc
50
-99.03454340706314
51
6.5026874982394931
0
ARC
5
483
100
AcDbEntity
8
0
100
AcDbCircle
10
207.55801994734327
20
137.00378765353085
30
0
40
0.77931099224007916
210
-0
220
0
230
1
100
AcDbArc
50
-9.0345404452907694
51
96.502690460011323
0
LINE
5
484
100
AcDbEntity
8
0
100
AcDbLine
10
230.04586484689327
20
137.31720079186542
30
0
11
228.72993614452852
21
137.34628042259624
31
0
0
LINE
5
485
100
AcDbEntity
8
0
100
AcDbLine
10
227.8720368638534
20
138.24295269212365
30
0
11
227.8768834667805
21
138.46227404320092
31
0
0
LINE
5
486
100
AcDbEntity
8
0
100
AcDbLine
10
230.07009787140493
20
138.41380799417766
30
0
11
230.04586484689327
21
137.31720079186542
31
0
0
ARC
5
487
100
AcDbEntity
8
0
100
AcDbCircle
10
228.64167931334035
20
138.12057760343424
30
0
40
0.77931069695212063
210
0
220
0
230
1
100
AcDbArc
50
170.96545659293687
51
276.50268897912514
0
ARC
5
488
100
AcDbEntity
8
0
100
AcDbCircle
10
228.97349052011748
20
138.43804102198138
30
0
40
1.0968750715255675
210
-0
220
0
230
1
100
AcDbArc
50
-1.2659264735245892
51
178.73407352647595
0
ARC
5
489
100
AcDbEntity
8
0
100
AcDbCircle
10
228.49727048192517
20
137.14068698051381
30
0
40
1.5586215257644591
210
0
220
0
230
1
100
AcDbArc
50
-99.034555631496147
51
6.5026944065988737
0
LINE
5
490
100
AcDbEntity
8
0
100
AcDbLine
10
231.3424065317725
20
136.41083532306803
30
0
11
233.14544458121611
21
138.56527687793917
31
0
0
ARC
5
491
100
AcDbEntity
8
0
100
AcDbCircle
10
233.77906364819091
20
137.59836637987559
30
0
40
2.6331523060798769
210
0
220
0
230
1
100
AcDbArc
50
149.60558934813076
51
181.87331544023837
0
ARC
5
492
100
AcDbEntity
8
0
100
AcDbCircle
10
232.18277854038882
20
138.77788921233196
30
0
40
0.69203622639177576
210
-0
220
0
230
1
100
AcDbArc
50
81.2925507792812
51
167.25093729847541
0
ARC
5
493
100
AcDbEntity
8
0
100
AcDbCircle
10
232.3619915850486
20
138.77392893002221
30
0
40
0.6920362263917812
210
-0
220
0
230
1
100
AcDbArc
50
10.217198441193318
51
96.175572582871084
0
ARC
5
494
100
AcDbEntity
8
0
100
AcDbCircle
10
230.71515956911568
20
137.66607308697456
30
0
40
2.6331523060798667
210
-0
220
0
230
1
100
AcDbArc
50
-4.405180681177213
51
27.862554914483947
0
ARC
5
495
100
AcDbEntity
8
0
100
AcDbCircle
10
233.77269214306597
20
137.31003924983958
30
0
40
2.6331523317364907
210
0
220
0
230
1
100
AcDbArc
50
175.59482143361043
51
207.86255406235273
0
ARC
5
496
100
AcDbEntity
8
0
100
AcDbCircle
10
232.12586012384097
20
136.20218325781667
30
0
40
0.69203625400221647
210
0
220
0
230
1
100
AcDbArc
50
190.21718445702365
51
276.17559263120518
0
ARC
5
497
100
AcDbEntity
8
0
100
AcDbCircle
10
230.7087880639908
20
137.37774595693853
30
0
40
2.6331523060798783
210
-0
220
0
230
1
100
AcDbArc
50
-30.394405642912776
51
1.873313399189205
0
ARC
5
498
100
AcDbEntity
8
0
100
AcDbCircle
10
232.3050731685008
20
136.19822297550689
30
0
40
0.69203620031714097
210
0
220
0
230
1
100
AcDbArc
50
261.29257094980687
51
347.25096755070649
0
LINE
5
499
100
AcDbEntity
8
0
100
AcDbLine
10
230.04586484689327
20
57.317200791865432
30
0
11
228.72993614452852
21
57.34628042259623
31
0
0
LINE
5
500
100
AcDbEntity
8
0
100
AcDbLine
10
227.8720368638534
20
58.242952692123637
30
0
11
227.8768834667805
21
58.462274043200935
31
0
0
LINE
5
501
100
AcDbEntity
8
0
100
AcDbLine
10
230.07009787140493
20
58.413807994177645
30
0
11
230.04586484689327
21
57.317200791865432
31
0
0
ARC
5
502
100
AcDbEntity
8
0
100
AcDbCircle
10
228.64167931334035
20
58.120577603434249
30
0
40
0.77931069695212063
210
0
220
0
230
1
100
AcDbArc
50
170.96545659293841
51
276.50268897912503
0
ARC
5
503
100
AcDbEntity
8
0
100
AcDbCircle
10
228.97349052011748
20
58.438041021981377
30
0
40
1.0968750715255677
210
-0
220
0
230
1
100
AcDbArc
50
-1.2659264735254543
51
178.73407352647513
0
ARC
5
504
100
AcDbEntity
8
0
100
AcDbCircle
10
228.49727048192517
20
57.14068698051382
30
0
40
1.5586215257644591
210
0
220
0
230
1
100
AcDbArc
50
-99.034555631496104
51
6.5026944065988737
0
LINE
5
505
100
AcDbEntity
8
0
100
AcDbLine
10
231.3424065317725
20
56.410835323068028
30
0
11
233.14544458121611
21
58.565276877939176
31
0
0
ARC
5
506
100
AcDbEntity
8
0
100
AcDbCircle
10
233.77906364819091
20
57.598366379875607
30
0
40
2.6331523060798725
210
0
220
0
230
1
100
AcDbArc
50
149.60558934813145
51
181.87331544023937
0
ARC
5
507
100
AcDbEntity
8
0
100
AcDbCircle
10
232.18277854038882
20
58.777889212331964
30
0
40
0.69203622639179341
210
-0
220
0
230
1
100
AcDbArc
50
81.2925507792812
51
167.25093729847714
0
ARC
5
508
100
AcDbEntity
8
0
100
AcDbCircle
10
232.3619915850486
20
58.77392893002223
30
0
40
0.69203622639177953
210
-0
220
0
230
1
100
AcDbArc
50
10.217198441190988
51
96.175572582871212
0
ARC
5
509
100
AcDbEntity
8
0
100
AcDbCircle
10
230.71515956911568
20
57.666073086974556
30
0
40
2.6331523060798672
210
-0
220
0
230
1
100
AcDbArc
50
-4.4051806811770602
51
27.862554914483947
0
ARC
5
510
100
AcDbEntity
8
0
100
AcDbCircle
10
233.77269214306597
20
57.310039249839562
30
0
40
2.6331523317364915
210
0
220
0
230
1
100
AcDbArc
50
175.59482143361043
51
207.86255406235247
0
ARC
5
511
100
AcDbEntity
8
0
100
AcDbCircle
10
232.12586012384097
20
56.20218325781665
30
0
40
0.69203625400221491
210
0
220
0
230
1
100
AcDbArc
50
190.21718445702192
51
276.17559263120535
0
ARC
5
512
100
AcDbEntity
8
0
100
AcDbCircle
10
230.7087880639908
20
57.377745956938512
30
0
40
2.6331523060798738
210
-0
220
0
230
1
100
AcDbArc
50
-30.394405642912215
51
1.8733133991893995
0
ARC
5
513
100
AcDbEntity
8
0
100
AcDbCircle
10
232.3050731685008
20
56.198222975506916
30
0
40
0.69203620031715862
210
0
220
0
230
1
100
AcDbArc
50
261.2925709498071
51
347.25096755070592
0
LWPOLYLINE
5
514
100
AcDbEntity
8
0
100
AcDbPolyline
90
2
70
1
43
0.0
10
202.83978007160277
20
56.783255936505768
42
-1.000000043443978
10
205.03299447834576
20
56.734789983350936
42
-0.99999995655602381
0
LWPOLYLINE
5
515
100
AcDbEntity
8
0
100
AcDbPolyline
90
2
70
1
43
0.0
10
203.102720943685
20
58.752302404536181
42
-1.000000043443978
10
204.85729249887441
20
58.713529641353887
42
-0.99999995655602381
0
LINE
5
516
100
AcDbEntity
8
0
100
AcDbLine
10
206.10536836147497
20
55.613949911499986
30
0
11
207.42129706383969
21
55.584870280769181
31
0
0
LINE
5
517
100
AcDbEntity
8
0
100
AcDbLine
10
208.31796948234233
20
56.442769558152214
30
0
11
208.32766269478068
21
56.881412558257296
31
0
0
LINE
5
518
100
AcDbEntity
8
0
100
AcDbLine
10
207.46976311286301
20
57.778084685393615
30
0
11
206.15383441049826
21
57.807164316124414
31
0
0
LINE
5
519
100
AcDbEntity
8
0
100
AcDbLine
10
206.15383441049826
20
57.807164316124414
30
0
11
206.19260724708317
21
59.561735720643767
31
0
0
LINE
5
520
100
AcDbEntity
8
0
100
AcDbLine
10
206.19260724708317
20
59.561735720643767
30
0
11
208.38582194965809
21
59.513269665036319
31
0
0
ARC
5
521
100
AcDbEntity
8
0
100
AcDbCircle
10
207.5436721525291
20
56.354512730256104
30
0
40
0.77931069695210298
210
0
220
0
230
1
100
AcDbArc
50
-99.034543407063495
51
6.5026874982410661
0
ARC
5
522
100
AcDbEntity
8
0
100
AcDbCircle
10
207.55801994734327
20
57.003787653530836
30
0
40
0.77931099224007638
210
-0
220
0
230
1
100
AcDbArc
50
-9.0345404452897018
51
96.502690460011266
0
LWPOLYLINE
5
523
100
AcDbEntity
8
0
100
AcDbPolyline
90
2
70
1
43
0.0
10
177.83811047911473
20
56.707702546691692
42
-1.000000043443978
10
180.03132488585771
20
56.659236593536868
42
-0.99999995655602381
0
LWPOLYLINE
5
524
100
AcDbEntity
8
0
100
AcDbPolyline
90
2
70
1
43
0.0
10
178.10105134461278
20
58.676748716771627
42
-1.000000043443978
10
179.8556228998022
20
58.637975953589326
42
-0.99999995655602381
0
LINE
5
525
100
AcDbEntity
8
0
100
AcDbLine
10
181.3424065317725
20
56.410835323068028
30
0
11
183.14544458121611
21
58.565276877939176
31
0
0
ARC
5
526
100
AcDbEntity
8
0
100
AcDbCircle
10
183.77906364819091
20
57.598366379875607
30
0
40
2.6331523060798725
210
0
220
0
230
1
100
AcDbArc
50
149.60558934813145
51
181.87331544023937
0
ARC
5
527
100
AcDbEntity
8
0
100
AcDbCircle
10
182.18277854038882
20
58.777889212331964
30
0
40
0.69203622639179341
210
-0
220
0
230
1
100
AcDbArc
50
81.2925507792812
51
167.25093729847714
0
ARC
5
528
100
AcDbEntity
8
0
100
AcDbCircle
10
182.3619915850486
20
58.77392893002223
30
0
40
0.69203622639177953
210
-0
220
0
230
1
100
AcDbArc
50
10.217198441190988
51
96.175572582871212
0
ARC
5
529
100
AcDbEntity
8
0
100
AcDbCircle
10
180.71515956911568
20
57.666073086974556
30
0
40
2.6331523060798672
210
-0
220
0
230
1
100
AcDbArc
50
-4.4051806811770602
51
27.862554914483947
0
ARC
5
530
100
AcDbEntity
8
0
100
AcDbCircle
10
183.77269214306597
20
57.310039249839562
30
0
40
2.6331523317364915
210
0
220
0
230
1
100
AcDbArc
50
175.59482143361043
51
207.86255406235247
0
ARC
5
531
100
AcDbEntity
8
0
100
AcDbCircle
10
182.12586012384097
20
56.20218325781665
30
0
40
0.69203625400221491
210
0
220
0
230
1
100
AcDbArc
50
190.21718445702192
51
276.17559263120535
0
ARC
5
532
100
AcDbEntity
8
0
100
AcDbCircle
10
180.7087880639908
20
57.377745956938512
30
0
40
2.6331523060798738
210
-0
220
0
230
1
100
AcDbArc
50
-30.394405642912215
51
1.8733133991893995
0
ARC
5
533
100
AcDbEntity
8
0
100
AcDbCircle
10
182.3050731685008
20
56.198222975506916
30
0
40
0.69203620031715862
210
0
220
0
230
1
100
AcDbArc
50
261.2925709498071
51
347.25096755070592
0
LINE
5
534
100
AcDbEntity
8
0
100
AcDbLine
10
152.89309288121811
20
59.195792082147861
30
0
11
152.90278608707226
21
59.634434784302464
31
0
0
LINE
5
535
100
AcDbEntity
8
0
100
AcDbLine
10
152.90278608707226
20
59.634434784302464
30
0
11
155.09600049169671
21
59.585968735279167
31
0
0
LINE
5
536
100
AcDbEntity
8
0
100
AcDbLine
10
155.09600049169671
20
59.585968735279167
30
0
11
153.91215425480095
21
55.66241595393911
31
0
0
LINE
5
537
100
AcDbEntity
8
0
100
AcDbLine
10
156.10536836147492
20
55.613949911499986
30
0
11
157.42129706383966
21
55.584870280769181
31
0
0
LINE
5
538
100
AcDbEntity
8
0
100
AcDbLine
10
158.31796948234231
20
56.442769558152214
30
0
11
158.32766269478066
21
56.881412558257296
31
0
0
LINE
5
539
100
AcDbEntity
8
0
100
AcDbLine
10
157.46976311286298
20
57.778084685393615
30
0
11
156.15383441049823
21
57.807164316124414
31
0
0
LINE
5
540
100
AcDbEntity
8
0
100
AcDbLine
10
156.15383441049823
20
57.807164316124414
30
0
11
156.1926072470832
21
59.561735720643767
31
0
0
LINE
5
541
100
AcDbEntity
8
0
100
AcDbLine
10
156.1926072470832
20
59.561735720643767
30
0
11
158.38582194965812
21
59.513269665036319
31
0
0
ARC
5
542
100
AcDbEntity
8
0
100
AcDbCircle
10
157.54367215252904
20
56.354512730256104
30
0
40
0.77931069695210298
210
0
220
0
230
1
100
AcDbArc
50
-99.034543407061406
51
6.5026874982408414
0
ARC
5
543
100
AcDbEntity
8
0
100
AcDbCircle
10
157.55801994734324
20
57.003787653530836
30
0
40
0.77931099224007638
210
-0
220
0
230
1
100
AcDbArc
50
-9.0345404452897018
51
96.502690460011266
0
LINE
5
544
100
AcDbEntity
8
0
100
AcDbLine
10
127.89142328214589
20
59.120238394383307
30
0
11
127.90111648800006
21
59.55888109653791
31
0
0
LINE
5
545
100
AcDbEntity
8
0
100
AcDbLine
10
127.90111648800006
20
59.55888109653791
30
0
11
130.0943308926245
21
59.51041504751462
31
0
0
LINE
5
546
100
AcDbEntity
8
0
100
AcDbLine
10
130.0943308926245
20
59.51041504751462
30
0
11
128.91048465572877
21
55.586862266174563
31
0
0
LINE
5
547
100
AcDbEntity
8
0
100
AcDbLine
10
131.3424065317725
20
56.410835323068028
30
0
11
133.14544458121614
21
58.565276877939176
31
0
0
ARC
5
548
100
AcDbEntity
8
0
100
AcDbCircle
10
133.77906364819088
20
57.598366379875607
30
0
40
2.6331523060798565
210
0
220
0
230
1
100
AcDbArc
50
149.6055893481311
51
181.87331544023937
0
ARC
5
549
100
AcDbEntity
8
0
100
AcDbCircle
10
132.18277854038882
20
58.777889212331964
30
0
40
0.69203622639179607
210
-0
220
0
230
1
100
AcDbArc
50
81.292550779278855
51
167.25093729847714
0
ARC
5
550
100
AcDbEntity
8
0
100
AcDbCircle
10
132.36199158504863
20
58.77392893002223
30
0
40
0.69203622639179696
210
-0
220
0
230
1
100
AcDbArc
50
10.217198441190593
51
96.175572582871212
0
ARC
5
551
100
AcDbEntity
8
0
100
AcDbCircle
10
130.71515956911571
20
57.666073086974556
30
0
40
2.6331523060798672
210
-0
220
0
230
1
100
AcDbArc
50
-4.4051806811770602
51
27.86255491448366
0
ARC
5
552
100
AcDbEntity
8
0
100
AcDbCircle
10
133.772692143066
20
57.310039249839562
30
0
40
2.6331523317365617
210
0
220
0
230
1
100
AcDbArc
50
175.5948214336106
51
207.86255406235247
0
ARC
5
553
100
AcDbEntity
8
0
100
AcDbCircle
10
132.12586012384099
20
56.20218325781665
30
0
40
0.69203625400219737
210
0
220
0
230
1
100
AcDbArc
50
190.21718445702192
51
276.17559263120535
0
ARC
5
554
100
AcDbEntity
8
0
100
AcDbCircle
10
130.7087880639908
20
57.377745956938512
30
0
40
2.6331523060798592
210
-0
220
0
230
1
100
AcDbArc
50
-30.394405642912574
51
1.8733133991893995
0
ARC
5
555
100
AcDbEntity
8
0
100
AcDbCircle
10
132.30507316850077
20
56.198222975506916
30
0
40
0.69203620031715318
210
0
220
0
230
1
100
AcDbArc
50
261.2925709498117
51
347.25096755070592
0
LINE
5
556
100
AcDbEntity
8
0
100
AcDbLine
10
102.85920480937322
20
57.662268949709528
30
0
11
104.1751332137875
21
57.633189325562888
31
0
0
LINE
5
557
100
AcDbEntity
8
0
100
AcDbLine
10
105.03303279570518
20
56.736517198426569
30
0
11
105.02818619277811
21
56.517195847349271
31
0
0
LINE
5
558
100
AcDbEntity
8
0
100
AcDbLine
10
102.83497178815367
20
56.565661896372561
30
0
11
102.85920480937322
21
57.662268949709528
31
0
0
ARC
5
559
100
AcDbEntity
8
0
100
AcDbCircle
10
104.26339004826775
20
56.858892293700116
30
0
40
0.77931099224009381
210
-0
220
0
230
1
100
AcDbArc
50
-9.0345404452901086
51
96.502690460010285
0
ARC
5
560
100
AcDbEntity
8
0
100
AcDbCircle
10
103.93157884149063
20
56.541428875152995
30
0
40
1.0968747735023456
210
0
220
0
230
1
100
AcDbArc
50
178.73407352647484
51
358.73407352647513
0
ARC
5
561
100
AcDbEntity
8
0
100
AcDbCircle
10
104.40779917104926
20
57.838782612085893
30
0
40
1.5586215257644664
210
-0
220
0
230
1
100
AcDbArc
50
80.965459850115153
51
186.50268897912554
0
LINE
5
562
100
AcDbEntity
8
0
100
AcDbLine
10
106.10055992036087
20
55.396355481426411
30
0
11
107.41648862272562
21
55.367275850695606
31
0
0
LINE
5
563
100
AcDbEntity
8
0
100
AcDbLine
10
108.31316104122827
20
56.225175128078639
30
0
11
108.32285425366661
21
56.663818128183721
31
0
0
LINE
5
564
100
AcDbEntity
8
0
100
AcDbLine
10
107.46495467174893
20
57.56049025532004
30
0
11
106.14902596938416
21
57.589569886050846
31
0
0
LINE
5
565
100
AcDbEntity
8
0
100
AcDbLine
10
106.14902596938416
20
57.589569886050846
30
0
11
106.18779880596912
21
59.344141290570192
31
0
0
LINE
5
566
100
AcDbEntity
8
0
100
AcDbLine
10
106.18779880596912
20
59.344141290570192
30
0
11
108.38101350854404
21
59.295675234962744
31
0
0
ARC
5
567
100
AcDbEntity
8
0
100
AcDbCircle
10
107.53886371141502
20
56.136918300182536
30
0
40
0.77931069695210298
210
0
220
0
230
1
100
AcDbArc
50
-99.034543407062372
51
6.5026874982404479
0
ARC
5
568
100
AcDbEntity
8
0
100
AcDbCircle
10
107.55321150622918
20
56.786193223457261
30
0
40
0.77931099224009381
210
-0
220
0
230
1
100
AcDbArc
50
-9.034540445289549
51
96.502690460010228
0
ENDSEC
0
SECTION
2
OBJECTS
0
DICTIONARY
5
C
100
AcDbDictionary
3
ACAD_GROUP
350
D
3
ACAD_MLINESTYLE
350
17
0
DICTIONARY
5
D
100
AcDbDictionary
0
DICTIONARY
5
1A
330
C
100
AcDbDictionary
0
DICTIONARY
5
17
100
AcDbDictionary
0
ENDSEC
0
EOF
