0
SECTION
2
HEADER
9
$INSUNITS
70
4
9
$ACADVER
1
AC1014
9
$HANDSEED
5
FFFF
0
ENDSEC
0
SECTION
2
TABLES
0
TABLE
2
VPORT
5
8
100
AcDbSymbolTable
0
ENDTAB
0
TABLE
2
LTYPE
5
5
100
AcDbSymbolTable
0
LTYPE
5
14
100
AcDbSymbolTableRecord
100
AcDbLinetypeTableRecord
2
BYBLOCK
70
0
0
LTYPE
5
15
100
AcDbSymbolTableRecord
100
AcDbLinetypeTableRecord
2
BYLAYER
70
0
0
ENDTAB
0
TABLE
2
LAYER
5
2
100
AcDbSymbolTable
70
2
0
LAYER
5
50
100
AcDbSymbolTableRecord
100
AcDbLayerTableRecord
2
0
70
0
6
CONTINUOUS
0
ENDTAB
0
TABLE
2
STYLE
5
3
100
AcDbSymbolTable
70
1
0
STYLE
5
11
100
AcDbSymbolTableRecord
100
AcDbTextStyleTableRecord
2
STANDARD
70
0
0
ENDTAB
0
TABLE
2
VIEW
5
6
100
AcDbSymbolTable
70
0
0
ENDTAB
0
TABLE
2
UCS
5
7
100
AcDbSymbolTable
70
0
0
ENDTAB
0
TABLE
2
APPID
5
9
100
AcDbSymbolTable
70
2
0
APPID
5
12
100
AcDbSymbolTableRecord
100
AcDbRegAppTableRecord
2
ACAD
70
0
0
ENDTAB
0
TABLE
2
DIMSTYLE
5
A
100
AcDbSymbolTable
70
1
0
ENDTAB
0
TABLE
2
BLOCK_RECORD
5
1
100
AcDbSymbolTable
70
1
0
BLOCK_RECORD
5
1F
100
AcDbSymbolTableRecord
100
AcDbBlockTableRecord
2
*MODEL_SPACE
0
BLOCK_RECORD
5
1B
100
AcDbSymbolTableRecord
100
AcDbBlockTableRecord
2
*PAPER_SPACE
0
ENDTAB
0
ENDSEC
0
SECTION
2
BLOCKS
0
BLOCK
5
20
100
AcDbEntity
100
AcDbBlockBegin
2
*MODEL_SPACE
0
ENDBLK
5
21
100
AcDbEntity
100
AcDbBlockEnd
0
BLOCK
5
1C
100
AcDbEntity
100
AcDbBlockBegin
2
*PAPER_SPACE
0
ENDBLK
5
1D
100
AcDbEntity
100
AcDbBlockEnd
0
ENDSEC
0
SECTION
2
ENTITIES
0
LWPOLYLINE
5
100
100
AcDbEntity
8
0
100
AcDbPolyline
90
15
70
1
43
0.0
10
-13.862769616678401
20
15.378621237474023
10
-10.572369672459008
20
11.613881112700259
10
-8.426467801337985
20
13.4894090809053
10
-11.716867745557398
20
17.254149205679067
10
5.8787174167048271
20
32.632770443152808
10
5.8787174167048528
20
1.4750000000001184
10
0.8782789918700975
20
1.4750000000001184
10
0.87827899187009395
20
-1.3749999999998741
10
5.8787174167048626
20
-1.3749999999998908
10
5.8787174167047729
20
-32.632770443152751
10
-11.71686774555746
20
-17.254149205678853
10
-8.4264678013380685
20
-13.489409080905109
10
-10.572369672459047
20
-11.613881112700051
10
-13.862769616678467
20
-15.378621237473807
10
-31.458354778940723
20
1.6209256159527285e-13
0
LWPOLYLINE
5
101
100
AcDbEntity
8
0
100
AcDbPolyline
90
4
70
1
43
0.0
10
7.0040877065363416
20
24.855930988310988
10
7.0040877065363416
20
17.889567844003327
10
-1.8289139558493162
20
17.889567844003334
10
-1.8289139558493162
20
24.855930988310988
0
LINE
5
102
100
AcDbEntity
8
0
100
AcDbLine
10
2.1710861037553286
20
19.20743972751487
30
2.7482954600495882e-14
11
-1.3568812300383115
21
19.20743972751487
31
3.457785749092781e-14
0
LINE
5
103
100
AcDbEntity
8
0
100
AcDbLine
10
-1.3568812300383115
20
19.20743972751487
30
3.457785749092781e-14
11
-1.3568812300383115
21
17.889567844003327
31
3.457785749092781e-14
0
LINE
5
104
100
AcDbEntity
8
0
100
AcDbLine
10
-1.3568812300383115
20
17.889567844003327
30
3.457785749092781e-14
11
-1.8289139558493162
21
17.889567844003327
31
3.5527136788005009e-14
0
LINE
5
105
100
AcDbEntity
8
0
100
AcDbLine
10
-1.8289139558493162
20
17.889567844003327
30
3.5527136788005009e-14
11
-1.8289139558493162
21
21.060099906653058
31
3.5527136788005009e-14
0
LINE
5
106
100
AcDbEntity
8
0
100
AcDbLine
10
-1.8289139558493162
20
21.060099906653058
30
3.5527136788005009e-14
11
-1.3568812300383115
21
21.060099906653058
31
3.457785749092781e-14
0
LINE
5
107
100
AcDbEntity
8
0
100
AcDbLine
10
-1.3568812300383115
20
21.060099906653058
30
3.457785749092781e-14
11
-1.3568812300383115
21
19.736770994394909
31
3.457785749092781e-14
0
LINE
5
108
100
AcDbEntity
8
0
100
AcDbLine
10
-1.3568812300383115
20
19.736770994394906
30
3.457785749092781e-14
11
2.1710861037553286
21
19.736770994394906
31
2.7482954600495882e-14
0
LINE
5
109
100
AcDbEntity
8
0
100
AcDbLine
10
2.1710861037553286
20
19.736770994394906
30
2.7482954600495882e-14
11
2.1710861037553286
21
19.20743972751487
31
2.7482954600495882e-14
0
LINE
5
110
100
AcDbEntity
8
0
100
AcDbLine
10
1.1151516745866275
20
21.406621045797955
30
2.9606486800426907e-14
11
1.0496673296273684
21
21.897753483980786
31
2.9738178798785035e-14
0
SPLINE
5
111
100
AcDbEntity
8
0
100
AcDbSpline
70
0
71
2
72
6
73
3
74
0
42
0.000000001
43
0.0000000001
44
0.0000000001
40
0
40
0
40
0
40
1
40
1
40
1
10
1.0496673296273684
20
21.897753483980786
30
2.9738178798785035e-14
10
1.4671296189607119
20
21.982337243288647
30
2.889864313334208e-14
10
1.6513043950379824
20
22.18561143371452
30
2.852825927558391e-14
0
SPLINE
5
112
100
AcDbEntity
8
0
100
AcDbSpline
70
0
71
2
72
6
73
3
74
0
42
0.000000001
43
0.0000000001
44
0.0000000001
40
0
40
0
40
0
40
1
40
1
40
1
10
1.6513043950379824
20
22.18561143371452
30
2.852825927558391e-14
10
1.8354791711152529
20
22.388885624140393
30
2.8157875417825749e-14
10
1.8354791711152529
20
22.680836624830853
30
2.8157875417825749e-14
0
SPLINE
5
113
100
AcDbEntity
8
0
100
AcDbSpline
70
0
71
2
72
6
73
3
74
0
42
0.000000001
43
0.0000000001
44
0.0000000001
40
0
40
0
40
0
40
1
40
1
40
1
10
1.8354791711152529
20
22.680836624830853
30
2.8157875417825749e-14
10
1.8354791711152529
20
23.027357763975751
30
2.8157875417825749e-14
10
1.5953699062646365
20
23.266102380484234
30
2.8640746078472219e-14
0
SPLINE
5
114
100
AcDbEntity
8
0
100
AcDbSpline
70
0
71
2
72
6
73
3
74
0
42
0.000000001
43
0.0000000001
44
0.0000000001
40
0
40
0
40
0
40
1
40
1
40
1
10
1.5953699062646365
20
23.266102380484234
30
2.8640746078472219e-14
10
1.35526064141402
20
23.504847593039166
30
2.9123616739118699e-14
10
1.0005539964021182
20
23.504847593039166
30
2.9836947947388206e-14
0
SPLINE
5
115
100
AcDbEntity
8
0
100
AcDbSpline
70
0
71
2
72
6
73
3
74
0
42
0.000000001
43
0.0000000001
44
0.0000000001
40
0
40
0
40
0
40
1
40
1
40
1
10
1.0005539964021182
20
23.504847593039166
30
2.9836947947388206e-14
10
0.66221836312422511
20
23.504847593039166
30
3.0517356305902742e-14
10
0.44257316096434351
20
23.283837742537152
30
3.0959072805017242e-14
0
SPLINE
5
116
100
AcDbEntity
8
0
100
AcDbSpline
70
0
71
2
72
6
73
3
74
0
42
0.000000001
43
0.0000000001
44
0.0000000001
40
0
40
0
40
0
40
1
40
1
40
1
10
0.44257316096434351
20
23.283837742537152
30
3.0959072805017242e-14
10
0.22292795880446192
20
23.062828488081585
30
3.1400789304131742e-14
10
0.22292795880446192
20
22.721764154165875
30
3.1400789304131742e-14
0
SPLINE
5
117
100
AcDbEntity
8
0
100
AcDbSpline
70
0
71
2
72
6
73
3
74
0
42
0.000000001
43
0.0000000001
44
0.0000000001
40
0
40
0
40
0
40
1
40
1
40
1
10
0.22292795880446192
20
22.721764154165875
30
3.1400789304131742e-14
10
0.22292795880446192
20
22.582609958380353
30
3.1400789304131742e-14
10
0.27749809725889918
20
22.375243015020978
30
3.1291046271835769e-14
0
LINE
5
118
100
AcDbEntity
8
0
100
AcDbLine
10
0.27749809725889918
20
22.375243015020978
30
3.1291046271835769e-14
11
-0.15360709921708349
21
22.429813451498639
31
3.2158018444525552e-14
0
SPLINE
5
119
100
AcDbEntity
8
0
100
AcDbSpline
70
0
71
2
72
6
73
3
74
0
42
0.000000001
43
0.0000000001
44
0.0000000001
40
0
40
0
40
0
40
1
40
1
40
1
10
-0.15360709921708349
20
22.429813451498639
30
3.2158018444525558e-14
10
-0.14814969794144872
20
22.478926486700665
30
3.2147043362156212e-14
10
-0.14814969794144872
20
22.508940405577313
30
3.2147043362156212e-14
0
SPLINE
5
120
100
AcDbEntity
8
0
100
AcDbSpline
70
0
71
2
72
6
73
3
74
0
42
0.000000001
43
0.0000000001
44
0.0000000001
40
0
40
0
40
0
40
1
40
1
40
1
10
-0.14814969794144872
20
22.508940405577313
30
3.2147043362156212e-14
10
-0.14814969794144872
20
22.822719521254193
30
3.2147043362156212e-14
10
-0.31186041132798437
20
23.073742098539959
30
3.2476273058382403e-14
0
SPLINE
5
121
100
AcDbEntity
8
0
100
AcDbSpline
70
0
71
2
72
6
73
3
74
0
42
0.000000001
43
0.0000000001
44
0.0000000001
40
0
40
0
40
0
40
1
40
1
40
1
10
-0.31186041132798437
20
23.073742098539959
30
3.2476273058382403e-14
10
-0.47557142273774389
20
23.324765867918622
30
3.2805503353946859e-14
10
-0.81663545863023046
20
23.324765867918622
30
3.3491398654307802e-14
0
SPLINE
5
122
100
AcDbEntity
8
0
100
AcDbSpline
70
0
71
2
72
6
73
3
74
0
42
0.000000001
43
0.0000000001
44
0.0000000001
40
0
40
0
40
0
40
1
40
1
40
1
10
-0.81663545863023046
20
23.324765867918622
30
3.3491398654307802e-14
10
-1.086758344334271
20
23.324765867918622
30
3.4034628072617809e-14
10
-1.2641116668402219
20
23.14195544216026
30
3.4391293676752556e-14
0
SPLINE
5
123
100
AcDbEntity
8
0
100
AcDbSpline
70
0
71
2
72
6
73
3
74
0
42
0.000000001
43
0.0000000001
44
0.0000000001
40
0
40
0
40
0
40
1
40
1
40
1
10
-1.2641116668402219
20
23.14195544216026
30
3.4391293676752556e-14
10
-1.4414649893461728
20
22.959145016401898
30
3.4747959280887309e-14
10
-1.4414649893461728
20
22.669922418326031
30
3.4747959280887309e-14
0
SPLINE
5
124
100
AcDbEntity
8
0
100
AcDbSpline
70
0
71
2
72
6
73
3
74
0
42
0.000000001
43
0.0000000001
44
0.0000000001
40
0
40
0
40
0
40
1
40
1
40
1
10
-1.4414649893461728
20
22.669922418326031
30
3.4747959280887309e-14
10
-1.4414649893461728
20
22.383428520887982
30
3.4747959280887309e-14
10
-1.2613829662024045
20
22.192432589262616
30
3.4385806135567883e-14
0
SPLINE
5
125
100
AcDbEntity
8
0
100
AcDbSpline
70
0
71
2
72
6
73
3
74
0
42
0.000000001
43
0.0000000001
44
0.0000000001
40
0
40
0
40
0
40
1
40
1
40
1
10
-1.2613829662024045
20
22.192432589262616
30
3.4385806135567883e-14
10
-1.0813012410818601
20
22.001436955660473
30
3.4023653589586728e-14
10
-0.72113749281754735
20
21.946866519182812
30
3.3299347898286147e-14
0
LINE
5
126
100
AcDbEntity
8
0
100
AcDbLine
10
-0.72113749281754735
20
21.946866519182812
30
3.3299347898286147e-14
11
-0.80844995276322607
21
21.455734379023205
31
3.347493722943032e-14
0
SPLINE
5
127
100
AcDbEntity
8
0
100
AcDbSpline
70
0
71
2
72
6
73
3
74
0
42
0.000000001
43
0.0000000001
44
0.0000000001
40
0
40
0
40
0
40
1
40
1
40
1
10
-0.80844995276322607
20
21.455734379023205
30
3.347493722943032e-14
10
-1.3023107935606504
20
21.545775241583478
30
3.4468113859293565e-14
10
-1.5737977315603757
20
21.865011162489544
30
3.5014086448857636e-14
0
SPLINE
5
128
100
AcDbEntity
8
0
100
AcDbSpline
70
0
71
2
72
6
73
3
74
0
42
0.000000001
43
0.0000000001
44
0.0000000001
40
0
40
0
40
0
40
1
40
1
40
1
10
-1.5737977315603757
20
21.865011162489544
30
3.5014086448857636e-14
10
-1.8452846695601011
20
22.184247083395611
30
3.5560059038421708e-14
10
-1.8452846695601011
20
22.659008509844433
30
3.5560059038421708e-14
0
SPLINE
5
129
100
AcDbEntity
8
0
100
AcDbSpline
70
0
71
2
72
6
73
3
74
0
42
0.000000001
43
0.0000000001
44
0.0000000001
40
0
40
0
40
0
40
1
40
1
40
1
10
-1.8452846695601011
20
22.659008509844433
30
3.5560059038421708e-14
10
-1.8452846695601011
20
22.986430234640729
30
3.5560059038421708e-14
10
-1.7047664214788938
20
23.262009925573956
30
3.5277470445573899e-14
0
SPLINE
5
130
100
AcDbEntity
8
0
100
AcDbSpline
70
0
71
2
72
6
73
3
74
0
42
0.000000001
43
0.0000000001
44
0.0000000001
40
0
40
0
40
0
40
1
40
1
40
1
10
-1.7047664214788938
20
23.262009925573956
30
3.5277470445573899e-14
10
-1.5642478753744626
20
23.537589616507184
30
3.4994881253387818e-14
10
-1.3214102079092527
20
23.683564967840802
30
3.4506523650894936e-14
0
SPLINE
5
131
100
AcDbEntity
8
0
100
AcDbSpline
70
0
71
2
72
6
73
3
74
0
42
0.000000001
43
0.0000000001
44
0.0000000001
40
0
40
0
40
0
40
1
40
1
40
1
10
-1.3214102079092527
20
23.683564967840802
30
3.4506523650894936e-14
10
-1.0785725404440427
20
23.82954031917442
30
3.4018166048402055e-14
10
-0.80572125212540868
20
23.82954031917442
30
3.3469449688245647e-14
0
SPLINE
5
132
100
AcDbEntity
8
0
100
AcDbSpline
70
0
71
2
72
6
73
3
74
0
42
0.000000001
43
0.0000000001
44
0.0000000001
40
0
40
0
40
0
40
1
40
1
40
1
10
-0.80572125212540868
20
23.82954031917442
30
3.3469449688245647e-14
10
-0.54651257292618993
20
23.82954031917442
30
3.2948169235997802e-14
10
-0.33368852631440404
20
23.690386719435345
30
3.2520170391168447e-14
0
SPLINE
5
133
100
AcDbEntity
8
0
100
AcDbSpline
70
0
71
2
72
6
73
3
74
0
42
0.000000001
43
0.0000000001
44
0.0000000001
40
0
40
0
40
0
40
1
40
1
40
1
10
-0.33368852631440404
20
23.690386719435345
30
3.2520170391168447e-14
10
-0.12086477772584203
20
23.551232523649823
30
3.2092172145677358e-14
10
0.0046468089402651458
20
23.278380937307965
30
3.1839762631992177e-14
0
SPLINE
5
134
100
AcDbEntity
8
0
100
AcDbSpline
70
0
71
2
72
6
73
3
74
0
42
0.000000001
43
0.0000000001
44
0.0000000001
40
0
40
0
40
0
40
1
40
1
40
1
10
0.0046468089402651458
20
23.278380937307965
30
3.1839762631992177e-14
10
0.086502165633532968
20
23.633087582319867
30
3.1675147783879085e-14
10
0.3443467925370669
20
23.82954031917442
30
3.1156610502885304e-14
0
SPLINE
5
135
100
AcDbEntity
8
0
100
AcDbSpline
70
0
71
2
72
6
73
3
74
0
42
0.000000001
43
0.0000000001
44
0.0000000001
40
0
40
0
40
0
40
1
40
1
40
1
10
0.3443467925370669
20
23.82954031917442
30
3.1156610502885304e-14
10
0.60219112141737696
20
24.025993056028973
30
3.0638073821229795e-14
10
0.9896397898972964
20
24.025993056028973
30
2.9858896913450361e-14
0
SPLINE
5
136
100
AcDbEntity
8
0
100
AcDbSpline
70
0
71
2
72
6
73
3
74
0
42
0.000000001
43
0.0000000001
44
0.0000000001
40
0
40
0
40
0
40
1
40
1
40
1
10
0.9896397898972964
20
24.025993056028973
30
2.9858896913450361e-14
10
1.5135145495713687
20
24.025993056028973
30
2.8805360926585324e-14
10
1.8777710507691836
20
23.644001788824689
30
2.8072824522845999e-14
0
SPLINE
5
137
100
AcDbEntity
8
0
100
AcDbSpline
70
0
71
2
72
6
73
3
74
0
42
0.000000001
43
0.0000000001
44
0.0000000001
40
0
40
0
40
0
40
1
40
1
40
1
10
1.8777710507691836
20
23.644001788824689
30
2.8072824522845999e-14
10
2.2420275519669985
20
23.262009925573956
30
2.734028811910668e-14
10
2.2420275519669985
20
22.678107924193036
30
2.734028811910668e-14
0
SPLINE
5
138
100
AcDbEntity
8
0
100
AcDbSpline
70
0
71
2
72
6
73
3
74
0
42
0.000000001
43
0.0000000001
44
0.0000000001
40
0
40
0
40
0
40
1
40
1
40
1
10
2.2420275519669985
20
22.678107924193036
30
2.734028811910668e-14
10
2.2420275519669985
20
22.151505059927594
30
2.734028811910668e-14
10
1.9282484362901187
20
21.803619570463788
30
2.7971312202988764e-14
0
SPLINE
5
139
100
AcDbEntity
8
0
100
AcDbSpline
70
0
71
2
72
6
73
3
74
0
42
0.000000001
43
0.0000000001
44
0.0000000001
40
0
40
0
40
0
40
1
40
1
40
1
10
1.9282484362901187
20
21.803619570463788
30
2.7971312202988764e-14
10
1.6144693206132388
20
21.455734379023205
30
2.8602336286870854e-14
10
1.1151516745866275
20
21.406621045797955
30
2.9606486800426907e-14
0
ENDSEC
0
SECTION
2
OBJECTS
0
DICTIONARY
5
C
100
AcDbDictionary
3
ACAD_GROUP
350
D
3
ACAD_MLINESTYLE
350
17
0
DICTIONARY
5
D
100
AcDbDictionary
0
DICTIONARY
5
1A
330
C
100
AcDbDictionary
0
DICTIONARY
5
17
100
AcDbDictionary
0
ENDSEC
0
EOF
