0
SECTION
2
HEADER
9
$INSUNITS
70
4
9
$ACADVER
1
AC1014
9
$HANDSEED
5
FFFF
0
ENDSEC
0
SECTION
2
TABLES
0
TABLE
2
VPORT
5
8
100
AcDbSymbolTable
0
ENDTAB
0
TABLE
2
LTYPE
5
5
100
AcDbSymbolTable
0
LTYPE
5
14
100
AcDbSymbolTableRecord
100
AcDbLinetypeTableRecord
2
BYBLOCK
70
0
0
LTYPE
5
15
100
AcDbSymbolTableRecord
100
AcDbLinetypeTableRecord
2
BYLAYER
70
0
0
ENDTAB
0
TABLE
2
LAYER
5
2
100
AcDbSymbolTable
70
2
0
LAYER
5
50
100
AcDbSymbolTableRecord
100
AcDbLayerTableRecord
2
0
70
0
6
CONTINUOUS
0
ENDTAB
0
TABLE
2
STYLE
5
3
100
AcDbSymbolTable
70
1
0
STYLE
5
11
100
AcDbSymbolTableRecord
100
AcDbTextStyleTableRecord
2
STANDARD
70
0
0
ENDTAB
0
TABLE
2
VIEW
5
6
100
AcDbSymbolTable
70
0
0
ENDTAB
0
TABLE
2
UCS
5
7
100
AcDbSymbolTable
70
0
0
ENDTAB
0
TABLE
2
APPID
5
9
100
AcDbSymbolTable
70
2
0
APPID
5
12
100
AcDbSymbolTableRecord
100
AcDbRegAppTableRecord
2
ACAD
70
0
0
ENDTAB
0
TABLE
2
DIMSTYLE
5
A
100
AcDbSymbolTable
70
1
0
ENDTAB
0
TABLE
2
BLOCK_RECORD
5
1
100
AcDbSymbolTable
70
1
0
BLOCK_RECORD
5
1F
100
AcDbSymbolTableRecord
100
AcDbBlockTableRecord
2
*MODEL_SPACE
0
BLOCK_RECORD
5
1B
100
AcDbSymbolTableRecord
100
AcDbBlockTableRecord
2
*PAPER_SPACE
0
ENDTAB
0
ENDSEC
0
SECTION
2
BLOCKS
0
BLOCK
5
20
100
AcDbEntity
100
AcDbBlockBegin
2
*MODEL_SPACE
0
ENDBLK
5
21
100
AcDbEntity
100
AcDbBlockEnd
0
BLOCK
5
1C
100
AcDbEntity
100
AcDbBlockBegin
2
*PAPER_SPACE
0
ENDBLK
5
1D
100
AcDbEntity
100
AcDbBlockEnd
0
ENDSEC
0
SECTION
2
ENTITIES
0
LWPOLYLINE
5
100
100
AcDbEntity
8
0
100
AcDbPolyline
90
15
70
1
43
0.0
10
3.3061986806373689
20
15.51977490761063
10
-1.3899977697699084
20
13.80345940654939
10
-13.38242426259718
20
46.617234433671726
10
11.663226892944593
20
37.916707432725765
10
10.022402467846685
20
33.193371001033626
10
12.714585142947668
20
32.25814244934903
10
14.355409568045584
20
36.981478881041163
10
41.063071690212084
20
27.70359131553316
10
27.026656544833919
20
4.1888756559186762
10
22.733143693541408
20
6.7517613690663714
10
21.27237584035532
20
4.3045880447801466
10
25.565888691647988
20
1.741702331632351
10
11.580728558662287
20
-21.687147597305056
10
-0.42886108917544574
20
11.173589394321413
10
4.267335361231626
20
12.889904895382621
0
LWPOLYLINE
5
101
100
AcDbEntity
8
0
100
AcDbPolyline
90
4
70
1
43
0.0
10
38.023508346043911
20
27.048031843813312
10
39.058784541880812
20
23.184328481083366
10
32.297303657103413
20
21.372595138368787
10
31.262027461266513
20
25.236298501098734
0
LINE
5
102
100
AcDbEntity
8
0
100
AcDbLine
10
35.819916677375438
20
23.680837822229709
30
0
11
32.412161915359974
21
22.767732685744349
31
0
0
LINE
5
103
100
AcDbEntity
8
0
100
AcDbLine
10
32.412161915359981
20
22.767732685744349
30
0
11
32.753252257817898
21
21.494766197720331
31
0
0
LINE
5
104
100
AcDbEntity
8
0
100
AcDbLine
10
32.753252257817891
20
21.494766197720331
30
0
11
32.297303657103413
21
21.372595138368787
31
0
0
LINE
5
105
100
AcDbEntity
8
0
100
AcDbLine
10
32.29730365710342
20
21.372595138368787
30
0
11
31.476709576181491
21
24.435093940759707
31
0
0
LINE
5
106
100
AcDbEntity
8
0
100
AcDbLine
10
31.476709576181491
20
24.435093940759707
30
0
11
31.932658176895966
21
24.557265000111251
31
0
0
LINE
5
107
100
AcDbEntity
8
0
100
AcDbLine
10
31.932658176895966
20
24.557265000111251
30
0
11
32.275160902323179
21
23.279027427086088
31
0
0
LINE
5
108
100
AcDbEntity
8
0
100
AcDbLine
10
32.275160902323179
20
23.279027427086088
30
0
11
35.682915664338637
21
24.192132563571445
31
0
0
LINE
5
109
100
AcDbEntity
8
0
100
AcDbLine
10
35.682915664338644
20
24.192132563571445
30
0
11
35.819916677375438
21
23.680837822229709
31
0
0
LINE
5
110
100
AcDbEntity
8
0
100
AcDbLine
10
31.674306162345299
20
27.48229060147402
30
0
11
31.837611951496243
21
27.020415191356388
31
0
0
SPLINE
5
111
100
AcDbEntity
8
0
100
AcDbSpline
70
0
71
2
72
6
73
3
74
0
42
0.000000001
43
0.0000000001
44
0.0000000001
40
0
40
0
40
0
40
1
40
1
40
1
10
31.837611951496243
20
27.020415191356385
30
0
10
31.57519333510227
20
26.882305643952304
30
0
10
31.479759681832139
20
26.732444726598182
30
0
0
SPLINE
5
112
100
AcDbEntity
8
0
100
AcDbSpline
70
0
71
2
72
6
73
3
74
0
42
0.000000001
43
0.0000000001
44
0.0000000001
40
0
40
0
40
0
40
1
40
1
40
1
10
31.479759681832139
20
26.732444726598182
30
0
10
31.328375110626666
20
26.485673555181457
30
0
10
31.403937512708012
20
26.203670831471932
30
0
0
SPLINE
5
113
100
AcDbEntity
8
0
100
AcDbSpline
70
0
71
2
72
6
73
3
74
0
42
0.000000001
43
0.0000000001
44
0.0000000001
40
0
40
0
40
0
40
1
40
1
40
1
10
31.403937512708012
20
26.203670831471932
30
0
10
31.464669961104104
20
25.977014248389668
30
0
10
31.637078130840063
20
25.839601207931949
30
0
0
SPLINE
5
114
100
AcDbEntity
8
0
100
AcDbSpline
70
0
71
2
72
6
73
3
74
0
42
0.000000001
43
0.0000000001
44
0.0000000001
40
0
40
0
40
0
40
1
40
1
40
1
10
31.637078130840063
20
25.839601207931949
30
0
10
31.860507979745286
20
25.65936391216421
30
0
10
32.208740711218262
20
25.614259176050858
30
0
0
SPLINE
5
115
100
AcDbEntity
8
0
100
AcDbSpline
70
0
71
2
72
6
73
3
74
0
42
0.000000001
43
0.0000000001
44
0.0000000001
40
0
40
0
40
0
40
1
40
1
40
1
10
32.208740711218262
20
25.614259176050858
30
0
10
32.556973730559562
20
25.569154517071606
30
0
10
33.138205051136119
20
25.719245371024506
30
0
0
SPLINE
5
116
100
AcDbEntity
8
0
100
AcDbSpline
70
0
71
2
72
6
73
3
74
0
42
0.000000001
43
0.0000000001
44
0.0000000001
40
0
40
0
40
0
40
1
40
1
40
1
10
33.138205051136119
20
25.719245371024506
30
0
10
32.831384249854437
20
25.82064265540701
30
0
10
32.638496229553631
20
26.034486387230821
30
0
0
SPLINE
5
117
100
AcDbEntity
8
0
100
AcDbSpline
70
0
71
2
72
6
73
3
74
0
42
0.000000001
43
0.0000000001
44
0.0000000001
40
0
40
0
40
0
40
1
40
1
40
1
10
32.638496229553631
20
26.034486387230821
30
0
10
32.445608209252825
20
26.248330119054636
30
0
10
32.372870457408936
20
26.519791104564359
30
0
0
SPLINE
5
118
100
AcDbEntity
8
0
100
AcDbSpline
70
0
71
2
72
6
73
3
74
0
42
0.000000001
43
0.0000000001
44
0.0000000001
40
0
40
0
40
0
40
1
40
1
40
1
10
32.372870457408936
20
26.519791104564359
30
0
10
32.245756105873667
20
26.994188322865146
30
0
10
32.505632282729792
20
27.42115453656421
30
0
0
SPLINE
5
119
100
AcDbEntity
8
0
100
AcDbSpline
70
0
71
2
72
6
73
3
74
0
42
0.000000001
43
0.0000000001
44
0.0000000001
40
0
40
0
40
0
40
1
40
1
40
1
10
32.505632282729792
20
27.42115453656421
30
0
10
32.765508171717585
20
27.848120673129184
30
0
10
33.318971880936829
20
27.996420827054422
30
0
0
SPLINE
5
120
100
AcDbEntity
8
0
100
AcDbSpline
70
0
71
2
72
6
73
3
74
0
42
0.000000001
43
0.0000000001
44
0.0000000001
40
0
40
0
40
0
40
1
40
1
40
1
10
33.318971880936829
20
27.996420827054422
30
0
10
33.682676530114762
20
28.093875194085093
30
0
10
34.037006377221232
20
28.020744267811391
30
0
0
SPLINE
5
121
100
AcDbEntity
8
0
100
AcDbSpline
70
0
71
2
72
6
73
3
74
0
42
0.000000001
43
0.0000000001
44
0.0000000001
40
0
40
0
40
0
40
1
40
1
40
1
10
34.037006377221232
20
28.020744267811391
30
0
10
34.391336666464191
20
27.947612842935115
30
0
10
34.630819501351802
20
27.71800672606771
30
0
0
SPLINE
5
122
100
AcDbEntity
8
0
100
AcDbSpline
70
0
71
2
72
6
73
3
74
0
42
0.000000001
43
0.0000000001
44
0.0000000001
40
0
40
0
40
0
40
1
40
1
40
1
10
34.630819501351802
20
27.71800672606771
30
0
10
34.870302336239412
20
27.488400609200298
30
0
10
34.963519496511637
20
27.140509430927054
30
0
0
SPLINE
5
123
100
AcDbEntity
8
0
100
AcDbSpline
70
0
71
2
72
6
73
3
74
0
42
0.000000001
43
0.0000000001
44
0.0000000001
40
0
40
0
40
0
40
1
40
1
40
1
10
34.963519496511637
20
27.140509430927054
30
0
10
35.122412551631847
20
26.547512476248578
30
0
10
34.786509601249122
20
26.056390865813086
30
0
0
SPLINE
5
124
100
AcDbEntity
8
0
100
AcDbSpline
70
0
71
2
72
6
73
3
74
0
42
0.000000001
43
0.0000000001
44
0.0000000001
40
0
40
0
40
0
40
1
40
1
40
1
10
34.786509601249122
20
26.056390865813086
30
0
10
34.450606861600647
20
25.565269620380011
30
0
10
33.449101143185104
20
25.296916971915415
30
0
0
SPLINE
5
125
100
AcDbEntity
8
0
100
AcDbSpline
70
0
71
2
72
6
73
3
74
0
42
0.000000001
43
0.0000000001
44
0.0000000001
40
0
40
0
40
0
40
1
40
1
40
1
10
33.449101143185104
20
25.296916971915415
30
0
10
32.328996264128527
20
24.996785774134047
30
0
10
31.709464673871217
20
25.274270767227819
30
0
0
SPLINE
5
126
100
AcDbEntity
8
0
100
AcDbSpline
70
0
71
2
72
6
73
3
74
0
42
0.000000001
43
0.0000000001
44
0.0000000001
40
0
40
0
40
0
40
1
40
1
40
1
10
31.709464673871217
20
25.274270767227819
30
0
10
31.169945617171845
20
25.516699889569253
30
0
10
31.006109347001992
20
26.128145173965713
30
0
0
SPLINE
5
127
100
AcDbEntity
8
0
100
AcDbSpline
70
0
71
2
72
6
73
3
74
0
42
0.000000001
43
0.0000000001
44
0.0000000001
40
0
40
0
40
0
40
1
40
1
40
1
10
31.006109347001992
20
26.128145173965713
30
0
10
30.883938210516362
20
26.584094062548516
30
0
10
31.061551638381147
20
26.943821784070803
30
0
0
SPLINE
5
128
100
AcDbEntity
8
0
100
AcDbSpline
70
0
71
2
72
6
73
3
74
0
42
0.000000001
43
0.0000000001
44
0.0000000001
40
0
40
0
40
0
40
1
40
1
40
1
10
31.061551638381147
20
26.943821784070803
30
0
10
31.239165066245931
20
27.303549505593089
30
0
10
31.674306162345299
20
27.48229060147402
30
0
0
SPLINE
5
129
100
AcDbEntity
8
0
100
AcDbSpline
70
0
71
2
72
6
73
3
74
0
42
0.000000001
43
0.0000000001
44
0.0000000001
40
0
40
0
40
0
40
1
40
1
40
1
10
33.85901869784125
20
25.991480406101076
30
0
10
34.104123898509819
20
26.057156146680889
30
0
10
34.300250507502994
20
26.221286271331429
30
0
0
SPLINE
5
130
100
AcDbEntity
8
0
100
AcDbSpline
70
0
71
2
72
6
73
3
74
0
42
0.000000001
43
0.0000000001
44
0.0000000001
40
0
40
0
40
0
40
1
40
1
40
1
10
34.300250507502994
20
26.221286271331429
30
0
10
34.496377116496163
20
26.385416395981963
30
0
10
34.563519156595277
20
26.603965240209128
30
0
0
SPLINE
5
131
100
AcDbEntity
8
0
100
AcDbSpline
70
0
71
2
72
6
73
3
74
0
42
0.000000001
43
0.0000000001
44
0.0000000001
40
0
40
0
40
0
40
1
40
1
40
1
10
34.563519156595277
20
26.603965240209128
30
0
10
34.63066119669439
20
26.8225140844363
30
0
10
34.575578203041388
20
27.028086615382296
30
0
0
SPLINE
5
132
100
AcDbEntity
8
0
100
AcDbSpline
70
0
71
2
72
6
73
3
74
0
42
0.000000001
43
0.0000000001
44
0.0000000001
40
0
40
0
40
0
40
1
40
1
40
1
10
34.575578203041388
20
27.028086615382296
30
0
10
34.495072431642235
20
27.328538244546465
30
0
10
34.194695021633152
20
27.479682935671818
30
0
0
SPLINE
5
133
100
AcDbEntity
8
0
100
AcDbSpline
70
0
71
2
72
6
73
3
74
0
42
0.000000001
43
0.0000000001
44
0.0000000001
40
0
40
0
40
0
40
1
40
1
40
1
10
34.194695021633152
20
27.479682935671818
30
0
10
33.894317323755743
20
27.630827549663088
30
0
10
33.477901968500497
20
27.51924939150652
30
0
0
SPLINE
5
134
100
AcDbEntity
8
0
100
AcDbSpline
70
0
71
2
72
6
73
3
74
0
42
0.000000001
43
0.0000000001
44
0.0000000001
40
0
40
0
40
0
40
1
40
1
40
1
10
33.477901968500497
20
27.51924939150652
30
0
10
33.077299796281608
20
27.411908362974316
30
0
10
32.903891475905439
20
27.136637509707956
30
0
0
SPLINE
5
135
100
AcDbEntity
8
0
100
AcDbSpline
70
0
71
2
72
6
73
3
74
0
42
0.000000001
43
0.0000000001
44
0.0000000001
40
0
40
0
40
0
40
1
40
1
40
1
10
32.903891475905439
20
27.136637509707956
30
0
10
32.730483001261092
20
26.861367232178253
30
0
10
32.817344467096788
20
26.537195828459552
30
0
0
SPLINE
5
136
100
AcDbEntity
8
0
100
AcDbSpline
70
0
71
2
72
6
73
3
74
0
42
0.000000001
43
0.0000000001
44
0.0000000001
40
0
40
0
40
0
40
1
40
1
40
1
10
32.817344467096788
20
26.537195828459552
30
0
10
32.903499847507199
20
26.215659571422467
30
0
10
33.194135935051193
20
26.053430441560664
30
0
0
SPLINE
5
137
100
AcDbEntity
8
0
100
AcDbSpline
70
0
71
2
72
6
73
3
74
0
42
0.000000001
43
0.0000000001
44
0.0000000001
40
0
40
0
40
0
40
1
40
1
40
1
10
33.194135935051193
20
26.053430441560664
30
0
10
33.48477202259518
20
25.891201311698858
30
0
10
33.85901869784125
20
25.991480406101076
30
0
0
ENDSEC
0
SECTION
2
OBJECTS
0
DICTIONARY
5
C
100
AcDbDictionary
3
ACAD_GROUP
350
D
3
ACAD_MLINESTYLE
350
17
0
DICTIONARY
5
D
100
AcDbDictionary
0
DICTIONARY
5
1A
330
C
100
AcDbDictionary
0
DICTIONARY
5
17
100
AcDbDictionary
0
ENDSEC
0
EOF
