0
SECTION
2
HEADER
9
$INSUNITS
70
4
9
$ACADVER
1
AC1014
9
$HANDSEED
5
FFFF
0
ENDSEC
0
SECTION
2
TABLES
0
TABLE
2
VPORT
5
8
100
AcDbSymbolTable
0
ENDTAB
0
TABLE
2
LTYPE
5
5
100
AcDbSymbolTable
0
LTYPE
5
14
100
AcDbSymbolTableRecord
100
AcDbLinetypeTableRecord
2
BYBLOCK
70
0
0
LTYPE
5
15
100
AcDbSymbolTableRecord
100
AcDbLinetypeTableRecord
2
BYLAYER
70
0
0
ENDTAB
0
TABLE
2
LAYER
5
2
100
AcDbSymbolTable
70
2
0
LAYER
5
50
100
AcDbSymbolTableRecord
100
AcDbLayerTableRecord
2
0
70
0
6
CONTINUOUS
0
ENDTAB
0
TABLE
2
STYLE
5
3
100
AcDbSymbolTable
70
1
0
STYLE
5
11
100
AcDbSymbolTableRecord
100
AcDbTextStyleTableRecord
2
STANDARD
70
0
0
ENDTAB
0
TABLE
2
VIEW
5
6
100
AcDbSymbolTable
70
0
0
ENDTAB
0
TABLE
2
UCS
5
7
100
AcDbSymbolTable
70
0
0
ENDTAB
0
TABLE
2
APPID
5
9
100
AcDbSymbolTable
70
2
0
APPID
5
12
100
AcDbSymbolTableRecord
100
AcDbRegAppTableRecord
2
ACAD
70
0
0
ENDTAB
0
TABLE
2
DIMSTYLE
5
A
100
AcDbSymbolTable
70
1
0
ENDTAB
0
TABLE
2
BLOCK_RECORD
5
1
100
AcDbSymbolTable
70
1
0
BLOCK_RECORD
5
1F
100
AcDbSymbolTableRecord
100
AcDbBlockTableRecord
2
*MODEL_SPACE
0
BLOCK_RECORD
5
1B
100
AcDbSymbolTableRecord
100
AcDbBlockTableRecord
2
*PAPER_SPACE
0
ENDTAB
0
ENDSEC
0
SECTION
2
BLOCKS
0
BLOCK
5
20
100
AcDbEntity
100
AcDbBlockBegin
2
*MODEL_SPACE
0
ENDBLK
5
21
100
AcDbEntity
100
AcDbBlockEnd
0
BLOCK
5
1C
100
AcDbEntity
100
AcDbBlockBegin
2
*PAPER_SPACE
0
ENDBLK
5
1D
100
AcDbEntity
100
AcDbBlockEnd
0
ENDSEC
0
SECTION
2
ENTITIES
0
LWPOLYLINE
5
100
100
AcDbEntity
8
0
100
AcDbPolyline
90
15
70
1
43
0.0
10
17.534774044188094
20
-44.339046209660815
10
13.044574334003487
20
-42.139476578424507
10
11.790819644198773
20
-44.69889041322979
10
16.281019354383378
20
-46.898460044466084
10
2.6645352591003757e-14
20
-80.134520112031495
10
-16.281019354383361
20
-46.898460044466091
10
-11.790819644198764
20
-44.698890413229805
10
-13.044574334003476
20
-42.139476578424507
10
-17.534774044188083
20
-44.339046209660808
10
-33.815793398571486
20
-11.102986142095387
10
-1.3749999999998532
20
-11.102986142095347
10
-1.3749999999998039
20
-16.103302775805055
10
1.4750000000001664
20
-16.103302775805059
10
1.475000000000124
20
-11.10298614209534
10
33.815793398571529
20
-11.102986142095283
0
LINE
5
101
100
AcDbEntity
8
0
100
AcDbLine
10
-21.478985340294273
20
-4.3860110563866472
30
-3.5945373859276764
11
-31.440932321211726
21
-5.2575684838632286
31
-3.5945373859276764
0
LINE
5
102
100
AcDbEntity
8
0
100
AcDbLine
10
-31.440932321211726
20
-5.2575684838632286
30
-3.5945373859276764
11
-30.133596179996857
21
-20.200488955239415
31
-3.5945373859276764
0
LINE
5
103
100
AcDbEntity
8
0
100
AcDbLine
10
-30.133596179996857
20
-20.200488955239415
30
-3.5945373859276764
11
-20.171649199079404
21
-19.328931527762833
31
-3.5945373859276764
0
LINE
5
104
100
AcDbEntity
8
0
100
AcDbLine
10
-20.171649199079404
20
-19.328931527762833
30
-3.5945373859276764
11
-21.478985340294273
21
-4.3860110563866472
31
-3.5945373859276764
0
LINE
5
105
100
AcDbEntity
8
0
100
AcDbLine
10
-21.833129158383304
20
-15.45901277887172
30
-3.5945373859276764
11
-21.525646545017043
21
-18.97355513183782
31
-3.5945373859276764
0
LINE
5
106
100
AcDbEntity
8
0
100
AcDbLine
10
-21.525646545017043
20
-18.973555131837816
30
-3.5945373859276764
11
-20.21278956189866
21
-18.858695028984112
31
-3.5945373859276764
0
LINE
5
107
100
AcDbEntity
8
0
100
AcDbLine
10
-20.21278956189866
20
-18.858695028984116
30
-3.5945373859276764
11
-20.171649199079404
21
-19.328931527762833
31
-3.5945373859276764
0
LINE
5
108
100
AcDbEntity
8
0
100
AcDbLine
10
-20.171649199079404
20
-19.32893152776283
30
-3.5945373859276764
11
-23.330116430020947
21
-19.605261604588332
31
-3.5945373859276764
0
LINE
5
109
100
AcDbEntity
8
0
100
AcDbLine
10
-23.330116430020947
20
-19.605261604588332
30
-3.5945373859276764
11
-23.371256792840207
21
-19.135025105809614
31
-3.5945373859276764
0
LINE
5
110
100
AcDbEntity
8
0
100
AcDbLine
10
-23.371256792840207
20
-19.135025105809614
30
-3.5945373859276764
11
-22.052963546617121
21
-19.019689391562306
31
-3.5945373859276764
0
LINE
5
111
100
AcDbEntity
8
0
100
AcDbLine
10
-22.052963546617121
20
-19.019689391562306
30
-3.5945373859276764
11
-22.360446159983383
21
-15.50514703859621
31
-3.5945373859276764
0
LINE
5
112
100
AcDbEntity
8
0
100
AcDbLine
10
-22.360446159983383
20
-15.50514703859621
30
-3.5945373859276764
11
-21.833129158383304
21
-15.45901277887172
31
-3.5945373859276764
0
SPLINE
5
113
100
AcDbEntity
8
0
100
AcDbSpline
70
0
71
2
72
6
73
3
74
0
42
0.000000001
43
0.0000000001
44
0.0000000001
40
0
40
0
40
0
40
1
40
1
40
1
10
-24.585090369100765
20
-17.877231752910689
30
-3.5945373859276764
10
-24.270909908298105
20
-17.962040823156165
30
-3.5945373859276764
10
-24.106057632749206
20
-18.155777468445681
30
-3.5945373859276764
0
SPLINE
5
114
100
AcDbEntity
8
0
100
AcDbSpline
70
0
71
2
72
6
73
3
74
0
42
0.000000001
43
0.0000000001
44
0.0000000001
40
0
40
0
40
0
40
1
40
1
40
1
10
-24.106057632749206
20
-18.155777468445681
30
-3.5945373859276764
10
-23.94120538317474
20
-18.349513816846034
30
-3.5945373859276764
10
-23.915997998794467
20
-18.637635538728379
30
-3.5945373859276764
0
SPLINE
5
115
100
AcDbEntity
8
0
100
AcDbSpline
70
0
71
2
72
6
73
3
74
0
42
0.000000001
43
0.0000000001
44
0.0000000001
40
0
40
0
40
0
40
1
40
1
40
1
10
-23.915997998794467
20
-18.637635538728379
30
-3.5945373859276764
10
-23.877949113280444
20
-19.072536290215389
30
-3.5945373859276764
10
-24.164613083602205
20
-19.396160292443881
30
-3.5945373859276764
0
SPLINE
5
116
100
AcDbEntity
8
0
100
AcDbSpline
70
0
71
2
72
6
73
3
74
0
42
0.000000001
43
0.0000000001
44
0.0000000001
40
0
40
0
40
0
40
1
40
1
40
1
10
-24.164613083602205
20
-19.396160292443881
30
-3.5945373859276764
10
-24.451277376787548
20
-19.719784023757654
30
-3.5945373859276764
10
-24.970440317730869
20
-19.765204895612975
30
-3.5945373859276764
0
SPLINE
5
117
100
AcDbEntity
8
0
100
AcDbSpline
70
0
71
2
72
6
73
3
74
0
42
0.000000001
43
0.0000000001
44
0.0000000001
40
0
40
0
40
0
40
1
40
1
40
1
10
-24.970440317730869
20
-19.765204895612975
30
-3.5945373859276764
10
-25.49232098200396
20
-19.810863537450246
30
-3.5945373859276764
10
-25.836858034705834
20
-19.535615257888143
30
-3.5945373859276764
0
SPLINE
5
118
100
AcDbEntity
8
0
100
AcDbSpline
70
0
71
2
72
6
73
3
74
0
42
0.000000001
43
0.0000000001
44
0.0000000001
40
0
40
0
40
0
40
1
40
1
40
1
10
-25.836858034705834
20
-19.535615257888143
30
-3.5945373859276764
10
-26.181394467654968
20
-19.260367223266318
30
-3.5945373859276764
10
-26.219443379143421
20
-18.825466174890153
30
-3.5945373859276764
0
SPLINE
5
119
100
AcDbEntity
8
0
100
AcDbSpline
70
0
71
2
72
6
73
3
74
0
42
0.000000001
43
0.0000000001
44
0.0000000001
40
0
40
0
40
0
40
1
40
1
40
1
10
-26.219443379143421
20
-18.825466174890153
30
-3.5945373859276764
10
-26.243699527749268
20
-18.548217127661793
30
-3.5945373859276764
10
-26.116233397899144
20
-18.33027549767537
30
-3.5945373859276764
0
SPLINE
5
120
100
AcDbEntity
8
0
100
AcDbSpline
70
0
71
2
72
6
73
3
74
0
42
0.000000001
43
0.0000000001
44
0.0000000001
40
0
40
0
40
0
40
1
40
1
40
1
10
-26.116233397899144
20
-18.33027549767537
30
-3.5945373859276764
10
-25.988767861827338
20
-18.112333919637816
30
-3.5945373859276764
10
-25.702242103116745
20
-17.974969865075415
30
-3.5945373859276764
0
SPLINE
5
121
100
AcDbEntity
8
0
100
AcDbSpline
70
0
71
2
72
6
73
3
74
0
42
0.000000001
43
0.0000000001
44
0.0000000001
40
0
40
0
40
0
40
1
40
1
40
1
10
-25.702242103116745
20
-17.974969865075415
30
-3.5945373859276764
10
-26.079652817911363
20
-17.887475952076475
30
-3.5945373859276764
10
-26.294586049713537
20
-17.637864585860939
30
-3.5945373859276764
0
SPLINE
5
122
100
AcDbEntity
8
0
100
AcDbSpline
70
0
71
2
72
6
73
3
74
0
42
0.000000001
43
0.0000000001
44
0.0000000001
40
0
40
0
40
0
40
1
40
1
40
1
10
-26.294586049713537
20
-17.637864585860939
30
-3.5945373859276764
10
-26.509519307490137
20
-17.388252922756251
30
-3.5945373859276764
10
-26.541860856280888
20
-17.018587328525669
30
-3.5945373859276764
0
SPLINE
5
123
100
AcDbEntity
8
0
100
AcDbSpline
70
0
71
2
72
6
73
3
74
0
42
0.000000001
43
0.0000000001
44
0.0000000001
40
0
40
0
40
0
40
1
40
1
40
1
10
-26.541860856280888
20
-17.018587328525669
30
-3.5945373859276764
10
-26.586568314292606
20
-16.507578745128253
30
-3.5945373859276764
10
-26.255496180824256
20
-16.128030068369331
30
-3.5945373859276764
0
SPLINE
5
124
100
AcDbEntity
8
0
100
AcDbSpline
70
0
71
2
72
6
73
3
74
0
42
0.000000001
43
0.0000000001
44
0.0000000001
40
0
40
0
40
0
40
1
40
1
40
1
10
-26.255496180824256
20
-16.128030068369331
30
-3.5945373859276764
10
-25.92442404735591
20
-15.748481391610408
30
-3.5945373859276764
10
-25.334589611829166
20
-15.696877565144604
30
-3.5945373859276764
0
SPLINE
5
125
100
AcDbEntity
8
0
100
AcDbSpline
70
0
71
2
72
6
73
3
74
0
42
0.000000001
43
0.0000000001
44
0.0000000001
40
0
40
0
40
0
40
1
40
1
40
1
10
-25.334589611829166
20
-15.696877565144604
30
-3.5945373859276764
10
-24.744755176302426
20
-15.645273738678803
30
-3.5945373859276764
10
-24.35268592543601
20
-15.962925304097467
30
-3.5945373859276764
0
SPLINE
5
126
100
AcDbEntity
8
0
100
AcDbSpline
70
0
71
2
72
6
73
3
74
0
42
0.000000001
43
0.0000000001
44
0.0000000001
40
0
40
0
40
0
40
1
40
1
40
1
10
-24.35268592543601
20
-15.962925304097467
30
-3.5945373859276764
10
-23.960616674569593
20
-16.280576869516135
30
-3.5945373859276764
10
-23.914958006757885
20
-16.802457830678378
30
-3.5945373859276764
0
SPLINE
5
127
100
AcDbEntity
8
0
100
AcDbSpline
70
0
71
2
72
6
73
3
74
0
42
0.000000001
43
0.0000000001
44
0.0000000001
40
0
40
0
40
0
40
1
40
1
40
1
10
-23.914958006757885
20
-16.802457830678378
30
-3.5945373859276764
10
-23.880951808349099
20
-17.191150457108854
30
-3.5945373859276764
10
-24.055067909899208
20
-17.470690842960217
30
-3.5945373859276764
0
SPLINE
5
128
100
AcDbEntity
8
0
100
AcDbSpline
70
0
71
2
72
6
73
3
74
0
42
0.000000001
43
0.0000000001
44
0.0000000001
40
0
40
0
40
0
40
1
40
1
40
1
10
-24.055067909899208
20
-17.470690842960217
30
-3.5945373859276764
10
-24.229184308338468
20
-17.750231254786012
30
-3.5945373859276764
10
-24.585090369100765
20
-17.877231752910689
30
-3.5945373859276764
0
SPLINE
5
129
100
AcDbEntity
8
0
100
AcDbSpline
70
0
71
2
72
6
73
3
74
0
42
0.000000001
43
0.0000000001
44
0.0000000001
40
0
40
0
40
0
40
1
40
1
40
1
10
-24.41470707985069
20
-18.697700476057481
30
-3.5945373859276764
10
-24.439438846343752
20
-18.415015091502131
30
-3.5945373859276764
10
-24.637248805722724
20
-18.251551313263658
30
-3.5945373859276764
0
SPLINE
5
130
100
AcDbEntity
8
0
100
AcDbSpline
70
0
71
2
72
6
73
3
74
0
42
0.000000001
43
0.0000000001
44
0.0000000001
40
0
40
0
40
0
40
1
40
1
40
1
10
-24.637248805722724
20
-18.251551313263658
30
-3.5945373859276764
10
-24.8350584422381
20
-18.088087805939907
30
-3.5945373859276764
10
-25.125898481228521
20
-18.113533012251008
30
-3.5945373859276764
0
SPLINE
5
131
100
AcDbEntity
8
0
100
AcDbSpline
70
0
71
2
72
6
73
3
74
0
42
0.000000001
43
0.0000000001
44
0.0000000001
40
0
40
0
40
0
40
1
40
1
40
1
10
-25.125898481228521
20
-18.113533012251008
30
-3.5945373859276764
10
-25.408584162673023
20
-18.138264804718499
30
-3.5945373859276764
10
-25.573763509498182
20
-18.332116470315498
30
-3.5945373859276764
0
SPLINE
5
132
100
AcDbEntity
8
0
100
AcDbSpline
70
0
71
2
72
6
73
3
74
0
42
0.000000001
43
0.0000000001
44
0.0000000001
40
0
40
0
40
0
40
1
40
1
40
1
10
-25.573763509498182
20
-18.332116470315498
30
-3.5945373859276764
10
-25.738942856323334
20
-18.525968135912489
30
-3.5945373859276764
10
-25.716351331361089
20
-18.784190447830117
30
-3.5945373859276764
0
SPLINE
5
133
100
AcDbEntity
8
0
100
AcDbSpline
70
0
71
2
72
6
73
3
74
0
42
0.000000001
43
0.0000000001
44
0.0000000001
40
0
40
0
40
0
40
1
40
1
40
1
10
-25.716351331361089
20
-18.784190447830117
30
-3.5945373859276764
10
-25.692808596598844
20
-19.053285137512567
30
-3.5945373859276764
10
-25.490565048414275
20
-19.220469413576627
30
-3.5945373859276764
0
SPLINE
5
134
100
AcDbEntity
8
0
100
AcDbSpline
70
0
71
2
72
6
73
3
74
0
42
0.000000001
43
0.0000000001
44
0.0000000001
40
0
40
0
40
0
40
1
40
1
40
1
10
-25.490565048414275
20
-19.220469413576627
30
-3.5945373859276764
10
-25.28832093242583
20
-19.387653340802657
30
-3.5945373859276764
10
-25.011071588308312
20
-19.363397166222377
30
-3.5945373859276764
0
SPLINE
5
135
100
AcDbEntity
8
0
100
AcDbSpline
70
0
71
2
72
6
73
3
74
0
42
0.000000001
43
0.0000000001
44
0.0000000001
40
0
40
0
40
0
40
1
40
1
40
1
10
-25.011071588308312
20
-19.363397166222377
30
-3.5945373859276764
10
-24.731104223971876
20
-19.33890319568571
30
-3.5945373859276764
10
-24.561966583364743
20
-19.143335961502032
30
-3.5945373859276764
0
SPLINE
5
136
100
AcDbEntity
8
0
100
AcDbSpline
70
0
71
2
72
6
73
3
74
0
42
0.000000001
43
0.0000000001
44
0.0000000001
40
0
40
0
40
0
40
1
40
1
40
1
10
-24.561966583364743
20
-19.143335961502032
30
-3.5945373859276764
10
-24.392828968732051
20
-18.9477684304292
30
-3.5945373859276764
10
-24.41470707985069
20
-18.697700476057481
30
-3.5945373859276764
0
SPLINE
5
137
100
AcDbEntity
8
0
100
AcDbSpline
70
0
71
2
72
6
73
3
74
0
42
0.000000001
43
0.0000000001
44
0.0000000001
40
0
40
0
40
0
40
1
40
1
40
1
10
-24.41805002856578
20
-16.843733854627573
30
-3.5945373859276764
10
-24.436361070466404
20
-16.6344376879854
30
-3.5945373859276764
10
-24.552694503766716
20
-16.447412390193943
30
-3.5945373859276764
0
SPLINE
5
138
100
AcDbEntity
8
0
100
AcDbSpline
70
0
71
2
72
6
73
3
74
0
42
0.000000001
43
0.0000000001
44
0.0000000001
40
0
40
0
40
0
40
1
40
1
40
1
10
-24.552694503766716
20
-16.447412390193943
30
-3.5945373859276764
10
-24.669028556819768
20
-16.2603868474622
30
-3.5945373859276764
10
-24.874127048606592
20
-16.170142728117565
30
-3.5945373859276764
0
SPLINE
5
139
100
AcDbEntity
8
0
100
AcDbSpline
70
0
71
2
72
6
73
3
74
0
42
0.000000001
43
0.0000000001
44
0.0000000001
40
0
40
0
40
0
40
1
40
1
40
1
10
-24.874127048606592
20
-16.170142728117565
30
-3.5945373859276764
10
-25.079225863257001
20
-16.079898337858207
30
-3.5945373859276764
10
-25.304830448101832
20
-16.099636181471602
30
-3.5945373859276764
0
SPLINE
5
140
100
AcDbEntity
8
0
100
AcDbSpline
70
0
71
2
72
6
73
3
74
0
42
0.000000001
43
0.0000000001
44
0.0000000001
40
0
40
0
40
0
40
1
40
1
40
1
10
-25.304830448101832
20
-16.099636181471602
30
-3.5945373859276764
10
-25.655469603910845
20
-16.130313132593194
30
-3.5945373859276764
10
-25.864054339386762
20
-16.37589365389697
30
-3.5945373859276764
0
SPLINE
5
141
100
AcDbEntity
8
0
100
AcDbSpline
70
0
71
2
72
6
73
3
74
0
42
0.000000001
43
0.0000000001
44
0.0000000001
40
0
40
0
40
0
40
1
40
1
40
1
10
-25.864054339386762
20
-16.37589365389697
30
-3.5945373859276764
10
-26.072639668640996
20
-16.621474227149616
30
-3.5945373859276764
10
-26.042200565424668
20
-16.969394768961394
30
-3.5945373859276764
0
SPLINE
5
142
100
AcDbEntity
8
0
100
AcDbSpline
70
0
71
2
72
6
73
3
74
0
42
0.000000001
43
0.0000000001
44
0.0000000001
40
0
40
0
40
0
40
1
40
1
40
1
10
-26.042200565424668
20
-16.969394768961394
30
-3.5945373859276764
10
-26.011285844321126
20
-17.322751648100159
30
-3.5945373859276764
10
-25.755953959012146
20
-17.533222672764293
30
-3.5945373859276764
0
SPLINE
5
143
100
AcDbEntity
8
0
100
AcDbSpline
70
0
71
2
72
6
73
3
74
0
42
0.000000001
43
0.0000000001
44
0.0000000001
40
0
40
0
40
0
40
1
40
1
40
1
10
-25.755953959012146
20
-17.533222672764293
30
-3.5945373859276764
10
-25.500622099677599
20
-17.743693400539271
30
-3.5945373859276764
10
-25.147265220538834
20
-17.712778679435729
30
-3.5945373859276764
0
SPLINE
5
144
100
AcDbEntity
8
0
100
AcDbSpline
70
0
71
2
72
6
73
3
74
0
42
0.000000001
43
0.0000000001
44
0.0000000001
40
0
40
0
40
0
40
1
40
1
40
1
10
-25.147265220538834
20
-17.712778679435729
30
-3.5945373859276764
10
-24.802062698945974
20
-17.682577372175793
30
-3.5945373859276764
10
-24.595074621091321
20
-17.434397715644074
30
-3.5945373859276764
0
SPLINE
5
145
100
AcDbEntity
8
0
100
AcDbSpline
70
0
71
2
72
6
73
3
74
0
42
0.000000001
43
0.0000000001
44
0.0000000001
40
0
40
0
40
0
40
1
40
1
40
1
10
-24.595074621091321
20
-17.434397715644074
30
-3.5945373859276764
10
-24.388086543236671
20
-17.18621805911236
30
-3.5945373859276764
10
-24.41805002856578
20
-16.843733854627573
30
-3.5945373859276764
0
ENDSEC
0
SECTION
2
OBJECTS
0
DICTIONARY
5
C
100
AcDbDictionary
3
ACAD_GROUP
350
D
3
ACAD_MLINESTYLE
350
17
0
DICTIONARY
5
D
100
AcDbDictionary
0
DICTIONARY
5
1A
330
C
100
AcDbDictionary
0
DICTIONARY
5
17
100
AcDbDictionary
0
ENDSEC
0
EOF
