G04 EAGLE Gerber RS-274X export*
G75*
%MOMM*%
%FSLAX34Y34*%
%LPD*%
%INTraces*%
%IPPOS*%
%AMOC8*
5,1,8,0,0,1.08239X$1,22.5*%
G01*
%ADD10C,0.152400*%
%ADD11P,1.429621X8X202.500000*%
%ADD12P,1.429621X8X22.500000*%
%ADD13C,2.000000*%
%ADD14C,1.270000*%

G36*
X357198Y10164D02*
X357198Y10164D01*
X357217Y10162D01*
X357319Y10184D01*
X357421Y10200D01*
X357438Y10210D01*
X357458Y10214D01*
X357547Y10267D01*
X357638Y10316D01*
X357652Y10330D01*
X357669Y10340D01*
X357736Y10419D01*
X357808Y10494D01*
X357816Y10512D01*
X357829Y10527D01*
X357868Y10623D01*
X357911Y10717D01*
X357913Y10737D01*
X357921Y10755D01*
X357939Y10922D01*
X357939Y227078D01*
X357936Y227098D01*
X357938Y227117D01*
X357916Y227219D01*
X357900Y227321D01*
X357890Y227338D01*
X357886Y227358D01*
X357833Y227447D01*
X357784Y227538D01*
X357770Y227552D01*
X357760Y227569D01*
X357681Y227636D01*
X357606Y227708D01*
X357588Y227716D01*
X357573Y227729D01*
X357477Y227768D01*
X357383Y227811D01*
X357363Y227813D01*
X357345Y227821D01*
X357178Y227839D01*
X305122Y227839D01*
X305051Y227828D01*
X304980Y227826D01*
X304931Y227808D01*
X304879Y227800D01*
X304816Y227766D01*
X304749Y227741D01*
X304708Y227709D01*
X304662Y227684D01*
X304612Y227632D01*
X304556Y227588D01*
X304528Y227544D01*
X304492Y227506D01*
X304462Y227441D01*
X304423Y227381D01*
X304411Y227330D01*
X304389Y227283D01*
X304381Y227212D01*
X304363Y227142D01*
X304367Y227090D01*
X304362Y227039D01*
X304377Y226968D01*
X304383Y226897D01*
X304403Y226849D01*
X304414Y226798D01*
X304451Y226737D01*
X304479Y226671D01*
X304524Y226615D01*
X304540Y226587D01*
X304558Y226572D01*
X304584Y226540D01*
X306069Y225055D01*
X344061Y187062D01*
X346551Y181052D01*
X346551Y159847D01*
X346565Y159757D01*
X346573Y159666D01*
X346585Y159636D01*
X346590Y159604D01*
X346633Y159524D01*
X346669Y159440D01*
X346695Y159408D01*
X346706Y159387D01*
X346729Y159365D01*
X346774Y159309D01*
X346805Y159278D01*
X346805Y145522D01*
X346774Y145491D01*
X346721Y145417D01*
X346661Y145348D01*
X346649Y145318D01*
X346630Y145291D01*
X346603Y145204D01*
X346569Y145120D01*
X346565Y145079D01*
X346558Y145056D01*
X346559Y145024D01*
X346551Y144953D01*
X346551Y134447D01*
X346566Y134357D01*
X346573Y134266D01*
X346585Y134236D01*
X346590Y134204D01*
X346633Y134124D01*
X346669Y134040D01*
X346695Y134008D01*
X346706Y133987D01*
X346729Y133965D01*
X346774Y133909D01*
X346805Y133878D01*
X346805Y120122D01*
X346774Y120091D01*
X346721Y120017D01*
X346661Y119948D01*
X346649Y119918D01*
X346630Y119891D01*
X346603Y119804D01*
X346569Y119720D01*
X346565Y119679D01*
X346558Y119656D01*
X346559Y119624D01*
X346551Y119553D01*
X346551Y109047D01*
X346565Y108957D01*
X346573Y108866D01*
X346585Y108836D01*
X346590Y108804D01*
X346633Y108724D01*
X346669Y108640D01*
X346695Y108608D01*
X346706Y108587D01*
X346729Y108565D01*
X346774Y108509D01*
X346805Y108478D01*
X346805Y94722D01*
X337078Y84995D01*
X323322Y84995D01*
X313595Y94722D01*
X313595Y108478D01*
X313626Y108509D01*
X313679Y108583D01*
X313739Y108652D01*
X313751Y108682D01*
X313770Y108709D01*
X313797Y108796D01*
X313831Y108880D01*
X313835Y108921D01*
X313842Y108944D01*
X313841Y108976D01*
X313849Y109047D01*
X313849Y119553D01*
X313835Y119643D01*
X313827Y119734D01*
X313815Y119764D01*
X313810Y119796D01*
X313767Y119876D01*
X313731Y119960D01*
X313705Y119992D01*
X313694Y120013D01*
X313671Y120035D01*
X313626Y120091D01*
X313595Y120122D01*
X313595Y133878D01*
X313626Y133909D01*
X313679Y133983D01*
X313739Y134052D01*
X313751Y134082D01*
X313770Y134109D01*
X313797Y134196D01*
X313831Y134280D01*
X313835Y134321D01*
X313842Y134344D01*
X313841Y134376D01*
X313849Y134447D01*
X313849Y144953D01*
X313835Y145043D01*
X313827Y145134D01*
X313815Y145164D01*
X313810Y145196D01*
X313767Y145276D01*
X313731Y145360D01*
X313705Y145392D01*
X313694Y145413D01*
X313671Y145435D01*
X313626Y145491D01*
X313595Y145522D01*
X313595Y159278D01*
X313626Y159309D01*
X313679Y159383D01*
X313739Y159452D01*
X313751Y159482D01*
X313770Y159509D01*
X313797Y159596D01*
X313831Y159680D01*
X313835Y159721D01*
X313842Y159744D01*
X313841Y159776D01*
X313849Y159847D01*
X313849Y170712D01*
X313835Y170802D01*
X313827Y170893D01*
X313815Y170923D01*
X313810Y170955D01*
X313767Y171035D01*
X313731Y171119D01*
X313705Y171151D01*
X313694Y171172D01*
X313671Y171194D01*
X313626Y171250D01*
X285550Y199326D01*
X285476Y199379D01*
X285407Y199439D01*
X285377Y199451D01*
X285351Y199470D01*
X285264Y199497D01*
X285179Y199531D01*
X285138Y199535D01*
X285115Y199542D01*
X285083Y199541D01*
X285012Y199549D01*
X231812Y199549D01*
X231741Y199538D01*
X231670Y199536D01*
X231621Y199518D01*
X231569Y199510D01*
X231506Y199476D01*
X231439Y199451D01*
X231398Y199419D01*
X231352Y199394D01*
X231302Y199342D01*
X231246Y199298D01*
X231218Y199254D01*
X231182Y199216D01*
X231152Y199151D01*
X231113Y199091D01*
X231101Y199040D01*
X231079Y198993D01*
X231071Y198922D01*
X231053Y198852D01*
X231057Y198800D01*
X231052Y198749D01*
X231067Y198678D01*
X231073Y198607D01*
X231093Y198559D01*
X231104Y198508D01*
X231141Y198447D01*
X231169Y198381D01*
X231214Y198325D01*
X231230Y198297D01*
X231248Y198282D01*
X231274Y198250D01*
X260296Y169228D01*
X260370Y169175D01*
X260439Y169115D01*
X260469Y169103D01*
X260495Y169084D01*
X260582Y169057D01*
X260667Y169023D01*
X260708Y169019D01*
X260731Y169012D01*
X260763Y169013D01*
X260834Y169005D01*
X260878Y169005D01*
X270605Y159278D01*
X270605Y145522D01*
X265321Y140238D01*
X265309Y140222D01*
X265294Y140210D01*
X265238Y140122D01*
X265177Y140039D01*
X265172Y140020D01*
X265161Y140003D01*
X265135Y139902D01*
X265105Y139803D01*
X265106Y139784D01*
X265101Y139764D01*
X265109Y139661D01*
X265111Y139558D01*
X265118Y139539D01*
X265120Y139519D01*
X265160Y139424D01*
X265196Y139327D01*
X265208Y139311D01*
X265216Y139293D01*
X265321Y139162D01*
X270605Y133878D01*
X270605Y120122D01*
X265321Y114838D01*
X265309Y114822D01*
X265294Y114810D01*
X265238Y114722D01*
X265177Y114639D01*
X265172Y114620D01*
X265161Y114603D01*
X265135Y114502D01*
X265105Y114403D01*
X265106Y114384D01*
X265101Y114364D01*
X265109Y114261D01*
X265111Y114158D01*
X265118Y114139D01*
X265120Y114119D01*
X265160Y114024D01*
X265196Y113927D01*
X265208Y113911D01*
X265216Y113893D01*
X265321Y113762D01*
X270605Y108478D01*
X270605Y94722D01*
X270574Y94691D01*
X270521Y94617D01*
X270461Y94548D01*
X270449Y94518D01*
X270430Y94491D01*
X270403Y94404D01*
X270369Y94320D01*
X270365Y94279D01*
X270358Y94256D01*
X270359Y94224D01*
X270351Y94153D01*
X270351Y85648D01*
X267861Y79638D01*
X237862Y49639D01*
X231852Y47149D01*
X222988Y47149D01*
X222898Y47135D01*
X222807Y47127D01*
X222777Y47115D01*
X222745Y47110D01*
X222665Y47067D01*
X222581Y47031D01*
X222549Y47005D01*
X222528Y46994D01*
X222506Y46971D01*
X222450Y46926D01*
X207328Y31804D01*
X207275Y31730D01*
X207215Y31661D01*
X207203Y31631D01*
X207184Y31605D01*
X207157Y31518D01*
X207123Y31433D01*
X207119Y31392D01*
X207112Y31369D01*
X207113Y31337D01*
X207105Y31266D01*
X207105Y31222D01*
X197378Y21495D01*
X183622Y21495D01*
X173895Y31222D01*
X173895Y44978D01*
X183622Y54705D01*
X183666Y54705D01*
X183756Y54719D01*
X183847Y54727D01*
X183877Y54739D01*
X183909Y54744D01*
X183989Y54787D01*
X184073Y54823D01*
X184105Y54849D01*
X184126Y54860D01*
X184148Y54883D01*
X184204Y54928D01*
X206638Y77361D01*
X212648Y79851D01*
X221512Y79851D01*
X221602Y79865D01*
X221693Y79873D01*
X221723Y79885D01*
X221755Y79890D01*
X221835Y79933D01*
X221919Y79969D01*
X221951Y79995D01*
X221972Y80006D01*
X221994Y80029D01*
X222050Y80074D01*
X237172Y95196D01*
X237225Y95270D01*
X237285Y95339D01*
X237297Y95369D01*
X237316Y95395D01*
X237343Y95482D01*
X237377Y95567D01*
X237381Y95608D01*
X237388Y95631D01*
X237387Y95663D01*
X237395Y95734D01*
X237395Y108478D01*
X238267Y109350D01*
X238309Y109408D01*
X238358Y109460D01*
X238380Y109507D01*
X238411Y109549D01*
X238432Y109618D01*
X238462Y109683D01*
X238468Y109735D01*
X238483Y109785D01*
X238481Y109856D01*
X238489Y109927D01*
X238478Y109978D01*
X238477Y110030D01*
X238452Y110098D01*
X238437Y110168D01*
X238410Y110213D01*
X238392Y110261D01*
X238347Y110317D01*
X238311Y110379D01*
X238271Y110413D01*
X238238Y110453D01*
X238178Y110492D01*
X238124Y110539D01*
X238075Y110558D01*
X238032Y110586D01*
X237962Y110604D01*
X237896Y110631D01*
X237824Y110639D01*
X237793Y110647D01*
X237770Y110645D01*
X237729Y110649D01*
X235688Y110649D01*
X235598Y110635D01*
X235507Y110627D01*
X235477Y110615D01*
X235445Y110610D01*
X235365Y110567D01*
X235281Y110531D01*
X235249Y110505D01*
X235228Y110494D01*
X235225Y110491D01*
X235224Y110491D01*
X235205Y110470D01*
X235150Y110426D01*
X225162Y100439D01*
X219152Y97949D01*
X197947Y97949D01*
X197857Y97935D01*
X197766Y97927D01*
X197736Y97915D01*
X197704Y97910D01*
X197624Y97867D01*
X197540Y97831D01*
X197508Y97805D01*
X197487Y97794D01*
X197465Y97771D01*
X197409Y97726D01*
X197378Y97695D01*
X183622Y97695D01*
X173895Y107422D01*
X173895Y121178D01*
X183622Y130905D01*
X197378Y130905D01*
X197409Y130874D01*
X197483Y130821D01*
X197552Y130761D01*
X197582Y130749D01*
X197609Y130730D01*
X197696Y130703D01*
X197780Y130669D01*
X197821Y130665D01*
X197844Y130658D01*
X197876Y130659D01*
X197947Y130651D01*
X208812Y130651D01*
X208902Y130665D01*
X208993Y130673D01*
X209023Y130685D01*
X209055Y130690D01*
X209135Y130733D01*
X209219Y130769D01*
X209251Y130795D01*
X209272Y130806D01*
X209294Y130829D01*
X209350Y130874D01*
X219338Y140861D01*
X225348Y143351D01*
X237729Y143351D01*
X237800Y143362D01*
X237871Y143364D01*
X237920Y143382D01*
X237972Y143390D01*
X238035Y143424D01*
X238102Y143449D01*
X238143Y143481D01*
X238189Y143506D01*
X238238Y143558D01*
X238294Y143602D01*
X238322Y143646D01*
X238358Y143684D01*
X238389Y143749D01*
X238427Y143809D01*
X238440Y143860D01*
X238462Y143907D01*
X238470Y143978D01*
X238487Y144048D01*
X238483Y144100D01*
X238489Y144151D01*
X238474Y144222D01*
X238468Y144293D01*
X238448Y144341D01*
X238437Y144392D01*
X238400Y144453D01*
X238372Y144519D01*
X238327Y144575D01*
X238311Y144603D01*
X238293Y144618D01*
X238267Y144650D01*
X237395Y145522D01*
X237395Y145566D01*
X237381Y145656D01*
X237373Y145747D01*
X237361Y145777D01*
X237356Y145809D01*
X237313Y145889D01*
X237277Y145973D01*
X237251Y146005D01*
X237240Y146026D01*
X237217Y146048D01*
X237172Y146104D01*
X209350Y173926D01*
X209276Y173979D01*
X209207Y174039D01*
X209177Y174051D01*
X209151Y174070D01*
X209064Y174097D01*
X208979Y174131D01*
X208938Y174135D01*
X208915Y174142D01*
X208883Y174141D01*
X208812Y174149D01*
X197947Y174149D01*
X197857Y174135D01*
X197766Y174127D01*
X197736Y174115D01*
X197704Y174110D01*
X197624Y174067D01*
X197540Y174031D01*
X197508Y174005D01*
X197487Y173994D01*
X197465Y173971D01*
X197409Y173926D01*
X197378Y173895D01*
X183622Y173895D01*
X173895Y183622D01*
X173895Y197378D01*
X174767Y198250D01*
X174809Y198308D01*
X174858Y198360D01*
X174880Y198407D01*
X174911Y198449D01*
X174932Y198518D01*
X174962Y198583D01*
X174968Y198635D01*
X174983Y198685D01*
X174981Y198756D01*
X174989Y198827D01*
X174978Y198878D01*
X174977Y198930D01*
X174952Y198998D01*
X174937Y199068D01*
X174910Y199113D01*
X174892Y199161D01*
X174847Y199217D01*
X174811Y199279D01*
X174771Y199313D01*
X174738Y199353D01*
X174678Y199392D01*
X174624Y199439D01*
X174575Y199458D01*
X174532Y199486D01*
X174462Y199504D01*
X174396Y199531D01*
X174324Y199539D01*
X174293Y199547D01*
X174270Y199545D01*
X174229Y199549D01*
X134049Y199549D01*
X133959Y199535D01*
X133868Y199527D01*
X133838Y199515D01*
X133806Y199510D01*
X133726Y199467D01*
X133642Y199431D01*
X133610Y199405D01*
X133589Y199394D01*
X133567Y199371D01*
X133511Y199326D01*
X83474Y149289D01*
X83421Y149215D01*
X83361Y149146D01*
X83349Y149116D01*
X83330Y149090D01*
X83303Y149003D01*
X83269Y148918D01*
X83265Y148877D01*
X83258Y148854D01*
X83259Y148822D01*
X83251Y148751D01*
X83251Y148211D01*
X80206Y140859D01*
X74580Y135233D01*
X67228Y132188D01*
X59272Y132188D01*
X51920Y135233D01*
X46294Y140859D01*
X43249Y148211D01*
X43249Y156167D01*
X46294Y163519D01*
X51920Y169145D01*
X59272Y172190D01*
X59812Y172190D01*
X59902Y172204D01*
X59993Y172212D01*
X60023Y172224D01*
X60055Y172229D01*
X60135Y172272D01*
X60219Y172308D01*
X60251Y172334D01*
X60272Y172345D01*
X60294Y172368D01*
X60350Y172413D01*
X112992Y225055D01*
X114477Y226540D01*
X114519Y226598D01*
X114569Y226650D01*
X114590Y226697D01*
X114621Y226739D01*
X114642Y226808D01*
X114672Y226873D01*
X114678Y226925D01*
X114693Y226975D01*
X114691Y227046D01*
X114699Y227117D01*
X114688Y227168D01*
X114687Y227220D01*
X114662Y227288D01*
X114647Y227358D01*
X114620Y227403D01*
X114602Y227451D01*
X114558Y227507D01*
X114521Y227569D01*
X114481Y227603D01*
X114449Y227643D01*
X114388Y227682D01*
X114334Y227729D01*
X114286Y227748D01*
X114242Y227776D01*
X114172Y227794D01*
X114106Y227821D01*
X114034Y227829D01*
X114003Y227837D01*
X113980Y227835D01*
X113939Y227839D01*
X10922Y227839D01*
X10902Y227836D01*
X10883Y227838D01*
X10781Y227816D01*
X10679Y227800D01*
X10662Y227790D01*
X10642Y227786D01*
X10553Y227733D01*
X10462Y227684D01*
X10448Y227670D01*
X10431Y227660D01*
X10364Y227581D01*
X10292Y227506D01*
X10284Y227488D01*
X10271Y227473D01*
X10232Y227377D01*
X10189Y227283D01*
X10187Y227263D01*
X10179Y227245D01*
X10161Y227078D01*
X10161Y10922D01*
X10164Y10902D01*
X10162Y10883D01*
X10184Y10781D01*
X10200Y10679D01*
X10210Y10662D01*
X10214Y10642D01*
X10267Y10553D01*
X10316Y10462D01*
X10330Y10448D01*
X10340Y10431D01*
X10419Y10364D01*
X10494Y10292D01*
X10512Y10284D01*
X10527Y10271D01*
X10623Y10232D01*
X10717Y10189D01*
X10737Y10187D01*
X10755Y10179D01*
X10922Y10161D01*
X357178Y10161D01*
X357198Y10164D01*
G37*
%LPC*%
G36*
X325132Y11866D02*
X325132Y11866D01*
X321234Y13637D01*
X319697Y15283D01*
X319686Y15292D01*
X319677Y15304D01*
X319589Y15366D01*
X319503Y15433D01*
X319489Y15438D01*
X319477Y15446D01*
X319373Y15478D01*
X319270Y15513D01*
X319255Y15513D01*
X319241Y15517D01*
X319133Y15514D01*
X319024Y15515D01*
X319010Y15510D01*
X318995Y15510D01*
X318835Y15460D01*
X318697Y15399D01*
X312780Y15399D01*
X309836Y16691D01*
X309740Y16716D01*
X309646Y16747D01*
X309621Y16746D01*
X309597Y16753D01*
X309499Y16745D01*
X309400Y16744D01*
X309370Y16736D01*
X309352Y16735D01*
X309322Y16722D01*
X309238Y16698D01*
X306104Y15399D01*
X301822Y15399D01*
X301545Y15514D01*
X301456Y15535D01*
X301369Y15563D01*
X301337Y15563D01*
X301306Y15570D01*
X301215Y15562D01*
X301123Y15561D01*
X301084Y15549D01*
X301061Y15547D01*
X301031Y15534D01*
X300962Y15514D01*
X300685Y15399D01*
X296404Y15399D01*
X296126Y15514D01*
X296038Y15535D01*
X295951Y15563D01*
X295918Y15563D01*
X295887Y15570D01*
X295796Y15562D01*
X295705Y15561D01*
X295665Y15549D01*
X295642Y15547D01*
X295613Y15534D01*
X295544Y15514D01*
X295267Y15399D01*
X290985Y15399D01*
X289457Y16032D01*
X289368Y16053D01*
X289281Y16081D01*
X289249Y16081D01*
X289217Y16088D01*
X289127Y16080D01*
X289035Y16079D01*
X288996Y16067D01*
X288973Y16065D01*
X288943Y16052D01*
X288874Y16032D01*
X287346Y15399D01*
X283065Y15399D01*
X282788Y15514D01*
X282699Y15535D01*
X282612Y15563D01*
X282580Y15563D01*
X282548Y15570D01*
X282457Y15562D01*
X282366Y15561D01*
X282326Y15549D01*
X282303Y15547D01*
X282274Y15534D01*
X282205Y15514D01*
X281928Y15399D01*
X277646Y15399D01*
X277369Y15514D01*
X277280Y15535D01*
X277193Y15563D01*
X277161Y15563D01*
X277129Y15570D01*
X277039Y15562D01*
X276947Y15561D01*
X276908Y15549D01*
X276885Y15547D01*
X276855Y15534D01*
X276786Y15514D01*
X276509Y15399D01*
X272227Y15399D01*
X268272Y17038D01*
X265244Y20065D01*
X263605Y24021D01*
X263605Y36970D01*
X265656Y41921D01*
X269446Y45711D01*
X274398Y47762D01*
X287346Y47762D01*
X289960Y46680D01*
X290048Y46659D01*
X290135Y46631D01*
X290168Y46631D01*
X290199Y46623D01*
X290290Y46632D01*
X290381Y46633D01*
X290421Y46644D01*
X290444Y46647D01*
X290473Y46660D01*
X290542Y46680D01*
X293155Y47762D01*
X304230Y47762D01*
X304335Y47779D01*
X304442Y47792D01*
X304457Y47799D01*
X304473Y47802D01*
X304567Y47852D01*
X304664Y47898D01*
X304679Y47911D01*
X304690Y47917D01*
X304711Y47939D01*
X304790Y48008D01*
X307362Y50803D01*
X312780Y53181D01*
X318697Y53181D01*
X324115Y50803D01*
X326955Y47716D01*
X327017Y47668D01*
X327071Y47613D01*
X327113Y47593D01*
X327149Y47565D01*
X327222Y47539D01*
X327292Y47504D01*
X327337Y47498D01*
X327381Y47482D01*
X327458Y47481D01*
X327535Y47471D01*
X327581Y47479D01*
X327627Y47479D01*
X327701Y47502D01*
X327777Y47517D01*
X327817Y47539D01*
X327861Y47553D01*
X327924Y47599D01*
X327991Y47637D01*
X328035Y47681D01*
X328059Y47699D01*
X328075Y47721D01*
X328110Y47756D01*
X328196Y47864D01*
X328208Y47884D01*
X328224Y47901D01*
X328305Y48048D01*
X328498Y48515D01*
X329561Y49577D01*
X329578Y49601D01*
X329617Y49640D01*
X330556Y50813D01*
X330998Y51057D01*
X331016Y51071D01*
X331038Y51080D01*
X331169Y51185D01*
X331526Y51542D01*
X332914Y52117D01*
X332939Y52132D01*
X332990Y52154D01*
X334306Y52879D01*
X334808Y52934D01*
X334831Y52941D01*
X334854Y52941D01*
X335015Y52988D01*
X335482Y53181D01*
X336984Y53181D01*
X337013Y53185D01*
X337068Y53185D01*
X338562Y53351D01*
X339047Y53211D01*
X339070Y53208D01*
X339092Y53199D01*
X339258Y53181D01*
X339763Y53181D01*
X341152Y52606D01*
X341180Y52599D01*
X341231Y52578D01*
X342674Y52160D01*
X343068Y51844D01*
X343089Y51833D01*
X343106Y51816D01*
X343253Y51735D01*
X343719Y51542D01*
X344782Y50480D01*
X344805Y50463D01*
X344844Y50423D01*
X350533Y45872D01*
X352599Y42122D01*
X353071Y37866D01*
X351880Y33754D01*
X351346Y33087D01*
X351309Y33021D01*
X351264Y32961D01*
X351249Y32914D01*
X351225Y32872D01*
X351211Y32798D01*
X351188Y32727D01*
X351188Y32678D01*
X351179Y32631D01*
X351189Y32556D01*
X351190Y32481D01*
X351208Y32418D01*
X351213Y32387D01*
X351224Y32364D01*
X351237Y32320D01*
X352901Y28303D01*
X352901Y24021D01*
X351262Y20065D01*
X348235Y17038D01*
X344279Y15399D01*
X336049Y15399D01*
X335972Y15387D01*
X335893Y15383D01*
X335851Y15367D01*
X335807Y15360D01*
X335737Y15323D01*
X335664Y15295D01*
X335616Y15258D01*
X335589Y15244D01*
X335570Y15225D01*
X335530Y15194D01*
X333421Y13224D01*
X329412Y11720D01*
X325132Y11866D01*
G37*
%LPD*%
D10*
X342138Y38806D02*
X337622Y42418D01*
X337622Y26162D01*
X333107Y26162D02*
X342138Y26162D01*
X327186Y26162D02*
X326282Y26162D01*
X327186Y26162D02*
X327186Y27065D01*
X326282Y27065D01*
X326282Y26162D01*
X327637Y22550D01*
X320254Y34290D02*
X320250Y34610D01*
X320239Y34929D01*
X320220Y35249D01*
X320193Y35567D01*
X320159Y35885D01*
X320117Y36202D01*
X320067Y36518D01*
X320010Y36833D01*
X319946Y37146D01*
X319874Y37458D01*
X319795Y37768D01*
X319708Y38075D01*
X319614Y38381D01*
X319513Y38684D01*
X319404Y38985D01*
X319289Y39283D01*
X319166Y39579D01*
X319036Y39871D01*
X318899Y40160D01*
X318900Y40161D02*
X318861Y40269D01*
X318818Y40376D01*
X318772Y40481D01*
X318721Y40585D01*
X318668Y40687D01*
X318611Y40787D01*
X318550Y40885D01*
X318486Y40980D01*
X318419Y41074D01*
X318348Y41165D01*
X318275Y41254D01*
X318198Y41340D01*
X318119Y41423D01*
X318037Y41504D01*
X317952Y41582D01*
X317864Y41656D01*
X317774Y41728D01*
X317682Y41796D01*
X317587Y41862D01*
X317490Y41924D01*
X317391Y41982D01*
X317289Y42038D01*
X317187Y42089D01*
X317082Y42137D01*
X316976Y42182D01*
X316868Y42223D01*
X316759Y42260D01*
X316649Y42293D01*
X316537Y42322D01*
X316425Y42348D01*
X316312Y42370D01*
X316198Y42387D01*
X316084Y42401D01*
X315969Y42411D01*
X315854Y42417D01*
X315739Y42419D01*
X315739Y42418D02*
X315624Y42416D01*
X315509Y42410D01*
X315394Y42400D01*
X315280Y42386D01*
X315166Y42369D01*
X315053Y42347D01*
X314941Y42321D01*
X314829Y42292D01*
X314719Y42259D01*
X314610Y42222D01*
X314502Y42181D01*
X314396Y42136D01*
X314292Y42088D01*
X314189Y42037D01*
X314088Y41981D01*
X313988Y41923D01*
X313891Y41861D01*
X313797Y41796D01*
X313704Y41727D01*
X313614Y41655D01*
X313526Y41581D01*
X313441Y41503D01*
X313359Y41422D01*
X313280Y41339D01*
X313203Y41253D01*
X313130Y41164D01*
X313059Y41073D01*
X312992Y40979D01*
X312928Y40884D01*
X312867Y40786D01*
X312810Y40686D01*
X312757Y40584D01*
X312706Y40480D01*
X312660Y40375D01*
X312617Y40268D01*
X312578Y40160D01*
X312441Y39871D01*
X312311Y39579D01*
X312188Y39283D01*
X312073Y38985D01*
X311964Y38684D01*
X311863Y38381D01*
X311769Y38075D01*
X311682Y37768D01*
X311603Y37458D01*
X311531Y37146D01*
X311467Y36833D01*
X311410Y36518D01*
X311360Y36202D01*
X311318Y35885D01*
X311284Y35567D01*
X311257Y35249D01*
X311238Y34929D01*
X311227Y34610D01*
X311223Y34290D01*
X320254Y34290D02*
X320250Y33970D01*
X320239Y33651D01*
X320220Y33331D01*
X320193Y33013D01*
X320159Y32695D01*
X320117Y32378D01*
X320067Y32062D01*
X320010Y31747D01*
X319946Y31434D01*
X319874Y31122D01*
X319795Y30812D01*
X319708Y30505D01*
X319614Y30199D01*
X319513Y29896D01*
X319404Y29595D01*
X319289Y29297D01*
X319166Y29001D01*
X319036Y28709D01*
X318899Y28420D01*
X318900Y28420D02*
X318861Y28312D01*
X318818Y28205D01*
X318772Y28100D01*
X318721Y27996D01*
X318668Y27894D01*
X318611Y27794D01*
X318550Y27696D01*
X318486Y27601D01*
X318419Y27507D01*
X318348Y27416D01*
X318275Y27327D01*
X318198Y27241D01*
X318119Y27158D01*
X318037Y27077D01*
X317952Y26999D01*
X317864Y26925D01*
X317774Y26853D01*
X317681Y26784D01*
X317587Y26719D01*
X317490Y26657D01*
X317390Y26599D01*
X317289Y26543D01*
X317187Y26492D01*
X317082Y26444D01*
X316976Y26399D01*
X316868Y26358D01*
X316759Y26321D01*
X316649Y26288D01*
X316537Y26259D01*
X316425Y26233D01*
X316312Y26211D01*
X316198Y26194D01*
X316084Y26180D01*
X315969Y26170D01*
X315854Y26164D01*
X315739Y26162D01*
X312579Y28420D02*
X312442Y28709D01*
X312312Y29001D01*
X312189Y29297D01*
X312074Y29595D01*
X311965Y29896D01*
X311864Y30199D01*
X311770Y30505D01*
X311683Y30812D01*
X311604Y31122D01*
X311532Y31434D01*
X311468Y31747D01*
X311411Y32062D01*
X311361Y32378D01*
X311319Y32695D01*
X311285Y33013D01*
X311258Y33331D01*
X311239Y33651D01*
X311228Y33970D01*
X311224Y34290D01*
X312578Y28420D02*
X312617Y28312D01*
X312660Y28205D01*
X312706Y28100D01*
X312757Y27996D01*
X312810Y27894D01*
X312868Y27794D01*
X312928Y27696D01*
X312992Y27601D01*
X313059Y27507D01*
X313130Y27416D01*
X313203Y27327D01*
X313280Y27241D01*
X313359Y27158D01*
X313441Y27077D01*
X313526Y26999D01*
X313614Y26925D01*
X313704Y26853D01*
X313797Y26784D01*
X313891Y26719D01*
X313988Y26657D01*
X314088Y26599D01*
X314189Y26543D01*
X314292Y26492D01*
X314396Y26444D01*
X314502Y26399D01*
X314610Y26358D01*
X314719Y26321D01*
X314829Y26288D01*
X314941Y26259D01*
X315053Y26233D01*
X315166Y26211D01*
X315280Y26194D01*
X315394Y26180D01*
X315509Y26170D01*
X315624Y26164D01*
X315739Y26162D01*
X319351Y29774D02*
X312126Y38806D01*
X303963Y36999D02*
X303963Y26162D01*
X303963Y36999D02*
X295835Y36999D01*
X295734Y36997D01*
X295633Y36991D01*
X295532Y36982D01*
X295431Y36969D01*
X295331Y36952D01*
X295232Y36931D01*
X295134Y36907D01*
X295037Y36879D01*
X294940Y36847D01*
X294845Y36812D01*
X294752Y36773D01*
X294660Y36731D01*
X294569Y36685D01*
X294481Y36636D01*
X294394Y36584D01*
X294309Y36528D01*
X294226Y36470D01*
X294146Y36408D01*
X294068Y36343D01*
X293992Y36276D01*
X293919Y36206D01*
X293849Y36133D01*
X293782Y36057D01*
X293717Y35979D01*
X293655Y35899D01*
X293597Y35816D01*
X293541Y35731D01*
X293489Y35645D01*
X293440Y35556D01*
X293394Y35465D01*
X293352Y35373D01*
X293313Y35280D01*
X293278Y35185D01*
X293246Y35088D01*
X293218Y34991D01*
X293194Y34893D01*
X293173Y34794D01*
X293156Y34694D01*
X293143Y34593D01*
X293134Y34492D01*
X293128Y34391D01*
X293126Y34290D01*
X293126Y26162D01*
X298544Y26162D02*
X298544Y36999D01*
X285206Y36999D02*
X285206Y26162D01*
X285206Y36999D02*
X277078Y36999D01*
X276977Y36997D01*
X276876Y36991D01*
X276775Y36982D01*
X276674Y36969D01*
X276574Y36952D01*
X276475Y36931D01*
X276377Y36907D01*
X276280Y36879D01*
X276183Y36847D01*
X276088Y36812D01*
X275995Y36773D01*
X275903Y36731D01*
X275812Y36685D01*
X275724Y36636D01*
X275637Y36584D01*
X275552Y36528D01*
X275469Y36470D01*
X275389Y36408D01*
X275311Y36343D01*
X275235Y36276D01*
X275162Y36206D01*
X275092Y36133D01*
X275025Y36057D01*
X274960Y35979D01*
X274898Y35899D01*
X274840Y35816D01*
X274784Y35731D01*
X274732Y35645D01*
X274683Y35556D01*
X274637Y35465D01*
X274595Y35373D01*
X274556Y35280D01*
X274521Y35185D01*
X274489Y35088D01*
X274461Y34991D01*
X274437Y34893D01*
X274416Y34794D01*
X274399Y34694D01*
X274386Y34593D01*
X274377Y34492D01*
X274371Y34391D01*
X274369Y34290D01*
X274368Y34290D02*
X274368Y26162D01*
X279787Y26162D02*
X279787Y36999D01*
D11*
X190500Y38100D03*
X165100Y38100D03*
X190500Y114300D03*
X165100Y114300D03*
X190500Y190500D03*
X165100Y190500D03*
D12*
X254000Y101600D03*
X330200Y101600D03*
X254000Y127000D03*
X330200Y127000D03*
X254000Y152400D03*
X330200Y152400D03*
D13*
X63250Y101389D03*
X63250Y152189D03*
D14*
X190500Y38100D02*
X215900Y63500D01*
X228600Y63500D01*
X254000Y88900D01*
X254000Y101600D01*
X330200Y127000D02*
X330200Y152400D01*
X330200Y127000D02*
X330200Y101600D01*
X330200Y177800D02*
X292100Y215900D01*
X330200Y177800D02*
X330200Y152400D01*
X126961Y215900D02*
X63250Y152189D01*
X126961Y215900D02*
X292100Y215900D01*
X215900Y114300D02*
X190500Y114300D01*
X215900Y114300D02*
X228600Y127000D01*
X254000Y127000D01*
X215900Y190500D02*
X190500Y190500D01*
X215900Y190500D02*
X254000Y152400D01*
M02*
