0
SECTION
2
HEADER
9
$INSUNITS
70
4
9
$ACADVER
1
AC1014
9
$HANDSEED
5
FFFF
0
ENDSEC
0
SECTION
2
TABLES
0
TABLE
2
VPORT
5
8
100
AcDbSymbolTable
0
ENDTAB
0
TABLE
2
LTYPE
5
5
100
AcDbSymbolTable
0
LTYPE
5
14
100
AcDbSymbolTableRecord
100
AcDbLinetypeTableRecord
2
BYBLOCK
70
0
0
LTYPE
5
15
100
AcDbSymbolTableRecord
100
AcDbLinetypeTableRecord
2
BYLAYER
70
0
0
ENDTAB
0
TABLE
2
LAYER
5
2
100
AcDbSymbolTable
70
2
0
LAYER
5
50
100
AcDbSymbolTableRecord
100
AcDbLayerTableRecord
2
0
70
0
6
CONTINUOUS
0
ENDTAB
0
TABLE
2
STYLE
5
3
100
AcDbSymbolTable
70
1
0
STYLE
5
11
100
AcDbSymbolTableRecord
100
AcDbTextStyleTableRecord
2
STANDARD
70
0
0
ENDTAB
0
TABLE
2
VIEW
5
6
100
AcDbSymbolTable
70
0
0
ENDTAB
0
TABLE
2
UCS
5
7
100
AcDbSymbolTable
70
0
0
ENDTAB
0
TABLE
2
APPID
5
9
100
AcDbSymbolTable
70
2
0
APPID
5
12
100
AcDbSymbolTableRecord
100
AcDbRegAppTableRecord
2
ACAD
70
0
0
ENDTAB
0
TABLE
2
DIMSTYLE
5
A
100
AcDbSymbolTable
70
1
0
ENDTAB
0
TABLE
2
BLOCK_RECORD
5
1
100
AcDbSymbolTable
70
1
0
BLOCK_RECORD
5
1F
100
AcDbSymbolTableRecord
100
AcDbBlockTableRecord
2
*MODEL_SPACE
0
BLOCK_RECORD
5
1B
100
AcDbSymbolTableRecord
100
AcDbBlockTableRecord
2
*PAPER_SPACE
0
ENDTAB
0
ENDSEC
0
SECTION
2
BLOCKS
0
BLOCK
5
20
100
AcDbEntity
100
AcDbBlockBegin
2
*MODEL_SPACE
0
ENDBLK
5
21
100
AcDbEntity
100
AcDbBlockEnd
0
BLOCK
5
1C
100
AcDbEntity
100
AcDbBlockBegin
2
*PAPER_SPACE
0
ENDBLK
5
1D
100
AcDbEntity
100
AcDbBlockEnd
0
ENDSEC
0
SECTION
2
ENTITIES
0
LWPOLYLINE
5
100
100
AcDbEntity
8
0
100
AcDbPolyline
90
14
70
1
43
0.0
10
-59.129229819145465
20
130.74506239512243
10
-60.822859225705471
20
133.03742971323589
10
-65.179964431964791
20
129.74981100791928
10
-67.168582673581085
20
132.44145266673101
10
-56.445943681867931
20
140.53205870487653
10
-43.632493317863172
20
144.56298698261466
10
-42.648521541201198
20
141.54202849240531
10
-47.780404568283323
20
139.92761146777457
10
-46.897711785149909
20
137.21759648492645
10
-41.765828758067769
20
138.83201350955719
10
-40.845042423757519
20
136.00504493151539
10
-52.264320937284488
20
132.41270318406154
10
-61.820279525171557
20
125.20239830378172
10
-63.486335025404799
20
127.45744368980584
0
LWPOLYLINE
5
101
100
AcDbEntity
8
0
100
AcDbPolyline
90
4
70
1
43
0.0
10
-56.261155164275053
20
134.67337795033248
10
-58.251501982809259
20
137.04538092182906
10
-56.615940579688669
20
138.41777989195535
10
-54.62559376115447
20
136.04577692045876
0
LINE
5
102
100
AcDbEntity
8
0
100
AcDbLine
10
-61.466468280765376
20
134.36106071545774
30
6.9946926064614782e-14
11
-56.40197102333326
21
136.10404704853156
31
6.5031001367033797e-15
0
LINE
5
103
100
AcDbEntity
8
0
100
AcDbLine
10
-56.401971023333253
20
136.10404704853156
30
6.5031001367033797e-15
11
-55.943776769006774
21
135.55799239983196
31
2.6379214723401909e-14
0
LINE
5
104
100
AcDbEntity
8
0
100
AcDbLine
10
-55.943776769006782
20
135.55799239983196
30
2.6379214723401896e-14
11
-58.458608183182143
21
130.77643263814215
31
2.004255852704205e-13
0
LINE
5
105
100
AcDbEntity
8
0
100
AcDbLine
10
-58.458608183182143
20
130.77643263814215
30
2.0042558527042052e-13
11
-58.943110433608709
21
131.35383993570798
31
1.7940825003310428e-13
0
LINE
5
106
100
AcDbEntity
8
0
100
AcDbLine
10
-58.943110433608709
20
131.35383993570798
30
1.7940825003310428e-13
11
-58.157956816626822
21
132.77400106952592
31
1.2771509900039644e-13
0
LINE
5
107
100
AcDbEntity
8
0
100
AcDbLine
10
-58.157956816626822
20
132.77400106952592
30
1.2771509900039644e-13
11
-59.501847747607243
21
134.37558791457658
31
6.9418143322818034e-14
0
LINE
5
108
100
AcDbEntity
8
0
100
AcDbLine
10
-59.501847747607229
20
134.37558791457658
30
6.9418143322818022e-14
11
-61.014850830905075
21
133.82284399710846
31
8.9537743928472194e-14
0
LINE
5
109
100
AcDbEntity
8
0
100
AcDbLine
10
-61.014850830905075
20
133.82284399710849
30
8.953774392847222e-14
11
-61.466468280765376
21
134.36106071545774
31
6.9946926064614807e-14
0
LINE
5
110
100
AcDbEntity
8
0
100
AcDbLine
10
-58.966270763241084
20
134.5756627859883
30
6.2135518626612134e-14
11
-57.876688816956481
21
133.27714958707782
31
1.094007460087953e-13
0
LINE
5
111
100
AcDbEntity
8
0
100
AcDbLine
10
-57.876688816956481
20
133.27714958707782
30
1.094007460087953e-13
11
-57.151356092702493
21
134.56697438917863
31
6.2451771900849156e-14
0
SPLINE
5
112
100
AcDbEntity
8
0
100
AcDbSpline
70
0
71
2
72
6
73
3
74
0
42
0.000000001
43
0.0000000001
44
0.0000000001
40
0
40
0
40
0
40
1
40
1
40
1
10
-57.151356092702493
20
134.56697438917865
30
6.2451771900849169e-14
10
-56.821468252358791
20
135.1554421170199
30
4.1031842564102511e-14
10
-56.58509556017173
20
135.50515983862775
30
2.8302293380280516e-14
0
SPLINE
5
113
100
AcDbEntity
8
0
100
AcDbSpline
70
0
71
2
72
6
73
3
74
0
42
0.000000001
43
0.0000000001
44
0.0000000001
40
0
40
0
40
0
40
1
40
1
40
1
10
-56.58509556017173
20
135.50515983862775
30
2.8302293380280516e-14
10
-57.014871553697887
20
135.26919870165938
30
3.6891160094555052e-14
10
-57.489845246772795
20
135.09771438335997
30
4.3133103036453261e-14
0
LINE
5
114
100
AcDbEntity
8
0
100
AcDbLine
10
-57.489845246772795
20
135.09771438335997
30
4.3133103036453261e-14
11
-58.966270763241091
21
134.5756627859883
31
6.2135518626612134e-14
0
ENDSEC
0
SECTION
2
OBJECTS
0
DICTIONARY
5
C
100
AcDbDictionary
3
ACAD_GROUP
350
D
3
ACAD_MLINESTYLE
350
17
0
DICTIONARY
5
D
100
AcDbDictionary
0
DICTIONARY
5
1A
330
C
100
AcDbDictionary
0
DICTIONARY
5
17
100
AcDbDictionary
0
ENDSEC
0
EOF
