0
SECTION
2
HEADER
9
$INSUNITS
70
4
9
$ACADVER
1
AC1014
9
$HANDSEED
5
FFFF
0
ENDSEC
0
SECTION
2
TABLES
0
TABLE
2
VPORT
5
8
100
AcDbSymbolTable
0
ENDTAB
0
TABLE
2
LTYPE
5
5
100
AcDbSymbolTable
0
LTYPE
5
14
100
AcDbSymbolTableRecord
100
AcDbLinetypeTableRecord
2
BYBLOCK
70
0
0
LTYPE
5
15
100
AcDbSymbolTableRecord
100
AcDbLinetypeTableRecord
2
BYLAYER
70
0
0
ENDTAB
0
TABLE
2
LAYER
5
2
100
AcDbSymbolTable
70
2
0
LAYER
5
50
100
AcDbSymbolTableRecord
100
AcDbLayerTableRecord
2
0
70
0
6
CONTINUOUS
0
ENDTAB
0
TABLE
2
STYLE
5
3
100
AcDbSymbolTable
70
1
0
STYLE
5
11
100
AcDbSymbolTableRecord
100
AcDbTextStyleTableRecord
2
STANDARD
70
0
0
ENDTAB
0
TABLE
2
VIEW
5
6
100
AcDbSymbolTable
70
0
0
ENDTAB
0
TABLE
2
UCS
5
7
100
AcDbSymbolTable
70
0
0
ENDTAB
0
TABLE
2
APPID
5
9
100
AcDbSymbolTable
70
2
0
APPID
5
12
100
AcDbSymbolTableRecord
100
AcDbRegAppTableRecord
2
ACAD
70
0
0
ENDTAB
0
TABLE
2
DIMSTYLE
5
A
100
AcDbSymbolTable
70
1
0
ENDTAB
0
TABLE
2
BLOCK_RECORD
5
1
100
AcDbSymbolTable
70
1
0
BLOCK_RECORD
5
1F
100
AcDbSymbolTableRecord
100
AcDbBlockTableRecord
2
*MODEL_SPACE
0
BLOCK_RECORD
5
1B
100
AcDbSymbolTableRecord
100
AcDbBlockTableRecord
2
*PAPER_SPACE
0
ENDTAB
0
ENDSEC
0
SECTION
2
BLOCKS
0
BLOCK
5
20
100
AcDbEntity
100
AcDbBlockBegin
2
*MODEL_SPACE
0
ENDBLK
5
21
100
AcDbEntity
100
AcDbBlockEnd
0
BLOCK
5
1C
100
AcDbEntity
100
AcDbBlockBegin
2
*PAPER_SPACE
0
ENDBLK
5
1D
100
AcDbEntity
100
AcDbBlockEnd
0
ENDSEC
0
SECTION
2
ENTITIES
0
LWPOLYLINE
5
100
100
AcDbEntity
8
0
100
AcDbPolyline
90
14
70
1
43
0.0
10
-73.938215229620653
20
123.50068070489378
10
-72.512938085485516
20
121.03266833409697
10
-67.091076836537937
20
124.16379320536419
10
-65.553104234329211
20
121.50063718422348
10
-75.944735269263091
20
115.49947026154931
10
-83.581966421867193
20
106.24351540417813
10
-86.005693593991595
20
108.24337008687685
10
-82.25691446257828
20
112.786689462439
10
-84.455203741208891
20
114.60053186118654
10
-88.20398287262222
20
110.0572124856244
10
-90.523932564895546
20
111.9714387686312
10
-81.852627511034541
20
122.48064119150995
10
-70.053979426334877
20
129.29436046042389
10
-68.51635398067306
20
126.63180557616096
0
LWPOLYLINE
5
101
100
AcDbEntity
8
0
100
AcDbPolyline
90
4
70
1
43
0.0
10
-76.09912201779494
20
119.76397024589799
10
-78.927549184687976
20
116.93554307900496
10
-82.463083143304274
20
120.47107703762124
10
-79.634655976411238
20
123.29950420451428
0
LINE
5
102
100
AcDbEntity
8
0
100
AcDbLine
10
-79.634655976411224
20
117.64264987072821
30
0
11
-82.46308314330426
21
120.47107703762124
31
0
0
LINE
5
103
100
AcDbEntity
8
0
100
AcDbLine
10
-82.463083143304274
20
120.47107703762124
30
0
11
-81.488761380754909
21
121.44539880017062
31
0
0
SPLINE
5
104
100
AcDbEntity
8
0
100
AcDbSpline
70
0
71
2
72
6
73
3
74
0
42
0.000000001
43
0.0000000001
44
0.0000000001
40
0
40
0
40
0
40
1
40
1
40
1
10
-81.48876138075488
20
121.44539880017062
30
0
10
-81.158842594107369
20
121.77531758681815
30
0
10
-80.944684657681236
20
121.90844272789178
30
0
0
SPLINE
5
105
100
AcDbEntity
8
0
100
AcDbSpline
70
0
71
2
72
6
73
3
74
0
42
0.000000001
43
0.0000000001
44
0.0000000001
40
0
40
0
40
0
40
1
40
1
40
1
10
-80.944684657681236
20
121.90844272789178
30
0
10
-80.645635487288558
20
122.09558948667713
30
0
10
-80.327292754053033
20
122.12067107622595
30
0
0
SPLINE
5
106
100
AcDbEntity
8
0
100
AcDbSpline
70
0
71
2
72
6
73
3
74
0
42
0.000000001
43
0.0000000001
44
0.0000000001
40
0
40
0
40
0
40
1
40
1
40
1
10
-80.327292754053033
20
122.12067107622595
30
0
10
-79.914411689328205
20
122.15539965793045
30
0
10
-79.509248134034181
20
121.97211144312627
30
0
0
SPLINE
5
107
100
AcDbEntity
8
0
100
AcDbSpline
70
0
71
2
72
6
73
3
74
0
42
0.000000001
43
0.0000000001
44
0.0000000001
40
0
40
0
40
0
40
1
40
1
40
1
10
-79.509248134034181
20
121.97211144312627
30
0
10
-79.104084578740157
20
121.78882322832209
30
0
10
-78.725932095719813
20
121.41067074530173
30
0
0
SPLINE
5
108
100
AcDbEntity
8
0
100
AcDbSpline
70
0
71
2
72
6
73
3
74
0
42
0.000000001
43
0.0000000001
44
0.0000000001
40
0
40
0
40
0
40
1
40
1
40
1
10
-78.725932095719813
20
121.41067074530173
30
0
10
-78.403730397034636
20
121.08846904661658
30
0
10
-78.230089174386123
20
120.76433828667506
30
0
0
SPLINE
5
109
100
AcDbEntity
8
0
100
AcDbSpline
70
0
71
2
72
6
73
3
74
0
42
0.000000001
43
0.0000000001
44
0.0000000001
40
0
40
0
40
0
40
1
40
1
40
1
10
-78.230089174386123
20
120.76433828667506
30
0
10
-78.056447741003367
20
120.44020731599929
30
0
10
-78.011108057983535
20
120.15948675635279
30
0
0
SPLINE
5
110
100
AcDbEntity
8
0
100
AcDbSpline
70
0
71
2
72
6
73
3
74
0
42
0.000000001
43
0.0000000001
44
0.0000000001
40
0
40
0
40
0
40
1
40
1
40
1
10
-78.011108057983535
20
120.15948675635279
30
0
10
-77.965767953495202
20
119.87876661817478
30
0
10
-78.012072799345944
20
119.64531501353868
30
0
0
SPLINE
5
111
100
AcDbEntity
8
0
100
AcDbSpline
70
0
71
2
72
6
73
3
74
0
42
0.000000001
43
0.0000000001
44
0.0000000001
40
0
40
0
40
0
40
1
40
1
40
1
10
-78.012072799345944
20
119.64531501353868
30
0
10
-78.058377012993944
20
119.41186361963685
30
0
10
-78.20790159819029
20
119.16587164169482
30
0
0
SPLINE
5
112
100
AcDbEntity
8
0
100
AcDbSpline
70
0
71
2
72
6
73
3
74
0
42
0.000000001
43
0.0000000001
44
0.0000000001
40
0
40
0
40
0
40
1
40
1
40
1
10
-78.20790159819029
20
119.16587164169482
30
0
10
-78.357426288753757
20
118.91987955838567
30
0
10
-78.614029789479602
20
118.66327605765983
30
0
0
LINE
5
113
100
AcDbEntity
8
0
100
AcDbLine
10
-78.614029789479602
20
118.66327605765983
30
0
11
-79.634655976411224
21
117.64264987072821
31
0
0
LINE
5
114
100
AcDbEntity
8
0
100
AcDbLine
10
-79.594139631418543
20
118.35072129844676
30
0
11
-78.990253105876491
21
118.95460782398879
31
0
0
SPLINE
5
115
100
AcDbEntity
8
0
100
AcDbSpline
70
0
71
2
72
6
73
3
74
0
42
0.000000001
43
0.0000000001
44
0.0000000001
40
0
40
0
40
0
40
1
40
1
40
1
10
-78.990253105876491
20
118.95460782398882
30
0
10
-78.710497287592403
20
119.23436364227291
30
0
10
-78.60341837206289
20
119.44562745997892
30
0
0
SPLINE
5
116
100
AcDbEntity
8
0
100
AcDbSpline
70
0
71
2
72
6
73
3
74
0
42
0.000000001
43
0.0000000001
44
0.0000000001
40
0
40
0
40
0
40
1
40
1
40
1
10
-78.60341837206289
20
119.44562745997892
30
0
10
-78.496339456533391
20
119.65689127768492
30
0
10
-78.496339456533391
20
119.8459675191951
30
0
0
SPLINE
5
117
100
AcDbEntity
8
0
100
AcDbSpline
70
0
71
2
72
6
73
3
74
0
42
0.000000001
43
0.0000000001
44
0.0000000001
40
0
40
0
40
0
40
1
40
1
40
1
10
-78.496339456533391
20
119.8459675191951
30
0
10
-78.496339456533391
20
120.11221801207661
30
0
10
-78.646828783092133
20
120.41126739320353
30
0
0
SPLINE
5
118
100
AcDbEntity
8
0
100
AcDbSpline
70
0
71
2
72
6
73
3
74
0
42
0.000000001
43
0.0000000001
44
0.0000000001
40
0
40
0
40
0
40
1
40
1
40
1
10
-78.646828783092133
20
120.41126739320353
30
0
10
-78.79731789891666
20
120.71031656359622
30
0
10
-79.117590114877004
20
121.03058877955655
30
0
0
SPLINE
5
119
100
AcDbEntity
8
0
100
AcDbSpline
70
0
71
2
72
6
73
3
74
0
42
0.000000001
43
0.0000000001
44
0.0000000001
40
0
40
0
40
0
40
1
40
1
40
1
10
-79.117590114877004
20
121.03058877955655
30
0
10
-79.561340374388195
20
121.47433903906774
30
0
10
-79.94528151631728
20
121.56694767709801
30
0
0
SPLINE
5
120
100
AcDbEntity
8
0
100
AcDbSpline
70
0
71
2
72
6
73
3
74
0
42
0.000000001
43
0.0000000001
44
0.0000000001
40
0
40
0
40
0
40
1
40
1
40
1
10
-79.94528151631728
20
121.56694767709801
30
0
10
-80.329222026043624
20
121.65955652586251
30
0
10
-80.618624415014892
20
121.53221930612776
30
0
0
SPLINE
5
121
100
AcDbEntity
8
0
100
AcDbSpline
70
0
71
2
72
6
73
3
74
0
42
0.000000001
43
0.0000000001
44
0.0000000001
40
0
40
0
40
0
40
1
40
1
40
1
10
-80.618624415014892
20
121.53221930612776
30
0
10
-80.826994324735026
20
121.43961077346462
30
0
10
-81.160771866097974
20
121.1058332321017
30
0
0
LINE
5
122
100
AcDbEntity
8
0
100
AcDbLine
10
-81.160771866097974
20
121.1058332321017
30
0
11
-81.755011715585724
21
120.51159338261394
31
0
0
LINE
5
123
100
AcDbEntity
8
0
100
AcDbLine
10
-81.755011715585709
20
120.51159338261394
30
0
11
-79.594139631418528
21
118.35072129844677
31
0
0
ENDSEC
0
SECTION
2
OBJECTS
0
DICTIONARY
5
C
100
AcDbDictionary
3
ACAD_GROUP
350
D
3
ACAD_MLINESTYLE
350
17
0
DICTIONARY
5
D
100
AcDbDictionary
0
DICTIONARY
5
1A
330
C
100
AcDbDictionary
0
DICTIONARY
5
17
100
AcDbDictionary
0
ENDSEC
0
EOF
