0
SECTION
2
HEADER
9
$INSUNITS
70
4
9
$ACADVER
1
AC1014
9
$HANDSEED
5
FFFF
0
ENDSEC
0
SECTION
2
TABLES
0
TABLE
2
VPORT
5
8
100
AcDbSymbolTable
0
ENDTAB
0
TABLE
2
LTYPE
5
5
100
AcDbSymbolTable
0
LTYPE
5
14
100
AcDbSymbolTableRecord
100
AcDbLinetypeTableRecord
2
BYBLOCK
70
0
0
LTYPE
5
15
100
AcDbSymbolTableRecord
100
AcDbLinetypeTableRecord
2
BYLAYER
70
0
0
ENDTAB
0
TABLE
2
LAYER
5
2
100
AcDbSymbolTable
70
2
0
LAYER
5
50
100
AcDbSymbolTableRecord
100
AcDbLayerTableRecord
2
0
70
0
6
CONTINUOUS
0
ENDTAB
0
TABLE
2
STYLE
5
3
100
AcDbSymbolTable
70
1
0
STYLE
5
11
100
AcDbSymbolTableRecord
100
AcDbTextStyleTableRecord
2
STANDARD
70
0
0
ENDTAB
0
TABLE
2
VIEW
5
6
100
AcDbSymbolTable
70
0
0
ENDTAB
0
TABLE
2
UCS
5
7
100
AcDbSymbolTable
70
0
0
ENDTAB
0
TABLE
2
APPID
5
9
100
AcDbSymbolTable
70
2
0
APPID
5
12
100
AcDbSymbolTableRecord
100
AcDbRegAppTableRecord
2
ACAD
70
0
0
ENDTAB
0
TABLE
2
DIMSTYLE
5
A
100
AcDbSymbolTable
70
1
0
ENDTAB
0
TABLE
2
BLOCK_RECORD
5
1
100
AcDbSymbolTable
70
1
0
BLOCK_RECORD
5
1F
100
AcDbSymbolTableRecord
100
AcDbBlockTableRecord
2
*MODEL_SPACE
0
BLOCK_RECORD
5
1B
100
AcDbSymbolTableRecord
100
AcDbBlockTableRecord
2
*PAPER_SPACE
0
ENDTAB
0
ENDSEC
0
SECTION
2
BLOCKS
0
BLOCK
5
20
100
AcDbEntity
100
AcDbBlockBegin
2
*MODEL_SPACE
0
ENDBLK
5
21
100
AcDbEntity
100
AcDbBlockEnd
0
BLOCK
5
1C
100
AcDbEntity
100
AcDbBlockBegin
2
*PAPER_SPACE
0
ENDBLK
5
1D
100
AcDbEntity
100
AcDbBlockEnd
0
ENDSEC
0
SECTION
2
ENTITIES
0
LWPOLYLINE
5
100
100
AcDbEntity
8
0
100
AcDbPolyline
90
14
70
1
43
0.0
10
-58.50227232247051
20
120.63556200090174
10
-60.11394102166382
20
122.98609896170284
10
-64.237697187584104
20
120.15862038809823
10
-65.923351230101019
20
122.61706121532468
10
-55.333323061421986
20
129.87821779684825
10
-43.582160075362147
20
135.0534723789776
10
-42.338750327855479
20
132.23013096271927
10
-47.934969666658361
20
129.76553577243067
10
-46.786282714834158
20
127.15727614449698
10
-41.19006337603124
20
129.62187133478557
10
-39.954727595917213
20
126.81686302760806
10
-50.936873397743256
20
121.98028638834812
10
-60.83387112740138
20
115.19431291808152
10
-62.626028488390787
20
117.80808342729711
0
LWPOLYLINE
5
101
100
AcDbEntity
8
0
100
AcDbPolyline
90
4
70
1
43
0.0
10
-52.930487808494895
20
125.78339060018709
10
-54.814775321803779
20
124.90473290256533
10
-56.011752050309894
20
127.47165778053558
10
-54.127464537001011
20
128.35031547815734
0
LINE
5
102
100
AcDbEntity
8
0
100
AcDbLine
10
-53.473263375577318
20
123.07375755587071
30
0
11
-55.163736447730123
21
126.69898875803746
31
0
0
LINE
5
103
100
AcDbEntity
8
0
100
AcDbLine
10
-55.163736447730123
20
126.69898875803746
30
0
11
-52.542491680304977
21
127.92129526698652
31
0
0
LINE
5
104
100
AcDbEntity
8
0
100
AcDbLine
10
-52.542491680304977
20
127.92129526698652
30
0
11
-52.343002030238004
21
127.49348833184786
31
0
0
LINE
5
105
100
AcDbEntity
8
0
100
AcDbLine
10
-52.343002030238004
20
127.49348833184786
30
0
11
-54.484509545992225
21
126.49488697725519
31
0
0
LINE
5
106
100
AcDbEntity
8
0
100
AcDbLine
10
-54.484509545992225
20
126.49488697725519
30
0
11
-53.966758838464308
21
125.38456700186288
31
0
0
LINE
5
107
100
AcDbEntity
8
0
100
AcDbLine
10
-53.966758838464308
20
125.38456700186288
30
0
11
-51.961259214193205
21
126.31974683508746
31
0
0
LINE
5
108
100
AcDbEntity
8
0
100
AcDbLine
10
-51.96125921419322
20
126.31974683508744
30
0
11
-51.762922636896548
21
125.89441267248458
31
0
0
LINE
5
109
100
AcDbEntity
8
0
100
AcDbLine
10
-51.762922636896548
20
125.89441267248458
30
0
11
-53.76842226116765
21
124.95923283925998
31
0
0
LINE
5
110
100
AcDbEntity
8
0
100
AcDbLine
10
-53.76842226116765
20
124.95923283926001
30
0
11
-53.193015773973364
21
123.72526964536576
31
0
0
LINE
5
111
100
AcDbEntity
8
0
100
AcDbLine
10
-53.193015773973357
20
123.72526964536574
30
0
11
-50.96743048069272
21
124.76307711149963
31
0
0
LINE
5
112
100
AcDbEntity
8
0
100
AcDbLine
10
-50.96743048069272
20
124.76307711149964
30
0
11
-50.767940830625747
21
124.33527017636098
31
0
0
LINE
5
113
100
AcDbEntity
8
0
100
AcDbLine
10
-50.767940830625747
20
124.33527017636098
30
0
11
-53.473263375577318
21
123.07375755587071
31
0
0
ENDSEC
0
SECTION
2
OBJECTS
0
DICTIONARY
5
C
100
AcDbDictionary
3
ACAD_GROUP
350
D
3
ACAD_MLINESTYLE
350
17
0
DICTIONARY
5
D
100
AcDbDictionary
0
DICTIONARY
5
1A
330
C
100
AcDbDictionary
0
DICTIONARY
5
17
100
AcDbDictionary
0
ENDSEC
0
EOF
