0
SECTION
2
HEADER
9
$INSUNITS
70
4
9
$ACADVER
1
AC1014
9
$HANDSEED
5
FFFF
0
ENDSEC
0
SECTION
2
TABLES
0
TABLE
2
VPORT
5
8
100
AcDbSymbolTable
0
ENDTAB
0
TABLE
2
LTYPE
5
5
100
AcDbSymbolTable
0
LTYPE
5
14
100
AcDbSymbolTableRecord
100
AcDbLinetypeTableRecord
2
BYBLOCK
70
0
0
LTYPE
5
15
100
AcDbSymbolTableRecord
100
AcDbLinetypeTableRecord
2
BYLAYER
70
0
0
ENDTAB
0
TABLE
2
LAYER
5
2
100
AcDbSymbolTable
70
2
0
LAYER
5
50
100
AcDbSymbolTableRecord
100
AcDbLayerTableRecord
2
0
70
0
6
CONTINUOUS
0
ENDTAB
0
TABLE
2
STYLE
5
3
100
AcDbSymbolTable
70
1
0
STYLE
5
11
100
AcDbSymbolTableRecord
100
AcDbTextStyleTableRecord
2
STANDARD
70
0
0
ENDTAB
0
TABLE
2
VIEW
5
6
100
AcDbSymbolTable
70
0
0
ENDTAB
0
TABLE
2
UCS
5
7
100
AcDbSymbolTable
70
0
0
ENDTAB
0
TABLE
2
APPID
5
9
100
AcDbSymbolTable
70
2
0
APPID
5
12
100
AcDbSymbolTableRecord
100
AcDbRegAppTableRecord
2
ACAD
70
0
0
ENDTAB
0
TABLE
2
DIMSTYLE
5
A
100
AcDbSymbolTable
70
1
0
ENDTAB
0
TABLE
2
BLOCK_RECORD
5
1
100
AcDbSymbolTable
70
1
0
BLOCK_RECORD
5
1F
100
AcDbSymbolTableRecord
100
AcDbBlockTableRecord
2
*MODEL_SPACE
0
BLOCK_RECORD
5
1B
100
AcDbSymbolTableRecord
100
AcDbBlockTableRecord
2
*PAPER_SPACE
0
ENDTAB
0
ENDSEC
0
SECTION
2
BLOCKS
0
BLOCK
5
20
100
AcDbEntity
100
AcDbBlockBegin
2
*MODEL_SPACE
0
ENDBLK
5
21
100
AcDbEntity
100
AcDbBlockEnd
0
BLOCK
5
1C
100
AcDbEntity
100
AcDbBlockBegin
2
*PAPER_SPACE
0
ENDBLK
5
1D
100
AcDbEntity
100
AcDbBlockEnd
0
ENDSEC
0
SECTION
2
ENTITIES
0
LWPOLYLINE
5
100
100
AcDbEntity
8
0
100
AcDbPolyline
90
14
70
1
43
0.0
10
-108.94147638466377
20
81.917225092200695
10
-111.54269965747403
20
83.081758254025885
10
-114.70874767362093
20
76.009741713485866
10
-117.33298539162492
20
77.184578137206984
10
-111.420539952125
20
90.391235689441316
10
-99.538278645888582
20
98.770941733775274
10
-98.195311766149104
20
96.866640639409894
10
-102.96168529323236
20
93.505217610255215
10
-101.31915518613468
20
91.1761416459386
10
-96.552781659051305
20
94.537564675093307
10
-94.351341465669151
20
91.415965004481222
10
-104.2152985855916
20
84.45962403801191
10
-109.11859610906657
20
73.507104994600752
10
-112.10752440081077
20
74.845208551660562
0
LINE
5
101
100
AcDbEntity
8
0
100
AcDbLine
10
-109.46006621400011
20
86.968372423404347
30
-0.51173654365642918
11
-108.20449550992832
21
88.021921338107973
31
-0.51173654365642918
0
LINE
5
102
100
AcDbEntity
8
0
100
AcDbLine
10
-108.20449550992832
20
88.021921338107973
30
-0.51173654365642918
11
-110.29477844337652
21
90.513023533583223
31
-0.51173654365642918
0
LINE
5
103
100
AcDbEntity
8
0
100
AcDbLine
10
-110.29477844337652
20
90.513023533583223
30
-0.51173654365642918
11
-111.55034914744832
21
89.459474618879597
31
-0.51173654365642918
0
LINE
5
104
100
AcDbEntity
8
0
100
AcDbLine
10
-111.55034914744832
20
89.459474618879597
30
-0.51173654365642918
11
-109.46006621400011
21
86.968372423404347
31
-0.51173654365642918
0
LINE
5
105
100
AcDbEntity
8
0
100
AcDbLine
10
-107.95591671363059
20
85.871946135695168
30
-0.51173654365642918
11
-110.52706719068988
21
88.936123953830887
31
-0.51173654365642918
0
LINE
5
106
100
AcDbEntity
8
0
100
AcDbLine
10
-110.52706719068988
20
88.936123953830887
30
-0.51173654365642918
11
-110.12157574390302
21
89.276371677275279
31
-0.51173654365642918
0
LINE
5
107
100
AcDbEntity
8
0
100
AcDbLine
10
-110.12157574390302
20
89.276371677275264
30
-0.51173654365642918
11
-109.06575542103823
21
88.018094014367165
31
-0.51173654365642918
0
LINE
5
108
100
AcDbEntity
8
0
100
AcDbLine
10
-109.06575542103823
20
88.018094014367165
30
-0.51173654365642918
11
-107.47305174849745
21
89.354531078570801
31
-0.51173654365642918
0
LINE
5
109
100
AcDbEntity
8
0
100
AcDbLine
10
-107.47305174849745
20
89.35453107857083
30
-0.51173654365642918
11
-108.52887207136226
21
90.612808741478915
31
-0.51173654365642918
0
LINE
5
110
100
AcDbEntity
8
0
100
AcDbLine
10
-108.52887207136227
20
90.612808741478915
30
-0.51173654365642918
11
-108.12338056750066
21
90.953056512814712
31
-0.51173654365642918
0
LINE
5
111
100
AcDbEntity
8
0
100
AcDbLine
10
-108.12338056750065
20
90.953056512814712
30
-0.51173654365642918
11
-105.55223009044136
21
87.888878694678993
31
-0.51173654365642918
0
LINE
5
112
100
AcDbEntity
8
0
100
AcDbLine
10
-105.55223009044136
20
87.888878694678993
30
-0.51173654365642918
11
-105.95772159430297
21
87.548630923343197
31
-0.51173654365642918
0
LINE
5
113
100
AcDbEntity
8
0
100
AcDbLine
10
-105.95772159430297
20
87.548630923343197
30
-0.51173654365642918
11
-107.16963496097959
21
88.99293303199299
31
-0.51173654365642918
0
LINE
5
114
100
AcDbEntity
8
0
100
AcDbLine
10
-107.16963496097959
20
88.992933031993005
30
-0.51173654365642918
11
-108.76233863352036
21
87.656495967789368
31
-0.51173654365642918
0
LINE
5
115
100
AcDbEntity
8
0
100
AcDbLine
10
-108.76233863352036
20
87.656495967789354
30
-0.51173654365642918
11
-107.55042526684375
21
86.212193859139575
31
-0.51173654365642918
0
LINE
5
116
100
AcDbEntity
8
0
100
AcDbLine
10
-107.55042526684375
20
86.212193859139575
30
-0.51173654365642918
11
-107.95591671363059
21
85.871946135695168
31
-0.51173654365642918
0
ENDSEC
0
SECTION
2
OBJECTS
0
DICTIONARY
5
C
100
AcDbDictionary
3
ACAD_GROUP
350
D
3
ACAD_MLINESTYLE
350
17
0
DICTIONARY
5
D
100
AcDbDictionary
0
DICTIONARY
5
1A
330
C
100
AcDbDictionary
0
DICTIONARY
5
17
100
AcDbDictionary
0
ENDSEC
0
EOF
