0
SECTION
2
HEADER
9
$INSUNITS
70
4
9
$ACADVER
1
AC1014
9
$HANDSEED
5
FFFF
0
ENDSEC
0
SECTION
2
TABLES
0
TABLE
2
VPORT
5
8
100
AcDbSymbolTable
0
ENDTAB
0
TABLE
2
LTYPE
5
5
100
AcDbSymbolTable
0
LTYPE
5
14
100
AcDbSymbolTableRecord
100
AcDbLinetypeTableRecord
2
BYBLOCK
70
0
0
LTYPE
5
15
100
AcDbSymbolTableRecord
100
AcDbLinetypeTableRecord
2
BYLAYER
70
0
0
ENDTAB
0
TABLE
2
LAYER
5
2
100
AcDbSymbolTable
70
2
0
LAYER
5
50
100
AcDbSymbolTableRecord
100
AcDbLayerTableRecord
2
0
70
0
6
CONTINUOUS
0
ENDTAB
0
TABLE
2
STYLE
5
3
100
AcDbSymbolTable
70
1
0
STYLE
5
11
100
AcDbSymbolTableRecord
100
AcDbTextStyleTableRecord
2
STANDARD
70
0
0
ENDTAB
0
TABLE
2
VIEW
5
6
100
AcDbSymbolTable
70
0
0
ENDTAB
0
TABLE
2
UCS
5
7
100
AcDbSymbolTable
70
0
0
ENDTAB
0
TABLE
2
APPID
5
9
100
AcDbSymbolTable
70
2
0
APPID
5
12
100
AcDbSymbolTableRecord
100
AcDbRegAppTableRecord
2
ACAD
70
0
0
ENDTAB
0
TABLE
2
DIMSTYLE
5
A
100
AcDbSymbolTable
70
1
0
ENDTAB
0
TABLE
2
BLOCK_RECORD
5
1
100
AcDbSymbolTable
70
1
0
BLOCK_RECORD
5
1F
100
AcDbSymbolTableRecord
100
AcDbBlockTableRecord
2
*MODEL_SPACE
0
BLOCK_RECORD
5
1B
100
AcDbSymbolTableRecord
100
AcDbBlockTableRecord
2
*PAPER_SPACE
0
ENDTAB
0
ENDSEC
0
SECTION
2
BLOCKS
0
BLOCK
5
20
100
AcDbEntity
100
AcDbBlockBegin
2
*MODEL_SPACE
0
ENDBLK
5
21
100
AcDbEntity
100
AcDbBlockEnd
0
BLOCK
5
1C
100
AcDbEntity
100
AcDbBlockBegin
2
*PAPER_SPACE
0
ENDBLK
5
1D
100
AcDbEntity
100
AcDbBlockEnd
0
ENDSEC
0
SECTION
2
ENTITIES
0
LWPOLYLINE
5
100
100
AcDbEntity
8
0
100
AcDbPolyline
90
4
70
1
43
0.0
10
100
20
0
10
0
20
0
10
0
20
150
10
100
20
150
0
LWPOLYLINE
5
101
100
AcDbEntity
8
0
100
AcDbPolyline
90
4
70
1
43
0.0
10
41.497216573634944
20
112.01786985478535
10
31.497216573634947
20
112.01786985478535
10
31.497216573634947
20
102.01786985478535
10
41.497216573634944
20
102.01786985478535
0
LWPOLYLINE
5
102
100
AcDbEntity
8
0
100
AcDbPolyline
90
4
70
1
43
0.0
10
44.497216573634958
20
102.01786985478535
10
54.497216573634958
20
102.01786985478535
10
54.497216573634944
20
112.01786985478535
10
44.497216573634958
20
112.01786985478535
0
LWPOLYLINE
5
103
100
AcDbEntity
8
0
100
AcDbPolyline
90
4
70
1
43
0.0
10
57.497216573634951
20
102.01786985478535
10
67.497216573634958
20
102.01786985478535
10
67.497216573634958
20
112.01786985478535
10
57.497216573634951
20
112.01786985478535
0
LWPOLYLINE
5
104
100
AcDbEntity
8
0
100
AcDbPolyline
90
4
70
1
43
0.0
10
70.497216573634944
20
102.01786985478535
10
80.497216573634944
20
102.01786985478535
10
80.497216573634944
20
112.01786985478535
10
70.497216573634944
20
112.01786985478535
0
LWPOLYLINE
5
105
100
AcDbEntity
8
0
100
AcDbPolyline
90
4
70
1
43
0.0
10
83.497216573634958
20
102.01786985478535
10
93.497216573634958
20
102.01786985478535
10
93.497216573634958
20
112.01786985478535
10
83.497216573634958
20
112.01786985478535
0
LWPOLYLINE
5
106
100
AcDbEntity
8
0
100
AcDbPolyline
90
4
70
1
43
0.0
10
31.497216573634947
20
87.017869854785346
10
41.497216573634944
20
87.017869854785346
10
41.497216573634944
20
97.017869854785346
10
31.497216573634947
20
97.017869854785346
0
LWPOLYLINE
5
107
100
AcDbEntity
8
0
100
AcDbPolyline
90
4
70
1
43
0.0
10
44.497216573634958
20
87.017869854785346
10
54.497216573634958
20
87.017869854785346
10
54.497216573634944
20
97.017869854785346
10
44.497216573634958
20
97.017869854785346
0
LWPOLYLINE
5
108
100
AcDbEntity
8
0
100
AcDbPolyline
90
4
70
1
43
0.0
10
57.497216573634951
20
87.017869854785346
10
67.497216573634958
20
87.017869854785346
10
67.497216573634958
20
97.017869854785346
10
57.497216573634951
20
97.017869854785346
0
LWPOLYLINE
5
109
100
AcDbEntity
8
0
100
AcDbPolyline
90
4
70
1
43
0.0
10
70.497216573634944
20
87.017869854785346
10
80.497216573634944
20
87.017869854785346
10
80.497216573634944
20
97.017869854785346
10
70.497216573634944
20
97.017869854785346
0
LWPOLYLINE
5
110
100
AcDbEntity
8
0
100
AcDbPolyline
90
4
70
1
43
0.0
10
83.497216573634958
20
87.017869854785346
10
93.497216573634958
20
87.017869854785346
10
93.497216573634958
20
97.017869854785346
10
83.497216573634958
20
97.017869854785346
0
LWPOLYLINE
5
111
100
AcDbEntity
8
0
100
AcDbPolyline
90
4
70
1
43
0.0
10
31.497216573634947
20
72.017869854785346
10
41.497216573634944
20
72.017869854785346
10
41.497216573634944
20
82.017869854785346
10
31.497216573634947
20
82.017869854785346
0
LWPOLYLINE
5
112
100
AcDbEntity
8
0
100
AcDbPolyline
90
4
70
1
43
0.0
10
44.497216573634958
20
72.017869854785346
10
54.497216573634958
20
72.017869854785346
10
54.497216573634944
20
82.017869854785346
10
44.497216573634958
20
82.017869854785346
0
LWPOLYLINE
5
113
100
AcDbEntity
8
0
100
AcDbPolyline
90
4
70
1
43
0.0
10
57.497216573634951
20
72.017869854785346
10
67.497216573634958
20
72.017869854785346
10
67.497216573634958
20
82.017869854785346
10
57.497216573634951
20
82.017869854785346
0
LWPOLYLINE
5
114
100
AcDbEntity
8
0
100
AcDbPolyline
90
4
70
1
43
0.0
10
70.497216573634944
20
72.017869854785346
10
80.497216573634944
20
72.017869854785346
10
80.497216573634944
20
82.017869854785346
10
70.497216573634944
20
82.017869854785346
0
LWPOLYLINE
5
115
100
AcDbEntity
8
0
100
AcDbPolyline
90
4
70
1
43
0.0
10
83.497216573634958
20
72.017869854785346
10
93.497216573634958
20
72.017869854785346
10
93.497216573634958
20
82.017869854785346
10
83.497216573634958
20
82.017869854785346
0
LWPOLYLINE
5
116
100
AcDbEntity
8
0
100
AcDbPolyline
90
4
70
1
43
0.0
10
31.497216573634947
20
57.017869854785346
10
41.497216573634944
20
57.017869854785346
10
41.497216573634944
20
67.017869854785346
10
31.497216573634947
20
67.017869854785346
0
LWPOLYLINE
5
117
100
AcDbEntity
8
0
100
AcDbPolyline
90
4
70
1
43
0.0
10
44.497216573634958
20
57.017869854785346
10
54.497216573634958
20
57.017869854785346
10
54.497216573634944
20
67.017869854785346
10
44.497216573634958
20
67.017869854785346
0
LWPOLYLINE
5
118
100
AcDbEntity
8
0
100
AcDbPolyline
90
4
70
1
43
0.0
10
57.497216573634951
20
57.017869854785346
10
67.497216573634958
20
57.017869854785346
10
67.497216573634958
20
67.017869854785346
10
57.497216573634951
20
67.017869854785346
0
LWPOLYLINE
5
119
100
AcDbEntity
8
0
100
AcDbPolyline
90
4
70
1
43
0.0
10
70.497216573634944
20
57.017869854785346
10
80.497216573634944
20
57.017869854785346
10
80.497216573634944
20
67.017869854785346
10
70.497216573634944
20
67.017869854785346
0
LWPOLYLINE
5
120
100
AcDbEntity
8
0
100
AcDbPolyline
90
4
70
1
43
0.0
10
83.497216573634958
20
57.017869854785346
10
93.497216573634958
20
57.017869854785346
10
93.497216573634958
20
67.017869854785346
10
83.497216573634958
20
67.017869854785346
0
LWPOLYLINE
5
121
100
AcDbEntity
8
0
100
AcDbPolyline
90
4
70
1
43
0.0
10
31.497216573634947
20
42.017869854785346
10
41.497216573634944
20
42.017869854785346
10
41.497216573634944
20
52.017869854785346
10
31.497216573634947
20
52.017869854785346
0
LWPOLYLINE
5
122
100
AcDbEntity
8
0
100
AcDbPolyline
90
4
70
1
43
0.0
10
44.497216573634958
20
42.017869854785346
10
54.497216573634958
20
42.017869854785346
10
54.497216573634944
20
52.017869854785346
10
44.497216573634958
20
52.017869854785346
0
LWPOLYLINE
5
123
100
AcDbEntity
8
0
100
AcDbPolyline
90
4
70
1
43
0.0
10
57.497216573634951
20
42.017869854785346
10
67.497216573634958
20
42.017869854785346
10
67.497216573634958
20
52.017869854785346
10
57.497216573634951
20
52.017869854785346
0
LWPOLYLINE
5
124
100
AcDbEntity
8
0
100
AcDbPolyline
90
4
70
1
43
0.0
10
70.497216573634944
20
42.017869854785346
10
80.497216573634944
20
42.017869854785346
10
80.497216573634944
20
52.017869854785346
10
70.497216573634944
20
52.017869854785346
0
LWPOLYLINE
5
125
100
AcDbEntity
8
0
100
AcDbPolyline
90
4
70
1
43
0.0
10
83.497216573634958
20
42.017869854785346
10
93.497216573634958
20
42.017869854785346
10
93.497216573634958
20
52.017869854785346
10
83.497216573634958
20
52.017869854785346
0
LWPOLYLINE
5
126
100
AcDbEntity
8
0
100
AcDbPolyline
90
4
70
1
43
0.0
10
31.497216573634947
20
27.017869854785346
10
41.497216573634944
20
27.017869854785346
10
41.497216573634944
20
37.017869854785346
10
31.497216573634947
20
37.017869854785346
0
LWPOLYLINE
5
127
100
AcDbEntity
8
0
100
AcDbPolyline
90
4
70
1
43
0.0
10
44.497216573634958
20
27.017869854785346
10
54.497216573634958
20
27.017869854785346
10
54.497216573634944
20
37.017869854785346
10
44.497216573634958
20
37.017869854785346
0
LWPOLYLINE
5
128
100
AcDbEntity
8
0
100
AcDbPolyline
90
4
70
1
43
0.0
10
57.497216573634951
20
27.017869854785346
10
67.497216573634958
20
27.017869854785346
10
67.497216573634958
20
37.017869854785346
10
57.497216573634951
20
37.017869854785346
0
LWPOLYLINE
5
129
100
AcDbEntity
8
0
100
AcDbPolyline
90
4
70
1
43
0.0
10
70.497216573634944
20
27.017869854785346
10
80.497216573634944
20
27.017869854785346
10
80.497216573634944
20
37.017869854785346
10
70.497216573634944
20
37.017869854785346
0
LWPOLYLINE
5
130
100
AcDbEntity
8
0
100
AcDbPolyline
90
4
70
1
43
0.0
10
83.497216573634958
20
27.017869854785346
10
93.497216573634958
20
27.017869854785346
10
93.497216573634958
20
37.017869854785346
10
83.497216573634958
20
37.017869854785346
0
LWPOLYLINE
5
131
100
AcDbEntity
8
0
100
AcDbPolyline
90
4
70
1
43
0.0
10
31.497216573634947
20
12.017869854785346
10
41.497216573634944
20
12.017869854785346
10
41.497216573634944
20
22.017869854785346
10
31.497216573634947
20
22.017869854785346
0
LWPOLYLINE
5
132
100
AcDbEntity
8
0
100
AcDbPolyline
90
4
70
1
43
0.0
10
44.497216573634958
20
12.017869854785346
10
54.497216573634958
20
12.017869854785346
10
54.497216573634944
20
22.017869854785346
10
44.497216573634958
20
22.017869854785346
0
LWPOLYLINE
5
133
100
AcDbEntity
8
0
100
AcDbPolyline
90
4
70
1
43
0.0
10
57.497216573634951
20
12.017869854785346
10
67.497216573634958
20
12.017869854785346
10
67.497216573634958
20
22.017869854785346
10
57.497216573634951
20
22.017869854785346
0
LWPOLYLINE
5
134
100
AcDbEntity
8
0
100
AcDbPolyline
90
4
70
1
43
0.0
10
70.497216573634944
20
12.017869854785346
10
80.497216573634944
20
12.017869854785346
10
80.497216573634944
20
22.017869854785346
10
70.497216573634944
20
22.017869854785346
0
LWPOLYLINE
5
135
100
AcDbEntity
8
0
100
AcDbPolyline
90
4
70
1
43
0.0
10
83.497216573634958
20
12.017869854785346
10
93.497216573634958
20
12.017869854785346
10
93.497216573634958
20
22.017869854785346
10
83.497216573634958
20
22.017869854785346
0
LINE
5
136
100
AcDbEntity
8
0
100
AcDbLine
10
31.497216573634947
20
122.01786985478535
30
0
11
46.497216573634944
21
122.01786985478535
31
0
0
LWPOLYLINE
5
137
100
AcDbEntity
8
0
100
AcDbPolyline
90
3
70
1
43
0.0
10
48.22926738120384
20
122.01786985478536
10
46.497216573634944
20
121.01786985478535
10
46.497216573634944
20
123.01786985478535
0
LINE
5
138
100
AcDbEntity
8
0
100
AcDbLine
10
21.497216573634951
20
112.01786985478535
30
0
11
21.497216573634947
21
97.017869854785346
31
0
0
LWPOLYLINE
5
139
100
AcDbEntity
8
0
100
AcDbPolyline
90
3
70
1
43
0.0
10
21.497216573634944
20
95.285819047216449
10
20.497216573634947
20
97.017869854785346
10
22.497216573634947
20
97.017869854785332
0
LWPOLYLINE
5
140
100
AcDbEntity
8
0
100
AcDbPolyline
90
4
70
1
43
0.0
10
164.49721657363497
20
57.017869854785346
10
164.49721657363494
20
67.017869854785346
10
154.49721657363494
20
67.017869854785346
10
154.49721657363494
20
57.017869854785346
0
LWPOLYLINE
5
141
100
AcDbEntity
8
0
100
AcDbPolyline
90
3
70
1
43
0.0
10
156.49721657363494
20
123.01786985478535
10
158.22926738120384
20
122.01786985478536
10
156.49721657363494
20
121.01786985478535
0
LWPOLYLINE
5
142
100
AcDbEntity
8
0
100
AcDbPolyline
90
4
70
1
43
0.0
10
151.49721657363494
20
57.017869854785346
10
151.49721657363494
20
67.017869854785346
10
141.49721657363494
20
67.017869854785346
10
141.49721657363494
20
57.017869854785346
0
LWPOLYLINE
5
143
100
AcDbEntity
8
0
100
AcDbPolyline
90
4
70
1
43
0.0
10
190.49721657363494
20
42.017869854785346
10
190.49721657363494
20
52.017869854785346
10
180.49721657363494
20
52.017869854785346
10
180.49721657363494
20
42.017869854785346
0
LWPOLYLINE
5
144
100
AcDbEntity
8
0
100
AcDbPolyline
90
4
70
1
43
0.0
10
203.49721657363494
20
52.017869854785346
10
193.49721657363494
20
52.017869854785346
10
193.49721657363494
20
42.017869854785346
10
203.49721657363494
20
42.017869854785346
0
LWPOLYLINE
5
145
100
AcDbEntity
8
0
100
AcDbPolyline
90
4
70
1
43
0.0
10
110
20
0
10
110
20
150
10
210
20
150
10
210
20
0
0
LWPOLYLINE
5
146
100
AcDbEntity
8
0
100
AcDbPolyline
90
4
70
1
43
0.0
10
151.49721657363494
20
102.01786985478535
10
151.49721657363494
20
112.01786985478535
10
141.49721657363494
20
112.01786985478535
10
141.49721657363494
20
102.01786985478535
0
LWPOLYLINE
5
147
100
AcDbEntity
8
0
100
AcDbPolyline
90
4
70
1
43
0.0
10
203.49721657363494
20
102.01786985478535
10
203.49721657363494
20
112.01786985478535
10
193.49721657363494
20
112.01786985478535
10
193.49721657363494
20
102.01786985478535
0
LWPOLYLINE
5
148
100
AcDbEntity
8
0
100
AcDbPolyline
90
4
70
1
43
0.0
10
193.49721657363494
20
72.017869854785346
10
203.49721657363494
20
72.017869854785346
10
203.49721657363494
20
82.017869854785346
10
193.49721657363494
20
82.017869854785346
0
LWPOLYLINE
5
149
100
AcDbEntity
8
0
100
AcDbPolyline
90
4
70
1
43
0.0
10
151.49721657363494
20
52.017869854785346
10
141.49721657363494
20
52.017869854785346
10
141.49721657363494
20
42.017869854785346
10
151.49721657363494
20
42.017869854785346
0
LWPOLYLINE
5
150
100
AcDbEntity
8
0
100
AcDbPolyline
90
4
70
1
43
0.0
10
154.49721657363494
20
12.017869854785346
10
164.49721657363497
20
12.017869854785346
10
164.49721657363494
20
22.017869854785346
10
154.49721657363494
20
22.017869854785346
0
LWPOLYLINE
5
151
100
AcDbEntity
8
0
100
AcDbPolyline
90
4
70
1
43
0.0
10
154.49721657363494
20
52.017869854785346
10
154.49721657363494
20
42.017869854785346
10
164.49721657363497
20
42.017869854785346
10
164.49721657363494
20
52.017869854785346
0
LWPOLYLINE
5
152
100
AcDbEntity
8
0
100
AcDbPolyline
90
4
70
1
43
0.0
10
151.49721657363494
20
37.017869854785346
10
141.49721657363494
20
37.017869854785346
10
141.49721657363494
20
27.017869854785346
10
151.49721657363494
20
27.017869854785346
0
LWPOLYLINE
5
153
100
AcDbEntity
8
0
100
AcDbPolyline
90
4
70
1
43
0.0
10
167.49721657363494
20
12.017869854785346
10
177.49721657363494
20
12.017869854785346
10
177.49721657363494
20
22.017869854785346
10
167.49721657363494
20
22.017869854785346
0
LWPOLYLINE
5
154
100
AcDbEntity
8
0
100
AcDbPolyline
90
4
70
1
43
0.0
10
154.49721657363494
20
72.017869854785346
10
164.49721657363497
20
72.017869854785346
10
164.49721657363494
20
82.017869854785346
10
154.49721657363494
20
82.017869854785346
0
LWPOLYLINE
5
155
100
AcDbEntity
8
0
100
AcDbPolyline
90
4
70
1
43
0.0
10
203.49721657363494
20
37.017869854785346
10
193.49721657363494
20
37.017869854785346
10
193.49721657363494
20
27.017869854785346
10
203.49721657363494
20
27.017869854785346
0
LWPOLYLINE
5
156
100
AcDbEntity
8
0
100
AcDbPolyline
90
4
70
1
43
0.0
10
177.49721657363494
20
42.017869854785346
10
177.49721657363494
20
52.017869854785346
10
167.49721657363494
20
52.017869854785346
10
167.49721657363494
20
42.017869854785346
0
LWPOLYLINE
5
157
100
AcDbEntity
8
0
100
AcDbPolyline
90
4
70
1
43
0.0
10
193.49721657363494
20
87.017869854785346
10
203.49721657363494
20
87.017869854785346
10
203.49721657363494
20
97.017869854785346
10
193.49721657363494
20
97.017869854785346
0
LWPOLYLINE
5
158
100
AcDbEntity
8
0
100
AcDbPolyline
90
4
70
1
43
0.0
10
180.49721657363494
20
97.017869854785346
10
180.49721657363494
20
87.017869854785346
10
190.49721657363494
20
87.017869854785346
10
190.49721657363494
20
97.017869854785346
0
LWPOLYLINE
5
159
100
AcDbEntity
8
0
100
AcDbPolyline
90
4
70
1
43
0.0
10
167.49721657363494
20
57.017869854785346
10
177.49721657363494
20
57.017869854785346
10
177.49721657363494
20
67.017869854785346
10
167.49721657363494
20
67.017869854785346
0
LWPOLYLINE
5
160
100
AcDbEntity
8
0
100
AcDbPolyline
90
4
70
1
43
0.0
10
190.49721657363494
20
102.01786985478535
10
190.49721657363494
20
112.01786985478535
10
180.49721657363494
20
112.01786985478535
10
180.49721657363494
20
102.01786985478535
0
LWPOLYLINE
5
161
100
AcDbEntity
8
0
100
AcDbPolyline
90
4
70
1
43
0.0
10
177.49721657363494
20
27.017869854785346
10
177.49721657363494
20
37.017869854785346
10
167.49721657363494
20
37.017869854785346
10
167.49721657363494
20
27.017869854785346
0
LWPOLYLINE
5
162
100
AcDbEntity
8
0
100
AcDbPolyline
90
4
70
1
43
0.0
10
154.49721657363494
20
27.017869854785346
10
164.49721657363497
20
27.017869854785346
10
164.49721657363494
20
37.017869854785346
10
154.49721657363494
20
37.017869854785346
0
LWPOLYLINE
5
163
100
AcDbEntity
8
0
100
AcDbPolyline
90
3
70
1
43
0.0
10
130.49721657363494
20
97.017869854785346
10
132.49721657363494
20
97.017869854785332
10
131.49721657363494
20
95.285819047216449
0
LWPOLYLINE
5
164
100
AcDbEntity
8
0
100
AcDbPolyline
90
4
70
1
43
0.0
10
193.49721657363494
20
22.017869854785346
10
193.49721657363494
20
12.017869854785346
10
203.49721657363494
20
12.017869854785346
10
203.49721657363494
20
22.017869854785346
0
LWPOLYLINE
5
165
100
AcDbEntity
8
0
100
AcDbPolyline
90
4
70
1
43
0.0
10
141.49721657363494
20
87.017869854785346
10
151.49721657363494
20
87.017869854785346
10
151.49721657363494
20
97.017869854785346
10
141.49721657363494
20
97.017869854785346
0
LWPOLYLINE
5
166
100
AcDbEntity
8
0
100
AcDbPolyline
90
4
70
1
43
0.0
10
167.49721657363494
20
82.017869854785346
10
167.49721657363494
20
72.017869854785346
10
177.49721657363494
20
72.017869854785346
10
177.49721657363494
20
82.017869854785346
0
LWPOLYLINE
5
167
100
AcDbEntity
8
0
100
AcDbPolyline
90
4
70
1
43
0.0
10
154.49721657363494
20
102.01786985478535
10
164.49721657363497
20
102.01786985478535
10
164.49721657363494
20
112.01786985478535
10
154.49721657363494
20
112.01786985478535
0
LWPOLYLINE
5
168
100
AcDbEntity
8
0
100
AcDbPolyline
90
4
70
1
43
0.0
10
141.49721657363494
20
22.017869854785346
10
141.49721657363494
20
12.017869854785346
10
151.49721657363494
20
12.017869854785346
10
151.49721657363494
20
22.017869854785346
0
LWPOLYLINE
5
169
100
AcDbEntity
8
0
100
AcDbPolyline
90
4
70
1
43
0.0
10
151.49721657363494
20
82.017869854785346
10
141.49721657363494
20
82.017869854785346
10
141.49721657363494
20
72.017869854785346
10
151.49721657363494
20
72.017869854785346
0
LWPOLYLINE
5
170
100
AcDbEntity
8
0
100
AcDbPolyline
90
4
70
1
43
0.0
10
154.49721657363494
20
87.017869854785346
10
164.49721657363497
20
87.017869854785346
10
164.49721657363494
20
97.017869854785346
10
154.49721657363494
20
97.017869854785346
0
LWPOLYLINE
5
171
100
AcDbEntity
8
0
100
AcDbPolyline
90
4
70
1
43
0.0
10
167.49721657363494
20
97.017869854785346
10
167.49721657363494
20
87.017869854785346
10
177.49721657363494
20
87.017869854785346
10
177.49721657363494
20
97.017869854785346
0
LINE
5
172
100
AcDbEntity
8
0
100
AcDbLine
10
131.49721657363494
20
112.01786985478535
30
0
11
131.49721657363494
21
97.017869854785346
31
0
0
LWPOLYLINE
5
173
100
AcDbEntity
8
0
100
AcDbPolyline
90
4
70
1
43
0.0
10
190.49721657363494
20
72.017869854785346
10
190.49721657363494
20
82.017869854785346
10
180.49721657363494
20
82.017869854785346
10
180.49721657363494
20
72.017869854785346
0
LWPOLYLINE
5
174
100
AcDbEntity
8
0
100
AcDbPolyline
90
4
70
1
43
0.0
10
167.49721657363494
20
102.01786985478535
10
177.49721657363494
20
102.01786985478535
10
177.49721657363494
20
112.01786985478535
10
167.49721657363494
20
112.01786985478535
0
LWPOLYLINE
5
175
100
AcDbEntity
8
0
100
AcDbPolyline
90
4
70
1
43
0.0
10
180.49721657363494
20
22.017869854785346
10
180.49721657363494
20
12.017869854785346
10
190.49721657363494
20
12.017869854785346
10
190.49721657363494
20
22.017869854785346
0
LWPOLYLINE
5
176
100
AcDbEntity
8
0
100
AcDbPolyline
90
4
70
1
43
0.0
10
180.49721657363494
20
37.017869854785346
10
180.49721657363494
20
27.017869854785346
10
190.49721657363494
20
27.017869854785346
10
190.49721657363494
20
37.017869854785346
0
LWPOLYLINE
5
177
100
AcDbEntity
8
0
100
AcDbPolyline
90
4
70
1
43
0.0
10
193.49721657363494
20
67.017869854785346
10
193.49721657363494
20
57.017869854785346
10
203.49721657363494
20
57.017869854785346
10
203.49721657363494
20
67.017869854785346
0
LINE
5
178
100
AcDbEntity
8
0
100
AcDbLine
10
141.49721657363494
20
122.01786985478535
30
0
11
156.49721657363494
21
122.01786985478535
31
0
0
LWPOLYLINE
5
179
100
AcDbEntity
8
0
100
AcDbPolyline
90
4
70
1
43
0.0
10
180.49721657363494
20
67.017869854785346
10
180.49721657363494
20
57.017869854785346
10
190.49721657363494
20
57.017869854785346
10
190.49721657363494
20
67.017869854785346
0
LINE
5
180
100
AcDbEntity
8
0
100
AcDbLine
10
11.607177853584291
20
138.86568367481237
30
0
11
10.827177762985231
21
138.86568367481237
31
0
0
LINE
5
181
100
AcDbEntity
8
0
100
AcDbLine
10
10.047177672386171
20
139.64568376541143
30
0
11
10.047177672386171
21
141.59568339586264
31
0
0
LINE
5
182
100
AcDbEntity
8
0
100
AcDbLine
10
10.827177762985231
20
142.3756834864617
30
0
11
11.607177853584291
21
142.3756834864617
31
0
0
ARC
5
183
100
AcDbEntity
8
0
100
AcDbCircle
10
10.733540654182436
20
139.55204665660864
30
0
40
0.69272075970423042
210
0
220
0
230
1
100
AcDbArc
50
172.23137911987618
51
277.76862088012388
0
ARC
5
184
100
AcDbEntity
8
0
100
AcDbCircle
10
10.733540654182436
20
141.68932080268866
30
0
40
0.69272046441625901
210
0
220
-0
230
1
100
AcDbArc
50
82.231375787879813
51
187.76864530375101
0
LINE
5
185
100
AcDbEntity
8
0
100
AcDbLine
10
12.582177519798281
20
141.20568364858633
30
0
11
12.582177519798281
21
139.45068359375006
31
0
0
LINE
5
186
100
AcDbEntity
8
0
100
AcDbLine
10
13.167177438735964
20
138.86568367481237
30
0
11
14.142177700996401
21
138.86568367481237
31
0
0
LINE
5
187
100
AcDbEntity
8
0
100
AcDbLine
10
14.142177700996401
20
138.86568367481237
30
0
11
14.142177700996401
21
141.20568364858633
31
0
0
ARC
5
188
100
AcDbEntity
8
0
100
AcDbCircle
10
13.096950054168703
20
139.38045561313635
30
0
40
0.51954088520849551
210
0
220
0
230
1
100
AcDbArc
50
172.2313672801242
51
277.7685764754961
0
LINE
5
189
100
AcDbEntity
8
0
100
AcDbLine
10
15.019677877426149
20
141.20568364858633
30
0
11
16.189677715301517
21
141.20568364858633
31
0
0
LINE
5
190
100
AcDbEntity
8
0
100
AcDbLine
10
15.409677028656008
20
142.3756834864617
30
0
11
15.409677028656008
21
139.45068359375006
31
0
0
LINE
5
191
100
AcDbEntity
8
0
100
AcDbLine
10
15.994677543640138
20
138.86568367481237
30
0
11
16.189677715301517
21
138.86568367481237
31
0
0
ARC
5
192
100
AcDbEntity
8
0
100
AcDbCircle
10
15.924450159072878
20
139.38045561313635
30
0
40
0.51954147578442988
210
0
220
0
230
1
100
AcDbArc
50
172.23137616544199
51
277.7685764754961
0
LINE
5
193
100
AcDbEntity
8
0
100
AcDbLine
10
16.872178316116337
20
141.20568364858633
30
0
11
18.042178153991703
21
141.20568364858633
31
0
0
LINE
5
194
100
AcDbEntity
8
0
100
AcDbLine
10
17.262177467346195
20
142.3756834864617
30
0
11
17.262177467346195
21
139.45068359375006
31
0
0
LINE
5
195
100
AcDbEntity
8
0
100
AcDbLine
10
17.847177982330326
20
138.86568367481237
30
0
11
18.042178153991703
21
138.86568367481237
31
0
0
ARC
5
196
100
AcDbEntity
8
0
100
AcDbCircle
10
17.776950597763065
20
139.38045561313635
30
0
40
0.51954147578442988
210
0
220
0
230
1
100
AcDbArc
50
172.23137616544199
51
277.7685764754961
0
LINE
5
197
100
AcDbEntity
8
0
100
AcDbLine
10
19.017177820205692
20
138.86568367481237
30
0
11
19.017177820205692
21
141.20568364858633
31
0
0
LWPOLYLINE
5
198
100
AcDbEntity
8
0
100
AcDbPolyline
90
4
70
1
43
0.0
10
18.919677734375004
20
142.3756834864617
10
18.919677734375004
20
142.18068361282354
10
19.114676713943485
20
142.18068361282354
10
19.114676713943485
20
142.3756834864617
0
LINE
5
199
100
AcDbEntity
8
0
100
AcDbLine
10
20.187177658081055
20
138.86568367481237
30
0
11
20.187177658081055
21
141.20568364858633
31
0
0
LINE
5
200
100
AcDbEntity
8
0
100
AcDbLine
10
20.187177658081055
20
141.20568364858633
30
0
11
21.162177324295044
21
141.20568364858633
31
0
0
LINE
5
201
100
AcDbEntity
8
0
100
AcDbLine
10
21.747176647186279
20
140.62068343162542
30
0
11
21.747176647186279
21
138.86568367481237
31
0
0
ARC
5
202
100
AcDbEntity
8
0
100
AcDbCircle
10
21.232404708862305
20
140.69091141223913
30
0
40
0.51954029463257356
210
0
220
0
230
1
100
AcDbArc
50
-7.7686416052137766
51
97.768572032860959
0
LINE
5
203
100
AcDbEntity
8
0
100
AcDbLine
10
24.379676580429077
20
138.86568367481237
30
0
11
23.404676914215088
21
138.86568367481237
31
0
0
LINE
5
204
100
AcDbEntity
8
0
100
AcDbLine
10
22.819677591323853
20
139.45068359375006
30
0
11
22.819677591323853
21
140.62068343162542
31
0
0
LINE
5
205
100
AcDbEntity
8
0
100
AcDbLine
10
23.404676914215088
20
141.20568364858633
30
0
11
24.379676580429077
21
141.20568364858633
31
0
0
LINE
5
206
100
AcDbEntity
8
0
100
AcDbLine
10
24.379676580429077
20
141.20568364858633
30
0
11
24.379676580429077
21
138.28068375587469
31
0
0
LINE
5
207
100
AcDbEntity
8
0
100
AcDbLine
10
23.794677257537842
20
137.69568383693701
30
0
11
23.014676570892334
21
137.69568383693701
31
0
0
ARC
5
208
100
AcDbEntity
8
0
100
AcDbCircle
10
23.334449529647827
20
139.38045561313635
30
0
40
0.51954029463257356
210
0
220
0
230
1
100
AcDbArc
50
172.23135839478624
51
277.7685764754961
0
ARC
5
209
100
AcDbEntity
8
0
100
AcDbCircle
10
23.334449529647827
20
140.69091141223913
30
0
40
0.51954050935134399
210
0
220
-0
230
1
100
AcDbArc
50
82.231427967139041
51
187.76864160521379
0
ARC
5
210
100
AcDbEntity
8
0
100
AcDbCircle
10
23.864904642105103
20
138.21045577526098
30
0
40
0.51954021406333872
210
0
220
0
230
1
100
AcDbArc
50
-97.768576475496133
51
7.7686416052137837
0
LINE
5
211
100
AcDbEntity
8
0
100
AcDbLine
10
27.792177200317383
20
138.86568367481237
30
0
11
27.792177200317383
21
142.3756834864617
31
0
0
LINE
5
212
100
AcDbEntity
8
0
100
AcDbLine
10
26.817176342010498
20
142.3756834864617
30
0
11
28.767178058624268
21
142.3756834864617
31
0
0
LINE
5
213
100
AcDbEntity
8
0
100
AcDbLine
10
31.107177734375
20
138.86568367481237
30
0
11
30.132176876068115
21
138.86568367481237
31
0
0
LINE
5
214
100
AcDbEntity
8
0
100
AcDbLine
10
29.547176361083984
20
139.45068359375006
30
0
11
29.547176361083984
21
140.42568385601049
31
0
0
LINE
5
215
100
AcDbEntity
8
0
100
AcDbLine
10
31.107177734375
20
140.42568385601049
30
0
11
31.107177734375
21
140.03568351268774
31
0
0
LINE
5
216
100
AcDbEntity
8
0
100
AcDbLine
10
31.107177734375
20
140.03568351268774
30
0
11
29.547176361083984
21
140.03568351268774
31
0
0
ARC
5
217
100
AcDbEntity
8
0
100
AcDbCircle
10
30.061948299407959
20
139.38045561313635
30
0
40
0.51954029463257356
210
0
220
0
230
1
100
AcDbArc
50
172.23135839478624
51
277.76870673491123
0
ARC
5
218
100
AcDbEntity
8
0
100
AcDbCircle
10
30.327177047729492
20
140.42568385601049
30
0
40
0.78000068664550781
210
0
220
0
230
1
100
AcDbArc
50
0
51
180
0
LINE
5
219
100
AcDbEntity
8
0
100
AcDbLine
10
33.349676132202148
20
139.84068393707281
30
0
11
32.374677658081055
21
140.23068368434912
31
0
0
ARC
5
220
100
AcDbEntity
8
0
100
AcDbCircle
10
32.533612251281738
20
140.70589661598211
30
0
40
0.50108645111321948
210
0
220
-0
230
1
100
AcDbArc
50
85.872587490931238
51
251.50752853752445
0
ARC
5
221
100
AcDbEntity
8
0
100
AcDbCircle
10
32.627615928649902
20
139.39453244209295
30
0
40
1.8120776116848019
210
0
220
-0
230
1
100
AcDbArc
50
63.110121478028312
51
91.832249234320685
0
ARC
5
222
100
AcDbEntity
8
0
100
AcDbCircle
10
33.186333179473877
20
139.36635255813604
30
0
40
0.50166852772235293
210
0
220
0
230
1
100
AcDbArc
50
-93.617868557840538
51
70.998103608783538
0
ARC
5
223
100
AcDbEntity
8
0
100
AcDbCircle
10
32.976093292236328
20
140.93034446239477
30
0
40
2.0723696053028147
210
0
220
0
230
1
100
AcDbArc
50
244.44676035661033
51
274.9435195006925
0
LINE
5
224
100
AcDbEntity
8
0
100
AcDbLine
10
34.422175884246826
20
141.20568364858633
30
0
11
35.592176914215088
21
141.20568364858633
31
0
0
LINE
5
225
100
AcDbEntity
8
0
100
AcDbLine
10
34.81217622756958
20
142.3756834864617
30
0
11
34.81217622756958
21
139.45068359375006
31
0
0
LINE
5
226
100
AcDbEntity
8
0
100
AcDbLine
10
35.397176742553711
20
138.86568367481237
30
0
11
35.592176914215088
21
138.86568367481237
31
0
0
ARC
5
227
100
AcDbEntity
8
0
100
AcDbCircle
10
35.326948165893555
20
139.38045561313635
30
0
40
0.51954029463257356
210
0
220
0
230
1
100
AcDbArc
50
172.23135839478624
51
277.76870673491123
0
LINE
5
228
100
AcDbEntity
8
0
100
AcDbLine
10
34.973779051383154
20
117.32901033244268
30
0
11
34.973779051383154
21
117.57276024899618
31
0
0
LINE
5
229
100
AcDbEntity
8
0
100
AcDbLine
10
34.973779051383154
20
117.57276024899618
30
0
11
36.192529230197088
21
117.57276024899618
31
0
0
LINE
5
230
100
AcDbEntity
8
0
100
AcDbLine
10
36.192529230197088
20
117.57276024899618
30
0
11
35.583153991778509
21
115.37901040396825
31
0
0
LINE
5
231
100
AcDbEntity
8
0
100
AcDbLine
10
36.92377897985758
20
115.86651038608686
30
0
11
37.898778944094794
21
117.08526026687757
31
0
0
ARC
5
232
100
AcDbEntity
8
0
100
AcDbCircle
10
38.262571125109808
20
116.55599575719968
30
0
40
1.4628624916076685
210
0
220
0
230
1
100
AcDbArc
50
150.87151582165652
51
183.13924191376427
0
ARC
5
233
100
AcDbEntity
8
0
100
AcDbCircle
10
37.361485390742438
20
117.19153385839597
30
0
40
0.38446456193924572
210
0
220
-0
230
1
100
AcDbArc
50
82.558477252803158
51
168.5168636672756
0
ARC
5
234
100
AcDbEntity
8
0
100
AcDbCircle
10
37.46107283123316
20
117.19153385839597
30
0
40
0.38446456193924017
210
0
220
-0
230
1
100
AcDbArc
50
11.483124914715608
51
97.441548306130343
0
ARC
5
235
100
AcDbEntity
8
0
100
AcDbCircle
10
36.559986798842566
20
116.55599575719968
30
0
40
1.4628624916076649
210
0
220
0
230
1
100
AcDbArc
50
-3.1392542076521659
51
29.128477633514066
0
ARC
5
236
100
AcDbEntity
8
0
100
AcDbCircle
10
38.262571125109808
20
116.39577504477636
30
0
40
1.4628624980119391
210
0
220
0
230
1
100
AcDbArc
50
176.86075351270392
51
209.12848053587774
0
ARC
5
237
100
AcDbEntity
8
0
100
AcDbCircle
10
37.361485390742438
20
115.76023679456846
30
0
40
0.38446472864508152
210
0
220
0
230
1
100
AcDbArc
50
191.48310136314649
51
277.44151910473101
0
ARC
5
238
100
AcDbEntity
8
0
100
AcDbCircle
10
36.559986798842566
20
116.39577504477636
30
0
40
1.4628624916076658
210
0
220
0
230
1
100
AcDbArc
50
-29.128479169387116
51
3.1392342671458078
0
ARC
5
239
100
AcDbEntity
8
0
100
AcDbCircle
10
37.46107283123316
20
115.76023679456846
30
0
40
0.38446459061801808
210
0
220
0
230
1
100
AcDbArc
50
262.55844817360116
51
348.51689474981174
0
LINE
5
240
100
AcDbEntity
8
0
100
AcDbLine
10
47.973779198937756
20
117.3709950991644
30
0
11
47.973779198937756
21
117.6147450157179
31
0
0
LINE
5
241
100
AcDbEntity
8
0
100
AcDbLine
10
47.973779198937756
20
117.6147450157179
30
0
11
49.192529377751697
21
117.6147450157179
31
0
0
LINE
5
242
100
AcDbEntity
8
0
100
AcDbLine
10
49.192529377751697
20
117.6147450157179
30
0
11
48.583154139333111
21
115.42099517068998
31
0
0
LINE
5
243
100
AcDbEntity
8
0
100
AcDbLine
10
49.801904318147038
20
115.42099517068999
30
0
11
50.53315406780753
21
115.42099517068999
31
0
0
LINE
5
244
100
AcDbEntity
8
0
100
AcDbLine
10
51.020653900914525
20
115.9084951528086
30
0
11
51.020653900914525
21
116.15224521837371
31
0
0
LINE
5
245
100
AcDbEntity
8
0
100
AcDbLine
10
50.533154067807537
20
116.6397450514807
30
0
11
49.801904318147045
21
116.6397450514807
31
0
0
LINE
5
246
100
AcDbEntity
8
0
100
AcDbLine
10
49.801904318147045
20
116.6397450514807
30
0
11
49.801904318147052
21
117.61474501571792
31
0
0
LINE
5
247
100
AcDbEntity
8
0
100
AcDbLine
10
49.801904318147052
20
117.61474501571792
30
0
11
51.020653900914539
21
117.61474501571792
31
0
0
ARC
5
248
100
AcDbEntity
8
0
100
AcDbCircle
10
50.591677484326695
20
115.84997203431266
30
0
40
0.43295050502870941
210
0
220
0
230
1
100
AcDbArc
50
-97.768650188476144
51
7.7686191074583339
0
ARC
5
249
100
AcDbEntity
8
0
100
AcDbCircle
10
50.591677484326702
20
116.21076833686965
30
0
40
0.43295002181200715
210
0
220
0
230
1
100
AcDbArc
50
-7.7686191074584601
51
97.768652854082788
0
LWPOLYLINE
5
250
100
AcDbEntity
8
0
100
AcDbPolyline
90
2
70
1
43
0.0
10
60.973779100545151
20
115.98838529141631
42
-1.000000043443978
10
62.192529055841675
20
115.98838534468956
42
-0.99999995655602381
0
LWPOLYLINE
5
251
100
AcDbEntity
8
0
100
AcDbPolyline
90
2
70
1
43
0.0
10
61.095654096074803
20
117.08526022390134
42
-1.0000000440782302
10
62.070654060312016
20
117.08526026651995
42
-0.9999999559217716
0
LINE
5
252
100
AcDbEntity
8
0
100
AcDbLine
10
62.923779066272481
20
115.86651038608692
30
0
11
63.898779030509694
21
117.08526026687763
31
0
0
ARC
5
253
100
AcDbEntity
8
0
100
AcDbCircle
10
64.262571211524715
20
116.55599575719974
30
0
40
1.4628624916076647
210
0
220
0
230
1
100
AcDbArc
50
150.87151582165663
51
183.13924191376407
0
ARC
5
254
100
AcDbEntity
8
0
100
AcDbCircle
10
63.361485477157338
20
117.19153385839603
30
0
40
0.38446456193924572
210
0
220
-0
230
1
100
AcDbArc
50
82.558477252804209
51
168.5168636672756
0
ARC
5
255
100
AcDbEntity
8
0
100
AcDbCircle
10
63.461072619624836
20
117.19153385839603
30
0
40
0.38446456193923584
210
0
220
-0
230
1
100
AcDbArc
50
11.483124914715802
51
97.441504266557331
0
ARC
5
256
100
AcDbEntity
8
0
100
AcDbCircle
10
62.559986885257466
20
116.55599575719974
30
0
40
1.4628624916076693
210
0
220
0
230
1
100
AcDbArc
50
-3.1392542076521659
51
29.128483315403212
0
ARC
5
257
100
AcDbEntity
8
0
100
AcDbCircle
10
64.262571211524715
20
116.39577504477641
30
0
40
1.4628624980119391
210
0
220
0
230
1
100
AcDbArc
50
176.86075351270392
51
209.1284805358776
0
ARC
5
258
100
AcDbEntity
8
0
100
AcDbCircle
10
63.361485477157338
20
115.76023679456851
30
0
40
0.38446472864507719
210
0
220
0
230
1
100
AcDbArc
50
191.48310136314649
51
277.44151910473101
0
ARC
5
259
100
AcDbEntity
8
0
100
AcDbCircle
10
62.559986885257466
20
116.39577504477641
30
0
40
1.4628624916076618
210
0
220
0
230
1
100
AcDbArc
50
-29.128479169387269
51
3.1392342671458078
0
ARC
5
260
100
AcDbEntity
8
0
100
AcDbCircle
10
63.461072619624836
20
115.76023679456851
30
0
40
0.38446455201973173
210
0
220
0
230
1
100
AcDbArc
50
262.55849221317425
51
348.51690359163058
0
LWPOLYLINE
5
261
100
AcDbEntity
8
0
100
AcDbPolyline
90
2
70
1
43
0.0
10
73.973779133700376
20
116.03036999812838
42
-1.0000000440782302
10
75.192529088996892
20
116.03037001149274
42
-0.9999999559217716
0
LWPOLYLINE
5
262
100
AcDbEntity
8
0
100
AcDbPolyline
90
2
70
1
43
0.0
10
74.095654165148034
20
117.12724492739552
42
-1.0000000440782302
10
75.070654129385247
20
117.12724493808699
42
-0.9999999559217716
0
LINE
5
263
100
AcDbEntity
8
0
100
AcDbLine
10
75.801904270208112
20
115.42099505159
30
0
11
76.533154019868604
21
115.42099502764466
31
0
0
LINE
5
264
100
AcDbEntity
8
0
100
AcDbLine
10
77.020654166962373
20
115.90849499379971
30
0
11
77.020654174944156
21
116.15224505936482
31
0
0
LINE
5
265
100
AcDbEntity
8
0
100
AcDbLine
10
76.533154059777516
20
116.63974490843538
30
0
11
75.801904310117024
21
116.63974493238071
31
0
0
LINE
5
266
100
AcDbEntity
8
0
100
AcDbLine
10
75.801904310117024
20
116.63974493238071
30
0
11
75.801904342044139
21
117.61474489661792
31
0
0
LINE
5
267
100
AcDbEntity
8
0
100
AcDbLine
10
75.801904342044139
20
117.61474489661792
30
0
11
77.02065422283485
21
117.61474485670902
31
0
0
ARC
5
268
100
AcDbEntity
8
0
100
AcDbCircle
10
76.591677450434943
20
115.84997188935093
30
0
40
0.43295050502869975
210
0
220
0
230
1
100
AcDbArc
50
-97.768652064670277
51
7.7686119000731582
0
ARC
5
269
100
AcDbEntity
8
0
100
AcDbCircle
10
76.591677462249493
20
116.21076819190792
30
0
40
0.43295031709998799
210
-0
220
0
230
1
100
AcDbArc
50
-7.7686156524586005
51
97.768650977886168
0
LINE
5
270
100
AcDbEntity
8
0
100
AcDbLine
10
88.192529316612109
20
116.35400994251088
30
0
11
87.461279119916782
21
116.35400994251088
31
0
0
LINE
5
271
100
AcDbEntity
8
0
100
AcDbLine
10
86.973779137798175
20
116.84150992462949
30
0
11
86.973779137798175
21
116.96338488290624
31
0
0
LINE
5
272
100
AcDbEntity
8
0
100
AcDbLine
10
88.192529316612109
20
116.96338488290624
30
0
11
88.192529316612109
21
116.35400994251088
31
0
0
ARC
5
273
100
AcDbEntity
8
0
100
AcDbCircle
10
87.40275600142084
20
116.78298680613355
30
0
40
0.43295046474398069
210
0
220
0
230
1
100
AcDbArc
50
172.23138888932786
51
277.76861111067223
0
ARC
5
274
100
AcDbEntity
8
0
100
AcDbCircle
10
87.58315407819353
20
116.96338488290624
30
0
40
0.6093752384185791
210
0
220
0
230
1
100
AcDbArc
50
0
51
180
0
ARC
5
275
100
AcDbEntity
8
0
100
AcDbCircle
10
87.334575440355167
20
116.236963705519
30
0
40
0.86590081453322632
210
0
220
0
230
1
100
AcDbArc
50
-97.768629157970139
51
7.7686097778760281
0
LINE
5
276
100
AcDbEntity
8
0
100
AcDbLine
10
88.923779066272601
20
115.86650996039228
30
0
11
89.898779030509814
21
117.08525984118299
31
0
0
ARC
5
277
100
AcDbEntity
8
0
100
AcDbCircle
10
90.262571211524829
20
116.5559953315051
30
0
40
1.4628624916076647
210
0
220
0
230
1
100
AcDbArc
50
150.87151582165586
51
183.13924191376358
0
ARC
5
278
100
AcDbEntity
8
0
100
AcDbCircle
10
89.361485477157458
20
117.19153343270139
30
0
40
0.38446456193924572
210
0
220
-0
230
1
100
AcDbArc
50
82.558477252803158
51
168.5168636672733
0
ARC
5
279
100
AcDbEntity
8
0
100
AcDbCircle
10
89.461072619624957
20
117.19153343270139
30
0
40
0.38446456193924455
210
0
220
-0
230
1
100
AcDbArc
50
11.483124914717877
51
97.441504266556279
0
ARC
5
280
100
AcDbEntity
8
0
100
AcDbCircle
10
88.559986885257587
20
116.5559953315051
30
0
40
1.4628624916076602
210
0
220
0
230
1
100
AcDbArc
50
-3.1392542076521659
51
29.128483315403695
0
ARC
5
281
100
AcDbEntity
8
0
100
AcDbCircle
10
90.262571211524829
20
116.39577461908178
30
0
40
1.462862498011948
210
0
220
0
230
1
100
AcDbArc
50
176.86075351270333
51
209.1284805358774
0
ARC
5
282
100
AcDbEntity
8
0
100
AcDbCircle
10
89.361485477157458
20
115.76023636887388
30
0
40
0.38446472864507719
210
0
220
0
230
1
100
AcDbArc
50
191.48310136314461
51
277.44151910473335
0
ARC
5
283
100
AcDbEntity
8
0
100
AcDbCircle
10
88.559986885257587
20
116.39577461908178
30
0
40
1.4628624916076696
210
0
220
0
230
1
100
AcDbArc
50
-29.128479169387116
51
3.1392342671458078
0
ARC
5
284
100
AcDbEntity
8
0
100
AcDbCircle
10
89.461072619624957
20
115.76023636887388
30
0
40
0.38446455201973062
210
0
220
0
230
1
100
AcDbArc
50
262.55849221317601
51
348.51690359163081
0
LINE
5
285
100
AcDbEntity
8
0
100
AcDbLine
10
80.490029351488843
20
125.02312573275701
30
0
11
80.490029351488843
21
127.65562596402303
31
0
0
LINE
5
286
100
AcDbEntity
8
0
100
AcDbLine
10
80.490029351488843
20
127.65562596402303
30
0
11
81.221279399172559
21
127.65562596402303
31
0
0
LINE
5
287
100
AcDbEntity
8
0
100
AcDbLine
10
81.221279399172559
20
126.1931258686556
30
0
11
80.490029351488843
21
126.1931258686556
31
0
0
ARC
5
288
100
AcDbEntity
8
0
100
AcDbCircle
10
81.221279399172559
20
126.9243757673277
30
0
40
0.73124989867210388
210
0
220
0
230
1
100
AcDbArc
50
-90
51
90
0
LWPOLYLINE
5
289
100
AcDbEntity
8
0
100
AcDbPolyline
90
4
70
1
43
0.0
10
82.610654430166974
20
126.1931258686556
10
82.610654430166974
20
125.60812565169469
42
0.99999999999999989
10
83.780654268042341
20
125.60812565169469
10
83.780654268042341
20
126.1931258686556
42
0.99999999999999989
0
LINE
5
290
100
AcDbEntity
8
0
100
AcDbLine
10
84.43877925135304
20
126.77812593660489
30
0
11
84.877529339567914
21
125.02312573275701
31
0
0
LINE
5
291
100
AcDbEntity
8
0
100
AcDbLine
10
84.877529339567914
20
125.02312573275701
30
0
11
85.316279129759565
21
126.1931258686556
31
0
0
LINE
5
292
100
AcDbEntity
8
0
100
AcDbLine
10
85.316279129759565
20
126.1931258686556
30
0
11
85.755029515997663
21
125.02312573275701
31
0
0
LINE
5
293
100
AcDbEntity
8
0
100
AcDbLine
10
85.755029515997663
20
125.02312573275701
30
0
11
86.193779306189313
21
126.77812593660489
31
0
0
LINE
5
294
100
AcDbEntity
8
0
100
AcDbLine
10
88.021904425398603
20
125.02312573275701
30
0
11
87.290654377714887
21
125.02312573275701
31
0
0
LINE
5
295
100
AcDbEntity
8
0
100
AcDbLine
10
86.851904587523237
20
125.46187582097188
30
0
11
86.851904587523237
21
126.1931258686556
31
0
0
LINE
5
296
100
AcDbEntity
8
0
100
AcDbLine
10
88.021904425398603
20
126.1931258686556
30
0
11
88.021904425398603
21
125.90062590918676
31
0
0
LINE
5
297
100
AcDbEntity
8
0
100
AcDbLine
10
88.021904425398603
20
125.90062590918676
30
0
11
86.851904587523237
21
125.90062590918676
31
0
0
ARC
5
298
100
AcDbEntity
8
0
100
AcDbCircle
10
87.237983541266217
20
125.40920498452321
30
0
40
0.38965520083206551
210
0
220
0
230
1
100
AcDbArc
50
172.23138010468983
51
277.76861397176543
0
ARC
5
299
100
AcDbEntity
8
0
100
AcDbCircle
10
87.43690450646092
20
126.1931258686556
30
0
40
0.58499991893768311
210
0
220
0
230
1
100
AcDbArc
50
0
51
180
0
LINE
5
300
100
AcDbEntity
8
0
100
AcDbLine
10
88.826279239432111
20
125.02312573275701
30
0
11
88.826279239432111
21
126.77812593660489
31
0
0
LINE
5
301
100
AcDbEntity
8
0
100
AcDbLine
10
88.826279239432111
20
126.77812593660489
30
0
11
89.70377941586186
21
126.77812593660489
31
0
0
LINE
5
302
100
AcDbEntity
8
0
100
AcDbLine
10
89.70377941586186
20
126.77812593660489
30
0
11
89.70377941586186
21
126.48562582812444
31
0
0
ARC
5
303
100
AcDbEntity
8
0
100
AcDbCircle
10
93.55994065262486
20
126.51264669976369
30
0
40
2.0354248583316852
210
0
220
0
230
1
100
AcDbArc
50
135.15042842790308
51
184.8833580390837
0
ARC
5
304
100
AcDbEntity
8
0
100
AcDbCircle
10
93.55994065262486
20
126.16610499701635
30
0
40
2.0354248877470655
210
0
220
0
230
1
100
AcDbArc
50
175.11663226938634
51
224.84958159000976
0
LINE
5
305
100
AcDbEntity
8
0
100
AcDbLine
10
92.8481539056461
20
125.02312573275701
30
0
11
95.188154773489728
21
127.65562596402303
31
0
0
LWPOLYLINE
5
306
100
AcDbEntity
8
0
100
AcDbPolyline
90
2
70
1
43
0.0
10
92.848154836968675
20
127.21687583768606
42
-1.000000043443978
10
93.725654938892617
20
127.21687587604281
42
-0.99999995655602381
0
LWPOLYLINE
5
307
100
AcDbEntity
8
0
100
AcDbPolyline
90
2
70
1
43
0.0
10
94.310654932336107
20
125.46187578284979
42
-1.000000043443978
10
95.188155034260049
20
125.46187582120653
42
-0.99999995655602381
0
ARC
5
308
100
AcDbEntity
8
0
100
AcDbCircle
10
94.476366834418073
20
126.16610499701635
30
0
40
2.0354248583316723
210
0
220
0
230
1
100
AcDbArc
50
-44.849580223518977
51
4.8833637022979941
0
ARC
5
309
100
AcDbEntity
8
0
100
AcDbCircle
10
94.476366834418073
20
126.51264669976369
30
0
40
2.035424853618613
210
0
220
0
230
1
100
AcDbArc
50
-4.8833621494787556
51
44.849576581052766
0
ARC
5
310
100
AcDbEntity
8
0
100
AcDbCircle
10
27.484715776995124
20
107.01941964575701
30
0
40
0.60937497764826676
210
0
220
-0
230
1
100
AcDbArc
50
89.912297223302531
51
269.91230223225904
0
ARC
5
311
100
AcDbEntity
8
0
100
AcDbCircle
10
27.484715776995124
20
107.01941964575701
30
0
40
0.60937497764825832
210
0
220
0
230
1
100
AcDbArc
50
-90.087697767740977
51
89.912297223302531
0
LWPOLYLINE
5
312
100
AcDbEntity
8
0
100
AcDbPolyline
90
2
70
1
43
0.0
10
26.387095964215401
20
106.5335992229121
42
-1.0000000428003277
10
26.388588355620396
20
107.5085980449783
42
-0.99999995719967405
0
LINE
5
313
100
AcDbEntity
8
0
100
AcDbLine
10
26.470024887437514
20
90.504557772472722
30
0
11
25.985595951576098
21
91.11637690967558
31
0
0
LINE
5
314
100
AcDbEntity
8
0
100
AcDbLine
10
25.985595951576098
20
91.11637690967558
30
0
11
28.179318049498271
21
91.105343340535271
31
0
0
LINE
5
315
100
AcDbEntity
8
0
100
AcDbLine
10
28.17625316926479
20
90.495976107669094
30
0
11
28.182382929731752
21
91.714710573401476
31
0
0
LINE
5
316
100
AcDbEntity
8
0
100
AcDbLine
10
27.698566970516602
20
92.448403276385349
30
0
11
26.484736313457582
21
93.429520669042105
31
0
0
ARC
5
317
100
AcDbEntity
8
0
100
AcDbCircle
10
27.015823840432056
20
93.790646585726989
30
0
40
1.4628624916076669
210
0
220
0
230
1
100
AcDbArc
50
240.58334275968954
51
272.85106885179721
0
ARC
5
318
100
AcDbEntity
8
0
100
AcDbCircle
10
26.375761722644107
20
92.89276841959618
30
0
40
0.38446456193923917
210
0
220
0
230
1
100
AcDbArc
50
172.27030419083755
51
258.22868176345884
0
ARC
5
319
100
AcDbEntity
8
0
100
AcDbCircle
10
26.376262600911694
20
92.992354302460171
30
0
40
0.3844645619392375
210
0
220
0
230
1
100
AcDbArc
50
101.19495185274896
51
187.15333120458922
0
ARC
5
320
100
AcDbEntity
8
0
100
AcDbCircle
10
27.007260610120301
20
92.088083496159697
30
0
40
1.4628624916076567
210
0
220
-0
230
1
100
AcDbArc
50
86.572572730381296
51
118.8403102534369
0
ARC
5
321
100
AcDbEntity
8
0
100
AcDbCircle
10
27.176042526343078
20
93.789840748036681
30
0
40
1.4628624980119389
210
0
220
0
230
1
100
AcDbArc
50
266.57258045073678
51
298.84030747391114
0
ARC
5
322
100
AcDbEntity
8
0
100
AcDbCircle
10
27.807040683062482
20
92.885569642967283
30
0
40
0.38446443658726248
210
-0
220
0
230
1
100
AcDbArc
50
-78.80506285699613
51
7.1533460427639648
0
ARC
5
323
100
AcDbEntity
8
0
100
AcDbCircle
10
27.167479296031321
20
92.087277658469375
30
0
40
1.4628624916076753
210
0
220
-0
230
1
100
AcDbArc
50
60.583347768645844
51
92.851061205179164
0
ARC
5
324
100
AcDbEntity
8
0
100
AcDbCircle
10
27.807541561330073
20
92.985155525831274
30
0
40
0.38446455201972957
210
-0
220
0
230
1
100
AcDbArc
50
-7.7296808487911512
51
78.228730529662755
0
LINE
5
325
100
AcDbEntity
8
0
100
AcDbLine
10
26.453525140733142
20
75.497558808036047
30
0
11
25.966958500940361
21
76.107679251545562
31
0
0
LINE
5
326
100
AcDbEntity
8
0
100
AcDbLine
10
25.966958500940361
20
76.107679251545562
30
0
11
28.160705775936794
21
76.104321275106656
31
0
0
LINE
5
327
100
AcDbEntity
8
0
100
AcDbLine
10
28.159773004729093
20
75.494947048608907
30
0
11
28.161638547144484
21
76.713695501604377
31
0
0
LINE
5
328
100
AcDbEntity
8
0
100
AcDbLine
10
26.945408576820356
20
78.360871723784243
30
0
11
28.162571318808368
21
77.323070026124995
31
0
0
LINE
5
329
100
AcDbEntity
8
0
100
AcDbLine
10
28.162571318808368
20
77.323070026124995
30
0
11
28.164436861223759
21
78.541818479120479
31
0
0
ARC
5
330
100
AcDbEntity
8
0
100
AcDbCircle
10
26.452549146757733
20
78.061839166895084
30
0
40
0.48706926405429563
210
0
220
-0
230
1
100
AcDbArc
50
82.143677399999035
51
187.68091590861948
0
ARC
5
331
100
AcDbEntity
8
0
100
AcDbCircle
10
26.573159433773874
20
77.922240014929727
30
0
40
0.60789181201549869
210
0
220
0
230
1
100
AcDbArc
50
172.96049478424598
51
258.91886687631302
0
ARC
5
332
100
AcDbEntity
8
0
100
AcDbCircle
10
26.561792399997813
20
78.05650481516561
30
0
40
0.48969438038638957
210
0
220
-0
230
1
100
AcDbArc
50
38.429018908950056
51
94.998399503346604
0
LINE
5
333
100
AcDbEntity
8
0
100
AcDbLine
10
26.385510211249574
20
60.497662918720685
30
0
11
25.898943571456794
21
61.107783362230194
31
0
0
LINE
5
334
100
AcDbEntity
8
0
100
AcDbLine
10
25.898943571456794
20
61.107783362230194
30
0
11
28.092690846453227
21
61.104425385791281
31
0
0
LINE
5
335
100
AcDbEntity
8
0
100
AcDbLine
10
28.091758075245533
20
60.495051159293538
30
0
11
28.093623617660924
21
61.713799612289016
31
0
0
LINE
5
336
100
AcDbEntity
8
0
100
AcDbLine
10
28.094556389324801
20
62.323174136809627
30
0
11
28.095675714956506
21
63.05442332781606
31
0
0
LINE
5
337
100
AcDbEntity
8
0
100
AcDbLine
10
27.608922520739718
20
63.542668806816877
30
0
11
27.365172740733755
21
63.543041915436802
31
0
0
LINE
5
338
100
AcDbEntity
8
0
100
AcDbLine
10
26.876927261961036
20
63.056288870231441
30
0
11
26.875807936329327
21
62.325039679225007
31
0
0
LINE
5
339
100
AcDbEntity
8
0
100
AcDbLine
10
26.875807936329327
20
62.325039679225007
30
0
11
25.900809114328371
21
62.326532113248547
31
0
0
LINE
5
340
100
AcDbEntity
8
0
100
AcDbLine
10
25.900809114328371
20
62.326532113248547
30
0
11
25.902674656743763
21
63.545280566244024
31
0
0
ARC
5
341
100
AcDbEntity
8
0
100
AcDbCircle
10
27.666788934866744
20
63.113602715307422
30
0
40
0.43295042445944787
210
-0
220
0
230
1
100
AcDbArc
50
-7.8562748095583839
51
97.680905668382621
0
ARC
5
342
100
AcDbEntity
8
0
100
AcDbCircle
10
27.305993054991426
20
63.114154986791782
30
0
40
0.43295061238797389
210
0
220
-0
230
1
100
AcDbArc
50
82.143688778222213
51
187.68087192174426
0
LINE
5
343
100
AcDbEntity
8
0
100
AcDbLine
10
27.068368327416998
20
46.532748895279568
30
0
11
28.285531069176916
21
45.494947048608893
31
0
0
LINE
5
344
100
AcDbEntity
8
0
100
AcDbLine
10
28.285531069176916
20
45.494947048608893
30
0
11
28.287396611592307
21
46.713695501604356
31
0
0
ARC
5
345
100
AcDbEntity
8
0
100
AcDbCircle
10
26.575508897582466
20
46.233716487401836
30
0
40
0.48706926405429563
210
0
220
-0
230
1
100
AcDbArc
50
82.143677399999149
51
187.68091590861866
0
ARC
5
346
100
AcDbEntity
8
0
100
AcDbCircle
10
26.696119184142422
20
46.094117037413611
30
0
40
0.60789184808662089
210
0
220
0
230
1
100
AcDbArc
50
172.96046690109608
51
258.91886687631336
0
ARC
5
347
100
AcDbEntity
8
0
100
AcDbCircle
10
26.684752150822547
20
46.228382135672362
30
0
40
0.48969428759046463
210
0
220
-0
230
1
100
AcDbArc
50
38.429005267479191
51
94.998399503346562
0
LINE
5
348
100
AcDbEntity
8
0
100
AcDbLine
10
27.801016526223535
20
47.44569090962257
30
0
11
26.583760507251611
21
48.422555274038899
31
0
0
ARC
5
349
100
AcDbEntity
8
0
100
AcDbCircle
10
27.113581254619767
20
48.785537180843654
30
0
40
1.4628624916076682
210
0
220
0
230
1
100
AcDbArc
50
240.78381304495898
51
273.05153913706653
0
ARC
5
350
100
AcDbEntity
8
0
100
AcDbCircle
10
26.476664604123449
20
47.885425023297621
30
0
40
0.38446456193923945
210
0
220
0
230
1
100
AcDbArc
50
172.47077447610624
51
258.42915204872855
0
ARC
5
351
100
AcDbEntity
8
0
100
AcDbCircle
10
26.476817042323631
20
47.985012049096348
30
0
40
0.38446456193924117
210
0
220
0
230
1
100
AcDbArc
50
101.39542213801893
51
187.35380148985882
0
ARC
5
352
100
AcDbEntity
8
0
100
AcDbCircle
10
27.110975105579286
20
47.082954551172634
30
0
40
1.4628624916076627
210
0
220
-0
230
1
100
AcDbArc
50
86.7730430156507
51
119.04078053870609
0
ARC
5
353
100
AcDbEntity
8
0
100
AcDbCircle
10
27.273801779340616
20
48.785291930739795
30
0
40
1.4628624980119389
210
0
220
0
230
1
100
AcDbArc
50
266.77305073600616
51
299.04077775918057
0
ARC
5
354
100
AcDbEntity
8
0
100
AcDbCircle
10
27.907959991151515
20
47.883234134565107
30
0
40
0.38446443658725488
210
-0
220
0
230
1
100
AcDbArc
50
-78.604592571726172
51
7.3538163280340756
0
ARC
5
355
100
AcDbEntity
8
0
100
AcDbCircle
10
27.271195630300134
20
47.082709301068775
30
0
40
1.4628624916076727
210
0
220
-0
230
1
100
AcDbArc
50
60.783818053915304
51
93.051531490448696
0
ARC
5
356
100
AcDbEntity
8
0
100
AcDbCircle
10
27.9081124293517
20
47.982821160363841
30
0
40
0.38446455201973367
210
-0
220
0
230
1
100
AcDbArc
50
-7.5292105635232192
51
78.42920081493267
0
LINE
5
357
100
AcDbEntity
8
0
100
AcDbLine
10
17.525581264045456
20
9.5322354443239394
30
0
11
17.086831324842194
21
8.7278603322672073
31
0
0
ARC
5
358
100
AcDbEntity
8
0
100
AcDbCircle
10
18.107684099223832
20
9.3099631674455789
30
0
40
0.51954057067632631
210
0
220
0
230
1
100
AcDbArc
50
-7.7686291579705928
51
97.768616180837682
0
ARC
5
359
100
AcDbEntity
8
0
100
AcDbCircle
10
17.594462179687241
20
9.1531443901228116
30
0
40
1.0316346585750589
210
0
220
0
230
1
100
AcDbArc
50
-50.054562535951419
51
4.8148206319451017
0
ARC
5
360
100
AcDbEntity
8
0
100
AcDbCircle
10
16.504728340652207
20
8.950132609145566
30
0
40
0.5195405706763262
210
0
220
0
230
1
100
AcDbArc
50
172.23138632364029
51
277.76862118979375
0
ARC
5
361
100
AcDbEntity
8
0
100
AcDbCircle
10
16.869631999280671
20
9.0927601165937624
30
0
40
0.88265016674995556
210
0
220
0
230
1
100
AcDbArc
50
138.42510547947413
51
184.70499549850857
0
ARC
5
362
100
AcDbEntity
8
0
100
AcDbCircle
10
16.62799193814061
20
8.9366887815164766
30
0
40
0.50412594265192168
210
0
220
0
230
1
100
AcDbArc
50
263.96111459738881
51
335.52861710386901
0
ARC
5
363
100
AcDbEntity
8
0
100
AcDbCircle
10
17.984420799758652
20
9.3234071440862802
30
0
40
0.50412577395410518
210
0
220
-0
230
1
100
AcDbArc
50
83.961141486237992
51
155.52863953365571
0
LINE
5
364
100
AcDbEntity
8
0
100
AcDbLine
10
19.499956512000779
20
10.555985451476488
30
0
11
16.867456131723145
21
10.555985451476497
31
0
0
LINE
5
365
100
AcDbEntity
8
0
100
AcDbLine
10
16.867456131723145
20
10.555985451476497
30
0
11
16.867456131723145
21
11.287235499160214
31
0
0
LINE
5
366
100
AcDbEntity
8
0
100
AcDbLine
10
17.306206368949628
20
11.725985587375087
30
0
11
18.183706247356152
21
11.725985587375085
31
0
0
LINE
5
367
100
AcDbEntity
8
0
100
AcDbLine
10
18.622456335571027
20
11.287235499160207
30
0
11
18.622456335571027
21
10.555985451476491
31
0
0
ARC
5
368
100
AcDbEntity
8
0
100
AcDbCircle
10
17.253535532500958
20
11.339906335608882
30
0
40
0.38965549612004075
210
0
220
-0
230
1
100
AcDbArc
50
82.231386028234567
51
187.76861100999619
0
ARC
5
369
100
AcDbEntity
8
0
100
AcDbCircle
10
18.236377083804822
20
11.339906335608879
30
0
40
0.38965549612004102
210
0
220
0
230
1
100
AcDbArc
50
-7.7686139717656726
51
97.76861397176539
0
LINE
5
370
100
AcDbEntity
8
0
100
AcDbLine
10
18.622456335571027
20
13.627235472934164
30
0
11
18.622456335571027
21
12.895985425250448
31
0
0
LINE
5
371
100
AcDbEntity
8
0
100
AcDbLine
10
18.183706247356152
20
12.457235635058801
30
0
11
17.452456199672437
21
12.457235635058803
31
0
0
LINE
5
372
100
AcDbEntity
8
0
100
AcDbLine
10
17.452456199672437
20
13.627235472934167
30
0
11
17.744956159141278
21
13.627235472934167
31
0
0
LINE
5
373
100
AcDbEntity
8
0
100
AcDbLine
10
17.744956159141278
20
13.627235472934167
30
0
11
17.744956159141278
21
12.457235635058801
31
0
0
ARC
5
374
100
AcDbEntity
8
0
100
AcDbCircle
10
18.236377083804822
20
12.84331458880178
30
0
40
0.38965520083206334
210
0
220
0
230
1
100
AcDbArc
50
-97.768619895310195
51
7.7686139717651521
0
ARC
5
375
100
AcDbEntity
8
0
100
AcDbCircle
10
17.452456199672437
20
13.042235553996484
30
0
40
0.58499991893768311
210
0
220
-0
230
1
100
AcDbArc
50
90
51
270
0
LINE
5
376
100
AcDbEntity
8
0
100
AcDbLine
10
18.622456335571027
20
15.528485358493246
30
0
11
18.622456335571027
21
14.79723531080953
31
0
0
LINE
5
377
100
AcDbEntity
8
0
100
AcDbLine
10
18.183706247356152
20
14.358485520617883
30
0
11
17.452456199672437
21
14.358485520617885
31
0
0
LINE
5
378
100
AcDbEntity
8
0
100
AcDbLine
10
17.452456199672437
20
15.528485358493249
30
0
11
17.744956159141278
21
15.528485358493249
31
0
0
LINE
5
379
100
AcDbEntity
8
0
100
AcDbLine
10
17.744956159141278
20
15.528485358493249
30
0
11
17.744956159141278
21
14.358485520617883
31
0
0
ARC
5
380
100
AcDbEntity
8
0
100
AcDbCircle
10
18.236377083804822
20
14.744564474360862
30
0
40
0.38965520083206334
210
0
220
0
230
1
100
AcDbArc
50
-97.768619895310195
51
7.7686139717651521
0
ARC
5
381
100
AcDbEntity
8
0
100
AcDbCircle
10
17.452456199672437
20
14.943485439555566
30
0
40
0.58499991893768311
210
0
220
-0
230
1
100
AcDbArc
50
90
51
270
0
LINE
5
382
100
AcDbEntity
8
0
100
AcDbLine
10
15.989956104305003
20
17.429735244052338
30
0
11
18.622456335571023
21
17.429735244052328
31
0
0
LINE
5
383
100
AcDbEntity
8
0
100
AcDbLine
10
18.622456335571023
20
17.429735244052328
30
0
11
18.622456335571023
21
16.698485196368612
31
0
0
LINE
5
384
100
AcDbEntity
8
0
100
AcDbLine
10
18.183706247356149
20
16.259735406176965
30
0
11
17.306206368949624
21
16.259735406176969
31
0
0
LINE
5
385
100
AcDbEntity
8
0
100
AcDbLine
10
16.867456131723138
20
16.698485196368619
30
0
11
16.867456131723138
21
17.429735244052335
31
0
0
ARC
5
386
100
AcDbEntity
8
0
100
AcDbCircle
10
18.236377083804818
20
16.645814359919942
30
0
40
0.38965520083206334
210
0
220
0
230
1
100
AcDbArc
50
-97.768619895310195
51
7.7686139717653857
0
ARC
5
387
100
AcDbEntity
8
0
100
AcDbCircle
10
17.253535532500955
20
16.64581435991995
30
0
40
0.38965564376403022
210
0
220
0
230
1
100
AcDbArc
50
172.23138899000364
51
277.76861989531017
0
ARC
5
388
100
AcDbEntity
8
0
100
AcDbCircle
10
17.13293536856434
20
21.5052731640505
30
0
40
2.0354248583316754
210
0
220
0
230
1
100
AcDbArc
50
225.15042842790291
51
274.8833580390837
0
ARC
5
389
100
AcDbEntity
8
0
100
AcDbCircle
10
17.479477071311685
20
21.5052731640505
30
0
40
2.035424887747066
210
0
220
0
230
1
100
AcDbArc
50
265.1166322693864
51
314.84958159000956
0
LINE
5
390
100
AcDbEntity
8
0
100
AcDbLine
10
18.622456335571023
20
20.866610587375085
30
0
11
16.867456131723138
21
20.866610587375089
31
0
0
LINE
5
391
100
AcDbEntity
8
0
100
AcDbLine
10
16.867456131723138
20
20.866610587375089
30
0
11
16.867456131723138
21
22.182861150042932
31
0
0
LINE
5
392
100
AcDbEntity
8
0
100
AcDbLine
10
17.306206368949624
20
22.621610940234582
30
0
11
18.622456335571023
21
22.621610940234579
31
0
0
LINE
5
393
100
AcDbEntity
8
0
100
AcDbLine
10
18.622456335571023
20
21.744111359851281
30
0
11
16.867456131723138
21
21.744111359851285
31
0
0
ARC
5
394
100
AcDbEntity
8
0
100
AcDbCircle
10
17.253535532500955
20
22.235531390445153
30
0
40
0.38965579140802009
210
0
220
-0
230
1
100
AcDbArc
50
82.23139195177032
51
187.76852417045623
0
LINE
5
395
100
AcDbEntity
8
0
100
AcDbLine
10
18.622456335571023
20
23.499110520617883
30
0
11
16.867456131723138
21
23.499110520617887
31
0
0
LINE
5
396
100
AcDbEntity
8
0
100
AcDbLine
10
16.867456131723138
20
23.499110520617887
30
0
11
16.867456131723138
21
24.81536108328573
31
0
0
LINE
5
397
100
AcDbEntity
8
0
100
AcDbLine
10
17.306206368949624
20
25.25411087347738
30
0
11
18.622456335571023
21
25.254110873477376
31
0
0
LINE
5
398
100
AcDbEntity
8
0
100
AcDbLine
10
18.622456335571023
20
24.376611293094079
30
0
11
16.867456131723138
21
24.376611293094083
31
0
0
ARC
5
399
100
AcDbEntity
8
0
100
AcDbCircle
10
17.253535532500955
20
24.868031323687951
30
0
40
0.38965579140802009
210
0
220
-0
230
1
100
AcDbArc
50
82.23139195177032
51
187.76852417045623
0
LINE
5
400
100
AcDbEntity
8
0
100
AcDbLine
10
18.914956295039865
20
25.985360921161092
30
0
11
15.69745614483616
21
27.155360759036469
31
0
0
LINE
5
401
100
AcDbEntity
8
0
100
AcDbLine
10
17.891206287887304
20
28.764110387103479
30
0
11
17.598706328418462
21
28.032861531512658
31
0
0
ARC
5
402
100
AcDbEntity
8
0
100
AcDbCircle
10
17.242296480682104
20
28.152061284320276
30
0
40
0.37581488490104664
210
0
220
0
230
1
100
AcDbArc
50
175.87258749093127
51
341.50770810255216
0
ARC
5
403
100
AcDbEntity
8
0
100
AcDbCircle
10
18.225819611098974
20
28.222564042346399
30
0
40
1.3590583205223103
210
0
220
0
230
1
100
AcDbArc
50
153.11012147802808
51
181.83224903048946
0
ARC
5
404
100
AcDbEntity
8
0
100
AcDbCircle
10
18.246954822089879
20
28.641603768603723
30
0
40
0.37625145167112378
210
0
220
0
230
1
100
AcDbArc
50
-3.6178685578405347
51
160.99818942909226
0
ARC
5
405
100
AcDbEntity
8
0
100
AcDbCircle
10
17.073960744884221
20
28.483923257129113
30
0
40
1.554277390241626
210
0
220
0
230
1
100
AcDbArc
50
-25.553239643389979
51
4.9435406111794276
0
ARC
5
406
100
AcDbEntity
8
0
100
AcDbCircle
10
17.479477071311681
20
28.27169972731344
30
0
40
2.0354248583316785
210
0
220
-0
230
1
100
AcDbArc
50
45.150419776480916
51
94.883363702297899
0
ARC
5
407
100
AcDbEntity
8
0
100
AcDbCircle
10
17.132935368564336
20
28.27169972731344
30
0
40
2.0354248536186184
210
0
220
-0
230
1
100
AcDbArc
50
85.116637850521158
51
134.84957658105321
0
LINE
5
408
100
AcDbEntity
8
0
100
AcDbLine
10
28.031089005653147
20
15.488901628131362
30
0
11
28.020577719232797
21
16.098185905656749
31
0
0
LINE
5
409
100
AcDbEntity
8
0
100
AcDbLine
10
25.837665546965983
20
15.451060995989973
30
0
11
25.82505200120529
21
16.18220224821199
31
0
0
LINE
5
410
100
AcDbEntity
8
0
100
AcDbLine
10
26.799906904841681
20
16.199020307512683
30
0
11
26.808315937062375
21
15.711592706705044
31
0
0
ARC
5
411
100
AcDbEntity
8
0
100
AcDbCircle
10
27.411293441707411
20
16.087674619236402
30
0
40
0.60937494039535256
210
0
220
-0
230
1
100
AcDbArc
50
0.98836066059609884
51
180.98836316507439
0
ARC
5
412
100
AcDbEntity
8
0
100
AcDbCircle
10
26.312479453023482
20
16.190611277862338
30
0
40
0.4874999821186099
210
0
220
-0
230
1
100
AcDbArc
50
0.98836066059609884
51
180.98836066059647
0
LINE
5
413
100
AcDbEntity
8
0
100
AcDbLine
10
27.510025435233558
20
17.430202405753803
30
0
11
26.274638820882089
21
18.384034736549506
31
0
0
ARC
5
414
100
AcDbEntity
8
0
100
AcDbCircle
10
26.797549428889781
20
18.756902230715006
30
0
40
1.4628624916076627
210
0
220
0
230
1
100
AcDbArc
50
241.85987648225304
51
274.12760257436076
0
ARC
5
415
100
AcDbEntity
8
0
100
AcDbCircle
10
26.177648974271595
20
17.844987977554801
30
0
40
0.38446456193923778
210
0
220
0
230
1
100
AcDbArc
50
173.5468379134002
51
259.50522432787199
0
ARC
5
416
100
AcDbEntity
8
0
100
AcDbCircle
10
26.1759311665495
20
17.944560303436404
30
0
40
0.3844645619392385
210
0
220
0
230
1
100
AcDbArc
50
102.47148557531308
51
188.42986492715383
0
ARC
5
417
100
AcDbEntity
8
0
100
AcDbCircle
10
26.826917803468131
20
17.054571215129169
30
0
40
1.4628624916076665
210
0
220
-0
230
1
100
AcDbArc
50
87.849106452944795
51
120.11684397599994
0
ARC
5
418
100
AcDbEntity
8
0
100
AcDbCircle
10
26.95774630365807
20
18.759665924603798
30
0
40
1.46286249801194
210
0
220
0
230
1
100
AcDbArc
50
267.84911417330039
51
300.11684119647447
0
ARC
5
419
100
AcDbEntity
8
0
100
AcDbCircle
10
27.608733089566144
20
17.869676838866905
30
0
40
0.38446472864508169
210
0
220
0
230
1
100
AcDbArc
50
-77.528537976256402
51
8.4298797653272253
0
ARC
5
420
100
AcDbEntity
8
0
100
AcDbCircle
10
26.987114678236424
20
17.05733490901796
30
0
40
1.4628624916076629
210
0
220
-0
230
1
100
AcDbArc
50
61.859881491209379
51
94.127594927742905
0
ARC
5
421
100
AcDbEntity
8
0
100
AcDbCircle
10
27.607015281844049
20
17.969249164748508
30
0
40
0.38446455201973917
210
0
220
0
230
1
100
AcDbArc
50
-6.4531471262297595
51
79.50526425222715
0
LINE
5
422
100
AcDbEntity
8
0
100
AcDbLine
10
26.942610262969175
20
31.532748895279585
30
0
11
28.159773004729093
21
30.494947048608903
31
0
0
LINE
5
423
100
AcDbEntity
8
0
100
AcDbLine
10
28.159773004729093
20
30.494947048608903
30
0
11
28.161638547144484
21
31.713695501604384
31
0
0
ARC
5
424
100
AcDbEntity
8
0
100
AcDbCircle
10
26.449750833134647
20
31.23371648740186
30
0
40
0.48706926405430001
210
0
220
-0
230
1
100
AcDbArc
50
82.14367739999922
51
187.68091590861906
0
ARC
5
425
100
AcDbEntity
8
0
100
AcDbCircle
10
26.570361119694603
20
31.094117037413636
30
0
40
0.60789184808662033
210
0
220
0
230
1
100
AcDbArc
50
172.9604669010964
51
258.91886687631285
0
ARC
5
426
100
AcDbEntity
8
0
100
AcDbCircle
10
26.558994086374724
20
31.228382135672387
30
0
40
0.48969428759046174
210
0
220
-0
230
1
100
AcDbArc
50
38.429005267478544
51
94.998399503346107
0
LINE
5
427
100
AcDbEntity
8
0
100
AcDbLine
10
28.162571318808368
20
32.323070026124995
30
0
11
28.163690644440074
21
33.054319217131429
31
0
0
LINE
5
428
100
AcDbEntity
8
0
100
AcDbLine
10
27.676937450223278
20
33.542564696132246
30
0
11
27.433187670217318
21
33.542937804752171
31
0
0
LINE
5
429
100
AcDbEntity
8
0
100
AcDbLine
10
26.9449421914446
20
33.056184759546802
30
0
11
26.943822865812894
21
32.324935568540369
31
0
0
LINE
5
430
100
AcDbEntity
8
0
100
AcDbLine
10
26.943822865812894
20
32.324935568540369
30
0
11
25.968824043811935
21
32.326428002563908
31
0
0
LINE
5
431
100
AcDbEntity
8
0
100
AcDbLine
10
25.968824043811935
20
32.326428002563908
30
0
11
25.970689586227323
21
33.545176455559385
31
0
0
ARC
5
432
100
AcDbEntity
8
0
100
AcDbCircle
10
27.734803864350308
20
33.113498604622784
30
0
40
0.43295042445945109
210
-0
220
0
230
1
100
AcDbArc
50
-7.856274809557366
51
97.680905668382948
0
ARC
5
433
100
AcDbEntity
8
0
100
AcDbCircle
10
27.374007984474993
20
33.11405087610715
30
0
40
0.43295061238797328
210
0
220
-0
230
1
100
AcDbArc
50
82.143688778222682
51
187.68087192174514
0
LINE
5
434
100
AcDbEntity
8
0
100
AcDbLine
10
118.68217766284943
20
138.96241635084158
30
0
11
117.12217748165131
21
138.96241635084158
31
0
0
LINE
5
435
100
AcDbEntity
8
0
100
AcDbLine
10
117.12217748165131
20
138.96241635084158
30
0
11
117.12217748165131
21
142.4724161624909
31
0
0
LINE
5
436
100
AcDbEntity
8
0
100
AcDbLine
10
117.12217748165131
20
142.4724161624909
30
0
11
118.68217766284943
21
142.4724161624909
31
0
0
LINE
5
437
100
AcDbEntity
8
0
100
AcDbLine
10
117.12217748165131
20
140.91241627931601
30
0
11
118.29217731952667
21
140.91241627931601
31
0
0
LINE
5
438
100
AcDbEntity
8
0
100
AcDbLine
10
119.65717732906342
20
138.96241635084158
30
0
11
119.65717732906342
21
141.30241632461554
31
0
0
LINE
5
439
100
AcDbEntity
8
0
100
AcDbLine
10
119.65717732906342
20
141.30241632461554
30
0
11
120.63217759132385
21
141.30241632461554
31
0
0
LINE
5
440
100
AcDbEntity
8
0
100
AcDbLine
10
121.21717751026154
20
140.71741610765463
30
0
11
121.21717751026154
21
138.96241635084158
31
0
0
ARC
5
441
100
AcDbEntity
8
0
100
AcDbCircle
10
120.70240497589111
20
140.78764408826834
30
0
40
0.51954088520849551
210
0
220
0
230
1
100
AcDbArc
50
-7.7686327198758161
51
97.768572032860959
0
LINE
5
442
100
AcDbEntity
8
0
100
AcDbLine
10
123.84967744350433
20
138.96241635084158
30
0
11
122.8746771812439
21
138.96241635084158
31
0
0
LINE
5
443
100
AcDbEntity
8
0
100
AcDbLine
10
122.28967726230621
20
139.54741626977926
30
0
11
122.28967726230621
21
140.71741610765463
31
0
0
LINE
5
444
100
AcDbEntity
8
0
100
AcDbLine
10
122.8746771812439
20
141.30241632461554
30
0
11
123.84967744350433
21
141.30241632461554
31
0
0
LINE
5
445
100
AcDbEntity
8
0
100
AcDbLine
10
123.84967744350433
20
141.30241632461554
30
0
11
123.84967744350433
21
138.3774164319039
31
0
0
LINE
5
446
100
AcDbEntity
8
0
100
AcDbLine
10
123.26467752456665
20
137.79241651296621
30
0
11
122.48467743396759
21
137.79241651296621
31
0
0
ARC
5
447
100
AcDbEntity
8
0
100
AcDbCircle
10
122.80444979667664
20
139.47718828916555
30
0
40
0.51954088520849551
210
0
220
0
230
1
100
AcDbArc
50
172.2313672801242
51
277.7685764754961
0
ARC
5
448
100
AcDbEntity
8
0
100
AcDbCircle
10
122.80444979667664
20
140.78764408826834
30
0
40
0.51954050935134399
210
0
220
-0
230
1
100
AcDbArc
50
82.231427967139041
51
187.7686327198758
0
ARC
5
449
100
AcDbEntity
8
0
100
AcDbCircle
10
123.33490490913391
20
138.30718845129019
30
0
40
0.51954021406333872
210
0
220
0
230
1
100
AcDbArc
50
-97.768576475496133
51
7.7686327198758116
0
LINE
5
450
100
AcDbEntity
8
0
100
AcDbLine
10
125.01967787742615
20
138.96241635084158
30
0
11
125.01967787742615
21
141.30241632461554
31
0
0
LINE
5
451
100
AcDbEntity
8
0
100
AcDbLine
10
125.01967787742615
20
141.30241632461554
30
0
11
126.18967771530151
21
141.30241632461554
31
0
0
LINE
5
452
100
AcDbEntity
8
0
100
AcDbLine
10
126.18967771530151
20
141.30241632461554
30
0
11
126.18967771530151
21
140.91241627931601
31
0
0
LINE
5
453
100
AcDbEntity
8
0
100
AcDbLine
10
128.52967619895935
20
140.32741636037832
30
0
11
127.65217661857605
21
140.32741636037832
31
0
0
LINE
5
454
100
AcDbEntity
8
0
100
AcDbLine
10
127.65217661857605
20
138.96241635084158
30
0
11
128.52967619895935
21
138.96241635084158
31
0
0
LINE
5
455
100
AcDbEntity
8
0
100
AcDbLine
10
128.52967619895935
20
138.96241635084158
30
0
11
128.52967619895935
21
140.71741610765463
31
0
0
LINE
5
456
100
AcDbEntity
8
0
100
AcDbLine
10
127.94467687606812
20
141.30241632461554
30
0
11
127.16467618942261
21
141.30241632461554
31
0
0
ARC
5
457
100
AcDbEntity
8
0
100
AcDbCircle
10
127.65217661857605
20
139.64491635560995
30
0
40
0.68250000476837158
210
0
220
-0
230
1
100
AcDbArc
50
90
51
270
0
ARC
5
458
100
AcDbEntity
8
0
100
AcDbCircle
10
128.01490426063538
20
140.78764408826834
30
0
40
0.51954029463257356
210
0
220
0
230
1
100
AcDbArc
50
-7.7686416052137766
51
97.768572032860959
0
LINE
5
459
100
AcDbEntity
8
0
100
AcDbLine
10
129.50467824935913
20
141.30241632461554
30
0
11
130.28467774391174
21
138.96241635084158
31
0
0
LINE
5
460
100
AcDbEntity
8
0
100
AcDbLine
10
130.28467774391174
20
138.96241635084158
30
0
11
131.06467723846436
21
141.30241632461554
31
0
0
LINE
5
461
100
AcDbEntity
8
0
100
AcDbLine
10
132.03967809677124
20
138.96241635084158
30
0
11
132.03967809677124
21
141.30241632461554
31
0
0
LWPOLYLINE
5
462
100
AcDbEntity
8
0
100
AcDbPolyline
90
4
70
1
43
0.0
10
131.94217801094055
20
142.4724161624909
10
131.94217801094055
20
142.27741628885275
10
132.13717699050903
20
142.27741628885275
10
132.13717699050903
20
142.4724161624909
0
LINE
5
463
100
AcDbEntity
8
0
100
AcDbLine
10
133.20967793464661
20
138.96241635084158
30
0
11
133.20967793464661
21
141.30241632461554
31
0
0
LINE
5
464
100
AcDbEntity
8
0
100
AcDbLine
10
133.20967793464661
20
141.30241632461554
30
0
11
134.1846776008606
21
141.30241632461554
31
0
0
LINE
5
465
100
AcDbEntity
8
0
100
AcDbLine
10
134.76967692375183
20
140.71741610765463
30
0
11
134.76967692375183
21
138.96241635084158
31
0
0
ARC
5
466
100
AcDbEntity
8
0
100
AcDbCircle
10
134.25490498542786
20
140.78764408826834
30
0
40
0.51954029463257356
210
0
220
0
230
1
100
AcDbArc
50
-7.7686416052137766
51
97.768572032860959
0
LINE
5
467
100
AcDbEntity
8
0
100
AcDbLine
10
137.40217685699463
20
138.96241635084158
30
0
11
136.42717599868774
21
138.96241635084158
31
0
0
LINE
5
468
100
AcDbEntity
8
0
100
AcDbLine
10
135.84217548370361
20
139.54741626977926
30
0
11
135.84217548370361
21
140.71741610765463
31
0
0
LINE
5
469
100
AcDbEntity
8
0
100
AcDbLine
10
136.42717599868774
20
141.30241632461554
30
0
11
137.40217685699463
21
141.30241632461554
31
0
0
LINE
5
470
100
AcDbEntity
8
0
100
AcDbLine
10
137.40217685699463
20
141.30241632461554
30
0
11
137.40217685699463
21
138.3774164319039
31
0
0
LINE
5
471
100
AcDbEntity
8
0
100
AcDbLine
10
136.8171763420105
20
137.79241651296621
30
0
11
136.03717565536499
21
137.79241651296621
31
0
0
ARC
5
472
100
AcDbEntity
8
0
100
AcDbCircle
10
136.35694742202759
20
139.47718828916555
30
0
40
0.51954029463257356
210
0
220
0
230
1
100
AcDbArc
50
172.23135839478624
51
277.76870673491123
0
ARC
5
473
100
AcDbEntity
8
0
100
AcDbCircle
10
136.35694742202759
20
140.78764408826834
30
0
40
0.51954067049039332
210
0
220
-0
230
1
100
AcDbArc
50
82.231297707796571
51
187.76864160521379
0
ARC
5
474
100
AcDbEntity
8
0
100
AcDbCircle
10
136.88740491867065
20
138.30718845129019
30
0
40
0.51954037520247975
210
0
220
0
230
1
100
AcDbArc
50
-97.768706734911277
51
7.7686416052137837
0
LINE
5
475
100
AcDbEntity
8
0
100
AcDbLine
10
140.81467628479004
20
138.96241635084158
30
0
11
140.81467628479004
21
142.4724161624909
31
0
0
LINE
5
476
100
AcDbEntity
8
0
100
AcDbLine
10
139.83967542648315
20
142.4724161624909
30
0
11
141.78967714309692
21
142.4724161624909
31
0
0
LINE
5
477
100
AcDbEntity
8
0
100
AcDbLine
10
144.12967681884766
20
138.96241635084158
30
0
11
143.15467596054077
21
138.96241635084158
31
0
0
LINE
5
478
100
AcDbEntity
8
0
100
AcDbLine
10
142.56967544555664
20
139.54741626977926
30
0
11
142.56967544555664
21
140.5224165320397
31
0
0
LINE
5
479
100
AcDbEntity
8
0
100
AcDbLine
10
144.12967681884766
20
140.5224165320397
30
0
11
144.12967681884766
21
140.13241618871695
31
0
0
LINE
5
480
100
AcDbEntity
8
0
100
AcDbLine
10
144.12967681884766
20
140.13241618871695
30
0
11
142.56967544555664
21
140.13241618871695
31
0
0
ARC
5
481
100
AcDbEntity
8
0
100
AcDbCircle
10
143.08444738388062
20
139.47718828916555
30
0
40
0.51954029463257356
210
0
220
0
230
1
100
AcDbArc
50
172.23135839478624
51
277.76870673491123
0
ARC
5
482
100
AcDbEntity
8
0
100
AcDbCircle
10
143.34967613220215
20
140.5224165320397
30
0
40
0.78000068664550781
210
0
220
0
230
1
100
AcDbArc
50
0
51
180
0
LINE
5
483
100
AcDbEntity
8
0
100
AcDbLine
10
146.3721752166748
20
139.93741601705557
30
0
11
145.39717674255371
21
140.32741636037832
31
0
0
ARC
5
484
100
AcDbEntity
8
0
100
AcDbCircle
10
145.55611133575439
20
140.80262929201132
30
0
40
0.50108645111321914
210
0
220
-0
230
1
100
AcDbArc
50
85.872587490932034
51
251.50752853752445
0
ARC
5
485
100
AcDbEntity
8
0
100
AcDbCircle
10
145.65011501312256
20
139.49126511812216
30
0
40
1.8120776116848039
210
0
220
-0
230
1
100
AcDbArc
50
63.110121478028113
51
91.832249234320898
0
ARC
5
486
100
AcDbEntity
8
0
100
AcDbCircle
10
146.20883226394653
20
139.46308523416525
30
0
40
0.50166852772235271
210
0
220
0
230
1
100
AcDbArc
50
-93.617868557838904
51
70.998081443660539
0
ARC
5
487
100
AcDbEntity
8
0
100
AcDbCircle
10
145.99859237670898
20
141.02707713842398
30
0
40
2.0723696053028147
210
0
220
0
230
1
100
AcDbArc
50
244.44676035661033
51
274.9435195006929
0
LINE
5
488
100
AcDbEntity
8
0
100
AcDbLine
10
147.44467496871948
20
141.30241632461554
30
0
11
148.61467599868774
21
141.30241632461554
31
0
0
LINE
5
489
100
AcDbEntity
8
0
100
AcDbLine
10
147.83467531204224
20
142.4724161624909
30
0
11
147.83467531204224
21
139.54741626977926
31
0
0
LINE
5
490
100
AcDbEntity
8
0
100
AcDbLine
10
148.41967582702637
20
138.96241635084158
30
0
11
148.61467599868774
21
138.96241635084158
31
0
0
ARC
5
491
100
AcDbEntity
8
0
100
AcDbCircle
10
148.34944725036621
20
139.47718828916555
30
0
40
0.51954029463257356
210
0
220
0
230
1
100
AcDbArc
50
172.23135839478624
51
277.76870673491123
0
LINE
5
492
100
AcDbEntity
8
0
100
AcDbLine
10
118.04059457014164
20
129.93973893954484
30
0
11
117.3702820761021
21
130.30536366536347
31
0
0
ARC
5
493
100
AcDbEntity
8
0
100
AcDbCircle
10
117.85536777208408
20
129.45465339257447
30
0
40
0.43295040726661316
210
0
220
0
230
1
100
AcDbArc
50
-97.768629157970139
51
7.7686161808373608
0
ARC
5
494
100
AcDbEntity
8
0
100
AcDbCircle
10
117.7246854079779
20
129.88233817651002
30
0
40
0.85969544947147059
210
0
220
0
230
1
100
AcDbArc
50
219.94543746404992
51
274.81482575586449
0
ARC
5
495
100
AcDbEntity
8
0
100
AcDbCircle
10
117.55550894866546
20
130.79044951035706
30
0
40
0.43295040726662137
210
0
220
-0
230
1
100
AcDbArc
50
82.231386323639882
51
187.76862118979614
0
ARC
5
496
100
AcDbEntity
8
0
100
AcDbCircle
10
117.67436515520176
20
130.48636315300195
30
0
40
0.73554173111915722
210
0
220
-0
230
1
100
AcDbArc
50
48.425105479474219
51
94.704992950172809
0
ARC
5
497
100
AcDbEntity
8
0
100
AcDbCircle
10
117.54430565963348
20
130.68772984578339
30
0
40
0.42010478709671573
210
0
220
0
230
1
100
AcDbArc
50
173.96111094899325
51
245.52863392131491
0
ARC
5
498
100
AcDbEntity
8
0
100
AcDbCircle
10
117.86657106111606
20
129.55737275912492
30
0
40
0.42010476477696812
210
0
220
0
230
1
100
AcDbArc
50
-6.0388536437608575
51
65.528643169932408
0
LINE
5
499
100
AcDbEntity
8
0
100
AcDbLine
10
118.89371950159629
20
128.29442633225648
30
0
11
118.89371950159629
21
130.48817632629601
31
0
0
LINE
5
500
100
AcDbEntity
8
0
100
AcDbLine
10
118.89371950159629
20
130.48817632629601
30
0
11
119.50309459100326
21
130.48817632629601
31
0
0
LINE
5
501
100
AcDbEntity
8
0
100
AcDbLine
10
119.86871961484512
20
130.12255145146577
30
0
11
119.86871961484512
21
129.39130140378205
31
0
0
LINE
5
502
100
AcDbEntity
8
0
100
AcDbLine
10
119.50309459100326
20
129.02567637994019
30
0
11
118.89371950159629
21
129.02567637994019
31
0
0
ARC
5
503
100
AcDbEntity
8
0
100
AcDbCircle
10
119.54698685536941
20
130.16644371583192
30
0
40
0.32471294921983285
210
0
220
0
230
1
100
AcDbArc
50
-7.7685954191484994
51
97.768598973265455
0
ARC
5
504
100
AcDbEntity
8
0
100
AcDbCircle
10
119.54698685536941
20
129.3474091394159
30
0
40
0.32471294921983285
210
0
220
0
230
1
100
AcDbArc
50
-97.768595419148511
51
7.7685954191485234
0
LINE
5
505
100
AcDbEntity
8
0
100
AcDbLine
10
121.45309451947769
20
129.02567637994019
30
0
11
120.84371928105911
21
129.02567637994019
31
0
0
LINE
5
506
100
AcDbEntity
8
0
100
AcDbLine
10
120.47809455524047
20
129.39130140378205
30
0
11
120.47809455524047
21
130.00067634417741
31
0
0
LINE
5
507
100
AcDbEntity
8
0
100
AcDbLine
10
121.45309451947769
20
130.00067634417741
30
0
11
121.45309451947769
21
129.75692642762391
31
0
0
LINE
5
508
100
AcDbEntity
8
0
100
AcDbLine
10
121.45309451947769
20
129.75692642762391
30
0
11
120.47809455524047
21
129.75692642762391
31
0
0
ARC
5
509
100
AcDbEntity
8
0
100
AcDbCircle
10
120.79982701669296
20
129.3474091394159
30
0
40
0.32471265393184506
210
0
220
0
230
1
100
AcDbArc
50
172.23139747261439
51
277.76859541914854
0
ARC
5
510
100
AcDbEntity
8
0
100
AcDbCircle
10
120.96559438834747
20
130.00067634417741
30
0
40
0.48750013113021851
210
0
220
0
230
1
100
AcDbArc
50
0
51
180
0
LINE
5
511
100
AcDbEntity
8
0
100
AcDbLine
10
123.03746942411026
20
129.02567637994019
30
0
11
122.42809418569168
21
129.02567637994019
31
0
0
LINE
5
512
100
AcDbEntity
8
0
100
AcDbLine
10
122.06246916184982
20
129.39130140378205
30
0
11
122.06246916184982
21
130.00067634417741
31
0
0
LINE
5
513
100
AcDbEntity
8
0
100
AcDbLine
10
123.03746942411026
20
130.00067634417741
30
0
11
123.03746942411026
21
129.75692642762391
31
0
0
LINE
5
514
100
AcDbEntity
8
0
100
AcDbLine
10
123.03746942411026
20
129.75692642762391
30
0
11
122.06246916184982
21
129.75692642762391
31
0
0
ARC
5
515
100
AcDbEntity
8
0
100
AcDbCircle
10
122.38420192132553
20
129.3474091394159
30
0
40
0.32471294921983285
210
0
220
0
230
1
100
AcDbArc
50
172.23140458085149
51
277.76859541914854
0
ARC
5
516
100
AcDbEntity
8
0
100
AcDbCircle
10
122.54996899495681
20
130.00067634417741
30
0
40
0.48750042915344238
210
0
220
0
230
1
100
AcDbArc
50
0
51
180
0
LINE
5
517
100
AcDbEntity
8
0
100
AcDbLine
10
124.62184373269638
20
131.21942622496812
30
0
11
124.62184373269638
21
129.02567637994019
31
0
0
LINE
5
518
100
AcDbEntity
8
0
100
AcDbLine
10
124.62184373269638
20
129.02567637994019
30
0
11
124.01246909032425
21
129.02567637994019
31
0
0
LINE
5
519
100
AcDbEntity
8
0
100
AcDbLine
10
123.64684406648239
20
129.39130140378205
30
0
11
123.64684406648239
21
130.12255145146577
31
0
0
LINE
5
520
100
AcDbEntity
8
0
100
AcDbLine
10
124.01246909032425
20
130.48817632629601
30
0
11
124.62184373269638
21
130.48817632629601
31
0
0
ARC
5
521
100
AcDbEntity
8
0
100
AcDbCircle
10
123.96857622991165
20
129.3474091394159
30
0
40
0.32471235864386222
210
0
220
0
230
1
100
AcDbArc
50
172.23139036436436
51
277.76869962658111
0
ARC
5
522
100
AcDbEntity
8
0
100
AcDbCircle
10
123.96857622991165
20
130.16644371583192
30
0
40
0.32471288214550642
210
0
220
-0
230
1
100
AcDbArc
50
82.231296819255434
51
187.76860963563564
0
LWPOLYLINE
5
523
100
AcDbEntity
8
0
100
AcDbPolyline
90
4
70
1
43
0.0
10
125.35309378038009
20
129.33036399914948
10
125.35309378038009
20
129.20848889186112
10
125.47496858964523
20
129.20848889186112
10
125.47496858964523
20
129.33036399914948
0
LWPOLYLINE
5
524
100
AcDbEntity
8
0
100
AcDbPolyline
90
4
70
1
43
0.0
10
125.35309378038009
20
130.30536366536347
10
125.35309378038009
20
130.18348885609834
10
125.47496858964523
20
130.18348885609834
10
125.47496858964523
20
130.30536366536347
0
LINE
5
525
100
AcDbEntity
8
0
100
AcDbLine
10
127.12028030286392
20
129.02567637994019
30
0
11
127.7296555412825
21
129.02567637994019
31
0
0
LINE
5
526
100
AcDbEntity
8
0
100
AcDbLine
10
127.12028030286392
20
131.21942622496812
30
0
11
127.85153035054763
21
131.21942622496812
31
0
0
LINE
5
527
100
AcDbEntity
8
0
100
AcDbLine
10
127.85153035054763
20
130.2444262607309
30
0
11
127.36403111348709
21
130.2444262607309
31
0
0
ARC
5
528
100
AcDbEntity
8
0
100
AcDbCircle
10
127.7296555412825
20
129.63505132033555
30
0
40
0.60937494039535522
210
0
220
0
230
1
100
AcDbArc
50
-90
51
90.000002504478147
0
ARC
5
529
100
AcDbEntity
8
0
100
AcDbCircle
10
127.85153035054763
20
130.73192624284951
30
0
40
0.48749998211860657
210
0
220
0
230
1
100
AcDbArc
50
-90
51
90
0
LINE
5
530
100
AcDbEntity
8
0
100
AcDbLine
10
128.94840482602677
20
129.02567637994019
30
0
11
129.67965487371049
21
129.02567637994019
31
0
0
LINE
5
531
100
AcDbEntity
8
0
100
AcDbLine
10
130.16715530286393
20
129.51317621304719
30
0
11
130.16715530286393
21
129.75692642762391
31
0
0
LINE
5
532
100
AcDbEntity
8
0
100
AcDbLine
10
129.67965487371049
20
130.2444262607309
30
0
11
128.94840482602677
21
130.2444262607309
31
0
0
LINE
5
533
100
AcDbEntity
8
0
100
AcDbLine
10
128.94840482602677
20
130.2444262607309
30
0
11
128.94840482602677
21
131.21942622496812
31
0
0
LINE
5
534
100
AcDbEntity
8
0
100
AcDbLine
10
128.94840482602677
20
131.21942622496812
30
0
11
130.16715530286393
21
131.21942622496812
31
0
0
ARC
5
535
100
AcDbEntity
8
0
100
AcDbCircle
10
129.73817829022965
20
129.45465339257447
30
0
40
0.43295065267268584
210
0
220
0
230
1
100
AcDbArc
50
-97.768647522871333
51
7.76856936728226
0
ARC
5
536
100
AcDbEntity
8
0
100
AcDbCircle
10
129.73817829022965
20
129.81544954611985
30
0
40
0.43295061238797072
210
0
220
0
230
1
100
AcDbArc
50
-7.768608445080428
51
97.768652854082788
0
LINE
5
537
100
AcDbEntity
8
0
100
AcDbLine
10
130.89840535054765
20
129.51317621304719
30
0
11
131.87340501676164
21
130.73192624284951
31
0
0
ARC
5
538
100
AcDbEntity
8
0
100
AcDbCircle
10
132.23719719777665
20
130.20266188218324
30
0
40
1.4628624916076647
210
0
220
0
230
1
100
AcDbArc
50
150.87151582165711
51
183.13924191376421
0
ARC
5
539
100
AcDbEntity
8
0
100
AcDbCircle
10
131.33611086736283
20
130.83819983436791
30
0
40
0.38446456193924572
210
0
220
-0
230
1
100
AcDbArc
50
82.55847725280681
51
168.51682422122812
0
ARC
5
540
100
AcDbEntity
8
0
100
AcDbCircle
10
131.43569830785356
20
130.83819983436791
30
0
40
0.38446456193924455
210
0
220
-0
230
1
100
AcDbArc
50
11.483124914715802
51
97.44154830613509
0
ARC
5
541
100
AcDbEntity
8
0
100
AcDbCircle
10
130.53461197743974
20
130.20266188218324
30
0
40
1.4628624916076602
210
0
220
0
230
1
100
AcDbArc
50
-3.1392542076521659
51
29.12846685342323
0
ARC
5
542
100
AcDbEntity
8
0
100
AcDbCircle
10
132.23719719777665
20
130.0424410207483
30
0
40
1.4628625061722456
210
0
220
0
230
1
100
AcDbArc
50
176.8607476851401
51
209.12848053587783
0
ARC
5
543
100
AcDbEntity
8
0
100
AcDbCircle
10
131.33611086736283
20
129.40690291955201
30
0
40
0.38446417419457563
210
0
220
0
230
1
100
AcDbArc
50
191.48314080914739
51
277.44151910472885
0
ARC
5
544
100
AcDbEntity
8
0
100
AcDbCircle
10
130.53461197743974
20
130.0424410207483
30
0
40
1.4628624916076696
210
0
220
0
230
1
100
AcDbArc
50
-29.128479169387116
51
3.1392400947098396
0
ARC
5
545
100
AcDbEntity
8
0
100
AcDbCircle
10
131.43569830785356
20
129.40690291955201
30
0
40
0.38446459061801697
210
0
220
0
230
1
100
AcDbArc
50
262.55844817359906
51
348.51686414563966
0
LINE
5
546
100
AcDbEntity
8
0
100
AcDbLine
10
133.64059094319902
20
129.02567637994019
30
0
11
133.64059094319902
21
130.48817632629601
31
0
0
LINE
5
547
100
AcDbEntity
8
0
100
AcDbLine
10
133.64059094319902
20
130.48817632629601
30
0
11
134.73746661077104
21
130.48817632629601
31
0
0
LINE
5
548
100
AcDbEntity
8
0
100
AcDbLine
10
135.10309103856645
20
130.12255145146577
30
0
11
135.10309103856645
21
129.02567637994019
31
0
0
LINE
5
549
100
AcDbEntity
8
0
100
AcDbLine
10
134.37184099088273
20
129.02567637994019
30
0
11
134.37184099088273
21
130.48817632629601
31
0
0
ARC
5
550
100
AcDbEntity
8
0
100
AcDbCircle
10
134.78135827909074
20
130.16644371583192
30
0
40
0.32471294921983285
210
0
220
0
230
1
100
AcDbArc
50
-7.7685954191484994
51
97.76849476573463
0
LINE
5
551
100
AcDbEntity
8
0
100
AcDbLine
10
135.83434108625016
20
129.02567637994019
30
0
11
135.83434108625016
21
130.48817632629601
31
0
0
LINE
5
552
100
AcDbEntity
8
0
100
AcDbLine
10
135.83434108625016
20
130.48817632629601
30
0
11
136.93121675382218
21
130.48817632629601
31
0
0
LINE
5
553
100
AcDbEntity
8
0
100
AcDbLine
10
137.29684118161759
20
130.12255145146577
30
0
11
137.29684118161759
21
129.02567637994019
31
0
0
LINE
5
554
100
AcDbEntity
8
0
100
AcDbLine
10
136.56559113393388
20
129.02567637994019
30
0
11
136.56559113393388
21
130.48817632629601
31
0
0
ARC
5
555
100
AcDbEntity
8
0
100
AcDbCircle
10
136.97510961423478
20
130.16644371583192
30
0
40
0.32471176806791158
210
0
220
0
230
1
100
AcDbArc
50
-7.7686238521745148
51
97.768703180744595
0
LINE
5
556
100
AcDbEntity
8
0
100
AcDbLine
10
137.90621522794328
20
128.7819264633867
30
0
11
138.88121608625016
21
131.46317629053323
31
0
0
LINE
5
557
100
AcDbEntity
8
0
100
AcDbLine
10
140.22184137235246
20
129.63505132033555
30
0
11
139.61246494184098
21
129.87880123688905
31
0
0
ARC
5
558
100
AcDbEntity
8
0
100
AcDbCircle
10
139.71179965863786
20
130.17580939366547
30
0
40
0.31317904591560053
210
0
220
-0
230
1
100
AcDbArc
50
85.87258749093435
51
251.5074294454698
0
ARC
5
559
100
AcDbEntity
8
0
100
AcDbCircle
10
139.77055314908586
20
129.35620678498475
30
0
40
1.1325485259294528
210
0
220
-0
230
1
100
AcDbArc
50
63.110121478028709
51
91.832309438246796
0
ARC
5
560
100
AcDbEntity
8
0
100
AcDbCircle
10
140.11975053678117
20
129.33859420850007
30
0
40
0.313542820513252
210
0
220
0
230
1
100
AcDbArc
50
-93.617868557840481
51
70.997846148388632
0
ARC
5
561
100
AcDbEntity
8
0
100
AcDbCircle
10
139.98835090528092
20
130.31608922316758
30
0
40
1.2952309846878038
210
0
220
0
230
1
100
AcDbArc
50
244.44676035661053
51
274.94350614370819
0
LINE
5
562
100
AcDbEntity
8
0
100
AcDbLine
10
190.49002935148883
20
125.02312573275701
30
0
11
190.49002935148883
21
127.65562596402303
31
0
0
LINE
5
563
100
AcDbEntity
8
0
100
AcDbLine
10
190.49002935148883
20
127.65562596402303
30
0
11
191.22127939917254
21
127.65562596402303
31
0
0
LINE
5
564
100
AcDbEntity
8
0
100
AcDbLine
10
191.22127939917254
20
126.1931258686556
30
0
11
190.49002935148883
21
126.1931258686556
31
0
0
ARC
5
565
100
AcDbEntity
8
0
100
AcDbCircle
10
191.22127939917254
20
126.9243757673277
30
0
40
0.73124989867210388
210
0
220
0
230
1
100
AcDbArc
50
-90
51
90
0
LWPOLYLINE
5
566
100
AcDbEntity
8
0
100
AcDbPolyline
90
4
70
1
43
0.0
10
192.61065443016696
20
126.1931258686556
10
192.61065443016696
20
125.60812565169469
42
0.99999999999999989
10
193.78065426804233
20
125.60812565169469
10
193.78065426804233
20
126.1931258686556
42
0.99999999999999989
0
LINE
5
567
100
AcDbEntity
8
0
100
AcDbLine
10
194.43877925135303
20
126.77812593660489
30
0
11
194.8775293395679
21
125.02312573275701
31
0
0
LINE
5
568
100
AcDbEntity
8
0
100
AcDbLine
10
194.8775293395679
20
125.02312573275701
30
0
11
195.31627912975955
21
126.1931258686556
31
0
0
LINE
5
569
100
AcDbEntity
8
0
100
AcDbLine
10
195.31627912975955
20
126.1931258686556
30
0
11
195.75502951599765
21
125.02312573275701
31
0
0
LINE
5
570
100
AcDbEntity
8
0
100
AcDbLine
10
195.75502951599765
20
125.02312573275701
30
0
11
196.1937793061893
21
126.77812593660489
31
0
0
LINE
5
571
100
AcDbEntity
8
0
100
AcDbLine
10
198.02190442539859
20
125.02312573275701
30
0
11
197.29065437771487
21
125.02312573275701
31
0
0
LINE
5
572
100
AcDbEntity
8
0
100
AcDbLine
10
196.85190458752322
20
125.46187582097188
30
0
11
196.85190458752322
21
126.1931258686556
31
0
0
LINE
5
573
100
AcDbEntity
8
0
100
AcDbLine
10
198.02190442539859
20
126.1931258686556
30
0
11
198.02190442539859
21
125.90062590918676
31
0
0
LINE
5
574
100
AcDbEntity
8
0
100
AcDbLine
10
198.02190442539859
20
125.90062590918676
30
0
11
196.85190458752322
21
125.90062590918676
31
0
0
ARC
5
575
100
AcDbEntity
8
0
100
AcDbCircle
10
197.2379835412662
20
125.40920498452321
30
0
40
0.38965520083206551
210
0
220
0
230
1
100
AcDbArc
50
172.23138010468983
51
277.76861397176543
0
ARC
5
576
100
AcDbEntity
8
0
100
AcDbCircle
10
197.43690450646091
20
126.1931258686556
30
0
40
0.58499991893768311
210
0
220
0
230
1
100
AcDbArc
50
0
51
180
0
LINE
5
577
100
AcDbEntity
8
0
100
AcDbLine
10
198.8262792394321
20
125.02312573275701
30
0
11
198.8262792394321
21
126.77812593660489
31
0
0
LINE
5
578
100
AcDbEntity
8
0
100
AcDbLine
10
198.8262792394321
20
126.77812593660489
30
0
11
199.70377941586185
21
126.77812593660489
31
0
0
LINE
5
579
100
AcDbEntity
8
0
100
AcDbLine
10
199.70377941586185
20
126.77812593660489
30
0
11
199.70377941586185
21
126.48562582812444
31
0
0
ARC
5
580
100
AcDbEntity
8
0
100
AcDbCircle
10
203.55994065262485
20
126.51264669976369
30
0
40
2.0354248583316852
210
0
220
0
230
1
100
AcDbArc
50
135.1504284279028
51
184.88335803908367
0
ARC
5
581
100
AcDbEntity
8
0
100
AcDbCircle
10
203.55994065262485
20
126.16610499701635
30
0
40
2.0354248877470833
210
0
220
0
230
1
100
AcDbArc
50
175.11663226938646
51
224.8495815900103
0
LINE
5
582
100
AcDbEntity
8
0
100
AcDbLine
10
202.84815390564609
20
125.02312573275701
30
0
11
205.18815477348971
21
127.65562596402303
31
0
0
LWPOLYLINE
5
583
100
AcDbEntity
8
0
100
AcDbPolyline
90
2
70
1
43
0.0
10
202.84815483696866
20
127.21687583768606
42
-1.000000043443978
10
203.7256549388926
20
127.21687587604281
42
-0.99999995655602381
0
LWPOLYLINE
5
584
100
AcDbEntity
8
0
100
AcDbPolyline
90
2
70
1
43
0.0
10
204.31065493233609
20
125.46187578284979
42
-1.000000043443978
10
205.18815503426003
20
125.46187582120653
42
-0.99999995655602381
0
ARC
5
585
100
AcDbEntity
8
0
100
AcDbCircle
10
204.47636683441806
20
126.16610499701635
30
0
40
2.0354248583316847
210
0
220
0
230
1
100
AcDbArc
50
-44.849580223518672
51
4.8833637022979195
0
ARC
5
586
100
AcDbEntity
8
0
100
AcDbCircle
10
204.47636683441806
20
126.51264669976369
30
0
40
2.0354248536186308
210
0
220
0
230
1
100
AcDbArc
50
-4.8833621494786534
51
44.849576581052482
0
LINE
5
587
100
AcDbEntity
8
0
100
AcDbLine
10
196.97377913779818
20
115.4209947449954
30
0
11
197.70502918548189
21
115.4209947449954
31
0
0
LINE
5
588
100
AcDbEntity
8
0
100
AcDbLine
10
198.19252931661211
20
115.908494727114
30
0
11
198.19252931661211
21
116.15224479267911
31
0
0
LINE
5
589
100
AcDbEntity
8
0
100
AcDbLine
10
197.70502918548189
20
116.63974462578611
30
0
11
196.97377913779818
21
116.63974462578611
31
0
0
LINE
5
590
100
AcDbEntity
8
0
100
AcDbLine
10
196.97377913779818
20
116.63974462578611
30
0
11
196.97377913779818
21
117.61474459002332
31
0
0
LINE
5
591
100
AcDbEntity
8
0
100
AcDbLine
10
196.97377913779818
20
117.61474459002332
30
0
11
198.19252931661211
21
117.61474459002332
31
0
0
ARC
5
592
100
AcDbEntity
8
0
100
AcDbCircle
10
197.76355230397783
20
115.84997160861806
30
0
40
0.43295046474398069
210
0
220
0
230
1
100
AcDbArc
50
-97.768611110672211
51
7.768608445080436
0
ARC
5
593
100
AcDbEntity
8
0
100
AcDbCircle
10
197.76355230397783
20
116.21076791117505
30
0
40
0.43295061238797072
210
0
220
0
230
1
100
AcDbArc
50
-7.768608445080428
51
97.768613776265767
0
LINE
5
594
100
AcDbEntity
8
0
100
AcDbLine
10
198.80190425700746
20
115.4209947449954
30
0
11
199.53315400666796
21
115.4209947449954
31
0
0
LINE
5
595
100
AcDbEntity
8
0
100
AcDbLine
10
200.02065413779818
20
115.908494727114
30
0
11
200.02065413779818
21
116.15224479267911
31
0
0
LINE
5
596
100
AcDbEntity
8
0
100
AcDbLine
10
199.53315400666796
20
116.63974462578611
30
0
11
198.80190425700746
21
116.63974462578611
31
0
0
LINE
5
597
100
AcDbEntity
8
0
100
AcDbLine
10
198.80190425700746
20
116.63974462578611
30
0
11
198.80190425700746
21
117.61474459002332
31
0
0
LINE
5
598
100
AcDbEntity
8
0
100
AcDbLine
10
198.80190425700746
20
117.61474459002332
30
0
11
200.02065413779818
21
117.61474459002332
31
0
0
ARC
5
599
100
AcDbEntity
8
0
100
AcDbCircle
10
199.59167742318712
20
115.84997160861806
30
0
40
0.43295050502870941
210
0
220
0
230
1
100
AcDbArc
50
-97.768650188476144
51
7.7686137762657683
0
ARC
5
600
100
AcDbEntity
8
0
100
AcDbCircle
10
199.59167742318712
20
116.21076791117505
30
0
40
0.43295031709999149
210
0
220
0
230
1
100
AcDbArc
50
-7.7686137762657799
51
97.768652854082788
0
LINE
5
601
100
AcDbEntity
8
0
100
AcDbLine
10
184.46127920495405
20
117.61474494051771
30
0
11
183.9737791669626
21
115.90849509357197
31
0
0
LINE
5
602
100
AcDbEntity
8
0
100
AcDbLine
10
183.9737791669626
20
115.90849509357197
30
0
11
185.19252934577653
21
115.90849505366306
31
0
0
LINE
5
603
100
AcDbEntity
8
0
100
AcDbLine
10
184.82690433789838
20
116.39599504775433
30
0
11
184.82690430597103
21
115.42099508351711
31
0
0
LINE
5
604
100
AcDbEntity
8
0
100
AcDbLine
10
185.80190427020824
20
115.42099505159
30
0
11
186.53315401986873
21
115.42099502764466
31
0
0
LINE
5
605
100
AcDbEntity
8
0
100
AcDbLine
10
187.0206541669626
20
115.90849499379971
30
0
11
187.02065417494447
21
116.15224505936482
31
0
0
LINE
5
606
100
AcDbEntity
8
0
100
AcDbLine
10
186.5331540597779
20
116.63974490843538
30
0
11
185.80190431011741
21
116.63974493238071
31
0
0
LINE
5
607
100
AcDbEntity
8
0
100
AcDbLine
10
185.80190431011741
20
116.63974493238071
30
0
11
185.80190434204474
21
117.61474489661792
31
0
0
LINE
5
608
100
AcDbEntity
8
0
100
AcDbLine
10
185.80190434204474
20
117.61474489661792
30
0
11
187.02065422283545
21
117.61474485670902
31
0
0
ARC
5
609
100
AcDbEntity
8
0
100
AcDbCircle
10
186.59167745043516
20
115.84997188935093
30
0
40
0.43295050502870935
210
0
220
0
230
1
100
AcDbArc
50
-97.768652064681433
51
7.7686119000729228
0
ARC
5
610
100
AcDbEntity
8
0
100
AcDbCircle
10
186.59167746224981
20
116.21076819190792
30
0
40
0.43295031709997039
210
-0
220
0
230
1
100
AcDbArc
50
-7.7686156524586005
51
97.768650977876831
0
LINE
5
611
100
AcDbEntity
8
0
100
AcDbLine
10
170.97377913779806
20
115.42099517069003
30
0
11
171.58315407819342
21
115.42099517069003
31
0
0
LINE
5
612
100
AcDbEntity
8
0
100
AcDbLine
10
170.97377913779806
20
117.61474501571796
30
0
11
171.70502918548178
21
117.61474501571796
31
0
0
LINE
5
613
100
AcDbEntity
8
0
100
AcDbLine
10
171.70502918548178
20
116.63974505148074
30
0
11
171.21752905435156
21
116.63974505148074
31
0
0
ARC
5
614
100
AcDbEntity
8
0
100
AcDbCircle
10
171.58315407819342
20
116.03037011108539
30
0
40
0.60937494039535522
210
0
220
0
230
1
100
AcDbArc
50
-90
51
90.000002504478147
0
ARC
5
615
100
AcDbEntity
8
0
100
AcDbCircle
10
171.70502918548178
20
117.12724503359935
30
0
40
0.48749998211860657
210
0
220
0
230
1
100
AcDbArc
50
-90
51
90
0
LINE
5
616
100
AcDbEntity
8
0
100
AcDbLine
10
172.80190425700735
20
115.42099517069003
30
0
11
173.53315400666784
21
115.42099517069003
31
0
0
LINE
5
617
100
AcDbEntity
8
0
100
AcDbLine
10
174.02065413779806
20
115.90849515280864
30
0
11
174.02065413779806
21
116.15224521837375
31
0
0
LINE
5
618
100
AcDbEntity
8
0
100
AcDbLine
10
173.53315400666784
20
116.63974505148074
30
0
11
172.80190425700735
21
116.63974505148074
31
0
0
LINE
5
619
100
AcDbEntity
8
0
100
AcDbLine
10
172.80190425700735
20
116.63974505148074
30
0
11
172.80190425700735
21
117.61474501571796
31
0
0
LINE
5
620
100
AcDbEntity
8
0
100
AcDbLine
10
172.80190425700735
20
117.61474501571796
30
0
11
174.02065413779806
21
117.61474501571796
31
0
0
ARC
5
621
100
AcDbEntity
8
0
100
AcDbCircle
10
173.59167742318701
20
115.8499720343127
30
0
40
0.43295050502870941
210
0
220
0
230
1
100
AcDbArc
50
-97.768650188476144
51
7.7686137762657683
0
ARC
5
622
100
AcDbEntity
8
0
100
AcDbCircle
10
173.59167742318701
20
116.21076833686969
30
0
40
0.43295031709999149
210
0
220
0
230
1
100
AcDbArc
50
-7.7686137762657799
51
97.768652854082788
0
LINE
5
623
100
AcDbEntity
8
0
100
AcDbLine
10
159.00971656780754
20
116.57173004231588
30
0
11
157.97377919893773
21
115.35298016152517
31
0
0
LINE
5
624
100
AcDbEntity
8
0
100
AcDbLine
10
157.97377919893773
20
115.35298016152517
30
0
11
159.19252937775167
21
115.35298016152517
31
0
0
ARC
5
625
100
AcDbEntity
8
0
100
AcDbCircle
10
158.70993023853813
20
117.06413116536275
30
0
40
0.48706926405429091
210
0
220
0
230
1
100
AcDbArc
50
-7.7686198233040189
51
97.768618685315744
0
ARC
5
626
100
AcDbEntity
8
0
100
AcDbCircle
10
158.57051557045494
20
116.94330733499662
30
0
40
0.60789184808661956
210
0
220
-0
230
1
100
AcDbArc
50
83.048169677792572
51
169.00656965301064
0
ARC
5
627
100
AcDbEntity
8
0
100
AcDbCircle
10
158.70476311188256
20
116.95487987480298
30
0
40
0.48969419479455856
210
0
220
0
230
1
100
AcDbArc
50
-51.483305597301261
51
5.0861022800434261
0
LINE
5
628
100
AcDbEntity
8
0
100
AcDbLine
10
159.80190431814702
20
115.35298016152518
30
0
11
160.53315406780754
21
115.35298016152518
31
0
0
LINE
5
629
100
AcDbEntity
8
0
100
AcDbLine
10
161.02065390091454
20
115.84048014364379
30
0
11
161.02065390091454
21
116.0842302092089
31
0
0
LINE
5
630
100
AcDbEntity
8
0
100
AcDbLine
10
160.53315406780754
20
116.57173004231589
30
0
11
159.80190431814705
21
116.57173004231589
31
0
0
LINE
5
631
100
AcDbEntity
8
0
100
AcDbLine
10
159.80190431814705
20
116.57173004231589
30
0
11
159.80190431814708
21
117.5467300065531
31
0
0
LINE
5
632
100
AcDbEntity
8
0
100
AcDbLine
10
159.80190431814708
20
117.5467300065531
30
0
11
161.02065390091454
21
117.5467300065531
31
0
0
ARC
5
633
100
AcDbEntity
8
0
100
AcDbCircle
10
160.59167748432671
20
115.78195702514785
30
0
40
0.43295050502870941
210
0
220
0
230
1
100
AcDbArc
50
-97.768650188476144
51
7.7686191074583339
0
ARC
5
634
100
AcDbEntity
8
0
100
AcDbCircle
10
160.59167748432671
20
116.14275332770484
30
0
40
0.43295002181201592
210
0
220
0
230
1
100
AcDbArc
50
-7.7686191074583579
51
97.768652854082788
0
LINE
5
635
100
AcDbEntity
8
0
100
AcDbLine
10
144.97377905138313
20
117.12724503359929
30
0
11
145.58315399177849
21
117.6147450157179
31
0
0
LINE
5
636
100
AcDbEntity
8
0
100
AcDbLine
10
145.58315399177849
20
117.6147450157179
30
0
11
145.58315399177849
21
115.42099517068998
31
0
0
LINE
5
637
100
AcDbEntity
8
0
100
AcDbLine
10
144.97377905138313
20
115.42099517068998
30
0
11
146.19252923019707
21
115.42099517068998
31
0
0
LINE
5
638
100
AcDbEntity
8
0
100
AcDbLine
10
146.80190417059242
20
115.42099517068998
30
0
11
147.53315392025291
21
115.42099517068998
31
0
0
LINE
5
639
100
AcDbEntity
8
0
100
AcDbLine
10
148.02065434940636
20
115.90849515280858
30
0
11
148.02065434940636
21
116.15224521837369
31
0
0
LINE
5
640
100
AcDbEntity
8
0
100
AcDbLine
10
147.53315392025291
20
116.63974505148069
30
0
11
146.80190417059242
21
116.63974505148069
31
0
0
LINE
5
641
100
AcDbEntity
8
0
100
AcDbLine
10
146.80190417059242
20
116.63974505148069
30
0
11
146.80190417059242
21
117.6147450157179
31
0
0
LINE
5
642
100
AcDbEntity
8
0
100
AcDbLine
10
146.80190417059242
20
117.6147450157179
30
0
11
148.02065434940636
21
117.6147450157179
31
0
0
ARC
5
643
100
AcDbEntity
8
0
100
AcDbCircle
10
147.59167733677208
20
115.84997203431264
30
0
40
0.43295050502870941
210
0
220
0
230
1
100
AcDbArc
50
-97.768650188476144
51
7.768608445080436
0
ARC
5
644
100
AcDbEntity
8
0
100
AcDbCircle
10
147.59167733677208
20
116.21076833686963
30
0
40
0.43295061238797072
210
0
220
0
230
1
100
AcDbArc
50
-7.768608445080428
51
97.768652854082788
0
LINE
5
645
100
AcDbEntity
8
0
100
AcDbLine
10
137.64447111640612
20
104.3379220276552
30
0
11
136.42721509737717
21
105.31478635481868
31
0
0
ARC
5
646
100
AcDbEntity
8
0
100
AcDbCircle
10
136.95703584451724
20
105.677768112612
30
0
40
1.4628624916076738
210
0
220
0
230
1
100
AcDbArc
50
240.78381304495997
51
273.05153913706681
0
ARC
5
647
100
AcDbEntity
8
0
100
AcDbCircle
10
136.320119194249
20
104.77765610407741
30
0
40
0.38446456193923945
210
0
220
0
230
1
100
AcDbArc
50
172.47077447610613
51
258.42915646966048
0
ARC
5
648
100
AcDbEntity
8
0
100
AcDbCircle
10
136.32027163256325
20
104.87724320438187
30
0
40
0.38446456193923945
210
0
220
0
230
1
100
AcDbArc
50
101.39542213801654
51
187.35381249975541
0
ARC
5
649
100
AcDbEntity
8
0
100
AcDbCircle
10
136.95442969556228
20
103.97518553882028
30
0
40
1.4628624916076634
210
0
220
-0
230
1
100
AcDbArc
50
86.773043015649748
51
119.04077734264216
0
ARC
5
650
100
AcDbEntity
8
0
100
AcDbCircle
10
137.11725636923808
20
105.67752286250814
30
0
40
1.4628624980119389
210
0
220
0
230
1
100
AcDbArc
50
266.77305073600667
51
299.04077775918057
0
ARC
5
651
100
AcDbEntity
8
0
100
AcDbCircle
10
137.75141458127709
20
104.77546521534491
30
0
40
0.38446458261617333
210
-0
220
0
230
1
100
AcDbArc
50
-78.604596992642882
51
7.3538163280320887
0
ARC
5
652
100
AcDbEntity
8
0
100
AcDbCircle
10
137.11465022028312
20
103.97494028871641
30
0
40
1.4628624916076849
210
0
220
-0
230
1
100
AcDbArc
50
60.783818053914366
51
93.051531490447402
0
ARC
5
653
100
AcDbEntity
8
0
100
AcDbCircle
10
137.75156701959131
20
104.87505231564936
30
0
40
0.384464561669279
210
-0
220
0
230
1
100
AcDbArc
50
-7.5292215734183747
51
78.429195841407775
0
LWPOLYLINE
5
654
100
AcDbEntity
8
0
100
AcDbPolyline
90
4
70
1
43
0.0
10
138.01270732249611
20
106.043610340822
10
138.13458228700483
20
106.04342378639798
10
138.13476884120075
20
106.16529860189523
10
138.01289387669206
20
106.16548515631925
0
LINE
5
655
100
AcDbEntity
8
0
100
AcDbLine
10
137.64838875560389
20
106.897293860902
30
0
11
136.43113273663198
21
107.87415822531833
31
0
0
ARC
5
656
100
AcDbEntity
8
0
100
AcDbCircle
10
136.96095348354393
20
108.23713983410022
30
0
40
1.4628624916076738
210
0
220
0
230
1
100
AcDbArc
50
240.78381304495929
51
273.05153913706675
0
ARC
5
657
100
AcDbEntity
8
0
100
AcDbCircle
10
136.32403683350381
20
107.33702797457707
30
0
40
0.38446456193923945
210
0
220
0
230
1
100
AcDbArc
50
172.47077447610613
51
258.42916089057701
0
ARC
5
658
100
AcDbEntity
8
0
100
AcDbCircle
10
136.32418927170397
20
107.43661500037578
30
0
40
0.38446456193923945
210
0
220
0
230
1
100
AcDbArc
50
101.39542213801613
51
187.35380148985723
0
ARC
5
659
100
AcDbEntity
8
0
100
AcDbCircle
10
136.95834733473157
20
106.53455735344065
30
0
40
1.4628624916076634
210
0
220
-0
230
1
100
AcDbArc
50
86.773043015650842
51
119.04077769776218
0
ARC
5
660
100
AcDbEntity
8
0
100
AcDbCircle
10
137.1211740082648
20
108.23689458399636
30
0
40
1.4628624980119567
210
0
220
0
230
1
100
AcDbArc
50
266.77305073600564
51
299.04077775917983
0
ARC
5
661
100
AcDbEntity
8
0
100
AcDbCircle
10
137.75533222053187
20
107.33483708584455
30
0
40
0.38446472864506537
210
-0
220
0
230
1
100
AcDbArc
50
-78.604601413550824
51
7.3538163280315416
0
ARC
5
662
100
AcDbEntity
8
0
100
AcDbCircle
10
137.11856785945241
20
106.53431210333677
30
0
40
1.4628624916076849
210
0
220
-0
230
1
100
AcDbArc
50
60.783818053915056
51
93.051531490448511
0
ARC
5
663
100
AcDbEntity
8
0
100
AcDbCircle
10
137.75548465873206
20
107.43442411164327
30
0
40
0.3844645520197425
210
-0
220
0
230
1
100
AcDbArc
50
-7.529210563521743
51
78.42919639402237
0
LINE
5
664
100
AcDbEntity
8
0
100
AcDbLine
10
138.13849992625964
20
108.60279565689763
30
0
11
138.13961925189133
21
109.33404484790407
31
0
0
LINE
5
665
100
AcDbEntity
8
0
100
AcDbLine
10
137.65286605767454
20
109.82229032690486
30
0
11
137.4091162776686
21
109.8226634355248
31
0
0
LINE
5
666
100
AcDbEntity
8
0
100
AcDbLine
10
136.92087079889586
20
109.33591039031944
30
0
11
136.91975147326417
21
108.604661199313
31
0
0
LINE
5
667
100
AcDbEntity
8
0
100
AcDbLine
10
136.91975147326417
20
108.604661199313
30
0
11
135.94475265126323
21
108.60615363333653
31
0
0
LINE
5
668
100
AcDbEntity
8
0
100
AcDbLine
10
135.94475265126323
20
108.60615363333653
30
0
11
135.9466181936786
21
109.82490208633202
31
0
0
ARC
5
669
100
AcDbEntity
8
0
100
AcDbCircle
10
137.71073247180158
20
109.39322423539542
30
0
40
0.43295042445943349
210
-0
220
0
230
1
100
AcDbArc
50
-7.85627480955762
51
97.680905668383801
0
ARC
5
670
100
AcDbEntity
8
0
100
AcDbCircle
10
137.34993659192628
20
109.39377650687979
30
0
40
0.43295061238796445
210
0
220
-0
230
1
100
AcDbArc
50
82.143688778223023
51
187.68087192174468
0
LINE
5
671
100
AcDbEntity
8
0
100
AcDbLine
10
137.6875334013763
20
90.254681178463173
30
0
11
136.47370274431725
21
91.235798571119929
31
0
0
ARC
5
672
100
AcDbEntity
8
0
100
AcDbCircle
10
137.00479027054226
20
91.596924338795077
30
0
40
1.4628624916076709
210
0
220
0
230
1
100
AcDbArc
50
240.58334275968946
51
272.85106885179778
0
ARC
5
673
100
AcDbEntity
8
0
100
AcDbCircle
10
136.36472815350379
20
90.699046321674004
30
0
40
0.38446456193923917
210
0
220
0
230
1
100
AcDbArc
50
172.27030419083746
51
258.22868618438224
0
ARC
5
674
100
AcDbEntity
8
0
100
AcDbCircle
10
136.36522903177138
20
90.798632204538009
30
0
40
0.38446456193924006
210
0
220
0
230
1
100
AcDbArc
50
101.19495185275154
51
187.15333120459138
0
ARC
5
675
100
AcDbEntity
8
0
100
AcDbCircle
10
136.99622704060525
20
89.894361323732653
30
0
40
1.4628624916076569
210
0
220
-0
230
1
100
AcDbArc
50
86.572572730381154
51
118.84030883296447
0
ARC
5
676
100
AcDbEntity
8
0
100
AcDbCircle
10
137.16500895645331
20
91.596118501104783
30
0
40
1.4628624980119389
210
0
220
0
230
1
100
AcDbArc
50
266.57258045073638
51
298.84030747391125
0
ARC
5
677
100
AcDbEntity
8
0
100
AcDbCircle
10
137.79600711392217
20
90.691847545045107
30
0
40
0.38446458261616112
210
-0
220
0
230
1
100
AcDbArc
50
-78.805067277909529
51
7.1533460427641185
0
ARC
5
678
100
AcDbEntity
8
0
100
AcDbCircle
10
137.15644572651627
20
89.893555486042345
30
0
40
1.4628624916076709
210
0
220
-0
230
1
100
AcDbArc
50
60.583347768646199
51
92.85106120517905
0
ARC
5
679
100
AcDbEntity
8
0
100
AcDbCircle
10
137.79650799218976
20
90.791433427909112
30
0
40
0.38446455201973401
210
-0
220
0
230
1
100
AcDbArc
50
-7.7296808487933903
51
78.228728319212067
0
LWPOLYLINE
5
680
100
AcDbEntity
8
0
100
AcDbPolyline
90
4
70
1
43
0.0
10
138.06173531724326
20
91.959070681609759
10
138.18360888302428
20
91.958457704963493
10
138.18422185817161
20
92.080330972725065
10
138.06234829239062
20
92.080943949371346
0
LINE
5
681
100
AcDbEntity
8
0
100
AcDbLine
10
136.48105845807675
20
92.698280168414357
30
0
11
135.99662952221533
21
93.310099305617214
31
0
0
LINE
5
682
100
AcDbEntity
8
0
100
AcDbLine
10
135.99662952221533
20
93.310099305617214
30
0
11
138.19035162013751
21
93.299065736476905
31
0
0
LINE
5
683
100
AcDbEntity
8
0
100
AcDbLine
10
138.18728673990404
20
92.689698503610714
30
0
11
138.193416500371
21
93.908432969343082
31
0
0
LINE
5
684
100
AcDbEntity
8
0
100
AcDbLine
10
125.64698684438579
20
8.9937888391183876
30
0
11
128.27948707565182
21
8.9937888391183929
31
0
0
LINE
5
685
100
AcDbEntity
8
0
100
AcDbLine
10
128.27948707565182
20
8.7012888796495513
30
0
11
128.27948707565182
21
9.2862887985872344
31
0
0
LINE
5
686
100
AcDbEntity
8
0
100
AcDbLine
10
125.64698684438579
20
8.701288879649546
30
0
11
125.64698684438579
21
9.2862887985872291
31
0
0
LINE
5
687
100
AcDbEntity
8
0
100
AcDbLine
10
128.27948707565182
20
10.090663910643967
30
0
11
126.52448687180393
21
10.090663910643965
31
0
0
LINE
5
688
100
AcDbEntity
8
0
100
AcDbLine
10
126.52448687180393
20
10.090663910643965
30
0
11
126.52448687180393
21
10.821913958327681
31
0
0
LINE
5
689
100
AcDbEntity
8
0
100
AcDbLine
10
126.96323710903042
20
11.260664046542555
30
0
11
128.27948707565182
21
11.260664046542557
31
0
0
ARC
5
690
100
AcDbEntity
8
0
100
AcDbCircle
10
126.91056627258175
20
10.874585092799574
30
0
40
0.38965520083206551
210
0
220
-0
230
1
100
AcDbArc
50
82.231380104689848
51
187.76865442975298
0
LINE
5
691
100
AcDbEntity
8
0
100
AcDbLine
10
126.52448687180393
20
11.918789029853254
30
0
11
126.52448687180393
21
12.796289504306227
31
0
0
LINE
5
692
100
AcDbEntity
8
0
100
AcDbLine
10
125.64698684438579
20
12.211289287345316
30
0
11
127.84073698743694
21
12.211289287345322
31
0
0
LINE
5
693
100
AcDbEntity
8
0
100
AcDbLine
10
128.27948707565182
20
12.650039375560196
30
0
11
128.27948707565182
21
12.796289504306229
31
0
0
ARC
5
694
100
AcDbEntity
8
0
100
AcDbCircle
10
127.89340782388561
20
12.597368539111526
30
0
40
0.38965549612004075
210
0
220
0
230
1
100
AcDbArc
50
-97.768613971765419
51
7.7686139717653857
0
LINE
5
695
100
AcDbEntity
8
0
100
AcDbLine
10
128.27948707565179
20
14.62441402746907
30
0
11
128.27948707565179
21
13.893163979785355
31
0
0
LINE
5
696
100
AcDbEntity
8
0
100
AcDbLine
10
127.84073698743694
20
13.454414189593704
30
0
11
127.10948693975322
21
13.454414189593702
31
0
0
LINE
5
697
100
AcDbEntity
8
0
100
AcDbLine
10
127.1094869397532
20
14.62441402746907
30
0
11
127.40198689922204
21
14.62441402746907
31
0
0
LINE
5
698
100
AcDbEntity
8
0
100
AcDbLine
10
127.40198689922204
20
14.62441402746907
30
0
11
127.40198689922204
21
13.454414189593704
31
0
0
ARC
5
699
100
AcDbEntity
8
0
100
AcDbCircle
10
127.89340782388558
20
13.840493143336685
30
0
40
0.38965520083206312
210
0
220
0
230
1
100
AcDbArc
50
-97.768619895306031
51
7.7686139717653857
0
ARC
5
700
100
AcDbEntity
8
0
100
AcDbCircle
10
127.1094869397532
20
14.039414108531387
30
0
40
0.58499991893768311
210
0
220
-0
230
1
100
AcDbArc
50
90
51
270.00000000000279
0
LINE
5
701
100
AcDbEntity
8
0
100
AcDbLine
10
128.27948707565179
20
15.428788841502579
30
0
11
126.5244868718039
21
15.428788841502577
31
0
0
LINE
5
702
100
AcDbEntity
8
0
100
AcDbLine
10
126.5244868718039
20
15.428788841502577
30
0
11
126.5244868718039
21
16.306289017932325
31
0
0
LINE
5
703
100
AcDbEntity
8
0
100
AcDbLine
10
126.5244868718039
20
16.306289017932325
30
0
11
126.81698698028436
21
16.306289017932325
31
0
0
LINE
5
704
100
AcDbEntity
8
0
100
AcDbLine
10
126.5244868718039
20
16.818164170520216
30
0
11
128.27948707565179
21
17.403163493411455
31
0
0
LINE
5
705
100
AcDbEntity
8
0
100
AcDbLine
10
128.27948707565179
20
17.403163493411455
30
0
11
126.5244868718039
21
17.988164008395582
31
0
0
LINE
5
706
100
AcDbEntity
8
0
100
AcDbLine
10
127.25573706849923
20
19.81628972365132
30
0
11
127.25573706849923
21
19.158163846270948
31
0
0
LINE
5
707
100
AcDbEntity
8
0
100
AcDbLine
10
128.27948707565179
20
19.158163846270952
30
0
11
128.27948707565179
21
19.816289723651323
31
0
0
LINE
5
708
100
AcDbEntity
8
0
100
AcDbLine
10
128.27948707565179
20
19.816289723651323
30
0
11
126.96323710903039
21
19.81628972365132
31
0
0
LINE
5
709
100
AcDbEntity
8
0
100
AcDbLine
10
126.5244868718039
20
19.377539933459669
30
0
11
126.5244868718039
21
18.792539418475538
31
0
0
ARC
5
710
100
AcDbEntity
8
0
100
AcDbCircle
10
127.7676119230639
20
19.158163846270952
30
0
40
0.51187485456466675
210
0
220
0
230
1
100
AcDbArc
50
-180
51
0
0
ARC
5
711
100
AcDbEntity
8
0
100
AcDbCircle
10
126.91056627258172
20
19.430210173861891
30
0
40
0.38965579140802009
210
0
220
-0
230
1
100
AcDbArc
50
82.23139195177032
51
187.76852417045623
0
LINE
5
712
100
AcDbEntity
8
0
100
AcDbLine
10
125.64698684438576
20
20.693789304034617
30
0
11
127.84073698743691
21
20.693789304034624
31
0
0
ARC
5
713
100
AcDbEntity
8
0
100
AcDbCircle
10
127.89340782388558
20
21.079868853824053
30
0
40
0.38965579140802009
210
0
220
0
230
1
100
AcDbArc
50
-97.768608048229694
51
7.7686032037044157
0
ARC
5
714
100
AcDbEntity
8
0
100
AcDbCircle
10
126.7899661086451
20
25.061825097339067
30
0
40
2.0354248583316821
210
0
220
0
230
1
100
AcDbArc
50
225.15042842790317
51
274.8833580390837
0
ARC
5
715
100
AcDbEntity
8
0
100
AcDbCircle
10
127.13650781139245
20
25.061825097339067
30
0
40
2.0354248877470655
210
0
220
0
230
1
100
AcDbArc
50
265.1166322693864
51
314.84958159001008
0
LINE
5
716
100
AcDbEntity
8
0
100
AcDbLine
10
128.27948707565179
20
24.423163712756548
30
0
11
126.5244868718039
21
24.423163712756541
31
0
0
LINE
5
717
100
AcDbEntity
8
0
100
AcDbLine
10
126.5244868718039
20
24.423163712756541
30
0
11
126.5244868718039
21
25.739414275424394
31
0
0
LINE
5
718
100
AcDbEntity
8
0
100
AcDbLine
10
126.96323710903037
20
26.178164065616045
30
0
11
128.27948707565179
21
26.178164065616048
31
0
0
LINE
5
719
100
AcDbEntity
8
0
100
AcDbLine
10
128.27948707565179
20
25.300664485232744
30
0
11
126.5244868718039
21
25.300664485232737
31
0
0
ARC
5
720
100
AcDbEntity
8
0
100
AcDbCircle
10
126.9105662725817
20
25.792084515826616
30
0
40
0.38965579140802009
210
0
220
-0
230
1
100
AcDbArc
50
82.23139195177032
51
187.76852417045652
0
LINE
5
721
100
AcDbEntity
8
0
100
AcDbLine
10
128.27948707565179
20
27.055663645999346
30
0
11
126.52448687180389
21
27.055663645999338
31
0
0
LINE
5
722
100
AcDbEntity
8
0
100
AcDbLine
10
126.52448687180389
20
27.055663645999338
30
0
11
126.52448687180389
21
28.371914208667192
31
0
0
LINE
5
723
100
AcDbEntity
8
0
100
AcDbLine
10
126.96323710903037
20
28.810663998858843
30
0
11
128.27948707565179
21
28.810663998858846
31
0
0
LINE
5
724
100
AcDbEntity
8
0
100
AcDbLine
10
128.27948707565179
20
27.933164418475542
30
0
11
126.52448687180389
21
27.933164418475535
31
0
0
ARC
5
725
100
AcDbEntity
8
0
100
AcDbCircle
10
126.9105662725817
20
28.424585641162309
30
0
40
0.38965461025612763
210
0
220
-0
230
1
100
AcDbArc
50
82.231368257573436
51
187.76869784950063
0
ARC
5
726
100
AcDbEntity
8
0
100
AcDbCircle
10
127.13650781139243
20
28.172002614276323
30
0
40
2.0354248583316785
210
0
220
-0
230
1
100
AcDbArc
50
45.150419776481115
51
94.883363702298013
0
ARC
5
727
100
AcDbEntity
8
0
100
AcDbCircle
10
126.78996610864509
20
28.172002614276323
30
0
40
2.0354248536186175
210
0
220
-0
230
1
100
AcDbArc
50
85.116637850521258
51
134.8495765810535
0
LINE
5
728
100
AcDbEntity
8
0
100
AcDbLine
10
137.56363299893326
20
14.322852419036476
30
0
11
136.32824638522436
21
15.276684712584816
31
0
0
ARC
5
729
100
AcDbEntity
8
0
100
AcDbCircle
10
136.85115699066171
20
15.649552355739758
30
0
40
1.4628624916076649
210
0
220
0
230
1
100
AcDbArc
50
241.85987648225318
51
274.12760257436145
0
ARC
5
730
100
AcDbEntity
8
0
100
AcDbCircle
10
136.23125653861388
20
14.737637953590113
30
0
40
0.38446456193923778
210
0
220
0
230
1
100
AcDbArc
50
173.54683791340059
51
259.50521990694818
0
ARC
5
731
100
AcDbEntity
8
0
100
AcDbCircle
10
136.22953872960662
20
14.837210353966434
30
0
40
0.38446456193923567
210
0
220
0
230
1
100
AcDbArc
50
102.47148557531146
51
188.429875937047
0
ARC
5
732
100
AcDbEntity
8
0
100
AcDbCircle
10
136.88052536941689
20
13.947221098046077
30
0
40
1.4628624916076662
210
0
220
-0
230
1
100
AcDbArc
50
87.84910645294535
51
120.11684077993678
0
ARC
5
733
100
AcDbEntity
8
0
100
AcDbCircle
10
137.01135386542998
20
15.652316049628549
30
0
40
1.4628624980119398
210
0
220
0
230
1
100
AcDbArc
50
267.84911417330164
51
300.11684119647447
0
ARC
5
734
100
AcDbEntity
8
0
100
AcDbCircle
10
137.66234065390842
20
14.762326814902217
30
0
40
0.38446458261616462
210
0
220
0
230
1
100
AcDbArc
50
-77.528533555348758
51
8.4298797653271809
0
ARC
5
735
100
AcDbEntity
8
0
100
AcDbCircle
10
137.04072224418519
20
13.949984791934869
30
0
40
1.4628624916076611
210
0
220
-0
230
1
100
AcDbArc
50
61.859881491209883
51
94.127594927743857
0
ARC
5
736
100
AcDbEntity
8
0
100
AcDbCircle
10
137.66062284490116
20
14.861899215278541
30
0
40
0.38446456166930232
210
0
220
0
230
1
100
AcDbArc
50
-6.4531581361239487
51
79.505259278704315
0
LWPOLYLINE
5
737
100
AcDbEntity
8
0
100
AcDbPolyline
90
4
70
1
43
0.0
10
137.89977187163601
20
16.035155307957528
10
138.02162884633265
20
16.037257567297875
10
138.01952658956264
20
16.159114393005062
10
137.897669614866
20
16.157012133664718
0
LINE
5
738
100
AcDbEntity
8
0
100
AcDbLine
10
138.00901530057195
20
16.768398819519891
30
0
11
137.99850401415159
21
17.377683097045278
31
0
0
LINE
5
739
100
AcDbEntity
8
0
100
AcDbLine
10
135.81559184188475
20
16.730558187378502
30
0
11
135.80297829612408
21
17.461699439600519
31
0
0
LINE
5
740
100
AcDbEntity
8
0
100
AcDbLine
10
136.77783319976047
20
17.478517498901212
30
0
11
136.78624223198116
21
16.991089898093573
31
0
0
ARC
5
741
100
AcDbEntity
8
0
100
AcDbCircle
10
137.38921973662622
20
17.367171810624932
30
0
40
0.60937494039536588
210
0
220
-0
230
1
100
AcDbArc
50
0.98836066059609884
51
180.98836316507439
0
ARC
5
742
100
AcDbEntity
8
0
100
AcDbCircle
10
136.29040574794229
20
17.470108469250867
30
0
40
0.48749998211860102
210
0
220
-0
230
1
100
AcDbArc
50
0.98836066059609884
51
180.98836066059647
0
LINE
5
743
100
AcDbEntity
8
0
100
AcDbLine
10
137.97748144131089
20
18.596251652096051
30
0
11
137.96486790069088
21
19.327392606339181
31
0
0
LINE
5
744
100
AcDbEntity
8
0
100
AcDbLine
10
137.46903141151131
20
19.806411475475361
30
0
11
137.22531761110747
21
19.802206959365016
31
0
0
LINE
5
745
100
AcDbEntity
8
0
100
AcDbLine
10
136.74629934564013
20
19.306370033498489
30
0
11
136.75891288626013
21
18.575229079255354
31
0
0
LINE
5
746
100
AcDbEntity
8
0
100
AcDbLine
10
136.75891288626013
20
18.575229079255354
30
0
11
135.78405798262372
21
18.558411019954661
31
0
0
LINE
5
747
100
AcDbEntity
8
0
100
AcDbLine
10
135.78405798262372
20
18.558411019954661
30
0
11
135.76303540464232
21
19.776979872984317
31
0
0
ARC
5
748
100
AcDbEntity
8
0
100
AcDbCircle
10
137.53494537277925
20
19.378507768460469
30
0
40
0.43295050502871529
210
0
220
0
230
1
100
AcDbArc
50
-6.7802895278803073
51
98.756969105675907
0
ARC
5
749
100
AcDbEntity
8
0
100
AcDbCircle
10
137.17420274953543
20
19.372284287604629
30
0
40
0.43295061238796922
210
0
220
-0
230
1
100
AcDbArc
50
83.219752215517275
51
188.75701351467956
0
LINE
5
750
100
AcDbEntity
8
0
100
AcDbLine
10
137.64587027338874
20
30.251983479160394
30
0
11
136.4286142544168
21
31.228847843576727
31
0
0
ARC
5
751
100
AcDbEntity
8
0
100
AcDbCircle
10
136.95843500155686
20
31.591829601370051
30
0
40
1.46286249160767
210
0
220
0
230
1
100
AcDbArc
50
240.78381304495997
51
273.05153913706675
0
ARC
5
752
100
AcDbEntity
8
0
100
AcDbCircle
10
136.32151835128863
20
30.691717592835452
30
0
40
0.38446456193923889
210
0
220
0
230
1
100
AcDbArc
50
172.47077447610667
51
258.42915646966037
0
ARC
5
753
100
AcDbEntity
8
0
100
AcDbCircle
10
136.32167078948885
20
30.791304618634182
30
0
40
0.38446456193923512
210
0
220
0
230
1
100
AcDbArc
50
101.39542213802061
51
187.35380148985934
0
ARC
5
754
100
AcDbEntity
8
0
100
AcDbCircle
10
136.95582885263042
20
29.889247046204748
30
0
40
1.4628624916076678
210
0
220
-0
230
1
100
AcDbArc
50
86.773043015649748
51
119.04077911823272
0
ARC
5
755
100
AcDbEntity
8
0
100
AcDbCircle
10
137.11865552627773
20
31.591584351266189
30
0
40
1.4628624980119478
210
0
220
0
230
1
100
AcDbArc
50
266.77305073600559
51
299.04077775918063
0
ARC
5
756
100
AcDbEntity
8
0
100
AcDbCircle
10
137.75281373831672
20
30.689526704102942
30
0
40
0.384464582616169
210
-0
220
0
230
1
100
AcDbArc
50
-78.604596992638193
51
7.3538163280346724
0
ARC
5
757
100
AcDbEntity
8
0
100
AcDbCircle
10
137.11604937735129
20
29.889001796100885
30
0
40
1.4628624916076769
210
0
220
-0
230
1
100
AcDbArc
50
60.783818053915127
51
93.051531490448525
0
ARC
5
758
100
AcDbEntity
8
0
100
AcDbCircle
10
137.75296617651691
20
30.789113729901672
30
0
40
0.38446455201972374
210
-0
220
0
230
1
100
AcDbArc
50
-7.5292105635222519
51
78.42919860447914
0
LWPOLYLINE
5
759
100
AcDbEntity
8
0
100
AcDbPolyline
90
4
70
1
43
0.0
10
138.01410647953577
20
31.957671829580029
10
138.13598144404449
20
31.957485275156017
10
138.1361679980123
20
32.07935994164184
10
138.01429303350361
20
32.079546496065852
0
LINE
5
760
100
AcDbEntity
8
0
100
AcDbLine
10
138.13710076967618
20
32.688734466162458
30
0
11
138.1380335408839
21
33.298108692660193
31
0
0
LINE
5
761
100
AcDbEntity
8
0
100
AcDbLine
10
135.94335349467974
20
32.692092442601371
30
0
11
135.94447282031146
21
33.423341633607805
31
0
0
LINE
5
762
100
AcDbEntity
8
0
100
AcDbLine
10
136.91947164231243
20
33.421849199584265
30
0
11
136.91872542507255
21
32.934349639572353
31
0
0
ARC
5
763
100
AcDbEntity
8
0
100
AcDbCircle
10
137.52865931438615
20
33.29904146386788
30
0
40
0.60937494039535556
210
-0
220
0
230
1
100
AcDbArc
50
-0.087702776696203091
51
179.91229972778217
0
ARC
5
764
100
AcDbEntity
8
0
100
AcDbCircle
10
136.43197223131193
20
33.422595416596039
30
0
40
0.48749998211861334
210
-0
220
0
230
1
100
AcDbArc
50
-0.087702776692030207
51
179.91229722330382
0
LINE
5
765
100
AcDbEntity
8
0
100
AcDbLine
10
137.64447111640612
20
74.337922027655225
30
0
11
136.42721509737717
21
75.314786354818693
31
0
0
ARC
5
766
100
AcDbEntity
8
0
100
AcDbCircle
10
136.95703584451724
20
75.677768112612014
30
0
40
1.462862491607666
210
0
220
0
230
1
100
AcDbArc
50
240.78381304495997
51
273.05153913706681
0
ARC
5
767
100
AcDbEntity
8
0
100
AcDbCircle
10
136.320119194249
20
74.777656104077423
30
0
40
0.38446456193923945
210
0
220
0
230
1
100
AcDbArc
50
172.47077447610613
51
258.42915646966048
0
ARC
5
768
100
AcDbEntity
8
0
100
AcDbCircle
10
136.32027163256325
20
74.87724320438187
30
0
40
0.38446456193923945
210
0
220
0
230
1
100
AcDbArc
50
101.39542213801654
51
187.3538124997533
0
ARC
5
769
100
AcDbEntity
8
0
100
AcDbCircle
10
136.95442969556228
20
73.975185538820284
30
0
40
1.4628624916076634
210
0
220
-0
230
1
100
AcDbArc
50
86.773043015649748
51
119.04077734264216
0
ARC
5
770
100
AcDbEntity
8
0
100
AcDbCircle
10
137.11725636923808
20
75.677522862508155
30
0
40
1.4628624980119389
210
0
220
0
230
1
100
AcDbArc
50
266.77305073600667
51
299.04077775918057
0
ARC
5
771
100
AcDbEntity
8
0
100
AcDbCircle
10
137.75141458127709
20
74.775465215344909
30
0
40
0.38446458261616462
210
-0
220
0
230
1
100
AcDbArc
50
-78.60459699264247
51
7.3538163280341751
0
ARC
5
772
100
AcDbEntity
8
0
100
AcDbCircle
10
137.11465022028312
20
73.974940288716425
30
0
40
1.4628624916076769
210
0
220
-0
230
1
100
AcDbArc
50
60.783818053914082
51
93.051531490447445
0
ARC
5
773
100
AcDbEntity
8
0
100
AcDbCircle
10
137.75156701959131
20
74.875052315649356
30
0
40
0.384464561669279
210
-0
220
0
230
1
100
AcDbArc
50
-7.5292215734162884
51
78.429195841407775
0
LWPOLYLINE
5
774
100
AcDbEntity
8
0
100
AcDbPolyline
90
4
70
1
43
0.0
10
138.01270732249611
20
76.043610340821999
10
138.13458228700483
20
76.04342378639798
10
138.13476884120075
20
76.165298601895245
10
138.01289387669206
20
76.165485156319249
0
LINE
5
775
100
AcDbEntity
8
0
100
AcDbLine
10
136.42945374864058
20
76.777284736831575
30
0
11
135.9428871088478
21
77.387405180341077
31
0
0
LINE
5
776
100
AcDbEntity
8
0
100
AcDbLine
10
135.9428871088478
20
77.387405180341077
30
0
11
138.13663438384424
21
77.384047203902156
31
0
0
LINE
5
777
100
AcDbEntity
8
0
100
AcDbLine
10
138.13570161263655
20
76.774672977404421
30
0
11
138.13756715505195
21
77.993421430399906
31
0
0
LINE
5
778
100
AcDbEntity
8
0
100
AcDbLine
10
138.13849992625964
20
78.602795656897641
30
0
11
138.13961925189133
21
79.334044847904067
31
0
0
LINE
5
779
100
AcDbEntity
8
0
100
AcDbLine
10
137.65286605767454
20
79.822290326904877
30
0
11
137.4091162776686
21
79.822663435524802
31
0
0
LINE
5
780
100
AcDbEntity
8
0
100
AcDbLine
10
136.92087079889586
20
79.335910390319441
30
0
11
136.91975147326417
21
78.604661199313014
31
0
0
LINE
5
781
100
AcDbEntity
8
0
100
AcDbLine
10
136.91975147326417
20
78.604661199313014
30
0
11
135.94475265126323
21
78.606153633336547
31
0
0
LINE
5
782
100
AcDbEntity
8
0
100
AcDbLine
10
135.94475265126323
20
78.606153633336547
30
0
11
135.9466181936786
21
79.824902086332031
31
0
0
ARC
5
783
100
AcDbEntity
8
0
100
AcDbCircle
10
137.71073247180158
20
79.393224235395422
30
0
40
0.43295042445943349
210
-0
220
0
230
1
100
AcDbArc
50
-7.85627480955762
51
97.680905668383559
0
ARC
5
784
100
AcDbEntity
8
0
100
AcDbCircle
10
137.34993659192628
20
79.393776506879789
30
0
40
0.43295061238796445
210
0
220
-0
230
1
100
AcDbArc
50
82.143688778223023
51
187.68087192174468
0
LINE
5
785
100
AcDbEntity
8
0
100
AcDbLine
10
137.67190048533678
20
60.251943634626159
30
0
11
136.45464446636484
21
61.228807999042488
31
0
0
ARC
5
786
100
AcDbEntity
8
0
100
AcDbCircle
10
136.9844652135049
20
61.591789756835809
30
0
40
1.462862491607666
210
0
220
0
230
1
100
AcDbArc
50
240.78381304495898
51
273.05153913706681
0
ARC
5
787
100
AcDbEntity
8
0
100
AcDbCircle
10
136.3475485632367
20
60.69167774830121
30
0
40
0.38446456193923945
210
0
220
0
230
1
100
AcDbArc
50
172.47077447610613
51
258.42915646965196
0
ARC
5
788
100
AcDbEntity
8
0
100
AcDbCircle
10
136.34770100143686
20
60.791264774099943
30
0
40
0.38446456193923945
210
0
220
0
230
1
100
AcDbArc
50
101.39542213801613
51
187.35380148986042
0
ARC
5
789
100
AcDbEntity
8
0
100
AcDbCircle
10
136.98185906457846
20
59.889207201670509
30
0
40
1.4628624916076634
210
0
220
-0
230
1
100
AcDbArc
50
86.773043015649748
51
119.04077911823252
0
ARC
5
790
100
AcDbEntity
8
0
100
AcDbCircle
10
137.14468573822575
20
61.59154450673195
30
0
40
1.4628624980119389
210
0
220
0
230
1
100
AcDbArc
50
266.77305073600667
51
299.04077775918057
0
ARC
5
791
100
AcDbEntity
8
0
100
AcDbCircle
10
137.77884395026476
20
60.689486859568703
30
0
40
0.38446458261616978
210
-0
220
0
230
1
100
AcDbArc
50
-78.60459699264247
51
7.3538163280341751
0
ARC
5
792
100
AcDbEntity
8
0
100
AcDbCircle
10
137.1420795892993
20
59.888961951566642
30
0
40
1.4628624916076769
210
0
220
-0
230
1
100
AcDbArc
50
60.783818053915205
51
93.051531490447417
0
ARC
5
793
100
AcDbEntity
8
0
100
AcDbCircle
10
137.77899638846495
20
60.789073885367429
30
0
40
0.38446455201974128
210
-0
220
0
230
1
100
AcDbArc
50
-7.5292105635222519
51
78.429198604483389
0
LWPOLYLINE
5
794
100
AcDbEntity
8
0
100
AcDbPolyline
90
4
70
1
43
0.0
10
138.04013669148381
20
61.957631985045793
10
138.1620116559925
20
61.957445430621775
10
138.16219820996034
20
62.079320097107598
10
138.04032324545165
20
62.079506651531617
0
LINE
5
795
100
AcDbEntity
8
0
100
AcDbLine
10
136.94596823963622
20
63.726496319287456
30
0
11
138.16313098162422
21
62.688694621628215
31
0
0
LINE
5
796
100
AcDbEntity
8
0
100
AcDbLine
10
138.16313098162422
20
62.688694621628215
30
0
11
138.16499652403959
21
63.907443074623693
31
0
0
ARC
5
797
100
AcDbEntity
8
0
100
AcDbCircle
10
136.45310880957359
20
63.427463762398304
30
0
40
0.48706926405429563
210
0
220
-0
230
1
100
AcDbArc
50
82.143677400001124
51
187.68091590861948
0
ARC
5
798
100
AcDbEntity
8
0
100
AcDbCircle
10
136.57371909658974
20
63.287864610432941
30
0
40
0.60789181201550857
210
0
220
0
230
1
100
AcDbArc
50
172.96049478424538
51
258.9188668763137
0
ARC
5
799
100
AcDbEntity
8
0
100
AcDbCircle
10
136.56235206281366
20
63.42212941066883
30
0
40
0.48969438038639451
210
0
220
-0
230
1
100
AcDbArc
50
38.429018908948379
51
94.998399503347045
0
LINE
5
800
100
AcDbEntity
8
0
100
AcDbLine
10
137.79625939280203
20
44.337882183120946
30
0
11
136.57900337377305
21
45.314746510284422
31
0
0
ARC
5
801
100
AcDbEntity
8
0
100
AcDbCircle
10
137.10882412091311
20
45.677728268077743
30
0
40
1.462862491607666
210
0
220
0
230
1
100
AcDbArc
50
240.78381304495898
51
273.05153913706681
0
ARC
5
802
100
AcDbEntity
8
0
100
AcDbCircle
10
136.47190747064491
20
44.777616259543144
30
0
40
0.38446456193923945
210
0
220
0
230
1
100
AcDbArc
50
172.47077447610613
51
258.42915646965196
0
ARC
5
803
100
AcDbEntity
8
0
100
AcDbCircle
10
136.47205990895915
20
44.877203359847599
30
0
40
0.38446456193923945
210
0
220
0
230
1
100
AcDbArc
50
101.39542213802069
51
187.35381249975435
0
ARC
5
804
100
AcDbEntity
8
0
100
AcDbCircle
10
137.10621797195819
20
43.975145694286013
30
0
40
1.462862491607662
210
0
220
-0
230
1
100
AcDbArc
50
86.773043015650842
51
119.04077734264314
0
ARC
5
805
100
AcDbEntity
8
0
100
AcDbCircle
10
137.26904464563398
20
45.677483017973877
30
0
40
1.4628624980119389
210
0
220
0
230
1
100
AcDbArc
50
266.77305073600559
51
299.04077775917972
0
ARC
5
806
100
AcDbEntity
8
0
100
AcDbCircle
10
137.90320285767297
20
44.77542537081063
30
0
40
0.38446458261616112
210
-0
220
0
230
1
100
AcDbArc
50
-78.604596992642257
51
7.3538163280331315
0
ARC
5
807
100
AcDbEntity
8
0
100
AcDbCircle
10
137.26643849667903
20
43.97490044418214
30
0
40
1.4628624916076682
210
0
220
-0
230
1
100
AcDbArc
50
60.783818053915205
51
93.051531490448511
0
ARC
5
808
100
AcDbEntity
8
0
100
AcDbCircle
10
137.90335529598718
20
44.875012471115085
30
0
40
0.3844645616692966
210
-0
220
0
230
1
100
AcDbArc
50
-7.5292215734183747
51
78.429195841407548
0
LWPOLYLINE
5
809
100
AcDbEntity
8
0
100
AcDbPolyline
90
4
70
1
43
0.0
10
138.16449559889202
20
46.043570496287728
10
138.28637056340074
20
46.043383941863709
10
138.28655711759666
20
46.165258757360959
10
138.16468215308794
20
46.165445311784985
0
LINE
5
810
100
AcDbEntity
8
0
100
AcDbLine
10
137.07032714704442
20
47.812434830529391
30
0
11
138.28748988903243
21
46.774633132870143
31
0
0
LINE
5
811
100
AcDbEntity
8
0
100
AcDbLine
10
138.28748988903243
20
46.774633132870143
30
0
11
138.28935543144783
21
47.99338158586562
31
0
0
ARC
5
812
100
AcDbEntity
8
0
100
AcDbCircle
10
136.57746771743797
20
47.513402571663107
30
0
40
0.48706926405429563
210
0
220
-0
230
1
100
AcDbArc
50
82.143677399997813
51
187.68091590861948
0
ARC
5
813
100
AcDbEntity
8
0
100
AcDbCircle
10
136.69807800399792
20
47.373803121674875
30
0
40
0.60789184808662977
210
0
220
0
230
1
100
AcDbArc
50
172.96046690109605
51
258.91886687631643
0
ARC
5
814
100
AcDbEntity
8
0
100
AcDbCircle
10
136.68671097022187
20
47.508067921910751
30
0
40
0.48969438038638613
210
0
220
-0
230
1
100
AcDbArc
50
38.429018908949672
51
94.998396412057659
0
LINE
5
815
100
AcDbEntity
8
0
100
AcDbLine
10
138.29028820265552
20
48.602755812363363
30
0
11
138.29140752828721
21
49.334005003369796
31
0
0
LINE
5
816
100
AcDbEntity
8
0
100
AcDbLine
10
137.80465433407042
20
49.822250482370606
30
0
11
137.56090455406445
21
49.822623590990531
31
0
0
LINE
5
817
100
AcDbEntity
8
0
100
AcDbLine
10
137.07265907529174
20
49.33587054578517
30
0
11
137.07153974966002
21
48.604621354778736
31
0
0
LINE
5
818
100
AcDbEntity
8
0
100
AcDbLine
10
137.07153974966002
20
48.604621354778736
30
0
11
136.09654092765908
21
48.606113788802276
31
0
0
LINE
5
819
100
AcDbEntity
8
0
100
AcDbLine
10
136.09654092765908
20
48.606113788802276
30
0
11
136.09840647007448
21
49.824862241797746
31
0
0
ARC
5
820
100
AcDbEntity
8
0
100
AcDbCircle
10
137.86252074819745
20
49.393184390861151
30
0
40
0.43295042445945109
210
-0
220
0
230
1
100
AcDbArc
50
-7.85627480955762
51
97.680905668383559
0
ARC
5
821
100
AcDbEntity
8
0
100
AcDbCircle
10
137.50172486832213
20
49.393736662345518
30
0
40
0.43295061238796445
210
0
220
-0
230
1
100
AcDbArc
50
82.143688778223023
51
187.68087192174522
0
ENDSEC
0
SECTION
2
OBJECTS
0
DICTIONARY
5
C
100
AcDbDictionary
3
ACAD_GROUP
350
D
3
ACAD_MLINESTYLE
350
17
0
DICTIONARY
5
D
100
AcDbDictionary
0
DICTIONARY
5
1A
330
C
100
AcDbDictionary
0
DICTIONARY
5
17
100
AcDbDictionary
0
ENDSEC
0
EOF
