0
SECTION
2
HEADER
9
$INSUNITS
70
4
9
$ACADVER
1
AC1014
9
$HANDSEED
5
FFFF
0
ENDSEC
0
SECTION
2
TABLES
0
TABLE
2
VPORT
5
8
100
AcDbSymbolTable
0
ENDTAB
0
TABLE
2
LTYPE
5
5
100
AcDbSymbolTable
0
LTYPE
5
14
100
AcDbSymbolTableRecord
100
AcDbLinetypeTableRecord
2
BYBLOCK
70
0
0
LTYPE
5
15
100
AcDbSymbolTableRecord
100
AcDbLinetypeTableRecord
2
BYLAYER
70
0
0
ENDTAB
0
TABLE
2
LAYER
5
2
100
AcDbSymbolTable
70
2
0
LAYER
5
50
100
AcDbSymbolTableRecord
100
AcDbLayerTableRecord
2
0
70
0
6
CONTINUOUS
0
ENDTAB
0
TABLE
2
STYLE
5
3
100
AcDbSymbolTable
70
1
0
STYLE
5
11
100
AcDbSymbolTableRecord
100
AcDbTextStyleTableRecord
2
STANDARD
70
0
0
ENDTAB
0
TABLE
2
VIEW
5
6
100
AcDbSymbolTable
70
0
0
ENDTAB
0
TABLE
2
UCS
5
7
100
AcDbSymbolTable
70
0
0
ENDTAB
0
TABLE
2
APPID
5
9
100
AcDbSymbolTable
70
2
0
APPID
5
12
100
AcDbSymbolTableRecord
100
AcDbRegAppTableRecord
2
ACAD
70
0
0
ENDTAB
0
TABLE
2
DIMSTYLE
5
A
100
AcDbSymbolTable
70
1
0
ENDTAB
0
TABLE
2
BLOCK_RECORD
5
1
100
AcDbSymbolTable
70
1
0
BLOCK_RECORD
5
1F
100
AcDbSymbolTableRecord
100
AcDbBlockTableRecord
2
*MODEL_SPACE
0
BLOCK_RECORD
5
1B
100
AcDbSymbolTableRecord
100
AcDbBlockTableRecord
2
*PAPER_SPACE
0
ENDTAB
0
ENDSEC
0
SECTION
2
BLOCKS
0
BLOCK
5
20
100
AcDbEntity
100
AcDbBlockBegin
2
*MODEL_SPACE
0
ENDBLK
5
21
100
AcDbEntity
100
AcDbBlockEnd
0
BLOCK
5
1C
100
AcDbEntity
100
AcDbBlockBegin
2
*PAPER_SPACE
0
ENDBLK
5
1D
100
AcDbEntity
100
AcDbBlockEnd
0
ENDSEC
0
SECTION
2
ENTITIES
0
LWPOLYLINE
5
100
100
AcDbEntity
8
0
100
AcDbPolyline
90
11
70
1
43
0.0
10
-4.4141087776226549
20
-19.346946047720959
10
0.49039303963304137
20
-18.224463534034243
10
-0.14544009327482454
20
-15.44629575164663
10
-5.0499419105305225
20
-16.568778265333364
10
-10.343891446647437
20
6.5622592374843878
10
12.838234155420398
20
11.627814509877275
10
13.912289957536235
20
6.7124804212381246
10
16.696593708160577
20
7.3208821177011929
10
15.622537906044741
20
12.236216206340361
10
38.804663508112576
20
17.301771478733272
10
0.87984075849425691
20
-42.477983550539037
0
LWPOLYLINE
5
101
100
AcDbEntity
8
0
100
AcDbPolyline
90
4
70
1
43
0.0
10
37.653195555227072
20
15.486747250353826
10
31.751430642224058
20
6.0375082758567462
10
25.871323327443601
20
9.7100803346992652
10
31.773088240446612
20
19.159319309196327
0
LINE
5
102
100
AcDbEntity
8
0
100
AcDbLine
10
29.962093033291261
20
8.7088860519017164
30
2.1075542872664989e-14
11
26.969812220037383
21
10.577791893015096
31
3.0115103213117936e-14
0
LINE
5
103
100
AcDbEntity
8
0
100
AcDbLine
10
26.969812220037383
20
10.577791893015096
30
3.0115103213117936e-14
11
26.271682609442216
21
9.4600256615693148
31
3.4317667452287332e-14
0
LINE
5
104
100
AcDbEntity
8
0
100
AcDbLine
10
26.271682609442216
20
9.4600256615693148
30
3.4317667452287332e-14
11
25.871323327443598
21
9.7100803346992492
31
3.5527136788005009e-14
0
LINE
5
105
100
AcDbEntity
8
0
100
AcDbLine
10
25.871323327443601
20
9.710080334699251
30
3.5527136788005009e-14
11
27.550881364890536
21
12.399198844385527
31
2.5416620862793659e-14
0
LINE
5
106
100
AcDbEntity
8
0
100
AcDbLine
10
27.550881364890536
20
12.399198844385527
30
2.5416620862793662e-14
11
27.951240646889154
21
12.149144171255591
31
2.4207151527075988e-14
0
LINE
5
107
100
AcDbEntity
8
0
100
AcDbLine
10
27.951240646889151
20
12.149144171255591
30
2.4207151527075988e-14
11
27.250220229227274
21
11.026749506247109
31
2.8427117695939408e-14
0
LINE
5
108
100
AcDbEntity
8
0
100
AcDbLine
10
27.250220229227274
20
11.026749506247109
30
2.8427117695939408e-14
11
30.242501042481152
21
9.1578436651337274
31
1.9387557355486464e-14
0
LINE
5
109
100
AcDbEntity
8
0
100
AcDbLine
10
30.242501042481152
20
9.1578436651337274
30
1.9387557355486464e-14
11
29.962093033291261
21
8.7088860519017164
31
2.1075542872664989e-14
0
LINE
5
110
100
AcDbEntity
8
0
100
AcDbLine
10
32.105625348398547
20
12.140867737647893
30
8.1720187759086179e-15
11
31.845452949206908
21
11.724309096161939
31
9.7381910228206735e-15
0
LINE
5
111
100
AcDbEntity
8
0
100
AcDbLine
10
31.845452949206916
20
11.724309096161939
30
9.7381910228206751e-15
11
29.191047596451622
21
13.382186139811614
31
1.7757043146582543e-14
0
SPLINE
5
112
100
AcDbEntity
8
0
100
AcDbSpline
70
0
71
2
72
6
73
3
74
0
42
0.000000001
43
0.0000000001
44
0.0000000001
40
0
40
0
40
0
40
1
40
1
40
1
10
29.191047596451618
20
13.382186139811616
30
1.7757043146582543e-14
10
29.240577645362613
20
13.142146911442438
30
1.7889154968830204e-14
10
29.231569117586549
20
12.808382329980288
30
1.8373654263637838e-14
0
SPLINE
5
113
100
AcDbEntity
8
0
100
AcDbSpline
70
0
71
2
72
6
73
3
74
0
42
0.000000001
43
0.0000000001
44
0.0000000001
40
0
40
0
40
0
40
1
40
1
40
1
10
29.231569117586549
20
12.808382329980288
30
1.8373654263637838e-14
10
29.222560431935626
20
12.474617495746756
30
1.885815450881231e-14
10
29.172887429082344
20
12.235415843761954
30
1.9372308955578136e-14
0
LINE
5
114
100
AcDbEntity
8
0
100
AcDbLine
10
29.172887429082344
20
12.235415843761954
30
1.9372308955578136e-14
11
28.770213772320265
21
12.486916019097032
31
2.0588769924645224e-14
0
SPLINE
5
115
100
AcDbEntity
8
0
100
AcDbSpline
70
0
71
2
72
6
73
3
74
0
42
0.000000001
43
0.0000000001
44
0.0000000001
40
0
40
0
40
0
40
1
40
1
40
1
10
28.770213772320265
20
12.486916019097031
30
2.0588769924645227e-14
10
28.824160373691356
20
12.938986147295218
30
1.977129643198448e-14
10
28.753755240016009
20
13.346478167526881
30
1.9494193857768931e-14
0
SPLINE
5
116
100
AcDbEntity
8
0
100
AcDbSpline
70
0
71
2
72
6
73
3
74
0
42
0.000000001
43
0.0000000001
44
0.0000000001
40
0
40
0
40
0
40
1
40
1
40
1
10
28.753755240016009
20
13.346478167526881
30
1.9494193857768931e-14
10
28.683349695694417
20
13.753970092862025
30
1.9217092997532435e-14
10
28.531433126844171
20
14.000051360600319
30
1.9472307595163808e-14
0
LINE
5
117
100
AcDbEntity
8
0
100
AcDbLine
10
28.531433126844171
20
14.000051360600319
30
1.9472307595163808e-14
11
28.699100015650796
21
14.268500633622626
31
1.8462995197726886e-14
0
LINE
5
118
100
AcDbEntity
8
0
100
AcDbLine
10
28.699100015650796
20
14.268500633622626
30
1.8462995197726886e-14
11
32.105625348398547
21
12.140867737647893
31
8.1720187759086179e-15
0
ENDSEC
0
SECTION
2
OBJECTS
0
DICTIONARY
5
C
100
AcDbDictionary
3
ACAD_GROUP
350
D
3
ACAD_MLINESTYLE
350
17
0
DICTIONARY
5
D
100
AcDbDictionary
0
DICTIONARY
5
1A
330
C
100
AcDbDictionary
0
DICTIONARY
5
17
100
AcDbDictionary
0
ENDSEC
0
EOF
