0
SECTION
2
HEADER
9
$INSUNITS
70
4
9
$ACADVER
1
AC1014
9
$HANDSEED
5
FFFF
0
ENDSEC
0
SECTION
2
TABLES
0
TABLE
2
VPORT
5
8
100
AcDbSymbolTable
0
ENDTAB
0
TABLE
2
LTYPE
5
5
100
AcDbSymbolTable
0
LTYPE
5
14
100
AcDbSymbolTableRecord
100
AcDbLinetypeTableRecord
2
BYBLOCK
70
0
0
LTYPE
5
15
100
AcDbSymbolTableRecord
100
AcDbLinetypeTableRecord
2
BYLAYER
70
0
0
ENDTAB
0
TABLE
2
LAYER
5
2
100
AcDbSymbolTable
70
2
0
LAYER
5
50
100
AcDbSymbolTableRecord
100
AcDbLayerTableRecord
2
0
70
0
6
CONTINUOUS
0
ENDTAB
0
TABLE
2
STYLE
5
3
100
AcDbSymbolTable
70
1
0
STYLE
5
11
100
AcDbSymbolTableRecord
100
AcDbTextStyleTableRecord
2
STANDARD
70
0
0
ENDTAB
0
TABLE
2
VIEW
5
6
100
AcDbSymbolTable
70
0
0
ENDTAB
0
TABLE
2
UCS
5
7
100
AcDbSymbolTable
70
0
0
ENDTAB
0
TABLE
2
APPID
5
9
100
AcDbSymbolTable
70
2
0
APPID
5
12
100
AcDbSymbolTableRecord
100
AcDbRegAppTableRecord
2
ACAD
70
0
0
ENDTAB
0
TABLE
2
DIMSTYLE
5
A
100
AcDbSymbolTable
70
1
0
ENDTAB
0
TABLE
2
BLOCK_RECORD
5
1
100
AcDbSymbolTable
70
1
0
BLOCK_RECORD
5
1F
100
AcDbSymbolTableRecord
100
AcDbBlockTableRecord
2
*MODEL_SPACE
0
BLOCK_RECORD
5
1B
100
AcDbSymbolTableRecord
100
AcDbBlockTableRecord
2
*PAPER_SPACE
0
ENDTAB
0
ENDSEC
0
SECTION
2
BLOCKS
0
BLOCK
5
20
100
AcDbEntity
100
AcDbBlockBegin
2
*MODEL_SPACE
0
ENDBLK
5
21
100
AcDbEntity
100
AcDbBlockEnd
0
BLOCK
5
1C
100
AcDbEntity
100
AcDbBlockBegin
2
*PAPER_SPACE
0
ENDBLK
5
1D
100
AcDbEntity
100
AcDbBlockEnd
0
ENDSEC
0
SECTION
2
ENTITIES
0
LWPOLYLINE
5
100
100
AcDbEntity
8
0
100
AcDbPolyline
90
15
70
1
43
0.0
10
24.606073069148088
20
1.4250000000001184
10
19.455652604245177
20
1.4250000000000984
10
19.455652604245163
20
32.706719687223469
10
35.762162759235252
20
18.819447129666884
10
31.913226103175461
20
14.300004999628124
10
34.0829964518013
20
12.452142279017073
10
37.931933107861092
20
16.971584409055851
10
57.860058833452271
20
-6.6613381477509392e-15
10
37.931933107861013
20
-16.971584409055794
10
34.08299645180125
20
-12.452142279017025
10
31.913226103175401
20
-14.300004999628058
10
35.762162759235167
20
-18.819447129666827
10
19.455652604245163
20
-32.706719687223227
10
19.455652604245163
20
-1.4249999999998917
10
24.60607306914806
20
-1.4249999999998919
0
LWPOLYLINE
5
101
100
AcDbEntity
8
0
100
AcDbPolyline
90
4
70
1
43
0.0
10
58.003280152928127
20
3.3472398362563069
10
58.003280152928127
20
-3.5474658732379396
10
49.065698677657736
20
-3.5474658732379405
10
49.06569867765775
20
3.3472398362563216
0
LINE
5
102
100
AcDbEntity
8
0
100
AcDbLine
10
53.065698737262395
20
-2.2295939897263879
30
0
11
49.537731403468754
21
-2.2295939897263821
31
0
0
LINE
5
103
100
AcDbEntity
8
0
100
AcDbLine
10
49.537731403468754
20
-2.2295939897263826
30
0
11
49.537731403468754
21
-3.5474658732379263
31
0
0
LINE
5
104
100
AcDbEntity
8
0
100
AcDbLine
10
49.537731403468754
20
-3.5474658732379254
30
0
11
49.06569867765775
21
-3.5474658732379249
31
0
0
LINE
5
105
100
AcDbEntity
8
0
100
AcDbLine
10
49.06569867765775
20
-3.5474658732379249
30
0
11
49.06569867765775
21
-0.37693381058819808
31
0
0
LINE
5
106
100
AcDbEntity
8
0
100
AcDbLine
10
49.06569867765775
20
-0.37693381058819808
30
0
11
49.537731403468754
21
-0.37693381058819886
31
0
0
LINE
5
107
100
AcDbEntity
8
0
100
AcDbLine
10
49.537731403468754
20
-0.37693381058819864
30
0
11
49.537731403468754
21
-1.7002627228463467
31
0
0
LINE
5
108
100
AcDbEntity
8
0
100
AcDbLine
10
49.537731403468754
20
-1.7002627228463472
30
0
11
53.065698737262395
21
-1.7002627228463529
31
0
0
LINE
5
109
100
AcDbEntity
8
0
100
AcDbLine
10
53.065698737262395
20
-1.7002627228463527
30
0
11
53.065698737262395
21
-2.2295939897263879
31
0
0
LINE
5
110
100
AcDbEntity
8
0
100
AcDbLine
10
52.59366601145139
20
2.5480318094526893
30
0
11
53.065698737262395
21
2.5480318094526888
31
0
0
LINE
5
111
100
AcDbEntity
8
0
100
AcDbLine
10
53.065698737262395
20
2.5480318094526893
30
0
11
53.065698737262395
21
-0.09589701640256576
31
0
0
SPLINE
5
112
100
AcDbEntity
8
0
100
AcDbSpline
70
0
71
2
72
6
73
3
74
0
42
0.000000001
43
0.0000000001
44
0.0000000001
40
0
40
0
40
0
40
1
40
1
40
1
10
53.065698737262395
20
-0.095897016402566315
30
0
10
52.888345414756444
20
-0.10135411965497665
30
0
10
52.724634701369908
20
-0.038598177310311121
30
0
0
SPLINE
5
113
100
AcDbEntity
8
0
100
AcDbSpline
70
0
71
2
72
6
73
3
74
0
42
0.000000001
43
0.0000000001
44
0.0000000001
40
0
40
0
40
0
40
1
40
1
40
1
10
52.724634701369908
20
-0.038598177310311121
30
0
10
52.454511815665867
20
0.062356593731559551
30
0
10
52.192574733852055
20
0.28473049652925908
30
0
0
SPLINE
5
114
100
AcDbEntity
8
0
100
AcDbSpline
70
0
71
2
72
6
73
3
74
0
42
0.000000001
43
0.0000000001
44
0.0000000001
40
0
40
0
40
0
40
1
40
1
40
1
10
52.192574733852055
20
0.28473049652925908
30
0
10
51.930637354015019
20
0.50710439932695861
30
0
10
51.586844915507939
20
0.92729509127489618
30
0
0
SPLINE
5
115
100
AcDbEntity
8
0
100
AcDbSpline
70
0
71
2
72
6
73
3
74
0
42
0.000000001
43
0.0000000001
44
0.0000000001
40
0
40
0
40
0
40
1
40
1
40
1
10
51.586844915507939
20
0.92729509127489618
30
0
10
51.052056247352269
20
1.5794098402296703
30
0
10
50.739641481994298
20
1.8086046005522411
30
0
0
SPLINE
5
116
100
AcDbEntity
8
0
100
AcDbSpline
70
0
71
2
72
6
73
3
74
0
42
0.000000001
43
0.0000000001
44
0.0000000001
40
0
40
0
40
0
40
1
40
1
40
1
10
50.739641481994298
20
1.8086046005522411
30
0
10
50.427226716636326
20
2.0377999569212597
30
0
10
50.148918325065281
20
2.0377999569212606
30
0
0
SPLINE
5
117
100
AcDbEntity
8
0
100
AcDbSpline
70
0
71
2
72
6
73
3
74
0
42
0.000000001
43
0.0000000001
44
0.0000000001
40
0
40
0
40
0
40
1
40
1
40
1
10
50.148918325065281
20
2.0377999569212606
30
0
10
49.856967622398045
20
2.0377999569212606
30
0
10
49.656421834586766
20
1.8290686632429782
30
0
0
SPLINE
5
118
100
AcDbEntity
8
0
100
AcDbSpline
70
0
71
2
72
6
73
3
74
0
42
0.000000001
43
0.0000000001
44
0.0000000001
40
0
40
0
40
0
40
1
40
1
40
1
10
49.656421834586766
20
1.8290686632429782
30
0
10
49.455876046775487
20
1.6203373695646945
30
0
10
49.455876046775487
20
1.2847304369246189
30
0
0
SPLINE
5
119
100
AcDbEntity
8
0
100
AcDbSpline
70
0
71
2
72
6
73
3
74
0
42
0.000000001
43
0.0000000001
44
0.0000000001
40
0
40
0
40
0
40
1
40
1
40
1
10
49.455876046775487
20
1.2847304369246189
30
0
10
49.455876046775487
20
0.93002379191271689
30
0
10
49.668700093387272
20
0.71719974530093045
30
0
0
SPLINE
5
120
100
AcDbEntity
8
0
100
AcDbSpline
70
0
71
2
72
6
73
3
74
0
42
0.000000001
43
0.0000000001
44
0.0000000001
40
0
40
0
40
0
40
1
40
1
40
1
10
49.668700093387272
20
0.71719974530093045
30
0
10
49.881524139999058
20
0.50437569868914456
30
0
10
50.25805889999738
20
0.50164729607454994
30
0
0
LINE
5
121
100
AcDbEntity
8
0
100
AcDbLine
10
50.25805889999738
20
0.50164729607454994
30
0
11
50.206217164157536
21
-0.0031277512276960823
31
0
0
SPLINE
5
122
100
AcDbEntity
8
0
100
AcDbSpline
70
0
71
2
72
6
73
3
74
0
42
0.000000001
43
0.0000000001
44
0.0000000001
40
0
40
0
40
0
40
1
40
1
40
1
10
50.206217164157536
20
-0.0031277512276955965
30
0
10
49.641415173171666
20
0.048713984612148709
30
0
10
49.345371419547703
20
0.38704961789004233
30
0
0
SPLINE
5
123
100
AcDbEntity
8
0
100
AcDbSpline
70
0
71
2
72
6
73
3
74
0
42
0.000000001
43
0.0000000001
44
0.0000000001
40
0
40
0
40
0
40
1
40
1
40
1
10
49.345371419547703
20
0.38704961789004233
30
0
10
49.049327665923741
20
0.72538525116793595
30
0
10
49.049327665923741
20
1.2956446434294411
30
0
0
SPLINE
5
124
100
AcDbEntity
8
0
100
AcDbSpline
70
0
71
2
72
6
73
3
74
0
42
0.000000001
43
0.0000000001
44
0.0000000001
40
0
40
0
40
0
40
1
40
1
40
1
10
49.049327665923741
20
1.2956446434294411
30
0
10
49.049327665923741
20
1.8713605428969089
30
0
10
49.368563586829808
20
2.2069674755369846
30
0
0
SPLINE
5
125
100
AcDbEntity
8
0
100
AcDbSpline
70
0
71
2
72
6
73
3
74
0
42
0.000000001
43
0.0000000001
44
0.0000000001
40
0
40
0
40
0
40
1
40
1
40
1
10
49.368563586829808
20
2.2069674755369846
30
0
10
49.687799805759099
20
2.542575004223508
30
0
10
50.159832531570103
20
2.5425750042235067
30
0
0
SPLINE
5
126
100
AcDbEntity
8
0
100
AcDbSpline
70
0
71
2
72
6
73
3
74
0
42
0.000000001
43
0.0000000001
44
0.0000000001
40
0
40
0
40
0
40
1
40
1
40
1
10
50.159832531570103
20
2.5425750042235067
30
0
10
50.399941498397496
20
2.5425750042235067
30
0
10
50.631865257381108
20
2.4443483377730053
30
0
0
SPLINE
5
127
100
AcDbEntity
8
0
100
AcDbSpline
70
0
71
2
72
6
73
3
74
0
42
0.000000001
43
0.0000000001
44
0.0000000001
40
0
40
0
40
0
40
1
40
1
40
1
10
50.631865257381108
20
2.4443483377730053
30
0
10
50.863788718341496
20
2.3461216713225048
30
0
10
51.120268994926121
20
2.1182912613188414
30
0
0
SPLINE
5
128
100
AcDbEntity
8
0
100
AcDbSpline
70
0
71
2
72
6
73
3
74
0
42
0.000000001
43
0.0000000001
44
0.0000000001
40
0
40
0
40
0
40
1
40
1
40
1
10
51.120268994926121
20
2.1182912613188414
30
0
10
51.376749271510747
20
1.8904602552687315
30
0
10
51.824225181697514
20
1.3611286903654713
30
0
0
SPLINE
5
129
100
AcDbEntity
8
0
100
AcDbSpline
70
0
71
2
72
6
73
3
74
0
42
0.000000001
43
0.0000000001
44
0.0000000001
40
0
40
0
40
0
40
1
40
1
40
1
10
51.824225181697514
20
1.3611286903654713
30
0
10
52.195303136466649
20
0.91910958540789067
30
0
10
52.327635878680852
20
0.79359829676500682
30
0
0
SPLINE
5
130
100
AcDbEntity
8
0
100
AcDbSpline
70
0
71
2
72
6
73
3
74
0
42
0.000000001
43
0.0000000001
44
0.0000000001
40
0
40
0
40
0
40
1
40
1
40
1
10
52.327635878680852
20
0.79359829676500682
30
0
10
52.459968918918278
20
0.66808641207567576
30
0
10
52.59366601145139
20
0.58623105538240794
30
0
0
LINE
5
131
100
AcDbEntity
8
0
100
AcDbLine
10
52.59366601145139
20
0.58623105538240794
30
0
11
52.59366601145139
21
2.5480318094526897
31
0
0
ENDSEC
0
SECTION
2
OBJECTS
0
DICTIONARY
5
C
100
AcDbDictionary
3
ACAD_GROUP
350
D
3
ACAD_MLINESTYLE
350
17
0
DICTIONARY
5
D
100
AcDbDictionary
0
DICTIONARY
5
1A
330
C
100
AcDbDictionary
0
DICTIONARY
5
17
100
AcDbDictionary
0
ENDSEC
0
EOF
