0
SECTION
2
HEADER
9
$INSUNITS
70
4
9
$ACADVER
1
AC1014
9
$HANDSEED
5
FFFF
0
ENDSEC
0
SECTION
2
TABLES
0
TABLE
2
VPORT
5
8
100
AcDbSymbolTable
0
ENDTAB
0
TABLE
2
LTYPE
5
5
100
AcDbSymbolTable
0
LTYPE
5
14
100
AcDbSymbolTableRecord
100
AcDbLinetypeTableRecord
2
BYBLOCK
70
0
0
LTYPE
5
15
100
AcDbSymbolTableRecord
100
AcDbLinetypeTableRecord
2
BYLAYER
70
0
0
ENDTAB
0
TABLE
2
LAYER
5
2
100
AcDbSymbolTable
70
2
0
LAYER
5
50
100
AcDbSymbolTableRecord
100
AcDbLayerTableRecord
2
0
70
0
6
CONTINUOUS
0
ENDTAB
0
TABLE
2
STYLE
5
3
100
AcDbSymbolTable
70
1
0
STYLE
5
11
100
AcDbSymbolTableRecord
100
AcDbTextStyleTableRecord
2
STANDARD
70
0
0
ENDTAB
0
TABLE
2
VIEW
5
6
100
AcDbSymbolTable
70
0
0
ENDTAB
0
TABLE
2
UCS
5
7
100
AcDbSymbolTable
70
0
0
ENDTAB
0
TABLE
2
APPID
5
9
100
AcDbSymbolTable
70
2
0
APPID
5
12
100
AcDbSymbolTableRecord
100
AcDbRegAppTableRecord
2
ACAD
70
0
0
ENDTAB
0
TABLE
2
DIMSTYLE
5
A
100
AcDbSymbolTable
70
1
0
ENDTAB
0
TABLE
2
BLOCK_RECORD
5
1
100
AcDbSymbolTable
70
1
0
BLOCK_RECORD
5
1F
100
AcDbSymbolTableRecord
100
AcDbBlockTableRecord
2
*MODEL_SPACE
0
BLOCK_RECORD
5
1B
100
AcDbSymbolTableRecord
100
AcDbBlockTableRecord
2
*PAPER_SPACE
0
ENDTAB
0
ENDSEC
0
SECTION
2
BLOCKS
0
BLOCK
5
20
100
AcDbEntity
100
AcDbBlockBegin
2
*MODEL_SPACE
0
ENDBLK
5
21
100
AcDbEntity
100
AcDbBlockEnd
0
BLOCK
5
1C
100
AcDbEntity
100
AcDbBlockBegin
2
*PAPER_SPACE
0
ENDBLK
5
1D
100
AcDbEntity
100
AcDbBlockEnd
0
ENDSEC
0
SECTION
2
ENTITIES
0
LWPOLYLINE
5
100
100
AcDbEntity
8
0
100
AcDbPolyline
90
15
70
1
43
0.0
10
-7.3907622517015721
20
-0.44736988814924356
10
-2.4350570497369262
20
-1.1114376190476092
10
-2.0565384431248548
20
1.7133143460722202
10
-7.0122436450895043
20
2.3773820769706111
10
-3.4395813397888531
20
29.038911236488278
10
12.697336637122243
20
14.265479042283189
10
9.3210087763313005
20
10.577539433089688
10
11.423113820956765
20
8.65305135015433
10
14.799441681747702
20
12.340990959347852
10
33.128350952261066
20
-4.4392206454392653
10
11.028273036156889
20
-15.801921585368513
10
8.741996518262809
20
-11.35518929431052
10
6.2073838695551338
20
-12.658354180658796
10
8.4936603874492214
20
-17.105086471716781
10
-10.963424557002206
20
-27.108899047666881
0
LWPOLYLINE
5
101
100
AcDbEntity
8
0
100
AcDbPolyline
90
4
70
1
43
0.0
10
23.253532151423247
20
0.9076598101187261
10
23.253532151423251
20
-7.2178870385736493
10
17.213154914822105
20
-7.2178870385736502
10
17.213154914822102
20
0.90765981011872543
0
LINE
5
102
100
AcDbEntity
8
0
100
AcDbLine
10
21.213154974426747
20
-5.9000151550621061
30
0
11
17.685187640633107
21
-5.9000151550621061
31
0
0
LINE
5
103
100
AcDbEntity
8
0
100
AcDbLine
10
17.68518764063311
20
-5.9000151550621069
30
0
11
17.68518764063311
21
-7.2178870385736502
31
0
0
LINE
5
104
100
AcDbEntity
8
0
100
AcDbLine
10
17.68518764063311
20
-7.2178870385736502
30
0
11
17.213154914822105
21
-7.2178870385736502
31
0
0
LINE
5
105
100
AcDbEntity
8
0
100
AcDbLine
10
17.213154914822105
20
-7.2178870385736502
30
0
11
17.213154914822105
21
-4.0473549759239233
31
0
0
LINE
5
106
100
AcDbEntity
8
0
100
AcDbLine
10
17.213154914822105
20
-4.0473549759239233
30
0
11
17.68518764063311
21
-4.0473549759239233
31
0
0
LINE
5
107
100
AcDbEntity
8
0
100
AcDbLine
10
17.68518764063311
20
-4.0473549759239233
30
0
11
17.68518764063311
21
-5.3706838881820715
31
0
0
LINE
5
108
100
AcDbEntity
8
0
100
AcDbLine
10
17.68518764063311
20
-5.3706838881820715
30
0
11
21.213154974426747
21
-5.3706838881820715
31
0
0
LINE
5
109
100
AcDbEntity
8
0
100
AcDbLine
10
21.213154974426747
20
-5.3706838881820707
30
0
11
21.213154974426747
21
-5.9000151550621061
31
0
0
LINE
5
110
100
AcDbEntity
8
0
100
AcDbLine
10
21.213154974426747
20
-2.129210153803256
30
0
11
20.255446913685322
21
-2.129210153803256
31
0
0
LINE
5
111
100
AcDbEntity
8
0
100
AcDbLine
10
20.255446913685322
20
-2.1292101538032568
30
0
11
20.255446913685322
21
-3.8645445501655615
31
0
0
LINE
5
112
100
AcDbEntity
8
0
100
AcDbLine
10
20.255446913685322
20
-3.8645445501655611
30
0
11
19.805242302860737
21
-3.8645445501655611
31
0
0
LINE
5
113
100
AcDbEntity
8
0
100
AcDbLine
10
19.805242302860741
20
-3.8645445501655611
30
0
11
17.213154914822105
21
-2.0391695892662085
31
0
0
LINE
5
114
100
AcDbEntity
8
0
100
AcDbLine
10
17.213154914822105
20
-2.0391695892662085
30
0
11
17.213154914822105
21
-1.6380780136436501
31
0
0
LINE
5
115
100
AcDbEntity
8
0
100
AcDbLine
10
17.213154914822105
20
-1.6380780136436501
30
0
11
19.805242302860741
21
-1.6380780136436499
31
0
0
LINE
5
116
100
AcDbEntity
8
0
100
AcDbLine
10
19.805242302860737
20
-1.6380780136436501
30
0
11
19.805242302860737
21
-1.0978328382820168
31
0
0
LINE
5
117
100
AcDbEntity
8
0
100
AcDbLine
10
19.805242302860737
20
-1.0978328382820168
30
0
11
20.255446913685322
21
-1.0978328382820168
31
0
0
LINE
5
118
100
AcDbEntity
8
0
100
AcDbLine
10
20.255446913685322
20
-1.0978328382820168
30
0
11
20.255446913685322
21
-1.6380780136436501
31
0
0
LINE
5
119
100
AcDbEntity
8
0
100
AcDbLine
10
20.255446913685322
20
-1.6380780136436501
30
0
11
21.213154974426747
21
-1.6380780136436501
31
0
0
LINE
5
120
100
AcDbEntity
8
0
100
AcDbLine
10
21.213154974426747
20
-1.638078013643649
30
0
11
21.213154974426747
21
-2.129210153803256
31
0
0
LINE
5
121
100
AcDbEntity
8
0
100
AcDbLine
10
19.805242302860737
20
-2.1292101538032568
30
0
11
18.00169515892458
21
-2.1292101538032573
31
0
0
LINE
5
122
100
AcDbEntity
8
0
100
AcDbLine
10
18.001695158924583
20
-2.1292101538032568
30
0
11
19.805242302860741
21
-3.381597915872959
31
0
0
LINE
5
123
100
AcDbEntity
8
0
100
AcDbLine
10
19.805242302860741
20
-3.3815979158729585
30
0
11
19.805242302860741
21
-2.1292101538032564
31
0
0
ENDSEC
0
SECTION
2
OBJECTS
0
DICTIONARY
5
C
100
AcDbDictionary
3
ACAD_GROUP
350
D
3
ACAD_MLINESTYLE
350
17
0
DICTIONARY
5
D
100
AcDbDictionary
0
DICTIONARY
5
1A
330
C
100
AcDbDictionary
0
DICTIONARY
5
17
100
AcDbDictionary
0
ENDSEC
0
EOF
