0
SECTION
2
HEADER
9
$INSUNITS
70
4
9
$ACADVER
1
AC1014
9
$HANDSEED
5
FFFF
0
ENDSEC
0
SECTION
2
TABLES
0
TABLE
2
VPORT
5
8
100
AcDbSymbolTable
0
ENDTAB
0
TABLE
2
LTYPE
5
5
100
AcDbSymbolTable
0
LTYPE
5
14
100
AcDbSymbolTableRecord
100
AcDbLinetypeTableRecord
2
BYBLOCK
70
0
0
LTYPE
5
15
100
AcDbSymbolTableRecord
100
AcDbLinetypeTableRecord
2
BYLAYER
70
0
0
ENDTAB
0
TABLE
2
LAYER
5
2
100
AcDbSymbolTable
70
2
0
LAYER
5
50
100
AcDbSymbolTableRecord
100
AcDbLayerTableRecord
2
0
70
0
6
CONTINUOUS
0
ENDTAB
0
TABLE
2
STYLE
5
3
100
AcDbSymbolTable
70
1
0
STYLE
5
11
100
AcDbSymbolTableRecord
100
AcDbTextStyleTableRecord
2
STANDARD
70
0
0
ENDTAB
0
TABLE
2
VIEW
5
6
100
AcDbSymbolTable
70
0
0
ENDTAB
0
TABLE
2
UCS
5
7
100
AcDbSymbolTable
70
0
0
ENDTAB
0
TABLE
2
APPID
5
9
100
AcDbSymbolTable
70
2
0
APPID
5
12
100
AcDbSymbolTableRecord
100
AcDbRegAppTableRecord
2
ACAD
70
0
0
ENDTAB
0
TABLE
2
DIMSTYLE
5
A
100
AcDbSymbolTable
70
1
0
ENDTAB
0
TABLE
2
BLOCK_RECORD
5
1
100
AcDbSymbolTable
70
1
0
BLOCK_RECORD
5
1F
100
AcDbSymbolTableRecord
100
AcDbBlockTableRecord
2
*MODEL_SPACE
0
BLOCK_RECORD
5
1B
100
AcDbSymbolTableRecord
100
AcDbBlockTableRecord
2
*PAPER_SPACE
0
ENDTAB
0
ENDSEC
0
SECTION
2
BLOCKS
0
BLOCK
5
20
100
AcDbEntity
100
AcDbBlockBegin
2
*MODEL_SPACE
0
ENDBLK
5
21
100
AcDbEntity
100
AcDbBlockEnd
0
BLOCK
5
1C
100
AcDbEntity
100
AcDbBlockBegin
2
*PAPER_SPACE
0
ENDBLK
5
1D
100
AcDbEntity
100
AcDbBlockEnd
0
ENDSEC
0
SECTION
2
ENTITIES
0
LWPOLYLINE
5
100
100
AcDbEntity
8
0
100
AcDbPolyline
90
15
70
1
43
0.0
10
-0.77290203846199779
20
23.739010601656602
10
-4.564786076069085
20
26.998092595921275
10
13.252907682604418
20
47.728662943455191
10
30.520916850373837
20
25.341294337657558
10
26.561638300952591
20
22.287391063314988
10
28.302286168306349
20
20.030702116677293
10
32.261564717727595
20
23.084605391019849
10
48.454990102111701
20
2.0903969939486622
10
13.531869248329908
20
3.0587742699197271
10
13.670460127383336
20
8.0568531576769011
10
10.821555161361784
20
8.1358499587373583
10
10.682964282308358
20
3.1377710709801709
10
-24.240156571473463
20
4.1061483469513504
10
-6.422462812799977
20
24.836718694485228
10
-2.6305787751928826
20
21.577636700220545
0
LINE
5
101
100
AcDbEntity
8
0
100
AcDbLine
10
23.966236533525318
20
44.800518953515862
30
-0.83464080781990191
11
19.970785203974835
21
49.562112429542978
31
-0.83464080781990191
0
LINE
5
102
100
AcDbEntity
8
0
100
AcDbLine
10
19.970785203974835
20
49.562112429542978
30
-0.83464080781990191
11
10.888424041555478
21
41.941106527938047
31
-0.83464080781990191
0
LINE
5
103
100
AcDbEntity
8
0
100
AcDbLine
10
10.888424041555478
20
41.941106527938047
30
-0.83464080781990191
11
14.883875371105955
21
37.179513051910924
31
-0.83464080781990191
0
LINE
5
104
100
AcDbEntity
8
0
100
AcDbLine
10
14.883875371105955
20
37.179513051910924
30
-0.83464080781990191
11
23.966236533525318
21
44.800518953515862
31
-0.83464080781990191
0
LINE
5
105
100
AcDbEntity
8
0
100
AcDbLine
10
17.100941471366205
20
40.760211962076973
30
-0.83464080781990191
11
14.398361699808309
21
38.492478272535564
31
-0.83464080781990191
0
LINE
5
106
100
AcDbEntity
8
0
100
AcDbLine
10
14.398361699808309
20
38.492478272535571
30
-0.83464080781990191
11
15.24547341768379
21
37.482929839428806
31
-0.83464080781990191
0
LINE
5
107
100
AcDbEntity
8
0
100
AcDbLine
10
15.24547341768379
20
37.482929839428806
30
-0.83464080781990191
11
14.883875371105965
21
37.179513051910931
31
-0.83464080781990191
0
LINE
5
108
100
AcDbEntity
8
0
100
AcDbLine
10
14.883875371105965
20
37.179513051910931
30
-0.83464080781990191
11
12.845896645120817
21
39.608281520234307
31
-0.83464080781990191
0
LINE
5
109
100
AcDbEntity
8
0
100
AcDbLine
10
12.845896645120817
20
39.608281520234307
30
-0.83464080781990191
11
13.207494691698642
21
39.911698307752189
31
-0.83464080781990191
0
LINE
5
110
100
AcDbEntity
8
0
100
AcDbLine
10
13.207494691698642
20
39.911698307752189
30
-0.83464080781990191
11
14.058114120038143
21
38.897969548098146
31
-0.83464080781990191
0
LINE
5
111
100
AcDbEntity
8
0
100
AcDbLine
10
14.058114120038143
20
38.897969548098146
30
-0.83464080781990191
11
16.760693891596038
21
41.165703237639555
31
-0.83464080781990191
0
LINE
5
112
100
AcDbEntity
8
0
100
AcDbLine
10
16.760693891596038
20
41.165703237639555
30
-0.83464080781990191
11
17.100941471366205
21
40.760211962076973
31
-0.83464080781990191
0
LINE
5
113
100
AcDbEntity
8
0
100
AcDbLine
10
14.886466703001108
20
41.769312258437523
30
-0.83464080781990191
11
14.521545619392846
21
42.136291233681398
31
-0.83464080781990191
0
SPLINE
5
114
100
AcDbEntity
8
0
100
AcDbSpline
70
0
71
2
72
6
73
3
74
0
42
0.000000001
43
0.0000000001
44
0.0000000001
40
0
40
0
40
0
40
1
40
1
40
1
10
14.521545619392846
20
42.136291233681398
30
-0.83464080781990191
10
14.773156996112775
20
42.422216569308404
30
-0.83464080781990191
10
14.784253325882208
20
42.704006847804749
30
-0.83464080781990191
0
SPLINE
5
115
100
AcDbEntity
8
0
100
AcDbSpline
70
0
71
2
72
6
73
3
74
0
42
0.000000001
43
0.0000000001
44
0.0000000001
40
0
40
0
40
0
40
1
40
1
40
1
10
14.784253325882208
20
42.704006847804749
30
-0.83464080781990191
10
14.795350075516311
20
42.98579708956769
30
-0.83464080781990191
10
14.605933614676365
20
43.211534837270172
30
-0.83464080781990191
0
SPLINE
5
116
100
AcDbEntity
8
0
100
AcDbSpline
70
0
71
2
72
6
73
3
74
0
42
0.000000001
43
0.0000000001
44
0.0000000001
40
0
40
0
40
0
40
1
40
1
40
1
10
14.605933614676365
20
43.211534837270172
30
-0.83464080781990191
10
14.377932578189235
20
43.483255891618917
30
-0.83464080781990191
10
14.015249501525542
20
43.49949278269272
30
-0.83464080781990191
0
SPLINE
5
117
100
AcDbEntity
8
0
100
AcDbSpline
70
0
71
2
72
6
73
3
74
0
42
0.000000001
43
0.0000000001
44
0.0000000001
40
0
40
0
40
0
40
1
40
1
40
1
10
14.015249501525542
20
43.49949278269272
30
-0.83464080781990191
10
13.652567036292156
20
43.515729408734089
30
-0.83464080781990191
10
13.313960757186978
20
43.231605004822612
30
-0.83464080781990191
0
SPLINE
5
118
100
AcDbEntity
8
0
100
AcDbSpline
70
0
71
2
72
6
73
3
74
0
42
0.000000001
43
0.0000000001
44
0.0000000001
40
0
40
0
40
0
40
1
40
1
40
1
10
13.313960757186978
20
43.231605004822612
30
-0.83464080781990191
10
12.992075784270906
20
42.96151144276724
30
-0.83464080781990191
10
12.957759828070966
20
42.624619261516997
30
-0.83464080781990191
0
SPLINE
5
119
100
AcDbEntity
8
0
100
AcDbSpline
70
0
71
2
72
6
73
3
74
0
42
0.000000001
43
0.0000000001
44
0.0000000001
40
0
40
0
40
0
40
1
40
1
40
1
10
12.957759828070966
20
42.624619261516997
30
-0.83464080781990191
10
12.923443488739752
20
42.287727536864814
30
-0.83464080781990191
10
13.168983317004033
20
41.995104564405885
30
-0.83464080781990191
0
SPLINE
5
120
100
AcDbEntity
8
0
100
AcDbSpline
70
0
71
2
72
6
73
3
74
0
42
0.000000001
43
0.0000000001
44
0.0000000001
40
0
40
0
40
0
40
1
40
1
40
1
10
13.168983317004033
20
41.995104564405885
30
-0.83464080781990191
10
13.321568602460419
20
41.813260502286226
30
-0.83464080781990191
10
13.526899798775018
20
41.736226352006433
30
-0.83464080781990191
0
SPLINE
5
121
100
AcDbEntity
8
0
100
AcDbSpline
70
0
71
2
72
6
73
3
74
0
42
0.000000001
43
0.0000000001
44
0.0000000001
40
0
40
0
40
0
40
1
40
1
40
1
10
13.526899798775018
20
41.736226352006433
30
-0.83464080781990191
10
13.732230995089619
20
41.65919220172664
30
-0.83464080781990191
10
13.934065576221407
20
41.686078622234874
30
-0.83464080781990191
0
LINE
5
122
100
AcDbEntity
8
0
100
AcDbLine
10
13.934065576221407
20
41.686078622234874
30
-0.83464080781990191
11
14.184483312083131
21
41.294256575688301
31
-0.83464080781990191
0
LINE
5
123
100
AcDbEntity
8
0
100
AcDbLine
10
14.184483312083135
20
41.294256575688294
30
-0.83464080781990191
11
12.361543934054062
21
40.270407132001331
31
-0.83464080781990191
0
LINE
5
124
100
AcDbEntity
8
0
100
AcDbLine
10
12.361543934054062
20
40.270407132001331
30
-0.83464080781990191
11
11.0829843080181
21
41.794135159675605
31
-0.83464080781990191
0
LINE
5
125
100
AcDbEntity
8
0
100
AcDbLine
10
11.082984308018098
20
41.794135159675605
30
-0.83464080781990191
11
11.442492048635387
21
42.095797972232951
31
-0.83464080781990191
0
LINE
5
126
100
AcDbEntity
8
0
100
AcDbLine
10
11.442492048635389
20
42.095797972232951
30
-0.83464080781990191
11
12.468496521261848
21
40.873053455962641
31
-0.83464080781990191
0
LINE
5
127
100
AcDbEntity
8
0
100
AcDbLine
10
12.468496521261844
20
40.873053455962634
30
-0.83464080781990191
11
13.43057489515245
21
41.398949326204331
31
-0.83464080781990191
0
SPLINE
5
128
100
AcDbEntity
8
0
100
AcDbSpline
70
0
71
2
72
6
73
3
74
0
42
0.000000001
43
0.0000000001
44
0.0000000001
40
0
40
0
40
0
40
1
40
1
40
1
10
13.430574895152452
20
41.398949326204345
30
-0.83464080781990191
10
13.006771384850291
20
41.513495950313946
30
-0.83464080781990191
10
12.752462639611524
20
41.816569311080372
30
-0.83464080781990191
0
SPLINE
5
129
100
AcDbEntity
8
0
100
AcDbSpline
70
0
71
2
72
6
73
3
74
0
42
0.000000001
43
0.0000000001
44
0.0000000001
40
0
40
0
40
0
40
1
40
1
40
1
10
12.752462639611524
20
41.816569311080372
30
-0.83464080781990191
10
12.415722435065517
20
42.217880659618984
30
-0.83464080781990191
10
12.462205347420872
20
42.727044447528186
30
-0.83464080781990191
0
SPLINE
5
130
100
AcDbEntity
8
0
100
AcDbSpline
70
0
71
2
72
6
73
3
74
0
42
0.000000001
43
0.0000000001
44
0.0000000001
40
0
40
0
40
0
40
1
40
1
40
1
10
12.462205347420872
20
42.727044447528186
30
-0.83464080781990191
10
12.508688104943989
20
43.236208883601094
30
-0.83464080781990191
10
12.945531915223285
20
43.602764363688529
30
-0.83464080781990191
0
SPLINE
5
131
100
AcDbEntity
8
0
100
AcDbSpline
70
0
71
2
72
6
73
3
74
0
42
0.000000001
43
0.0000000001
44
0.0000000001
40
0
40
0
40
0
40
1
40
1
40
1
10
12.945531915223285
20
43.602764363688529
30
-0.83464080781990191
10
13.361474263990472
20
43.951781435130087
30
-0.83464080781990191
10
13.867994544321656
20
43.963631583075326
30
-0.83464080781990191
0
SPLINE
5
132
100
AcDbEntity
8
0
100
AcDbSpline
70
0
71
2
72
6
73
3
74
0
42
0.000000001
43
0.0000000001
44
0.0000000001
40
0
40
0
40
0
40
1
40
1
40
1
10
13.867994544321656
20
43.963631583075326
30
-0.83464080781990191
10
14.487337047464234
20
43.981104620578542
30
-0.83464080781990191
10
14.915277436726328
20
43.471105124259267
30
-0.83464080781990191
0
SPLINE
5
133
100
AcDbEntity
8
0
100
AcDbSpline
70
0
71
2
72
6
73
3
74
0
42
0.000000001
43
0.0000000001
44
0.0000000001
40
0
40
0
40
0
40
1
40
1
40
1
10
14.915277436726328
20
43.471105124259267
30
-0.83464080781990191
10
15.266048483128419
20
43.05307246953155
30
-0.83464080781990191
10
15.253812932036466
20
42.592235435027071
30
-0.83464080781990191
0
SPLINE
5
134
100
AcDbEntity
8
0
100
AcDbSpline
70
0
71
2
72
6
73
3
74
0
42
0.000000001
43
0.0000000001
44
0.0000000001
40
0
40
0
40
0
40
1
40
1
40
1
10
15.253812932036466
20
42.592235435027071
30
-0.83464080781990191
10
15.241577152645483
20
42.131398208956966
30
-0.83464080781990191
10
14.886466703001108
20
41.769312258437523
30
-0.83464080781990191
0
ENDSEC
0
SECTION
2
OBJECTS
0
DICTIONARY
5
C
100
AcDbDictionary
3
ACAD_GROUP
350
D
3
ACAD_MLINESTYLE
350
17
0
DICTIONARY
5
D
100
AcDbDictionary
0
DICTIONARY
5
1A
330
C
100
AcDbDictionary
0
DICTIONARY
5
17
100
AcDbDictionary
0
ENDSEC
0
EOF
