0
SECTION
2
HEADER
9
$INSUNITS
70
4
9
$ACADVER
1
AC1014
9
$HANDSEED
5
FFFF
0
ENDSEC
0
SECTION
2
TABLES
0
TABLE
2
VPORT
5
8
100
AcDbSymbolTable
0
ENDTAB
0
TABLE
2
LTYPE
5
5
100
AcDbSymbolTable
0
LTYPE
5
14
100
AcDbSymbolTableRecord
100
AcDbLinetypeTableRecord
2
BYBLOCK
70
0
0
LTYPE
5
15
100
AcDbSymbolTableRecord
100
AcDbLinetypeTableRecord
2
BYLAYER
70
0
0
ENDTAB
0
TABLE
2
LAYER
5
2
100
AcDbSymbolTable
70
2
0
LAYER
5
50
100
AcDbSymbolTableRecord
100
AcDbLayerTableRecord
2
0
70
0
6
CONTINUOUS
0
ENDTAB
0
TABLE
2
STYLE
5
3
100
AcDbSymbolTable
70
1
0
STYLE
5
11
100
AcDbSymbolTableRecord
100
AcDbTextStyleTableRecord
2
STANDARD
70
0
0
ENDTAB
0
TABLE
2
VIEW
5
6
100
AcDbSymbolTable
70
0
0
ENDTAB
0
TABLE
2
UCS
5
7
100
AcDbSymbolTable
70
0
0
ENDTAB
0
TABLE
2
APPID
5
9
100
AcDbSymbolTable
70
2
0
APPID
5
12
100
AcDbSymbolTableRecord
100
AcDbRegAppTableRecord
2
ACAD
70
0
0
ENDTAB
0
TABLE
2
DIMSTYLE
5
A
100
AcDbSymbolTable
70
1
0
ENDTAB
0
TABLE
2
BLOCK_RECORD
5
1
100
AcDbSymbolTable
70
1
0
BLOCK_RECORD
5
1F
100
AcDbSymbolTableRecord
100
AcDbBlockTableRecord
2
*MODEL_SPACE
0
BLOCK_RECORD
5
1B
100
AcDbSymbolTableRecord
100
AcDbBlockTableRecord
2
*PAPER_SPACE
0
ENDTAB
0
ENDSEC
0
SECTION
2
BLOCKS
0
BLOCK
5
20
100
AcDbEntity
100
AcDbBlockBegin
2
*MODEL_SPACE
0
ENDBLK
5
21
100
AcDbEntity
100
AcDbBlockEnd
0
BLOCK
5
1C
100
AcDbEntity
100
AcDbBlockBegin
2
*PAPER_SPACE
0
ENDBLK
5
1D
100
AcDbEntity
100
AcDbBlockEnd
0
ENDSEC
0
SECTION
2
ENTITIES
0
LWPOLYLINE
5
100
100
AcDbEntity
8
0
100
AcDbPolyline
90
15
70
1
43
0.0
10
-6.1118691394280784
20
-1.3566124986434751
10
-10.618340410858478
20
-3.5226495896860888
10
-24.621526537294869
20
25.611180227098043
10
11.281560111985678
20
24.685982165964862
10
11.152773116198041
20
19.688294791436785
10
14.001827304924578
20
19.614876607723971
10
14.130614300712239
20
24.612563982252041
10
49.320160306843007
20
23.705753376939249
10
28.046688304947924
20
-4.3400278133947054
10
24.063572224413967
20
-1.3187281803240229
10
22.341206311958139
20
-3.5894011342321752
10
26.324322392492082
20
-6.6107007673028839
10
4.6194868574722348
20
-35.225168031185518
10
-9.3836992689641789
20
-6.0913382144013886
10
-4.8772279975337867
20
-3.9253011233587829
0
LINE
5
101
100
AcDbEntity
8
0
100
AcDbLine
10
48.852699936681397
20
19.604078042957291
30
-0.50800543598745307
11
45.894372060413986
21
25.948232646749108
31
-0.50800543598745307
0
LINE
5
102
100
AcDbEntity
8
0
100
AcDbLine
10
45.894372060413986
20
25.948232646749108
30
-0.50800543598745307
11
36.831294054997102
21
21.722049966367084
31
-0.50800543598745307
0
LINE
5
103
100
AcDbEntity
8
0
100
AcDbLine
10
36.831294054997102
20
21.722049966367084
30
-0.50800543598745307
11
39.789621931264513
21
15.37789536257527
31
-0.50800543598745307
0
LINE
5
104
100
AcDbEntity
8
0
100
AcDbLine
10
39.789621931264513
20
15.37789536257527
30
-0.50800543598745307
11
48.852699936681397
21
19.604078042957291
31
-0.50800543598745307
0
LINE
5
105
100
AcDbEntity
8
0
100
AcDbLine
10
42.857896408824672
20
18.262765985071248
30
-0.50800543598745307
11
39.660472141796568
21
16.771782562985408
31
-0.50800543598745307
0
LINE
5
106
100
AcDbEntity
8
0
100
AcDbLine
10
39.660472141796575
20
16.771782562985408
30
-0.50800543598745307
11
40.217428866403168
21
15.577385012642239
31
-0.50800543598745307
0
LINE
5
107
100
AcDbEntity
8
0
100
AcDbLine
10
40.217428866403168
20
15.577385012642239
30
-0.50800543598745307
11
39.789621931264513
21
15.37789536257527
31
-0.50800543598745307
0
LINE
5
108
100
AcDbEntity
8
0
100
AcDbLine
10
39.789621931264513
20
15.37789536257527
30
-0.50800543598745307
11
38.449697182154331
21
18.251373260004087
31
-0.50800543598745307
0
LINE
5
109
100
AcDbEntity
8
0
100
AcDbLine
10
38.449697182154331
20
18.251373260004087
30
-0.50800543598745307
11
38.877504117292986
21
18.450862910071059
31
-0.50800543598745307
0
LINE
5
110
100
AcDbEntity
8
0
100
AcDbLine
10
38.877504117292986
20
18.450862910071059
30
-0.50800543598745307
11
39.43676708190273
21
17.251519612080763
31
-0.50800543598745307
0
LINE
5
111
100
AcDbEntity
8
0
100
AcDbLine
10
39.43676708190273
20
17.251519612080759
30
-0.50800543598745307
11
42.634191348930834
21
18.742503034166596
31
-0.50800543598745307
0
LINE
5
112
100
AcDbEntity
8
0
100
AcDbLine
10
42.634191348930834
20
18.742503034166596
30
-0.50800543598745307
11
42.857896408824672
21
18.262765985071244
31
-0.50800543598745307
0
LINE
5
113
100
AcDbEntity
8
0
100
AcDbLine
10
38.765358220422684
20
18.814028559433769
30
-0.50800543598745307
11
38.337551285284036
21
18.614538909366797
31
-0.50800543598745307
0
LINE
5
114
100
AcDbEntity
8
0
100
AcDbLine
10
38.337551285284036
20
18.614538909366797
30
-0.50800543598745307
11
37.243241143741578
21
20.961294581088389
31
-0.50800543598745307
0
LINE
5
115
100
AcDbEntity
8
0
100
AcDbLine
10
37.243241143741578
20
20.961294581088392
30
-0.50800543598745307
11
37.589443343990354
21
21.122731318334509
31
-0.50800543598745307
0
SPLINE
5
116
100
AcDbEntity
8
0
100
AcDbSpline
70
0
71
2
72
6
73
3
74
0
42
0.000000001
43
0.0000000001
44
0.0000000001
40
0
40
0
40
0
40
1
40
1
40
1
10
37.589443343990354
20
21.122731318334505
30
-0.50800543598745307
10
38.119337792709437
20
20.948344428316325
30
-0.50800543598745307
10
38.888691450662442
20
20.89314485612875
30
-0.50800543598745307
0
SPLINE
5
117
100
AcDbEntity
8
0
100
AcDbSpline
70
0
71
2
72
6
73
3
74
0
42
0.000000001
43
0.0000000001
44
0.0000000001
40
0
40
0
40
0
40
1
40
1
40
1
10
38.888691450662442
20
20.89314485612875
30
-0.50800543598745307
10
39.65804483851467
20
20.837945157991122
30
-0.50800543598745307
10
40.389948528551741
20
20.953444135293047
30
-0.50800543598745307
0
SPLINE
5
118
100
AcDbEntity
8
0
100
AcDbSpline
70
0
71
2
72
6
73
3
74
0
42
0.000000001
43
0.0000000001
44
0.0000000001
40
0
40
0
40
0
40
1
40
1
40
1
10
40.389948528551741
20
20.953444135293047
30
-0.50800543598745307
10
40.907225490584793
20
21.032082970686297
30
-0.50800543598745307
10
41.466081401337227
20
21.247522900697145
30
-0.50800543598745307
0
LINE
5
119
100
AcDbEntity
8
0
100
AcDbLine
10
41.466081401337227
20
21.247522900697145
30
-0.50800543598745307
11
41.679408428448127
21
20.790041614726093
31
-0.50800543598745307
0
SPLINE
5
120
100
AcDbEntity
8
0
100
AcDbSpline
70
0
71
2
72
6
73
3
74
0
42
0.000000001
43
0.0000000001
44
0.0000000001
40
0
40
0
40
0
40
1
40
1
40
1
10
41.679408428448127
20
20.7900416147261
30
-0.50800543598745307
10
41.248142149048491
20
20.597970552367222
30
-0.50800543598745307
10
40.567335545741727
20
20.476192959430488
30
-0.50800543598745307
0
SPLINE
5
121
100
AcDbEntity
8
0
100
AcDbSpline
70
0
71
2
72
6
73
3
74
0
42
0.000000001
43
0.0000000001
44
0.0000000001
40
0
40
0
40
0
40
1
40
1
40
1
10
40.567335545741727
20
20.476192959430488
30
-0.50800543598745307
10
39.886529212535734
20
20.354415492443813
30
-0.50800543598745307
10
39.183846564811432
20
20.392534947100774
30
-0.50800543598745307
0
SPLINE
5
122
100
AcDbEntity
8
0
100
AcDbSpline
70
0
71
2
72
6
73
3
74
0
42
0.000000001
43
0.0000000001
44
0.0000000001
40
0
40
0
40
0
40
1
40
1
40
1
10
39.183846564811432
20
20.392534947100774
30
-0.50800543598745307
10
38.481164168987235
20
20.430653861556202
30
-0.50800543598745307
10
37.937418594576272
20
20.589550816825493
30
-0.50800543598745307
0
LINE
5
123
100
AcDbEntity
8
0
100
AcDbLine
10
37.937418594576272
20
20.589550816825493
30
-0.50800543598745307
11
38.765358220422684
21
18.814028559433773
31
-0.50800543598745307
0
ENDSEC
0
SECTION
2
OBJECTS
0
DICTIONARY
5
C
100
AcDbDictionary
3
ACAD_GROUP
350
D
3
ACAD_MLINESTYLE
350
17
0
DICTIONARY
5
D
100
AcDbDictionary
0
DICTIONARY
5
1A
330
C
100
AcDbDictionary
0
DICTIONARY
5
17
100
AcDbDictionary
0
ENDSEC
0
EOF
